<svg width="569" height="474" viewBox="0 0 569 474" fill="none" xmlns="http://www.w3.org/2000/svg">
<path d="M140 48.7293C140 48.7293 114.131 -7.3787 66.9568 29.6287C19.783 66.6361 63.3046 112 63.3046 112L140 48.7293Z" fill="#BA6958"/>
<path d="M120 64.3617C120 64.3617 107.474 38.9654 84.6317 55.7161C61.7896 72.4668 82.8633 93 82.8633 93L120 64.3617Z" fill="#5B3236"/>
<path d="M400 41.8604C400 41.8604 426.856 3.26286 462.257 31.0723C497.658 58.8818 465.919 97 465.919 97L400 41.8604Z" fill="#BA6958"/>
<path d="M417 57.7089C417 57.7089 428.959 37.9451 448.766 49.7719C468.572 61.5988 450.354 84 450.354 84L417 57.7089Z" fill="#5B3236"/>
<path d="M346.917 473.741C346.917 473.741 547.631 464.813 567.097 364.065C574.317 326.703 561.076 273.673 525.928 255.595C487.637 235.899 472.785 238.309 433.356 244.708C412.341 248.118 384.345 252.661 342.097 255.595C281.07 259.832 236.125 254.341 199.033 249.809C162.27 245.318 133.222 241.769 103.876 249.568C12.5221 290.696 6.10883 364.279 80.2174 420.893C92.9914 430.192 107.727 438.984 125.636 448.375C219.108 478.379 346.917 473.741 346.917 473.741Z" fill="#F7B9A2"/>
<path d="M220.583 15.6011C81.9021 37.9628 -37.9039 218.031 11.2307 339.961C33.3524 377.342 51.9971 400.352 80.2174 420.893C6.10883 364.279 12.5221 290.696 103.876 249.568C133.222 241.769 162.27 245.318 199.033 249.809C236.125 254.341 281.07 259.832 342.097 255.595C384.345 252.661 412.341 248.118 433.356 244.708C472.785 238.309 487.637 235.899 525.928 255.595C524.893 250.502 522.577 239.254 521.376 233.901C493.971 109.833 448.323 53.4495 372.183 29.3722C366.303 19.9171 355.339 15.6011 346.917 15.6011C335.375 15.998 327.553 16.9822 322.012 18.4168C319.824 18.1112 317.616 17.8209 315.389 17.5451C315.88 17.1608 316.372 16.7787 316.862 16.398C323.05 11.5922 328.927 7.02759 330.072 1.29083C330.652 -1.61216 302.845 -0.569122 280.862 14.4678C278.842 14.3484 276.808 14.2374 274.759 14.1344C279.379 10.926 284.64 8.1663 285.555 2.49516C286.514 -3.45372 239.849 5.74762 220.583 15.6011Z" fill="#BA6958"/>
<ellipse cx="234.5" cy="226.5" rx="25.5" ry="33.5" fill="#5B3236"/>
<ellipse cx="217.554" cy="211.865" rx="7.98981" ry="10.7204" transform="rotate(10.503 217.554 211.865)" fill="#D9D9D9"/>
<ellipse cx="455" cy="223.5" rx="25" ry="33.5" fill="#5B3236"/>
<ellipse cx="438.287" cy="209.456" rx="7.98981" ry="10.7204" transform="rotate(10.503 438.287 209.456)" fill="#D9D9D9"/>
<path d="M243 146L277 186.5" stroke="#4A2932" stroke-width="10" stroke-linecap="round" stroke-linejoin="round"/>
<path d="M430 146L396 186.5" stroke="#4A2932" stroke-width="10" stroke-linecap="round" stroke-linejoin="round"/>
<path d="M177.929 268.001C192.679 267.895 208 279.889 208 290.589C208 301.288 192.393 312.416 177.929 311.988C163.26 311.554 147.911 302.671 149.061 288.211C150.143 274.598 164.114 268.099 177.929 268.001Z" fill="#F89A81"/>
<path d="M517.756 268.001C532.91 267.899 540 276.028 540 286.348C540 296.667 526.5 307.401 511.64 306.988C496.57 306.57 486.916 296.854 488.098 282.908C489.21 269.778 503.563 268.096 517.756 268.001Z" fill="#F89A81"/>
<path fill-rule="evenodd" clip-rule="evenodd" d="M162.323 21.0942C166.414 20.4436 170.258 23.2324 170.908 27.3231C172.867 39.6367 173.717 50.1686 172.992 59.0091C172.262 67.8978 169.894 75.6174 164.935 81.721C155.034 93.9079 137.49 96.4982 115.332 95.9992C111.191 95.9059 107.91 92.4733 108.003 88.3322C108.097 84.1912 111.529 80.9097 115.67 81.003C138.131 81.5089 148.428 78.251 153.293 72.2627C155.717 69.2786 157.463 64.8288 158.042 57.782C158.624 50.687 157.977 41.5174 156.094 29.6791C155.444 25.5884 158.233 21.7448 162.323 21.0942ZM196.879 31.1288C200.951 31.8899 203.635 35.8075 202.874 39.8792C199.406 58.4285 201.027 66.7312 204.32 71.1493C207.702 75.6889 214.516 78.5289 228.837 81.121C232.913 81.8587 235.619 85.761 234.881 89.8369C234.144 93.9128 230.241 96.6189 226.166 95.8812C212.299 93.3713 199.612 89.9352 192.292 80.1123C184.881 70.1679 184.596 56.0216 188.129 37.1231C188.89 33.0514 192.808 30.3677 196.879 31.1288ZM147.369 120.37C140.02 120.273 130.053 121.423 116.873 123.875C112.801 124.632 108.885 121.945 108.128 117.873C107.37 113.8 110.057 109.885 114.13 109.128C127.618 106.619 138.733 105.254 147.568 105.371C156.196 105.485 164.014 107.012 169.572 111.687C175.572 116.734 177.28 123.955 176.889 131.414C176.506 138.701 174.101 147.34 170.546 157.074C169.125 160.965 164.819 162.967 160.929 161.546C157.038 160.125 155.036 155.819 156.456 151.928C159.891 142.524 161.648 135.603 161.909 130.627C162.162 125.822 160.997 124.075 159.917 123.166C158.395 121.886 154.926 120.47 147.369 120.37ZM209.191 106.931C215.01 106.571 221.746 107.549 229.119 109.178C233.163 110.071 235.718 114.074 234.825 118.118C233.932 122.163 229.929 124.718 225.884 123.825C218.905 122.283 213.81 121.674 210.117 121.902C206.571 122.121 205.101 123.053 204.302 123.926C203.35 124.966 202.165 127.223 201.722 132.282C201.283 137.295 201.647 144.173 202.931 153.476C203.497 157.579 200.63 161.364 196.527 161.931C192.423 162.497 188.638 159.63 188.072 155.527C186.731 145.814 186.195 137.642 186.779 130.973C187.359 124.352 189.12 118.297 193.237 113.799C197.506 109.134 203.227 107.3 209.191 106.931Z" fill="#FD5252"/>
<path d="M353.333 361.692C333.499 358.054 341.666 310.763 341.666 310.763L372 295V354.416C372 354.416 364.822 363.799 353.333 361.692Z" fill="#F5F5F5"/>
<path d="M385.651 363C406.407 363 400.098 308.357 400.098 308.357L370 295V355.714C370 355.714 373.612 363 385.651 363Z" fill="#EBEBEB"/>
<path d="M306.5 288.5C321.582 268.822 367.966 253 367.966 253C367.966 253 420.983 272.042 437.5 294.5C447.806 308.512 442.761 317.681 441 320.5C438.263 324.882 431.11 335.081 417.5 335.5C403.577 335.928 367.966 306.5 367.966 306.5C367.966 306.5 349.758 330.969 333.5 335.5C319.294 339.459 302.499 328.831 298 320.5C296.499 313.5 297.302 300.5 306.5 288.5Z" fill="#F5F5F5"/>
<ellipse cx="370" cy="262.5" rx="35" ry="27.5" fill="#4A2932"/>
<path d="M371 267V302.5M371 302.5C364 313.5 351 335.5 321.5 335.5M371 302.5C386.5 329 406.5 336 426 333.5" stroke="#4A2932" stroke-width="8" stroke-linecap="round" stroke-linejoin="round"/>
<path d="M210.563 373.536L208.138 316.447C207.582 303.351 217.636 292.231 230.722 291.469L490.011 276.369C503.327 275.593 514.721 285.825 515.377 299.147L518.326 358.985C518.979 372.24 508.75 383.509 495.494 384.139L235.681 396.49C222.394 397.122 211.128 386.826 210.563 373.536Z" fill="#1A1A1A"/>
<path d="M275.945 372.906L282.818 306.934L294.304 306.257L287.431 372.23L275.945 372.906ZM245.899 359.052L247.169 347.452L298.983 344.401L297.713 356.001L245.899 359.052ZM252.974 374.259L259.846 308.286L271.332 307.61L264.46 373.583L252.974 374.259ZM248.294 336.116L249.564 324.516L301.378 321.464L300.108 333.065L248.294 336.116ZM346.606 376.942L341.796 295.265L347.029 294.957L351.838 376.633L346.606 376.942ZM356.033 322.28C355.683 319.953 354.629 318.19 352.873 316.991C351.136 315.77 348.725 315.251 345.641 315.432C343.599 315.553 341.913 315.919 340.583 316.531C339.254 317.142 338.276 317.936 337.65 318.912C337.023 319.867 336.735 320.941 336.783 322.133C336.798 323.114 337.041 323.964 337.51 324.683C338 325.402 338.677 326.023 339.541 326.549C340.424 327.052 341.474 327.481 342.69 327.836C343.906 328.191 345.268 328.485 346.776 328.716L352.466 329.662C355.74 330.173 358.646 330.941 361.182 331.966C363.739 332.989 365.906 334.259 367.681 335.777C369.478 337.293 370.875 339.079 371.871 341.133C372.867 343.187 373.453 345.522 373.628 348.137C373.85 352.265 373.016 355.868 371.127 358.946C369.238 362.024 366.404 364.464 362.625 366.265C358.868 368.066 354.267 369.127 348.822 369.447C343.356 369.769 338.543 369.231 334.384 367.832C330.225 366.434 326.92 364.131 324.469 360.925C322.017 357.718 320.609 353.564 320.245 348.463L335.368 347.573C335.62 349.671 336.287 351.392 337.369 352.737C338.451 354.082 339.886 355.065 341.673 355.686C343.481 356.305 345.544 356.546 347.862 356.41C349.989 356.284 351.78 355.891 353.235 355.229C354.712 354.566 355.824 353.7 356.572 352.631C357.32 351.563 357.666 350.368 357.61 349.048C357.516 347.816 357.071 346.786 356.275 345.957C355.478 345.108 354.284 344.41 352.694 343.863C351.124 343.294 349.131 342.803 346.716 342.39L339.795 341.197C334.061 340.233 329.481 338.4 326.057 335.699C322.631 332.977 320.782 329.137 320.512 324.18C320.253 320.14 321.129 316.534 323.141 313.364C325.152 310.193 328.044 307.643 331.815 305.713C335.585 303.784 339.949 302.673 344.905 302.381C349.967 302.083 354.41 302.686 358.234 304.19C362.077 305.671 365.122 307.893 367.367 310.855C369.611 313.818 370.875 317.329 371.156 321.389L356.033 322.28ZM410.694 299.404L411.896 344.827L398.784 345.599L394.646 300.349L410.694 299.404ZM406.556 366.144C404.281 366.278 402.276 365.585 400.543 364.065C398.831 362.543 397.908 360.634 397.773 358.337C397.64 356.082 398.335 354.11 399.857 352.419C401.4 350.706 403.309 349.783 405.585 349.649C407.776 349.52 409.749 350.215 411.503 351.734C413.277 353.23 414.231 355.105 414.363 357.36C414.453 358.891 414.142 360.308 413.429 361.609C412.737 362.909 411.786 363.968 410.575 364.787C409.385 365.604 408.045 366.056 406.556 366.144ZM460.811 363.013C456.217 363.283 452.202 362.698 448.766 361.257C445.352 359.815 442.67 357.764 440.72 355.104C438.769 352.422 437.694 349.38 437.493 345.977C437.346 343.467 437.705 341.226 438.57 339.254C439.456 337.26 440.723 335.403 442.372 333.684C444.041 331.942 445.999 330.215 448.246 328.504L461.449 318.922C462.944 317.852 463.978 316.756 464.553 315.634C465.148 314.51 465.414 313.406 465.35 312.321C465.281 311.151 464.761 310.115 463.79 309.211C462.841 308.307 461.484 307.917 459.72 308.042C458.592 308.109 457.628 308.4 456.826 308.917C456.024 309.434 455.412 310.1 454.99 310.914C454.59 311.727 454.419 312.634 454.478 313.634C454.554 314.931 455.005 316.239 455.83 317.556C456.654 318.873 457.739 320.261 459.084 321.719C460.451 323.175 461.965 324.782 463.626 326.542L496.997 359.89L481.109 360.825L453.241 333.94C451.654 332.369 449.981 330.6 448.222 328.633C446.463 326.666 444.947 324.493 443.676 322.114C442.403 319.713 441.682 317.066 441.511 314.173C441.32 310.919 441.912 307.928 443.288 305.2C444.664 302.473 446.689 300.251 449.363 298.535C452.057 296.797 455.254 295.819 458.955 295.601C462.528 295.391 465.656 295.943 468.337 297.258C471.018 298.573 473.132 300.401 474.679 302.743C476.226 305.086 477.084 307.703 477.254 310.596C477.435 313.659 476.846 316.521 475.487 319.184C474.127 321.825 472.123 324.216 469.474 326.357L456.608 336.752C455.243 337.856 454.191 339.018 453.451 340.235C452.711 341.431 452.38 342.71 452.461 344.071C452.543 345.475 452.945 346.679 453.666 347.682C454.408 348.684 455.413 349.447 456.682 349.97C457.95 350.493 459.414 350.705 461.073 350.607C463.286 350.477 465.467 349.826 467.618 348.653C469.767 347.46 471.7 345.852 473.417 343.83C475.132 341.786 476.465 339.413 477.415 336.711C478.365 333.987 478.746 331.04 478.56 327.871L491.13 327.131C491.361 331.045 491.16 334.706 490.529 338.116C489.896 341.504 488.828 344.576 487.325 347.333C485.843 350.067 483.941 352.377 481.619 354.264C480.878 354.735 480.157 355.183 479.457 355.608C478.756 356.033 478.035 356.481 477.295 356.952C474.891 358.908 472.245 360.365 469.356 361.325C466.489 362.284 463.64 362.846 460.811 363.013Z" fill="white"/>
</svg>
