<svg width="569" height="589" viewBox="0 0 569 589" fill="none" xmlns="http://www.w3.org/2000/svg">
<path d="M143 163.729C143 163.729 117.131 107.621 69.9568 144.629C22.783 181.636 66.3046 227 66.3046 227L143 163.729Z" fill="#BA6958"/>
<path d="M120 179.362C120 179.362 107.474 153.965 84.6317 170.716C61.7896 187.467 82.8633 208 82.8633 208L120 179.362Z" fill="#5B3236"/>
<path d="M400 156.86C400 156.86 426.856 118.263 462.257 146.072C497.658 173.882 465.919 212 465.919 212L400 156.86Z" fill="#BA6958"/>
<path d="M417 172.709C417 172.709 428.959 152.945 448.766 164.772C468.572 176.599 450.354 199 450.354 199L417 172.709Z" fill="#5B3236"/>
<path d="M346.917 588.741C346.917 588.741 547.631 579.813 567.097 479.065C574.317 441.703 561.076 388.673 525.928 370.595C487.637 350.899 472.785 353.309 433.356 359.708C412.341 363.118 384.345 367.661 342.097 370.595C281.07 374.832 236.125 369.341 199.033 364.809C162.27 360.318 133.222 356.769 103.876 364.568C12.5221 405.696 6.10883 479.279 80.2174 535.893C92.9914 545.192 107.727 553.984 125.636 563.375C219.108 593.379 346.917 588.741 346.917 588.741Z" fill="#F7B9A2"/>
<path d="M220.583 130.601C81.9021 152.963 -37.9039 333.031 11.2307 454.961C33.3524 492.342 51.9971 515.352 80.2174 535.893C6.10883 479.279 12.5221 405.696 103.876 364.568C133.222 356.769 162.27 360.318 199.033 364.809C236.125 369.341 281.07 374.832 342.097 370.595C384.345 367.661 412.341 363.118 433.356 359.708C472.785 353.309 487.637 350.899 525.928 370.595C524.893 365.502 522.577 354.254 521.376 348.901C493.971 224.833 448.323 168.449 372.183 144.372C366.303 134.917 355.339 130.601 346.917 130.601C335.375 130.998 327.553 131.982 322.012 133.417C319.824 133.111 317.616 132.821 315.389 132.545C315.88 132.161 316.372 131.779 316.862 131.398C323.05 126.592 328.927 122.028 330.072 116.291C330.652 113.388 302.845 114.431 280.862 129.468C278.842 129.348 276.808 129.237 274.759 129.134C279.379 125.926 284.64 123.166 285.555 117.495C286.514 111.546 239.849 120.748 220.583 130.601Z" fill="#BA6958"/>
<path d="M352.333 502.692C332.499 499.054 340.666 451.763 340.666 451.763L371 436V495.416C371 495.416 363.822 504.799 352.333 502.692Z" fill="#F5F5F5"/>
<path d="M384.651 504C405.407 504 399.098 449.357 399.098 449.357L369 436V496.714C369 496.714 372.612 504 384.651 504Z" fill="#EBEBEB"/>
<path d="M295.698 420.988C300.53 396.67 366.966 376 366.966 376C366.966 376 428.571 401.534 432.195 420.988C436.318 443.126 424.362 462.856 401.996 463.544C388.073 463.973 371.798 450.169 371.798 450.169C371.798 450.169 350.005 466.713 333.144 465.976C307.738 464.866 291.349 442.874 295.698 420.988Z" fill="#F5F5F5"/>
<path fill-rule="evenodd" clip-rule="evenodd" d="M371.864 397C373.844 397 375.449 398.621 375.449 400.621V445.23C375.918 445.675 376.62 446.266 377.541 446.964C379.447 448.409 382.106 450.166 385.145 451.829C391.408 455.257 398.497 457.851 403.799 457.36C419.708 455.885 426.831 442.797 426.831 430.793C426.831 428.793 428.435 427.172 430.415 427.172C432.395 427.172 434 428.793 434 430.793C434 445.34 425.128 462.654 404.455 464.571C396.914 465.27 388.215 461.745 381.73 458.196C378.395 456.371 375.439 454.424 373.238 452.757C372.684 452.337 372.166 451.925 371.693 451.529C371.21 451.886 370.679 452.262 370.108 452.652C367.586 454.376 364.078 456.513 360.051 458.603C352.131 462.713 341.602 466.955 332.45 466.999C318.268 467.069 308.29 461.112 301.932 453.184C295.68 445.387 293 435.785 293 428.379C293 426.379 294.605 424.758 296.585 424.758C298.565 424.758 300.169 426.379 300.169 428.379C300.169 434.249 302.359 442.211 307.504 448.626C312.544 454.911 320.489 459.816 332.415 459.758C339.801 459.722 349.071 456.159 356.775 452.162C360.559 450.199 363.818 448.208 366.09 446.655C367.027 446.015 367.761 445.473 368.28 445.057V400.621C368.28 398.621 369.885 397 371.864 397ZM374.981 444.745C374.937 444.69 374.946 444.693 374.983 444.747C374.982 444.747 374.982 444.746 374.981 444.745Z" fill="#4A2932"/>
<path fill-rule="evenodd" clip-rule="evenodd" d="M371.864 397C373.844 397 375.449 398.621 375.449 400.621V445.23C375.918 445.675 376.62 446.266 377.541 446.964C379.447 448.409 382.106 450.166 385.145 451.829C391.408 455.257 398.497 457.851 403.799 457.36C419.708 455.885 426.831 442.797 426.831 430.793C426.831 428.793 428.435 427.172 430.415 427.172C432.395 427.172 434 428.793 434 430.793C434 445.34 425.128 462.654 404.455 464.571C396.914 465.27 388.215 461.745 381.73 458.196C378.395 456.371 375.439 454.424 373.238 452.757C372.684 452.337 372.166 451.925 371.693 451.529C371.21 451.886 370.679 452.262 370.108 452.652C367.586 454.376 364.078 456.513 360.051 458.603C352.131 462.713 341.602 466.955 332.45 466.999C318.268 467.069 308.29 461.112 301.932 453.184C295.68 445.387 293 435.785 293 428.379C293 426.379 294.605 424.758 296.585 424.758C298.565 424.758 300.169 426.379 300.169 428.379C300.169 434.249 302.359 442.211 307.504 448.626C312.544 454.911 320.489 459.816 332.415 459.758C339.801 459.722 349.071 456.159 356.775 452.162C360.559 450.199 363.818 448.208 366.09 446.655C367.027 446.015 367.761 445.473 368.28 445.057V400.621C368.28 398.621 369.885 397 371.864 397ZM374.981 444.745C374.937 444.69 374.946 444.693 374.983 444.747C374.982 444.747 374.982 444.746 374.981 444.745Z" fill="#4A2932"/>
<ellipse cx="369" cy="385.5" rx="35" ry="27.5" fill="#4A2932"/>
<path fill-rule="evenodd" clip-rule="evenodd" d="M236.314 251.529C233.561 251.799 230.821 252.673 227.359 254.421C225.029 255.598 222.035 254.923 220.671 252.912C219.307 250.902 220.089 248.318 222.419 247.141C226.61 245.024 230.671 243.591 235.212 243.147C239.734 242.704 244.326 243.281 249.522 244.633C252.107 245.306 253.57 247.66 252.79 249.89C252.011 252.12 249.283 253.383 246.698 252.71C242.277 251.56 239.084 251.258 236.314 251.529Z" fill="#4A2932"/>
<path fill-rule="evenodd" clip-rule="evenodd" d="M446.456 249.669C443.782 249.5 440.995 249.94 437.344 251.146C434.887 251.958 432.174 250.798 431.284 248.557C430.394 246.315 431.665 243.839 434.122 243.028C438.542 241.568 442.699 240.776 447.112 241.056C451.507 241.334 455.761 242.65 460.432 244.843C462.756 245.934 463.67 248.537 462.475 250.657C461.279 252.777 458.425 253.612 456.102 252.521C452.127 250.654 449.149 249.84 446.456 249.669Z" fill="#4A2932"/>
<path d="M177.929 383.001C192.679 382.895 208 394.889 208 405.589C208 416.288 192.393 427.416 177.929 426.988C163.26 426.554 147.911 417.671 149.061 403.211C150.143 389.598 164.114 383.099 177.929 383.001Z" fill="#F89A81"/>
<path d="M517.756 383.001C532.91 382.899 540 391.028 540 401.348C540 411.667 526.5 422.401 511.64 421.988C496.57 421.57 486.916 411.854 488.098 397.908C489.21 384.778 503.563 383.096 517.756 383.001Z" fill="#F89A81"/>
<path d="M239.779 308.635C224.567 311.238 216.289 313.52 210.259 321.194C206.2 327.621 215.49 330.606 222.694 328.183C228.45 326.246 234.598 325.361 243.574 325.075C256.943 325.961 265.156 327.478 274.745 330.646C278.589 331.916 283.019 329.025 283.473 325.002C283.684 323.13 283.016 320.506 281.446 319.466C271.3 312.751 263.424 309.514 247.41 308.256C244.864 308.056 242.296 308.204 239.779 308.635Z" fill="#4A2932"/>
<path d="M424.779 308.635C409.567 311.238 401.289 313.52 395.259 321.194C391.2 327.621 400.49 330.606 407.694 328.183C413.45 326.246 419.598 325.361 428.574 325.075C441.943 325.961 450.156 327.478 459.745 330.646C463.589 331.916 468.019 329.025 468.473 325.002C468.684 323.13 468.016 320.506 466.446 319.466C456.3 312.751 448.424 309.514 432.41 308.256C429.864 308.056 427.296 308.204 424.779 308.635Z" fill="#4A2932"/>
<path fill-rule="evenodd" clip-rule="evenodd" d="M276 92C375.411 92 456 71.4051 456 46C456 20.5949 375.411 0 276 0C176.589 0 96 20.5949 96 46C96 71.4051 176.589 92 276 92ZM277.978 70.7692C361.003 70.7692 428.308 57.3033 428.308 40.6923C428.308 24.0813 361.003 10.6154 277.978 10.6154C194.953 10.6154 127.648 24.0813 127.648 40.6923C127.648 57.3033 194.953 70.7692 277.978 70.7692Z" fill="url(#paint0_linear_1549_14)"/>
<defs>
<linearGradient id="paint0_linear_1549_14" x1="291.824" y1="123.846" x2="291.824" y2="-10.6154" gradientUnits="userSpaceOnUse">
<stop offset="0.367531" stop-color="#62B3FB"/>
<stop offset="1" stop-color="#003F89"/>
</linearGradient>
</defs>
</svg>
