<svg width="704" height="693" viewBox="0 0 704 693" fill="none" xmlns="http://www.w3.org/2000/svg">
<path d="M183 267.729C183 267.729 157.131 211.621 109.957 248.629C62.783 285.636 106.305 331 106.305 331L183 267.729Z" fill="#BA6958"/>
<path d="M163 283.362C163 283.362 150.474 257.965 127.632 274.716C104.79 291.467 125.863 312 125.863 312L163 283.362Z" fill="#5B3236"/>
<path d="M439 260.86C439 260.86 465.856 222.263 501.257 250.072C536.658 277.882 504.919 316 504.919 316L439 260.86Z" fill="#BA6958"/>
<path d="M456 276.709C456 276.709 467.959 256.945 487.766 268.772C507.572 280.599 489.354 303 489.354 303L456 276.709Z" fill="#5B3236"/>
<path d="M385.917 692.741C385.917 692.741 586.631 683.813 606.097 583.065C613.317 545.703 600.076 492.673 564.928 474.595C526.637 454.899 511.785 457.309 472.356 463.708C472.35 463.709 472.343 463.71 472.337 463.711C469.716 464.136 466.986 464.579 464.134 465.034C444.119 468.229 418.064 472.028 381.097 474.595C320.07 478.832 275.125 473.341 238.033 468.809C201.27 464.318 172.222 460.769 142.876 468.568C51.5221 509.696 45.1088 583.279 119.217 639.893C131.991 649.192 146.727 657.984 164.636 667.375C258.108 697.379 385.917 692.741 385.917 692.741Z" fill="#F7B9A2"/>
<path d="M472.356 463.708C511.785 457.309 526.637 454.899 564.928 474.595C563.893 469.502 561.577 458.254 560.376 452.901C532.971 328.833 487.323 272.449 411.183 248.372C405.303 238.917 394.339 234.601 385.917 234.601C374.375 234.998 366.553 235.982 361.012 237.417C358.824 237.111 356.616 236.821 354.389 236.545C354.88 236.161 355.372 235.779 355.862 235.398C362.05 230.592 367.927 226.028 369.072 220.291C369.652 217.388 341.845 218.431 319.862 233.468C317.842 233.348 315.808 233.237 313.759 233.134C318.379 229.926 323.64 227.166 324.555 221.495C325.514 215.546 278.849 224.748 259.583 234.601C120.902 256.963 1.09615 437.031 50.2307 558.961C72.3524 596.342 90.9971 619.352 119.217 639.893C45.1088 583.279 51.5221 509.696 142.876 468.568C172.222 460.769 201.27 464.318 238.033 468.809C275.125 473.341 320.07 478.832 381.097 474.595C418.064 472.028 444.119 468.229 464.134 465.034C466.986 464.579 469.716 464.136 472.337 463.711L472.356 463.708Z" fill="url(#paint0_linear_164_169)"/>
<path d="M216.929 487.001C231.679 486.895 247 498.889 247 509.589C247 520.288 231.393 531.416 216.929 530.988C202.26 530.554 186.911 521.671 188.061 507.211C189.143 493.598 203.114 487.099 216.929 487.001Z" fill="#F89A81"/>
<path d="M556.756 487.001C571.91 486.899 579 495.028 579 505.348C579 515.667 565.5 526.401 550.64 525.988C535.57 525.57 525.916 515.854 527.098 501.908C528.21 488.778 542.563 487.096 556.756 487.001Z" fill="#F89A81"/>
<path d="M323.833 426.163C301.723 404.216 285.43 397.018 253.685 388.877L272.328 407.52L290.971 426.163C287.005 436.79 275.082 446.556 253.968 463.849L253.685 464.081C293.177 449.064 314.904 440.652 323.833 426.163Z" fill="#4A2932"/>
<path d="M316.25 347.167C318.412 338.004 317.71 335.73 316.25 332C308.254 341.461 302.347 347.167 285.284 352.855C268.22 358.543 267.112 360.293 253.685 362.334C253.685 362.334 249.893 365.494 253.685 368.022C257.477 370.55 270.116 371.182 270.116 371.182C286.304 369.765 292.133 367.608 299.187 362.334C307.762 357.597 311.416 354.209 316.25 347.167Z" fill="#4A2932"/>
<path d="M432 426.163C454.11 404.216 470.403 397.018 502.148 388.877L483.505 407.52L464.862 426.163C468.828 436.79 480.751 446.556 501.865 463.849L502.148 464.081C462.656 449.064 440.929 440.652 432 426.163Z" fill="#4A2932"/>
<path d="M439.583 347.167C437.421 338.004 438.123 335.73 439.583 332C447.579 341.461 453.486 347.167 470.549 352.855C487.613 358.543 488.721 360.293 502.148 362.334C502.148 362.334 505.94 365.494 502.148 368.022C498.356 370.55 485.717 371.182 485.717 371.182C469.529 369.765 463.7 367.608 456.646 362.334C448.071 357.597 444.417 354.209 439.583 347.167Z" fill="#4A2932"/>
<path d="M382.303 456.5C382.303 456.5 382.127 456.662 381.791 456.967C375.399 464.964 446.119 503.019 465.5 509C498.41 519.157 509.779 559.52 491.214 567.5C488.477 571.882 448.838 553.081 435.228 553.5C421.304 553.928 385.694 524.5 385.694 524.5C385.694 524.5 367.486 548.969 351.228 553.5C337.022 557.459 284 582.331 279.5 574C271.591 569.802 279.075 516.5 308 509C330.581 503.145 376.447 461.832 381.791 456.967C381.927 456.798 382.097 456.642 382.303 456.5Z" fill="#F5F5F5"/>
<path d="M274.009 576.784C268.399 562.69 275.161 540.227 286.568 525.108C290.532 519.855 296.772 516.927 303.339 516.5C329.921 514.773 349.687 525.108 389.327 525.108C433.784 525.108 473.647 514.456 488.448 525.108C503.249 535.761 505.895 554.945 503.249 569.956C501.327 580.858 489.927 586.393 479.113 584.03C449.203 577.492 429.202 559.39 381.629 561.261C366.513 560.361 342.214 574.768 293.974 584.096C286.11 585.617 276.97 584.226 274.009 576.784Z" fill="#F89A81"/>
<path d="M403.378 581C424.134 581 417.825 526.357 417.825 526.357L387.727 513V573.714C387.727 573.714 391.339 581 403.378 581Z" fill="#EBEBEB"/>
<path d="M371.059 579.692C351.225 576.054 359.392 528.763 359.392 528.763L389.727 513V572.416C389.727 572.416 382.549 581.799 371.059 579.692Z" fill="#F5F5F5"/>
<path d="M422 473.5C422 488.688 406.33 501 387 501C367.67 501 352 488.688 352 473.5C352 458.312 367.67 446 387 446C406.33 446 422 458.312 422 473.5Z" fill="#4A2932"/>
<path fill-rule="evenodd" clip-rule="evenodd" d="M376.375 513.595C378.932 512.08 380.5 509.329 380.5 506.357V457C380.5 454.239 382.738 452 385.5 452C388.261 452 390.5 454.239 390.5 457V500.171C390.5 506.837 394.173 512.959 400.055 516.096C409.997 521.399 421.795 521.96 432.196 517.626C440.504 514.165 449.622 513.131 458.493 514.643L482.01 518.651C487.283 519.55 494.071 525.499 490.47 529.454C488.901 531.178 487.478 529.727 485.18 529.336L456.813 524.501C449.806 523.306 442.604 524.123 436.043 526.857C422.873 532.344 407.937 531.633 395.349 524.919L389.891 522.009C387.245 520.597 384.053 520.669 381.473 522.198C367.255 530.624 350.035 532.32 334.446 526.831C326.709 524.107 318.383 523.508 310.336 525.096L291.415 528.83C287.978 529.509 283.366 528.787 282.761 525.336C282.149 521.847 286.072 519.692 289.548 519.006L308.399 515.285C318.201 513.351 328.343 514.08 337.767 517.399C350.565 521.905 364.702 520.512 376.375 513.595Z" fill="#4A2932"/>
<path fill-rule="evenodd" clip-rule="evenodd" d="M592.218 99.3665C592.304 96.8827 594.388 94.9391 596.871 95.0254L679.791 97.9049L681.086 106.662L597.184 135.25L648.556 138.791L649.618 147.566C631.889 153.24 605.624 161.878 584.435 169.351C577.529 171.787 571.195 174.087 565.885 176.115C569.551 176.021 573.594 175.872 577.831 175.682C592.593 175.022 609.517 173.89 620.594 173.048L623.244 181.398L526.051 239.479C523.917 240.754 521.154 240.058 519.88 237.925C518.605 235.791 519.301 233.029 521.434 231.754L602.461 183.333C594.579 183.837 586.107 184.321 578.233 184.673C570.796 185.006 563.844 185.222 558.408 185.222C555.697 185.221 553.301 185.167 551.383 185.039C550.427 184.974 549.532 184.888 548.747 184.768C548.036 184.66 547.123 184.484 546.289 184.137C545.533 183.821 543.635 182.774 543.306 180.325C543.028 178.251 544.167 176.831 544.494 176.445C545.301 175.49 546.449 174.793 547.191 174.368C548.955 173.355 551.636 172.139 554.846 170.807C561.352 168.106 570.805 164.615 581.442 160.863C595.008 156.078 610.625 150.826 624.768 146.173L574.259 142.691L573.117 133.942L654.98 106.049L596.559 104.02C594.075 103.934 592.132 101.85 592.218 99.3665Z" fill="#FFD274"/>
<path fill-rule="evenodd" clip-rule="evenodd" d="M112.065 67.3665C111.979 64.8827 109.896 62.9391 107.412 63.0254L24.492 65.9049L23.1968 74.6617L107.099 103.25L55.7269 106.791L54.6647 115.566C72.3939 121.24 98.6596 129.878 119.848 137.351C126.754 139.787 133.088 142.087 138.398 144.115C134.732 144.021 130.69 143.872 126.452 143.682C111.69 143.022 94.7663 141.89 83.6889 141.048L81.0393 149.398L178.232 207.479C180.366 208.754 183.129 208.058 184.404 205.925C185.679 203.791 184.983 201.029 182.849 199.754L101.823 151.333C109.705 151.837 118.176 152.321 126.05 152.673C133.487 153.006 140.439 153.222 145.875 153.222C148.586 153.221 150.982 153.167 152.9 153.039C153.857 152.974 154.751 152.888 155.537 152.768C156.247 152.66 157.16 152.484 157.994 152.137C158.75 151.821 160.648 150.774 160.977 148.325C161.256 146.251 160.117 144.831 159.79 144.445C158.982 143.49 157.834 142.793 157.093 142.368C155.328 141.355 152.647 140.139 149.438 138.807C142.931 136.106 133.478 132.615 122.842 128.863C109.275 124.078 93.6585 118.826 79.5153 114.173L130.024 110.691L131.166 101.942L49.3029 74.0487L107.724 72.02C110.208 71.9337 112.152 69.8503 112.065 67.3665Z" fill="#FFD274"/>
<path fill-rule="evenodd" clip-rule="evenodd" d="M440.462 55.2114C439.7 52.8457 441.001 50.3105 443.366 49.5488L522.343 24.1204L526.533 31.9182L457.31 87.2804L506.836 73.1796L510.812 81.0737C496.06 92.4271 474.284 109.465 456.889 123.684C451.219 128.319 446.041 132.633 441.735 136.341C445.151 135.01 448.903 133.497 452.824 131.881C466.487 126.251 482.022 119.443 492.157 114.892L497.483 121.847L425.765 209.463C424.191 211.387 421.355 211.669 419.432 210.095C417.509 208.521 417.226 205.686 418.8 203.763L478.589 130.72C471.346 133.869 463.541 137.199 456.254 140.202C449.371 143.038 442.905 145.601 437.792 147.445C435.241 148.365 432.968 149.127 431.121 149.657C430.199 149.921 429.328 150.143 428.549 150.297C427.844 150.437 426.926 150.581 426.023 150.537C425.205 150.497 423.064 150.155 421.924 147.964C420.958 146.107 421.548 144.385 421.724 143.911C422.16 142.739 423.003 141.693 423.556 141.042C424.873 139.491 426.982 137.437 429.549 135.094C434.752 130.346 442.46 123.854 451.193 116.716C462.331 107.611 475.238 97.3713 486.963 88.1952L438.27 102.059L434.227 94.2166L501.768 40.2001L446.125 58.1157C443.759 58.8774 441.224 57.5771 440.462 55.2114Z" fill="#FFD274"/>
<path fill-rule="evenodd" clip-rule="evenodd" d="M284.057 59.6497C285.163 57.4241 284.255 54.7233 282.03 53.6172L207.729 16.6918L202.423 23.7773L262.613 88.8465L215.745 67.5155L210.635 74.728C223.528 88.155 242.52 108.25 257.599 124.906C262.514 130.335 266.99 135.372 270.696 139.682C267.516 137.856 264.032 135.8 260.395 133.617C247.725 126.012 233.379 116.963 224.037 110.951L217.734 117.034L275.579 214.368C276.848 216.505 279.61 217.207 281.746 215.938C283.882 214.668 284.585 211.907 283.315 209.77L235.092 128.626C241.785 132.82 249.005 137.277 255.763 141.334C262.145 145.165 268.157 148.664 272.938 151.25C275.323 152.54 277.456 153.632 279.204 154.432C280.076 154.83 280.904 155.18 281.652 155.449C282.328 155.692 283.215 155.971 284.114 156.062C284.929 156.145 287.096 156.127 288.551 154.13C289.783 152.438 289.457 150.647 289.353 150.152C289.097 148.928 288.419 147.768 287.969 147.041C286.899 145.312 285.12 142.966 282.931 140.267C278.494 134.795 271.841 127.227 264.271 118.866C254.616 108.201 243.38 96.1501 233.155 85.3275L279.235 106.3L284.403 99.1485L225.676 35.6609L278.024 61.6768C280.25 62.7828 282.951 61.8753 284.057 59.6497Z" fill="#FFD274"/>
<defs>
<linearGradient id="paint0_linear_164_169" x1="323.5" y1="219" x2="323.5" y2="693" gradientUnits="userSpaceOnUse">
<stop stop-color="#BA6958"/>
</linearGradient>
</defs>
</svg>
