<svg width="569" height="474" viewBox="0 0 569 474" fill="none" xmlns="http://www.w3.org/2000/svg">
<path d="M145 48.7293C145 48.7293 119.131 -7.3787 71.9568 29.6287C24.783 66.6361 68.3046 112 68.3046 112L145 48.7293Z" fill="#BA6958"/>
<path d="M125 64.3617C125 64.3617 112.474 38.9654 89.6317 55.7161C66.7896 72.4668 87.8633 93 87.8633 93L125 64.3617Z" fill="#5B3236"/>
<path d="M400 41.8604C400 41.8604 426.856 3.26286 462.257 31.0723C497.658 58.8818 465.919 97 465.919 97L400 41.8604Z" fill="#BA6958"/>
<path d="M417 57.7089C417 57.7089 428.959 37.9451 448.766 49.7719C468.572 61.5988 450.354 84 450.354 84L417 57.7089Z" fill="#5B3236"/>
<path d="M346.917 473.741C346.917 473.741 547.631 464.813 567.097 364.065C574.317 326.703 561.076 273.673 525.928 255.595C487.637 235.899 472.785 238.309 433.356 244.708C412.341 248.118 384.345 252.661 342.097 255.595C281.07 259.832 236.125 254.341 199.033 249.809C162.27 245.318 133.222 241.769 103.876 249.568C12.5221 290.696 6.10883 364.279 80.2174 420.893C92.9914 430.192 107.727 438.984 125.636 448.375C219.108 478.379 346.917 473.741 346.917 473.741Z" fill="#F7B9A2"/>
<path d="M220.583 15.6011C81.9021 37.9628 -37.9039 218.031 11.2307 339.961C33.3524 377.342 51.9971 400.352 80.2174 420.893C6.10883 364.279 12.5221 290.696 103.876 249.568C133.222 241.769 162.27 245.318 199.033 249.809C236.125 254.341 281.07 259.832 342.097 255.595C384.345 252.661 412.341 248.118 433.356 244.708C472.785 238.309 487.637 235.899 525.928 255.595C524.893 250.502 522.577 239.254 521.376 233.901C493.971 109.833 448.323 53.4495 372.183 29.3722C366.303 19.9171 355.339 15.6011 346.917 15.6011C335.375 15.998 327.553 16.9822 322.012 18.4168C319.824 18.1112 317.616 17.8209 315.389 17.5451C315.88 17.1608 316.372 16.7787 316.862 16.398C323.05 11.5922 328.927 7.02759 330.072 1.29083C330.652 -1.61216 302.845 -0.569122 280.862 14.4678C278.842 14.3484 276.808 14.2374 274.759 14.1344C279.379 10.926 284.64 8.1663 285.555 2.49516C286.514 -3.45372 239.849 5.74762 220.583 15.6011Z" fill="#BA6958"/>
<path d="M295.698 305.988C300.53 281.67 366.966 261 366.966 261C366.966 261 428.571 286.534 432.195 305.988C436.318 328.126 430.865 337.812 408.5 338.5C394.577 338.928 371.798 335.169 371.798 335.169C371.798 335.169 331 341.5 321.5 345.5C298.063 355.368 291.35 327.874 295.698 305.988Z" fill="#F5F5F5"/>
<ellipse cx="234.5" cy="226.5" rx="25.5" ry="33.5" fill="#5B3236"/>
<ellipse cx="217.554" cy="211.865" rx="7.98981" ry="10.7204" transform="rotate(10.503 217.554 211.865)" fill="#D9D9D9"/>
<ellipse cx="455" cy="223.5" rx="25" ry="33.5" fill="#5B3236"/>
<ellipse cx="438.287" cy="209.456" rx="7.98981" ry="10.7204" transform="rotate(10.503 438.287 209.456)" fill="#D9D9D9"/>
<path d="M351.333 383.692C331.499 380.054 339.666 332.763 339.666 332.763L370 317V376.416C370 376.416 362.822 385.799 351.333 383.692Z" fill="#F5F5F5"/>
<path d="M383.651 385C404.407 385 398.098 330.357 398.098 330.357L368 317V377.714C368 377.714 371.612 385 383.651 385Z" fill="#EBEBEB"/>
<path d="M372 286V333M372 333C336.166 337.46 323.287 340.96 307.5 348.5M372 333C399.735 339.399 412.221 340.709 425 336" stroke="#4A2932" stroke-width="6" stroke-linecap="round" stroke-linejoin="round"/>
<ellipse cx="369" cy="270.5" rx="35" ry="27.5" fill="#4A2932"/>
<path fill-rule="evenodd" clip-rule="evenodd" d="M226.689 160.874C221.799 161.995 216.693 162.339 209.993 161.951C205.483 161.689 200.54 164.144 198.952 167.433C197.365 170.722 199.734 173.6 204.244 173.861C212.356 174.331 219.975 173.997 228.043 172.148C236.079 170.307 243.837 167.128 252.343 162.64C256.575 160.407 258.201 156.628 255.975 154.199C253.75 151.77 248.515 151.611 244.283 153.844C237.045 157.664 231.612 159.746 226.689 160.874Z" fill="#4A2932"/>
<path fill-rule="evenodd" clip-rule="evenodd" d="M452.219 156.669C448.374 156.5 444.368 156.94 439.12 158.146C435.587 158.958 431.687 157.798 430.408 155.557C429.129 153.315 430.956 150.839 434.489 150.028C440.842 148.568 446.818 147.776 453.161 148.056C459.479 148.334 465.594 149.65 472.309 151.843C475.649 152.934 476.964 155.537 475.245 157.657C473.526 159.777 469.424 160.612 466.084 159.521C460.369 157.654 456.089 156.84 452.219 156.669Z" fill="#4A2932"/>
<path d="M177.929 268.001C192.679 267.895 208 279.889 208 290.589C208 301.288 192.393 312.416 177.929 311.988C163.26 311.554 147.911 302.671 149.061 288.211C150.143 274.598 164.114 268.099 177.929 268.001Z" fill="#F89A81"/>
<path d="M517.756 268.001C532.91 267.899 540 276.028 540 286.348C540 296.667 526.5 307.401 511.64 306.988C496.57 306.57 486.916 296.854 488.098 282.908C489.21 269.778 503.563 268.096 517.756 268.001Z" fill="#F89A81"/>
</svg>
