<svg width="623" height="518" viewBox="0 0 623 518" fill="none" xmlns="http://www.w3.org/2000/svg">
<path d="M145 92.7293C145 92.7293 119.131 36.6213 71.9568 73.6287C24.783 110.636 68.3046 156 68.3046 156L145 92.7293Z" fill="#BA6958"/>
<path d="M125 108.362C125 108.362 112.474 82.9654 89.6317 99.7161C66.7896 116.467 87.8633 137 87.8633 137L125 108.362Z" fill="#5B3236"/>
<path d="M400 85.8604C400 85.8604 426.856 47.2629 462.257 75.0723C497.658 102.882 465.919 141 465.919 141L400 85.8604Z" fill="#BA6958"/>
<path d="M417 101.709C417 101.709 428.959 81.9451 448.766 93.7719C468.572 105.599 450.354 128 450.354 128L417 101.709Z" fill="#5B3236"/>
<path d="M346.917 517.741C346.917 517.741 547.631 508.813 567.097 408.065C574.317 370.703 561.076 317.673 525.928 299.595C487.637 279.899 472.785 282.309 433.356 288.708C412.341 292.118 384.345 296.661 342.097 299.595C281.07 303.832 236.125 298.341 199.033 293.809C162.27 289.318 133.222 285.769 103.876 293.568C12.5221 334.696 6.10883 408.279 80.2174 464.893C92.9914 474.192 107.727 482.984 125.636 492.375C219.108 522.379 346.917 517.741 346.917 517.741Z" fill="#F7B9A2"/>
<path d="M220.583 59.6011C81.9021 81.9628 -37.9039 262.031 11.2307 383.961C33.3524 421.342 51.9971 444.352 80.2174 464.893C6.10883 408.279 12.5221 334.696 103.876 293.568C133.222 285.769 162.27 289.318 199.033 293.809C236.125 298.341 281.07 303.832 342.097 299.595C384.345 296.661 412.341 292.118 433.356 288.708C472.785 282.309 487.637 279.899 525.928 299.595C524.893 294.502 522.577 283.254 521.376 277.901C493.971 153.833 448.323 97.4495 372.183 73.3722C366.303 63.9171 355.339 59.6011 346.917 59.6011C335.375 59.998 327.553 60.9822 322.012 62.4168C319.824 62.1112 317.616 61.8209 315.389 61.5451C315.88 61.1608 316.372 60.7787 316.862 60.398C323.05 55.5922 328.927 51.0276 330.072 45.2908C330.652 42.3878 302.845 43.4309 280.862 58.4678C278.842 58.3484 276.808 58.2374 274.759 58.1344C279.379 54.926 284.64 52.1663 285.555 46.4952C286.514 40.5463 239.849 49.7476 220.583 59.6011Z" fill="#BA6958"/>
<path d="M295.698 349.988C300.53 325.67 366.966 305 366.966 305C366.966 305 428.571 330.534 432.195 349.988C436.318 372.126 430.865 381.812 408.5 382.5C394.577 382.928 371.798 379.169 371.798 379.169C371.798 379.169 331 385.5 321.5 389.5C298.063 399.368 291.35 371.874 295.698 349.988Z" fill="#F5F5F5"/>
<ellipse cx="234.5" cy="270.5" rx="25.5" ry="33.5" fill="#5B3236"/>
<ellipse cx="217.555" cy="255.865" rx="7.98981" ry="10.7204" transform="rotate(10.503 217.555 255.865)" fill="#D9D9D9"/>
<ellipse cx="455" cy="267.5" rx="25" ry="33.5" fill="#5B3236"/>
<ellipse cx="438.286" cy="253.456" rx="7.98981" ry="10.7204" transform="rotate(10.503 438.286 253.456)" fill="#D9D9D9"/>
<path d="M351.333 427.692C331.499 424.054 339.666 376.763 339.666 376.763L370 361V420.416C370 420.416 362.822 429.799 351.333 427.692Z" fill="#F5F5F5"/>
<path d="M383.651 429C404.407 429 398.098 374.357 398.098 374.357L368 361V421.714C368 421.714 371.612 429 383.651 429Z" fill="#EBEBEB"/>
<path d="M372 330V377M372 377C336.166 381.46 323.287 384.96 307.5 392.5M372 377C399.735 383.399 412.221 384.709 425 380" stroke="#4A2932" stroke-width="6" stroke-linecap="round" stroke-linejoin="round"/>
<ellipse cx="369" cy="314.5" rx="35" ry="27.5" fill="#4A2932"/>
<path fill-rule="evenodd" clip-rule="evenodd" d="M226.689 204.874C221.799 205.995 216.693 206.339 209.993 205.951C205.483 205.689 200.54 208.144 198.952 211.433C197.365 214.722 199.734 217.6 204.244 217.861C212.356 218.331 219.975 217.997 228.043 216.148C236.079 214.307 243.837 211.129 252.343 206.64C256.575 204.407 258.201 200.628 255.975 198.199C253.75 195.77 248.515 195.611 244.283 197.844C237.045 201.664 231.612 203.746 226.689 204.874Z" fill="#4A2932"/>
<path fill-rule="evenodd" clip-rule="evenodd" d="M452.219 200.669C448.374 200.5 444.368 200.94 439.12 202.146C435.587 202.958 431.687 201.798 430.408 199.557C429.129 197.315 430.956 194.839 434.489 194.028C440.842 192.568 446.818 191.776 453.161 192.056C459.479 192.334 465.594 193.65 472.309 195.843C475.649 196.934 476.964 199.537 475.245 201.657C473.526 203.777 469.424 204.612 466.084 203.521C460.369 201.654 456.089 200.84 452.219 200.669Z" fill="#4A2932"/>
<path d="M177.929 312.001C192.679 311.895 208 323.889 208 334.589C208 345.288 192.393 356.416 177.929 355.988C163.26 355.554 147.911 346.671 149.061 332.211C150.143 318.598 164.114 312.099 177.929 312.001Z" fill="#F89A81"/>
<path d="M517.756 312.001C532.91 311.899 540 320.028 540 330.348C540 340.667 526.5 351.401 511.64 350.988C496.57 350.57 486.916 340.854 488.098 326.908C489.21 313.778 503.563 312.096 517.756 312.001Z" fill="#F89A81"/>
<path d="M607.01 57.5867C608.399 66.4058 607.196 74.449 603.4 81.7161C600.711 86.8637 597.16 90.8861 592.745 93.7833C588.331 96.6806 582.348 99.4331 574.797 102.041C568.249 104.209 562.96 106.746 558.928 109.65C554.976 112.403 551.826 115.287 549.478 118.3C547.362 121.241 544.181 126.035 539.935 132.682C538.116 136.164 535.557 138.103 532.255 138.499C529.033 138.743 526.131 138.19 523.548 136.841C516.71 133.27 515.426 127.396 519.697 119.22C521.99 114.83 525.478 110.003 530.161 104.741C534.843 99.4789 541.094 94.3613 548.914 89.3885C551.547 87.6804 554.559 86.1708 557.952 84.8596C561.496 83.6277 563.77 82.792 564.773 82.3525C568.549 81.0485 571.984 79.4705 575.079 77.6184C578.253 75.6149 580.394 73.5533 581.501 71.4337C582.766 69.0113 583.375 66.9204 583.326 65.161C583.43 63.481 583.234 61.4511 582.736 59.0714C581.947 55.7686 580.313 52.6026 577.833 49.5733C575.354 46.544 572.747 44.315 570.012 42.8864C565.605 40.5848 561.068 39.2746 556.399 38.9558C551.962 38.5649 547.931 39.0612 544.307 40.4444C540.915 41.7557 538.546 43.6982 537.202 46.272C534.988 50.5111 534.163 54.127 534.727 57.1196C535.371 59.9609 535.257 62.2142 534.387 63.8796C533.913 64.7879 533.131 65.7287 532.043 66.7018C528.005 69.9885 523.783 70.4811 519.377 68.1794C513.755 65.2428 510.759 60.9803 510.39 55.3919C510.021 49.8035 511.537 43.7543 514.938 37.2441C518.18 31.0368 523.239 26.164 530.116 22.6258C537.072 18.9362 545.297 17.2588 554.792 17.5936C564.288 17.9283 574.278 20.8339 584.762 26.3102C590.84 29.4849 595.827 33.8238 599.721 39.3268C603.695 44.6785 606.125 50.7651 607.01 57.5867ZM519.04 145.471C523.599 147.852 526.415 151.346 527.49 155.954C528.583 159.416 528.101 163.115 526.045 167.051C524.305 170.382 521.247 172.349 516.87 172.954C512.572 173.406 508.523 172.641 504.725 170.657C501.989 169.228 499.726 167.082 497.933 164.219C495.929 160.281 496.429 155.436 499.434 149.683C501.015 146.655 503.767 144.719 507.688 143.877C511.761 143.114 515.545 143.645 519.04 145.471Z" fill="#D0AB5C"/>
</svg>
