<svg width="635" height="654" viewBox="0 0 635 654" fill="none" xmlns="http://www.w3.org/2000/svg">
<path d="M211 228.729C211 228.729 185.131 172.621 137.957 209.629C90.783 246.636 134.305 292 134.305 292L211 228.729Z" fill="#BA6958"/>
<path d="M191 244.362C191 244.362 178.474 218.965 155.632 235.716C132.79 252.467 153.863 273 153.863 273L191 244.362Z" fill="#5B3236"/>
<path d="M466 221.86C466 221.86 492.856 183.263 528.257 211.072C563.658 238.882 531.919 277 531.919 277L466 221.86Z" fill="#BA6958"/>
<path d="M483 237.709C483 237.709 494.959 217.945 514.766 229.772C534.572 241.599 516.354 264 516.354 264L483 237.709Z" fill="#5B3236"/>
<path d="M412.917 653.741C412.917 653.741 613.631 644.813 633.097 544.065C640.317 506.703 627.076 453.673 591.928 435.595C553.637 415.899 538.785 418.309 499.356 424.708C478.341 428.118 450.345 432.661 408.097 435.595C347.07 439.832 302.125 434.341 265.033 429.809C228.27 425.318 199.222 421.769 169.876 429.568C78.5221 470.696 72.1088 544.279 146.217 600.893C158.991 610.192 173.727 618.984 191.636 628.375C285.108 658.379 412.917 653.741 412.917 653.741Z" fill="#F7B9A2"/>
<path d="M286.583 195.601C147.902 217.963 28.0961 398.031 77.2307 519.961C99.3524 557.342 117.997 580.352 146.217 600.893C72.1088 544.279 78.5221 470.696 169.876 429.568C199.222 421.769 228.27 425.318 265.033 429.809C302.125 434.341 347.07 439.832 408.097 435.595C450.345 432.661 478.341 428.118 499.356 424.708C538.785 418.309 553.637 415.899 591.928 435.595C590.893 430.502 588.577 419.254 587.376 413.901C559.971 289.833 514.323 233.449 438.183 209.372C432.303 199.917 421.339 195.601 412.917 195.601C401.375 195.998 393.553 196.982 388.012 198.417C385.824 198.111 383.616 197.821 381.389 197.545C381.88 197.161 382.372 196.779 382.862 196.398C389.05 191.592 394.927 187.028 396.072 181.291C396.652 178.388 368.845 179.431 346.862 194.468C344.842 194.348 342.808 194.237 340.759 194.134C345.379 190.926 350.64 188.166 351.555 182.495C352.514 176.546 305.849 185.748 286.583 195.601Z" fill="#BA6958"/>
<path d="M359 516.5C376.138 565.468 388.5 586.5 432.5 586.5C476.5 586.5 492.744 568.697 511.5 516.5L470.5 523L432.5 496L412.5 516.5L389 523L359 516.5Z" fill="#F89A81"/>
<path d="M418.333 549.692C398.499 546.054 406.666 498.763 406.666 498.763L437 483V542.416C437 542.416 429.822 551.799 418.333 549.692Z" fill="#F5F5F5"/>
<path d="M450.651 551C471.407 551 465.098 496.357 465.098 496.357L435 483V543.714C435 543.714 438.612 551 450.651 551Z" fill="#EBEBEB"/>
<path d="M361.698 482.5C376.78 462.822 432.966 441 432.966 441C432.966 441 485.982 460.042 502.5 482.5C512.805 496.512 513.261 507.681 511.5 510.5C508.762 514.882 496.11 523.081 482.5 523.5C468.577 523.928 432.966 494.5 432.966 494.5C432.966 494.5 414.758 518.969 398.5 523.5C384.294 527.459 366.198 523.5 361.698 515.169C353.789 510.971 352.5 494.5 361.698 482.5Z" fill="#F5F5F5"/>
<path d="M326.779 377.635C311.567 380.238 303.289 382.52 297.259 390.194C293.2 396.621 302.49 399.606 309.694 397.183C315.45 395.246 321.598 394.361 330.574 394.075C343.943 394.961 352.156 396.478 361.745 399.646C365.589 400.916 370.019 398.025 370.473 394.002C370.684 392.13 370.016 389.506 368.446 388.466C358.3 381.751 350.424 378.514 334.41 377.256C331.864 377.056 329.296 377.204 326.779 377.635Z" fill="#4A2932"/>
<path d="M471.779 377.635C456.567 380.238 448.289 382.52 442.259 390.194C438.2 396.621 447.49 399.606 454.694 397.183C460.45 395.246 466.598 394.361 475.574 394.075C488.943 394.961 497.156 396.478 506.745 399.646C510.589 400.916 515.019 398.025 515.473 394.002C515.684 392.13 515.016 389.506 513.446 388.466C503.3 381.751 495.424 378.514 479.41 377.256C476.864 377.056 474.296 377.204 471.779 377.635Z" fill="#4A2932"/>
<ellipse cx="435" cy="450.5" rx="35" ry="27.5" fill="#4A2932"/>
<path fill-rule="evenodd" clip-rule="evenodd" d="M283.627 339.748C287.183 338.284 290.994 337.369 296.094 336.791C299.526 336.402 302.965 333.941 303.775 331.295C304.585 328.649 302.458 326.819 299.026 327.208C292.852 327.908 287.145 329.141 281.277 331.556C275.434 333.961 269.956 337.323 264.069 341.754C261.141 343.958 260.359 346.973 262.324 348.488C264.289 350.003 268.256 349.444 271.185 347.24C276.195 343.47 280.047 341.222 283.627 339.748Z" fill="#4A2932"/>
<path fill-rule="evenodd" clip-rule="evenodd" d="M515.255 336.972C518.845 338.354 522.241 340.309 526.342 343.395C529.102 345.472 533.291 346.049 535.698 344.684C538.105 343.32 537.819 340.529 535.059 338.452C530.094 334.716 525.102 331.687 519.181 329.407C513.284 327.137 506.995 325.812 499.674 324.983C496.031 324.57 493.391 326.222 493.777 328.673C494.162 331.124 497.427 333.446 501.069 333.858C507.3 334.564 511.643 335.581 515.255 336.972Z" fill="#4A2932"/>
<path d="M243.929 448.001C258.679 447.895 274 459.889 274 470.589C274 481.288 258.393 492.416 243.929 491.988C229.26 491.554 213.911 482.671 215.061 468.211C216.143 454.598 230.114 448.099 243.929 448.001Z" fill="#F89A81"/>
<path d="M583.756 448.001C598.91 447.899 606 456.028 606 466.348C606 476.667 592.5 487.401 577.64 486.988C562.57 486.57 552.916 476.854 554.098 462.908C555.21 449.778 569.563 448.096 583.756 448.001Z" fill="#F89A81"/>
<path d="M232.393 404.733C250.203 400.782 261.413 399.34 278.79 396.714C280.516 396.453 282.284 396.812 283.767 397.731C285.678 398.916 286.94 400.912 287.191 403.147L287.242 403.6C287.497 405.881 286.79 408.172 285.292 409.911C272.921 424.282 264.326 433.816 252.978 445.492C246.655 451.998 238.302 457.219 229.281 456.254C224.207 455.711 220.056 453.865 215.928 450.133C211.453 446.089 208.805 440.316 208.328 434.304C207.835 428.09 208.909 422.996 212.189 417.543C216.455 410.452 224.314 406.525 232.393 404.733Z" fill="#879FD4"/>
<path d="M579.737 403.733C561.927 399.782 550.716 398.34 533.339 395.714C531.614 395.453 529.846 395.812 528.362 396.731C526.451 397.916 525.189 399.912 524.939 402.147L524.888 402.6C524.632 404.881 525.34 407.172 526.837 408.911C539.209 423.282 547.804 432.816 559.152 444.492C565.475 450.998 573.827 456.219 582.848 455.254C587.922 454.711 592.073 452.865 596.202 449.133C600.676 445.089 603.325 439.316 603.801 433.304C604.294 427.09 603.22 421.996 599.94 416.543C595.674 409.452 587.815 405.525 579.737 403.733Z" fill="#879FD4"/>
<path d="M436 455V490.5M436 490.5C401.9 532.773 382 529.5 360 509.5M436 490.5C451.5 517 487 534 510 512" stroke="#4A2932" stroke-width="8" stroke-linecap="round" stroke-linejoin="round"/>
</svg>
