<svg width="635" height="654" viewBox="0 0 635 654" fill="none" xmlns="http://www.w3.org/2000/svg">
<path d="M211 228.729C211 228.729 185.131 172.621 137.957 209.629C90.783 246.636 134.305 292 134.305 292L211 228.729Z" fill="#BA6958"/>
<path d="M191 244.362C191 244.362 178.474 218.965 155.632 235.716C132.79 252.467 153.863 273 153.863 273L191 244.362Z" fill="#5B3236"/>
<path d="M466 221.86C466 221.86 492.856 183.263 528.257 211.072C563.658 238.882 531.919 277 531.919 277L466 221.86Z" fill="#BA6958"/>
<path d="M483 237.709C483 237.709 494.959 217.945 514.766 229.772C534.572 241.599 516.354 264 516.354 264L483 237.709Z" fill="#5B3236"/>
<path d="M412.917 653.741C412.917 653.741 613.631 644.813 633.097 544.065C640.317 506.703 627.076 453.673 591.928 435.595C553.637 415.899 538.785 418.309 499.356 424.708C478.341 428.118 450.345 432.661 408.097 435.595C347.07 439.832 302.125 434.341 265.033 429.809C228.27 425.318 199.222 421.769 169.876 429.568C78.5221 470.696 72.1088 544.279 146.217 600.893C158.991 610.192 173.727 618.984 191.636 628.375C285.108 658.379 412.917 653.741 412.917 653.741Z" fill="#F7B9A2"/>
<path d="M286.583 195.601C147.902 217.963 28.0961 398.031 77.2307 519.961C99.3524 557.342 117.997 580.352 146.217 600.893C72.1088 544.279 78.5221 470.696 169.876 429.568C199.222 421.769 228.27 425.318 265.033 429.809C302.125 434.341 347.07 439.832 408.097 435.595C450.345 432.661 478.341 428.118 499.356 424.708C538.785 418.309 553.637 415.899 591.928 435.595C590.893 430.502 588.577 419.254 587.376 413.901C559.971 289.833 514.323 233.449 438.183 209.372C432.303 199.917 421.339 195.601 412.917 195.601C401.375 195.998 393.553 196.982 388.012 198.417C385.824 198.111 383.616 197.821 381.389 197.545C381.88 197.161 382.372 196.779 382.862 196.398C389.05 191.592 394.927 187.028 396.072 181.291C396.652 178.388 368.845 179.431 346.862 194.468C344.842 194.348 342.808 194.237 340.759 194.134C345.379 190.926 350.64 188.166 351.555 182.495C352.514 176.546 305.849 185.748 286.583 195.601Z" fill="#BA6958"/>
<path d="M359.727 523.5C376.865 572.468 389.227 593.5 433.227 593.5C477.227 593.5 493.471 575.697 512.227 523.5L471.227 530L433.227 503L413.227 523.5L389.727 530L359.727 523.5Z" fill="#F89A81"/>
<path d="M419.059 556.692C399.225 553.054 407.392 505.763 407.392 505.763L437.727 490V549.416C437.727 549.416 430.549 558.799 419.059 556.692Z" fill="#F5F5F5"/>
<path d="M451.378 558C472.134 558 465.825 503.357 465.825 503.357L435.727 490V550.714C435.727 550.714 439.339 558 451.378 558Z" fill="#EBEBEB"/>
<path d="M362.424 489.5C377.506 469.822 433.692 448 433.692 448C433.692 448 486.708 467.042 503.226 489.5C513.531 503.512 513.987 514.681 512.226 517.5C509.489 521.882 496.836 530.081 483.226 530.5C469.303 530.928 433.692 501.5 433.692 501.5C433.692 501.5 415.484 525.969 399.226 530.5C385.02 534.459 366.924 530.5 362.424 522.169C354.515 517.971 353.226 501.5 362.424 489.5Z" fill="#F5F5F5"/>
<path d="M436.727 462V497.5M436.727 497.5C402.627 539.773 382.727 536.5 360.727 516.5M436.727 497.5C452.227 524 487.727 541 510.727 519" stroke="#4A2932" stroke-width="8" stroke-linecap="round" stroke-linejoin="round"/>
<ellipse cx="435" cy="450.5" rx="35" ry="27.5" fill="#4A2932"/>
<path d="M243.929 448.001C258.679 447.895 274 459.889 274 470.589C274 481.288 258.393 492.416 243.929 491.988C229.26 491.554 213.911 482.671 215.061 468.211C216.143 454.598 230.114 448.099 243.929 448.001Z" fill="#F89A81"/>
<path d="M583.756 448.001C598.91 447.899 606 456.028 606 466.348C606 476.667 592.5 487.401 577.64 486.988C562.57 486.57 552.916 476.854 554.098 462.908C555.21 449.778 569.563 448.096 583.756 448.001Z" fill="#F89A81"/>
<path fill-rule="evenodd" clip-rule="evenodd" d="M484.901 404.763L484.839 404.683C484.905 403.919 484.963 403.173 485.014 402.446C484.96 403.217 484.898 404.009 484.827 404.821C484.851 404.802 484.876 404.782 484.901 404.763Z" fill="#FD5252"/>
<path d="M547.15 335.769C548.344 327.391 544.741 318.829 538.164 313.503C526.093 303.727 508.519 302.73 494.967 324.058C486.886 300.314 469.651 297.113 455.635 303.69C447.973 307.286 442.433 314.729 441.529 323.144C439.275 344.121 456.397 368.044 484.839 404.683L484.901 404.763C521.321 375.986 544.163 356.729 547.15 335.769Z" fill="#FD5252"/>
<path fill-rule="evenodd" clip-rule="evenodd" d="M348.936 412.185L348.852 412.129C348.675 411.382 348.497 410.656 348.317 409.949C348.508 410.699 348.697 411.47 348.884 412.264C348.902 412.238 348.919 412.211 348.936 412.185Z" fill="#FD5252"/>
<path d="M386.402 327.147C384.908 318.817 378.801 311.818 370.885 308.824C356.357 303.327 339.357 307.893 333.179 332.396C318.058 312.385 300.689 314.751 289.443 325.393C283.296 331.211 280.371 340.016 282.151 348.29C286.591 368.915 310.353 386.26 348.852 412.129L348.936 412.185C374.492 373.436 390.141 347.986 386.402 327.147Z" fill="#FD5252"/>
</svg>
