<svg width="573" height="474" viewBox="0 0 573 474" fill="none" xmlns="http://www.w3.org/2000/svg">
<path d="M145 48.7293C145 48.7293 119.131 -7.3787 71.9568 29.6287C24.783 66.6361 68.3046 112 68.3046 112L145 48.7293Z" fill="#BA6958"/>
<path d="M125 64.3617C125 64.3617 112.474 38.9654 89.6317 55.7161C66.7896 72.4668 87.8633 93 87.8633 93L125 64.3617Z" fill="#5B3236"/>
<path d="M400 41.8604C400 41.8604 426.856 3.26286 462.257 31.0723C497.658 58.8818 465.919 97 465.919 97L400 41.8604Z" fill="#BA6958"/>
<path d="M417 57.7089C417 57.7089 428.959 37.9451 448.766 49.7719C468.572 61.5988 450.354 84 450.354 84L417 57.7089Z" fill="#5B3236"/>
<path d="M346.917 473.741C346.917 473.741 547.631 464.813 567.097 364.065C574.317 326.703 561.076 273.673 525.928 255.595C487.637 235.899 472.785 238.309 433.356 244.708C412.341 248.118 384.345 252.661 342.097 255.595C281.07 259.832 236.125 254.341 199.033 249.809C162.27 245.318 133.222 241.769 103.876 249.568C12.5221 290.696 6.10883 364.279 80.2174 420.893C92.9914 430.192 107.727 438.984 125.636 448.375C219.108 478.379 346.917 473.741 346.917 473.741Z" fill="#F7B9A2"/>
<path d="M220.583 15.6011C81.9021 37.9628 -37.9039 218.031 11.2307 339.961C33.3524 377.342 51.9971 400.352 80.2174 420.893C6.10883 364.279 12.5221 290.696 103.876 249.568C133.222 241.769 162.27 245.318 199.033 249.809C236.125 254.341 281.07 259.832 342.097 255.595C384.345 252.661 412.341 248.118 433.356 244.708C472.785 238.309 487.637 235.899 525.928 255.595C524.893 250.502 522.577 239.254 521.376 233.901C493.971 109.833 448.323 53.4495 372.183 29.3722C366.303 19.9171 355.339 15.6011 346.917 15.6011C335.375 15.998 327.553 16.9822 322.012 18.4168C319.824 18.1112 317.616 17.8209 315.389 17.5451C315.88 17.1608 316.372 16.7787 316.862 16.398C323.05 11.5922 328.927 7.02759 330.072 1.29083C330.652 -1.61216 302.845 -0.569122 280.862 14.4678C278.842 14.3484 276.808 14.2374 274.759 14.1344C279.379 10.926 284.64 8.1663 285.555 2.49516C286.514 -3.45372 239.849 5.74762 220.583 15.6011Z" fill="#BA6958"/>
<path d="M351.333 383.692C331.499 380.054 339.666 332.763 339.666 332.763L370 317V376.416C370 376.416 362.822 385.799 351.333 383.692Z" fill="#F5F5F5"/>
<path d="M384.651 385C405.407 385 399.098 330.357 399.098 330.357L369 317V377.714C369 377.714 372.612 385 384.651 385Z" fill="#EBEBEB"/>
<path fill-rule="evenodd" clip-rule="evenodd" d="M472.116 414.499C466.027 420.246 456.434 419.964 450.692 413.869L372.272 330.514L391.051 323.93L409.226 325.64L472.744 393.056C478.487 399.151 478.206 408.752 472.116 414.499Z" fill="#E3E3E3"/>
<path fill-rule="evenodd" clip-rule="evenodd" d="M444.322 384.773C441.61 387.333 437.337 387.207 434.778 384.492L383.437 330.001C382.732 329.252 382.231 328.385 381.931 327.468L397.447 325.172L444.602 375.221C447.16 377.936 447.035 382.213 444.322 384.773Z" fill="#DC3136"/>
<path fill-rule="evenodd" clip-rule="evenodd" d="M450.483 400.374L443.864 406.621L445.625 408.491L452.245 402.244C452.761 401.757 452.785 400.943 452.298 400.427C451.812 399.911 450.999 399.887 450.483 400.374Z" fill="#AAAAAA"/>
<path fill-rule="evenodd" clip-rule="evenodd" d="M441.087 390.401L434.467 396.648L436.229 398.518L442.848 392.271C443.364 391.784 443.388 390.97 442.902 390.454C442.415 389.938 441.602 389.914 441.087 390.401Z" fill="#AAAAAA"/>
<path fill-rule="evenodd" clip-rule="evenodd" d="M431.691 380.428L425.071 386.675L426.833 388.545L433.452 382.298C433.968 381.811 433.992 380.998 433.505 380.481C433.019 379.965 432.206 379.941 431.691 380.428Z" fill="#AAAAAA"/>
<path fill-rule="evenodd" clip-rule="evenodd" d="M422.294 370.455L415.675 376.703L417.437 378.572L424.056 372.325C424.572 371.838 424.596 371.025 424.109 370.508C423.623 369.992 422.81 369.968 422.294 370.455Z" fill="#AAAAAA"/>
<path fill-rule="evenodd" clip-rule="evenodd" d="M412.898 360.482L406.278 366.73L408.04 368.6L414.66 362.352C415.176 361.865 415.199 361.052 414.713 360.536C414.226 360.019 413.414 359.995 412.898 360.482Z" fill="#AAAAAA"/>
<path fill-rule="evenodd" clip-rule="evenodd" d="M403.502 350.509L396.882 356.757L398.644 358.627L405.264 352.379C405.779 351.892 405.803 351.079 405.317 350.563C404.83 350.046 404.018 350.022 403.502 350.509Z" fill="#AAAAAA"/>
<path fill-rule="evenodd" clip-rule="evenodd" d="M394.105 340.537L387.486 346.784L389.247 348.654L395.867 342.407C396.383 341.92 396.407 341.106 395.92 340.59C395.434 340.074 394.621 340.05 394.105 340.537Z" fill="#AAAAAA"/>
<path fill-rule="evenodd" clip-rule="evenodd" d="M384.709 330.564L378.089 336.811L379.851 338.681L386.471 332.434C386.987 331.947 387.011 331.133 386.524 330.617C386.038 330.101 385.225 330.077 384.709 330.564Z" fill="#AAAAAA"/>
<path d="M295.698 305.988C300.53 281.67 366.966 261 366.966 261C366.966 261 428.571 286.534 432.195 305.988C436.318 328.126 430.865 337.812 408.5 338.5C394.577 338.928 371.798 335.169 371.798 335.169C371.798 335.169 331 341.5 321.5 345.5C298.063 355.368 291.35 327.874 295.698 305.988Z" fill="#F5F5F5"/>
<ellipse cx="234.5" cy="226.5" rx="25.5" ry="33.5" fill="#5B3236"/>
<ellipse cx="217.555" cy="211.865" rx="7.98981" ry="10.7204" transform="rotate(10.503 217.555 211.865)" fill="#D9D9D9"/>
<ellipse cx="455" cy="223.5" rx="25" ry="33.5" fill="#5B3236"/>
<ellipse cx="438.286" cy="209.456" rx="7.98981" ry="10.7204" transform="rotate(10.503 438.286 209.456)" fill="#D9D9D9"/>
<path d="M372 286V333M372 333C336.166 337.46 323.287 340.96 307.5 348.5M372 333C399.735 339.399 412.221 340.709 425 336" stroke="#4A2932" stroke-width="6" stroke-linecap="round" stroke-linejoin="round"/>
<ellipse cx="369" cy="270.5" rx="35" ry="27.5" fill="#4A2932"/>
<path fill-rule="evenodd" clip-rule="evenodd" d="M226.697 160.871C221.804 161.978 216.697 162.309 209.998 161.903C205.489 161.629 200.539 164.07 198.943 167.355C197.347 170.64 199.709 173.524 204.218 173.797C212.329 174.289 219.948 173.976 228.021 172.149C236.062 170.329 243.829 167.171 252.347 162.705C256.584 160.484 258.221 156.709 256.001 154.274C253.782 151.839 248.548 151.666 244.31 153.888C237.062 157.688 231.623 159.756 226.697 160.871Z" fill="#4A2932"/>
<path fill-rule="evenodd" clip-rule="evenodd" d="M461.036 150.867C464.765 151.82 468.776 152.209 474.16 152.103C477.784 152.031 481.364 153.964 482.157 156.421C482.95 158.877 480.655 160.926 477.031 160.997C470.513 161.126 464.502 160.678 458.35 159.106C452.223 157.54 446.507 155 440.383 151.479C437.337 149.727 436.583 146.91 438.7 145.187C440.816 143.464 445.002 143.487 448.048 145.238C453.259 148.235 457.282 149.908 461.036 150.867Z" fill="#4A2932"/>
<g filter="url(#filter0_f_1548_7)">
<path d="M163.523 257.001C188.772 256.822 215 277.266 215 295.504C215 313.741 188.283 332.709 163.523 331.98C138.412 331.24 112.136 316.098 114.104 291.451C115.957 268.247 139.873 257.169 163.523 257.001Z" fill="#F88181"/>
</g>
<g filter="url(#filter1_f_1548_7)">
<path d="M507.697 267.001C528.446 266.853 550 283.753 550 298.83C550 313.906 528.045 329.586 507.697 328.983C487.061 328.372 465.468 315.854 467.086 295.479C468.609 276.298 488.262 267.14 507.697 267.001Z" fill="#F88181"/>
</g>
<defs>
<filter id="filter0_f_1548_7" x="91.5" y="234.5" width="146" height="120" filterUnits="userSpaceOnUse" color-interpolation-filters="sRGB">
<feFlood flood-opacity="0" result="BackgroundImageFix"/>
<feBlend mode="normal" in="SourceGraphic" in2="BackgroundImageFix" result="shape"/>
<feGaussianBlur stdDeviation="11.25" result="effect1_foregroundBlur_1548_7"/>
</filter>
<filter id="filter1_f_1548_7" x="444.5" y="244.5" width="128" height="107" filterUnits="userSpaceOnUse" color-interpolation-filters="sRGB">
<feFlood flood-opacity="0" result="BackgroundImageFix"/>
<feBlend mode="normal" in="SourceGraphic" in2="BackgroundImageFix" result="shape"/>
<feGaussianBlur stdDeviation="11.25" result="effect1_foregroundBlur_1548_7"/>
</filter>
</defs>
</svg>
