<svg width="569" height="721" viewBox="0 0 569 721" fill="none" xmlns="http://www.w3.org/2000/svg">
<path d="M443.049 22.5423C360.049 -8.95774 257.84 4.5422 249.549 42.5422C241.259 80.5422 329.55 100.542 329.55 100.542C329.55 100.542 443.515 126.642 437.05 89.0422C430.934 53.4729 381.55 50.0423 343.049 50.0423C297.538 50.0423 250.71 64.0459 249.549 109.542C248.371 155.745 350.049 172.042 350.049 172.042C350.049 172.042 440.218 187.189 426.55 152.042C422.077 140.542 385.197 129.042 350.049 129.042C314.549 129.042 269.649 139.421 273.549 172.042C279.049 218.042 381.049 213.042 381.049 213.042" stroke="#555555" stroke-width="9" stroke-linecap="round"/>
<path d="M145 295.729C145 295.729 119.131 239.621 71.9568 276.629C24.783 313.636 68.3046 359 68.3046 359L145 295.729Z" fill="#BA6958"/>
<path d="M125 311.362C125 311.362 112.474 285.965 89.6317 302.716C66.7896 319.467 87.8633 340 87.8633 340L125 311.362Z" fill="#5B3236"/>
<path d="M400 288.86C400 288.86 426.856 250.263 462.257 278.072C497.658 305.882 465.919 344 465.919 344L400 288.86Z" fill="#BA6958"/>
<path d="M417 304.709C417 304.709 428.959 284.945 448.766 296.772C468.572 308.599 450.354 331 450.354 331L417 304.709Z" fill="#5B3236"/>
<path d="M346.917 720.741C346.917 720.741 547.631 711.813 567.097 611.065C574.317 573.703 561.076 520.673 525.928 502.595C487.637 482.899 472.785 485.309 433.356 491.708C412.341 495.118 384.345 499.661 342.097 502.595C281.07 506.832 236.125 501.341 199.033 496.809C162.27 492.318 133.222 488.769 103.876 496.568C12.5221 537.696 6.10883 611.279 80.2174 667.893C92.9914 677.192 107.727 685.984 125.636 695.375C219.108 725.379 346.917 720.741 346.917 720.741Z" fill="#F7B9A2"/>
<path d="M220.583 262.601C81.9021 284.963 -37.9039 465.031 11.2307 586.961C33.3524 624.342 51.9971 647.352 80.2174 667.893C6.10883 611.279 12.5221 537.696 103.876 496.568C133.222 488.769 162.27 492.318 199.033 496.809C236.125 501.341 281.07 506.832 342.097 502.595C384.345 499.661 412.341 495.118 433.356 491.708C472.785 485.309 487.637 482.899 525.928 502.595C524.893 497.502 522.577 486.254 521.376 480.901C493.971 356.833 448.323 300.449 372.183 276.372C366.303 266.917 355.339 262.601 346.917 262.601C335.375 262.998 327.553 263.982 322.012 265.417C319.824 265.111 317.616 264.821 315.389 264.545C315.88 264.161 316.372 263.779 316.862 263.398C323.05 258.592 328.927 254.028 330.072 248.291C330.652 245.388 302.845 246.431 280.862 261.468C278.842 261.348 276.808 261.237 274.759 261.134C279.379 257.926 284.64 255.166 285.555 249.495C286.514 243.546 239.849 252.748 220.583 262.601Z" fill="#BA6958"/>
<path d="M352.333 616.692C332.499 613.054 340.666 565.763 340.666 565.763L371 550V609.416C371 609.416 363.822 618.799 352.333 616.692Z" fill="#F5F5F5"/>
<path d="M384.651 618C405.407 618 399.098 563.357 399.098 563.357L369 550V610.714C369 610.714 372.612 618 384.651 618Z" fill="#EBEBEB"/>
<path d="M305.5 543.5C320.582 523.822 366.966 508 366.966 508C366.966 508 419.983 527.042 436.5 549.5C446.806 563.512 441.761 572.681 440 575.5C437.263 579.882 430.11 590.081 416.5 590.5C402.577 590.928 366.966 561.5 366.966 561.5C366.966 561.5 348.758 585.969 332.5 590.5C318.294 594.459 301.499 583.831 297 575.5C295.499 568.5 296.302 555.5 305.5 543.5Z" fill="#F5F5F5"/>
<ellipse cx="234.5" cy="473.5" rx="25.5" ry="33.5" fill="#5B3236"/>
<ellipse cx="217.554" cy="458.865" rx="7.98981" ry="10.7204" transform="rotate(10.503 217.554 458.865)" fill="#D9D9D9"/>
<ellipse cx="455" cy="470.5" rx="25" ry="33.5" fill="#5B3236"/>
<ellipse cx="438.287" cy="456.456" rx="7.98981" ry="10.7204" transform="rotate(10.503 438.287 456.456)" fill="#D9D9D9"/>
<ellipse cx="369" cy="517.5" rx="35" ry="27.5" fill="#4A2932"/>
<path fill-rule="evenodd" clip-rule="evenodd" d="M227.164 425.94C223.807 427.818 220.133 429.181 215.139 430.363C211.777 431.159 208.656 434.012 208.168 436.736C207.68 439.46 210.009 441.023 213.37 440.227C219.417 438.796 224.936 436.891 230.474 433.793C235.989 430.708 241.026 426.717 246.343 421.616C248.988 419.078 249.404 415.992 247.272 414.722C245.14 413.452 241.268 414.48 238.624 417.018C234.099 421.359 230.543 424.05 227.164 425.94Z" fill="#4A2932"/>
<path fill-rule="evenodd" clip-rule="evenodd" d="M461.988 423.657C458.753 421.577 455.822 418.975 452.431 415.124C450.148 412.531 446.162 411.118 443.529 411.967C440.895 412.817 440.611 415.608 442.894 418.2C447 422.864 451.276 426.84 456.613 430.27C461.929 433.688 467.82 436.257 474.822 438.551C478.305 439.692 481.225 438.608 481.343 436.13C481.462 433.651 478.734 430.717 475.251 429.576C469.292 427.624 465.245 425.75 461.988 423.657Z" fill="#4A2932"/>
<path d="M177.929 515.001C192.679 514.895 208 526.889 208 537.589C208 548.288 192.393 559.416 177.929 558.988C163.26 558.554 147.911 549.671 149.061 535.211C150.143 521.598 164.114 515.099 177.929 515.001Z" fill="#F89A81"/>
<path d="M517.756 515.001C532.91 514.899 540 523.028 540 533.348C540 543.667 526.5 554.401 511.64 553.988C496.57 553.57 486.916 543.854 488.098 529.908C489.21 516.778 503.563 515.096 517.756 515.001Z" fill="#F89A81"/>
<path d="M372.5 522V557.5M372.5 557.5C365.5 568.5 352.5 590.5 323 590.5M372.5 557.5C388 584 408 591 427.5 588.5" stroke="#4A2932" stroke-width="8" stroke-linecap="round" stroke-linejoin="round"/>
</svg>
