<svg width="569" height="474" viewBox="0 0 569 474" fill="none" xmlns="http://www.w3.org/2000/svg">
<path d="M142 53.7293C142 53.7293 116.131 -2.3787 68.9568 34.6287C21.783 71.6361 65.3046 117 65.3046 117L142 53.7293Z" fill="#BA6958"/>
<path d="M120 64.3617C120 64.3617 107.474 38.9654 84.6317 55.7161C61.7896 72.4668 82.8633 93 82.8633 93L120 64.3617Z" fill="#5B3236"/>
<path d="M400 41.8604C400 41.8604 426.856 3.26286 462.257 31.0723C497.658 58.8818 465.919 97 465.919 97L400 41.8604Z" fill="#BA6958"/>
<path d="M417 57.7089C417 57.7089 428.959 37.9451 448.766 49.7719C468.572 61.5988 450.354 84 450.354 84L417 57.7089Z" fill="#5B3236"/>
<path d="M346.917 473.741C346.917 473.741 547.631 464.813 567.097 364.065C574.317 326.703 561.076 273.673 525.928 255.595C487.637 235.899 472.785 238.309 433.356 244.708C412.341 248.118 384.345 252.661 342.097 255.595C281.07 259.832 236.125 254.341 199.033 249.809C162.27 245.318 133.222 241.769 103.876 249.568C12.5221 290.696 6.10883 364.279 80.2174 420.893C92.9914 430.192 107.727 438.984 125.636 448.375C219.108 478.379 346.917 473.741 346.917 473.741Z" fill="#F7B9A2"/>
<path d="M220.583 15.6011C81.9021 37.9628 -37.9039 218.031 11.2307 339.961C33.3524 377.342 51.9971 400.352 80.2174 420.893C6.10883 364.279 12.5221 290.696 103.876 249.568C133.222 241.769 162.27 245.318 199.033 249.809C236.125 254.341 281.07 259.832 342.097 255.595C384.345 252.661 412.341 248.118 433.356 244.708C472.785 238.309 487.637 235.899 525.928 255.595C524.893 250.502 522.577 239.254 521.376 233.901C493.971 109.833 448.323 53.4495 372.183 29.3722C366.303 19.9171 355.339 15.6011 346.917 15.6011C335.375 15.998 327.553 16.9822 322.012 18.4168C319.824 18.1112 317.616 17.8209 315.389 17.5451C315.88 17.1608 316.372 16.7787 316.862 16.398C323.05 11.5922 328.927 7.02759 330.072 1.29083C330.652 -1.61216 302.845 -0.569122 280.862 14.4678C278.842 14.3484 276.808 14.2374 274.759 14.1344C279.379 10.926 284.64 8.1663 285.555 2.49516C286.514 -3.45372 239.849 5.74762 220.583 15.6011Z" fill="#BA6958"/>
<path d="M352.333 387.692C332.499 384.054 340.666 336.763 340.666 336.763L371 321V380.416C371 380.416 363.822 389.799 352.333 387.692Z" fill="#F5F5F5"/>
<path d="M384.651 389C405.407 389 399.098 334.357 399.098 334.357L369 321V381.714C369 381.714 372.612 389 384.651 389Z" fill="#EBEBEB"/>
<path d="M295.698 305.988C300.53 281.67 366.966 261 366.966 261C366.966 261 428.571 286.534 432.195 305.988C436.318 328.126 424.362 347.856 401.996 348.544C388.073 348.973 371.798 335.169 371.798 335.169C371.798 335.169 350.005 351.713 333.144 350.976C307.738 349.866 291.349 327.874 295.698 305.988Z" fill="#F5F5F5"/>
<path fill-rule="evenodd" clip-rule="evenodd" d="M371.864 282C373.844 282 375.449 283.621 375.449 285.621V330.23C375.918 330.675 376.62 331.266 377.541 331.964C379.447 333.409 382.106 335.166 385.145 336.829C391.408 340.257 398.497 342.851 403.799 342.36C419.708 340.885 426.831 327.797 426.831 315.793C426.831 313.793 428.435 312.172 430.415 312.172C432.395 312.172 434 313.793 434 315.793C434 330.34 425.128 347.654 404.455 349.571C396.914 350.27 388.215 346.745 381.73 343.196C378.395 341.371 375.439 339.424 373.238 337.757C372.684 337.337 372.166 336.925 371.693 336.529C371.21 336.886 370.679 337.262 370.108 337.652C367.586 339.376 364.078 341.513 360.051 343.603C352.131 347.713 341.602 351.955 332.45 351.999C318.268 352.069 308.29 346.112 301.932 338.184C295.68 330.387 293 320.785 293 313.379C293 311.379 294.605 309.758 296.585 309.758C298.565 309.758 300.169 311.379 300.169 313.379C300.169 319.249 302.359 327.211 307.504 333.626C312.544 339.911 320.489 344.816 332.415 344.758C339.801 344.722 349.071 341.159 356.775 337.162C360.559 335.199 363.818 333.208 366.09 331.655C367.027 331.015 367.761 330.473 368.28 330.057V285.621C368.28 283.621 369.885 282 371.864 282ZM374.981 329.745C374.937 329.69 374.946 329.693 374.983 329.747C374.982 329.747 374.982 329.746 374.981 329.745Z" fill="#4A2932"/>
<path fill-rule="evenodd" clip-rule="evenodd" d="M371.864 282C373.844 282 375.449 283.621 375.449 285.621V330.23C375.918 330.675 376.62 331.266 377.541 331.964C379.447 333.409 382.106 335.166 385.145 336.829C391.408 340.257 398.497 342.851 403.799 342.36C419.708 340.885 426.831 327.797 426.831 315.793C426.831 313.793 428.435 312.172 430.415 312.172C432.395 312.172 434 313.793 434 315.793C434 330.34 425.128 347.654 404.455 349.571C396.914 350.27 388.215 346.745 381.73 343.196C378.395 341.371 375.439 339.424 373.238 337.757C372.684 337.337 372.166 336.925 371.693 336.529C371.21 336.886 370.679 337.262 370.108 337.652C367.586 339.376 364.078 341.513 360.051 343.603C352.131 347.713 341.602 351.955 332.45 351.999C318.268 352.069 308.29 346.112 301.932 338.184C295.68 330.387 293 320.785 293 313.379C293 311.379 294.605 309.758 296.585 309.758C298.565 309.758 300.169 311.379 300.169 313.379C300.169 319.249 302.359 327.211 307.504 333.626C312.544 339.911 320.489 344.816 332.415 344.758C339.801 344.722 349.071 341.159 356.775 337.162C360.559 335.199 363.818 333.208 366.09 331.655C367.027 331.015 367.761 330.473 368.28 330.057V285.621C368.28 283.621 369.885 282 371.864 282ZM374.981 329.745C374.937 329.69 374.946 329.693 374.983 329.747C374.982 329.747 374.982 329.746 374.981 329.745Z" fill="#4A2932"/>
<ellipse cx="369" cy="270.5" rx="35" ry="27.5" fill="#4A2932"/>
<path fill-rule="evenodd" clip-rule="evenodd" d="M236.314 134.529C233.561 134.799 230.821 135.673 227.359 137.421C225.029 138.598 222.035 137.923 220.671 135.912C219.307 133.902 220.089 131.318 222.419 130.141C226.61 128.024 230.671 126.591 235.212 126.147C239.734 125.704 244.326 126.281 249.522 127.633C252.107 128.306 253.57 130.66 252.79 132.89C252.011 135.12 249.283 136.383 246.698 135.71C242.277 134.56 239.084 134.258 236.314 134.529Z" fill="#4A2932"/>
<path fill-rule="evenodd" clip-rule="evenodd" d="M446.456 130.669C443.782 130.5 440.995 130.94 437.344 132.146C434.887 132.958 432.174 131.798 431.284 129.557C430.394 127.315 431.665 124.839 434.122 124.028C438.542 122.568 442.699 121.776 447.112 122.056C451.507 122.334 455.761 123.65 460.432 125.843C462.756 126.934 463.67 129.537 462.475 131.657C461.279 133.777 458.425 134.612 456.102 133.521C452.127 131.654 449.149 130.84 446.456 130.669Z" fill="#4A2932"/>
<path d="M177.929 268.001C192.679 267.895 208 279.889 208 290.589C208 301.288 192.393 312.416 177.929 311.988C163.26 311.554 147.911 302.671 149.061 288.211C150.143 274.598 164.114 268.099 177.929 268.001Z" fill="#F89A81"/>
<path d="M517.756 268.001C532.91 267.899 540 276.028 540 286.348C540 296.667 526.5 307.401 511.64 306.988C496.57 306.57 486.916 296.854 488.098 282.908C489.21 269.778 503.563 268.096 517.756 268.001Z" fill="#F89A81"/>
<path d="M251.779 194.635C236.567 197.238 228.289 199.52 222.259 207.194C218.2 213.621 227.49 216.606 234.694 214.183C240.45 212.246 246.598 211.361 255.574 211.075C268.943 211.961 277.156 213.478 286.745 216.646C290.589 217.916 295.019 215.025 295.473 211.002C295.684 209.13 295.016 206.506 293.446 205.466C283.3 198.751 275.424 195.514 259.41 194.256C256.864 194.056 254.296 194.204 251.779 194.635Z" fill="#4A2932"/>
<path d="M435.779 190.635C420.567 193.238 412.289 195.52 406.259 203.194C402.2 209.621 411.49 212.606 418.694 210.183C424.45 208.246 430.598 207.361 439.574 207.075C452.943 207.961 461.156 209.478 470.745 212.646C474.589 213.916 479.019 211.025 479.473 207.002C479.684 205.13 479.016 202.506 477.446 201.466C467.3 194.751 459.424 191.514 443.41 190.256C440.864 190.056 438.296 190.204 435.779 190.635Z" fill="#4A2932"/>
<path fill-rule="evenodd" clip-rule="evenodd" d="M239 300C198.643 300 166 266.829 166 226C166 215.909 167.994 206.287 171.605 197.517C138.016 188.362 104.85 177.784 72.2176 165.825C64.1877 162.881 56.6144 160.186 49.1392 161.226C42.8496 162.104 37.3838 166.238 34.1141 171.763C30.8475 177.284 30.0345 184.04 32.4195 189.606C34.7317 195.002 39.7038 199.137 45.4202 199.895C51.193 200.661 57.1849 197.248 58.6931 192.474C58.773 192.221 58.9501 192.01 59.1854 191.888C59.4207 191.765 59.695 191.742 59.9479 191.822L63.7621 193.026C64.2887 193.193 64.5808 193.755 64.4144 194.281C61.8556 202.381 52.6812 206.911 44.6314 205.843C36.5053 204.765 29.8532 198.809 26.84 191.777C23.5564 184.114 24.913 175.531 28.9505 168.708C32.9904 161.881 39.9221 156.454 48.3111 155.283C57.4317 154.014 66.3564 157.286 74.0334 160.1L74.2822 160.191C107.068 172.206 140.396 182.821 174.151 191.991C186.294 168.245 210.758 152 239 152C275.818 152 306.216 179.609 311.264 215.454C336.914 202.894 370.313 200.475 398.433 209.133C401.99 172.917 427.054 144 458.5 144C492.475 144 519 177.755 519 218C519 258.245 492.475 292 458.5 292C424.525 292 398 258.245 398 218C398 217.097 398.013 216.197 398.04 215.3C370.3 206.321 336.75 208.908 311.888 221.861L311.895 221.998C311.965 223.323 312 224.658 312 226C312 266.829 279.357 300 239 300ZM239 158C275.963 158 306 188.404 306 226C306 263.596 275.963 294 239 294C202.037 294 172 263.596 172 226C172 188.404 202.037 158 239 158ZM458.5 150C488.041 150 513 179.825 513 218C513 256.175 488.041 286 458.5 286C428.959 286 404 256.175 404 218C404 179.825 428.959 150 458.5 150Z" fill="#404040"/>
</svg>
