<svg width="569" height="474" viewBox="0 0 569 474" fill="none" xmlns="http://www.w3.org/2000/svg">
<path d="M145 48.7293C145 48.7293 119.131 -7.3787 71.9568 29.6287C24.783 66.6361 68.3046 112 68.3046 112L145 48.7293Z" fill="#BA6958"/>
<path d="M125 64.3617C125 64.3617 112.474 38.9654 89.6317 55.7161C66.7896 72.4668 87.8633 93 87.8633 93L125 64.3617Z" fill="#5B3236"/>
<path d="M400 41.8604C400 41.8604 426.856 3.26286 462.257 31.0723C497.658 58.8818 465.919 97 465.919 97L400 41.8604Z" fill="#BA6958"/>
<path d="M417 57.7089C417 57.7089 428.959 37.9451 448.766 49.7719C468.572 61.5988 450.354 84 450.354 84L417 57.7089Z" fill="#5B3236"/>
<path d="M346.917 473.741C346.917 473.741 547.631 464.813 567.097 364.065C574.317 326.703 561.076 273.673 525.928 255.595C487.637 235.899 472.785 238.309 433.356 244.708C412.341 248.118 384.345 252.661 342.097 255.595C281.07 259.832 236.125 254.341 199.033 249.809C162.27 245.318 133.222 241.769 103.876 249.568C12.5221 290.696 6.10883 364.279 80.2174 420.893C92.9914 430.192 107.727 438.984 125.636 448.375C219.108 478.379 346.917 473.741 346.917 473.741Z" fill="#F7B9A2"/>
<path d="M220.583 15.6011C81.9021 37.9628 -37.9039 218.031 11.2307 339.961C33.3524 377.342 51.9971 400.352 80.2174 420.893C6.10883 364.279 12.5221 290.696 103.876 249.568C133.222 241.769 162.27 245.318 199.033 249.809C236.125 254.341 281.07 259.832 342.097 255.595C384.345 252.661 412.341 248.118 433.356 244.708C472.785 238.309 487.637 235.899 525.928 255.595C524.893 250.502 522.577 239.254 521.376 233.901C493.971 109.833 448.323 53.4495 372.183 29.3722C366.303 19.9171 355.339 15.6011 346.917 15.6011C335.375 15.998 327.553 16.9822 322.012 18.4168C319.824 18.1112 317.616 17.8209 315.389 17.5451C315.88 17.1608 316.372 16.7787 316.862 16.398C323.05 11.5922 328.927 7.02759 330.072 1.29083C330.652 -1.61216 302.845 -0.569122 280.862 14.4678C278.842 14.3484 276.808 14.2374 274.759 14.1344C279.379 10.926 284.64 8.1663 285.555 2.49516C286.514 -3.45372 239.849 5.74762 220.583 15.6011Z" fill="#BA6958"/>
<path d="M177.929 268.001C192.679 267.895 208 279.889 208 290.589C208 301.288 192.393 312.416 177.929 311.988C163.26 311.554 147.911 302.671 149.061 288.211C150.143 274.598 164.114 268.099 177.929 268.001Z" fill="#F89A81"/>
<path d="M517.756 268.001C532.91 267.899 540 276.028 540 286.348C540 296.667 526.5 307.401 511.64 306.988C496.57 306.57 486.916 296.854 488.098 282.908C489.21 269.778 503.563 268.096 517.756 268.001Z" fill="#F89A81"/>
<path d="M314.5 345C330.5 383.5 350 402.5 375.5 397C401 391.5 411.744 387.697 430.5 335.5L404.5 334L375.5 330.5L350 334L330.5 339L314.5 345Z" fill="#F89A81"/>
<path d="M300.242 305.988C305.074 281.67 371.51 261 371.51 261C371.51 261 433.115 286.534 436.739 305.988C440.862 328.126 435.409 337.812 413.044 338.5C399.12 338.928 376.342 335.169 376.342 335.169C376.342 335.169 335.544 341.5 326.044 345.5C302.607 355.368 295.893 327.874 300.242 305.988Z" fill="#F5F5F5"/>
<path d="M355.877 378.692C336.043 375.054 344.21 327.763 344.21 327.763L374.544 312V371.416C374.544 371.416 367.366 380.799 355.877 378.692Z" fill="#F5F5F5"/>
<path d="M388.195 380C408.951 380 402.642 325.357 402.642 325.357L372.544 312V372.714C372.544 372.714 376.156 380 388.195 380Z" fill="#EBEBEB"/>
<path d="M376.544 286V333M376.544 333C340.71 337.46 327.831 340.96 312.044 348.5M376.544 333C404.279 339.399 416.765 340.709 429.544 336" stroke="#4A2932" stroke-width="6" stroke-linecap="round" stroke-linejoin="round"/>
<ellipse cx="373.544" cy="270.5" rx="35" ry="27.5" fill="#4A2932"/>
<path fill-rule="evenodd" clip-rule="evenodd" d="M277.326 182.443C269.539 182.443 262.07 185.996 256.564 192.32C251.058 198.643 247.964 207.22 247.964 216.163V221C247.964 231.226 251.501 241.033 257.798 248.264C264.094 255.494 272.633 259.557 281.537 259.557H284.5C289.298 259.557 294.049 258.471 298.482 256.363C302.914 254.254 306.942 251.163 310.335 247.267C313.727 243.371 316.419 238.745 318.255 233.655C320.091 228.564 321.036 223.108 321.036 217.597V214.187C321.036 212.67 321.561 211.215 322.495 210.142C323.429 209.068 324.697 208.466 326.018 208.466C327.339 208.466 328.606 209.068 329.541 210.142C330.475 211.215 331 212.67 331 214.187V217.597C331 231.761 326.101 245.344 317.38 255.359C308.66 265.374 296.833 271 284.5 271H281.537C269.99 271 258.917 265.732 250.752 256.355C242.587 246.979 238 234.261 238 221V216.163C238 204.185 242.143 192.698 249.518 184.228C256.893 175.758 266.896 171 277.326 171C282.039 171 286.705 172.067 291.059 174.139C295.413 176.211 299.369 179.248 302.7 183.077C306.031 186.906 308.673 191.451 310.474 196.452C312.275 201.454 313.201 206.814 313.197 212.227V215.507C313.197 224.806 309.981 233.725 304.255 240.3C298.529 246.876 290.764 250.57 282.667 250.57H281.531C278.15 250.569 274.803 249.803 271.68 248.317C268.558 246.83 265.721 244.652 263.331 241.906C260.941 239.16 259.046 235.901 257.753 232.314C256.46 228.726 255.795 224.882 255.796 221V217.597C255.798 210.661 258.197 204.01 262.467 199.105C266.737 194.2 272.528 191.442 278.568 191.438C287.868 191.438 295.414 200.097 295.414 210.785V212.73C295.414 217.343 293.819 221.768 290.978 225.03C288.138 228.292 284.285 230.124 280.268 230.124H278.568C277.247 230.124 275.979 229.521 275.045 228.448C274.111 227.375 273.586 225.92 273.586 224.403C273.586 222.885 274.111 221.43 275.045 220.357C275.979 219.284 277.247 218.681 278.568 218.681H280.262C280.942 218.681 281.616 218.527 282.245 218.228C282.873 217.929 283.445 217.49 283.926 216.938C284.407 216.385 284.788 215.729 285.049 215.007C285.309 214.285 285.443 213.512 285.443 212.73V210.777C285.443 206.413 282.368 202.874 278.568 202.874C275.171 202.88 271.915 204.434 269.515 207.194C267.115 209.955 265.767 213.696 265.767 217.597V221C265.767 225.805 267.429 230.414 270.388 233.812C273.347 237.21 277.36 239.119 281.544 239.119H282.68C288.134 239.119 293.365 236.63 297.222 232.201C301.079 227.771 303.246 221.764 303.246 215.5V212.219C303.249 208.309 302.58 204.436 301.279 200.823C299.977 197.209 298.068 193.926 295.66 191.16C293.253 188.395 290.395 186.202 287.249 184.706C284.103 183.21 280.731 182.441 277.326 182.443Z" fill="#4A2932"/>
<path fill-rule="evenodd" clip-rule="evenodd" d="M439.691 180.028C431.922 180.564 424.716 184.622 419.657 191.309C414.599 197.997 412.103 206.766 412.718 215.688L413.051 220.513C413.754 230.715 417.957 240.255 424.736 247.036C431.515 253.816 440.313 257.282 449.196 256.669L452.152 256.465C456.938 256.135 461.604 254.726 465.881 252.317C470.158 249.909 473.963 246.548 477.08 242.428C480.197 238.308 482.563 233.508 484.045 228.303C485.527 223.098 486.094 217.59 485.715 212.093L485.48 208.691C485.376 207.177 485.8 205.689 486.658 204.554C487.516 203.419 488.739 202.731 490.057 202.64C491.375 202.549 492.681 203.063 493.687 204.069C494.693 205.076 495.317 206.491 495.421 208.005L495.656 211.407C496.63 225.537 492.677 239.425 484.666 250.016C476.655 260.607 465.242 267.033 452.939 267.882L449.983 268.085C438.464 268.88 427.054 264.386 418.263 255.593C409.473 246.8 404.022 234.428 403.11 221.198L402.777 216.373C401.953 204.424 405.297 192.678 412.072 183.721C418.847 174.764 428.498 169.329 438.903 168.612C443.605 168.288 448.334 169.031 452.82 170.799C457.306 172.567 461.462 175.325 465.048 178.915C468.635 182.505 471.583 186.858 473.724 191.724C475.865 196.59 477.157 201.874 477.526 207.274L477.751 210.546C478.391 219.824 475.795 228.942 470.536 235.896C465.276 242.849 457.783 247.069 449.705 247.626L448.571 247.704C445.199 247.936 441.807 247.402 438.59 246.134C435.372 244.865 432.392 242.887 429.819 240.312C427.246 237.738 425.131 234.616 423.594 231.127C422.058 227.637 421.13 223.847 420.864 219.974L420.63 216.58C420.155 209.66 422.091 202.86 426.013 197.672C429.936 192.485 435.524 189.335 441.549 188.916C450.826 188.276 458.95 196.396 459.686 207.058L459.819 208.999C460.137 213.601 458.849 218.125 456.24 221.575C453.631 225.024 449.913 227.117 445.906 227.394L444.209 227.511C442.891 227.602 441.586 227.087 440.58 226.081C439.574 225.075 438.95 223.659 438.846 222.145C438.741 220.631 439.165 219.143 440.023 218.009C440.881 216.874 442.104 216.185 443.422 216.094L445.112 215.978C445.791 215.931 446.453 215.731 447.059 215.39C447.666 215.048 448.206 214.571 448.648 213.987C449.09 213.403 449.425 212.722 449.635 211.984C449.845 211.246 449.926 210.465 449.872 209.685L449.738 207.737C449.438 203.383 446.126 200.063 442.335 200.325C438.947 200.564 435.805 202.339 433.601 205.258C431.396 208.177 430.309 212.002 430.577 215.894L430.811 219.289C431.142 224.083 433.117 228.566 436.303 231.752C439.488 234.939 443.623 236.567 447.797 236.279L448.93 236.201C454.372 235.826 459.419 232.984 462.963 228.299C466.506 223.615 468.254 217.473 467.823 211.223L467.598 207.951C467.331 204.049 466.398 200.232 464.851 196.716C463.304 193.201 461.173 190.057 458.581 187.464C455.99 184.87 452.987 182.879 449.746 181.603C446.504 180.327 443.087 179.792 439.691 180.028Z" fill="#4A2932"/>
<path fill-rule="evenodd" clip-rule="evenodd" d="M262.886 141.03C267.839 140.235 272.957 140.23 279.617 141.06C284.1 141.619 289.194 139.497 290.996 136.321C292.797 133.144 290.623 130.115 286.14 129.556C278.077 128.551 270.453 128.38 262.281 129.691C254.141 130.997 246.189 133.655 237.404 137.571C233.034 139.519 231.162 143.182 233.222 145.753C235.282 148.324 240.495 148.829 244.865 146.881C252.34 143.548 257.899 141.83 262.886 141.03Z" fill="#4A2932"/>
<path fill-rule="evenodd" clip-rule="evenodd" d="M439.201 134.664C435.357 134.469 431.348 134.882 426.092 136.053C422.555 136.841 418.662 135.655 417.398 133.405C416.135 131.154 417.978 128.691 421.516 127.903C427.879 126.486 433.86 125.735 440.201 126.057C446.517 126.378 452.623 127.735 459.323 129.973C462.656 131.086 463.953 133.698 462.22 135.807C460.486 137.915 456.379 138.722 453.046 137.608C447.345 135.704 443.07 134.86 439.201 134.664Z" fill="#4A2932"/>
</svg>
