<svg width="569" height="474" viewBox="0 0 569 474" fill="none" xmlns="http://www.w3.org/2000/svg">
<path d="M144 48.7293C144 48.7293 118.131 -7.3787 70.9568 29.6287C23.783 66.6361 67.3046 112 67.3046 112L144 48.7293Z" fill="#BA6958"/>
<path d="M124 64.3617C124 64.3617 111.474 38.9654 88.6317 55.7161C65.7896 72.4668 86.8633 93 86.8633 93L124 64.3617Z" fill="#5B3236"/>
<path d="M400 41.8604C400 41.8604 426.856 3.26286 462.257 31.0723C497.658 58.8818 465.919 97 465.919 97L400 41.8604Z" fill="#BA6958"/>
<path d="M417 57.7089C417 57.7089 428.959 37.9451 448.766 49.7719C468.572 61.5988 450.354 84 450.354 84L417 57.7089Z" fill="#5B3236"/>
<path d="M346.917 473.741C346.917 473.741 547.631 464.813 567.097 364.065C574.317 326.703 561.076 273.673 525.928 255.595C487.637 235.899 472.785 238.309 433.356 244.708C433.35 244.709 433.343 244.71 433.337 244.711C430.716 245.136 427.986 245.579 425.134 246.034C405.119 249.229 379.064 253.028 342.097 255.595C281.07 259.832 236.125 254.341 199.033 249.809C162.27 245.318 133.222 241.769 103.876 249.568C12.5221 290.696 6.10883 364.279 80.2174 420.893C92.9914 430.192 107.727 438.984 125.636 448.375C219.108 478.379 346.917 473.741 346.917 473.741Z" fill="#F7B9A2"/>
<path d="M433.356 244.708C472.785 238.309 487.637 235.899 525.928 255.595C524.893 250.502 522.577 239.254 521.376 233.901C493.971 109.833 448.323 53.4495 372.183 29.3722C366.303 19.9171 355.339 15.6011 346.917 15.6011C335.375 15.998 327.553 16.9822 322.012 18.4168C319.824 18.1112 317.616 17.8209 315.389 17.5451C315.88 17.1608 316.372 16.7787 316.862 16.398C323.05 11.5922 328.927 7.02759 330.072 1.29083C330.652 -1.61216 302.845 -0.569122 280.862 14.4678C278.842 14.3484 276.808 14.2374 274.759 14.1344C279.379 10.926 284.64 8.1663 285.555 2.49516C286.514 -3.45372 239.849 5.74762 220.583 15.6011C81.9021 37.9628 -37.9039 218.031 11.2307 339.961C33.3524 377.342 51.9971 400.352 80.2174 420.893C6.10883 364.279 12.5221 290.696 103.876 249.568C133.222 241.769 162.27 245.318 199.033 249.809C236.125 254.341 281.07 259.832 342.097 255.595C379.064 253.028 405.119 249.229 425.134 246.034C427.986 245.579 430.716 245.136 433.337 244.711L433.356 244.708Z" fill="url(#paint0_linear_522_26)"/>
<path d="M177.929 268.001C192.679 267.895 208 279.889 208 290.589C208 301.288 192.393 312.416 177.929 311.988C163.26 311.554 147.911 302.671 149.061 288.211C150.143 274.598 164.114 268.099 177.929 268.001Z" fill="#F89A81"/>
<path d="M517.756 268.001C532.91 267.899 540 276.028 540 286.348C540 296.667 526.5 307.401 511.64 306.988C496.57 306.57 486.916 296.854 488.098 282.908C489.21 269.778 503.563 268.096 517.756 268.001Z" fill="#F89A81"/>
<path d="M272.25 140.167C274.412 131.004 273.71 128.73 272.25 125C264.254 134.461 258.347 140.167 241.284 145.855C224.22 151.543 223.112 153.293 209.685 155.334C209.685 155.334 205.893 158.494 209.685 161.022C213.477 163.55 226.116 164.182 226.116 164.182C242.304 162.765 248.133 160.608 255.187 155.334C263.762 150.597 267.416 147.209 272.25 140.167Z" fill="#4A2932"/>
<path d="M408.371 140.167C406.209 131.004 406.911 128.73 408.371 125C416.367 134.461 422.274 140.167 439.337 145.855C456.4 151.543 457.508 153.293 470.935 155.334C470.935 155.334 474.727 158.494 470.935 161.022C467.144 163.55 454.504 164.182 454.504 164.182C438.316 162.765 432.487 160.608 425.434 155.334C416.859 150.597 413.204 147.209 408.371 140.167Z" fill="#4A2932"/>
<path d="M343.303 237.5C343.303 237.5 343.127 237.662 342.791 237.967C336.399 245.964 407.119 284.019 426.5 290C459.41 300.157 470.779 340.52 452.214 348.5C449.477 352.882 409.838 334.081 396.228 334.5C382.304 334.928 346.694 305.5 346.694 305.5C346.694 305.5 328.486 329.969 312.228 334.5C298.022 338.459 245 363.331 240.5 355C232.591 350.802 240.075 297.5 269 290C291.581 284.145 337.447 242.832 342.791 237.967C342.927 237.798 343.097 237.642 343.303 237.5Z" fill="#F5F5F5"/>
<path d="M238 352C232.391 337.905 236.162 321.227 247.569 306.108C251.532 300.855 257.772 297.927 264.339 297.5C290.921 295.773 310.687 306.108 350.327 306.108C394.784 306.108 434.647 295.456 449.448 306.108C464.249 316.761 464.078 338.021 458 352C453 363.5 436.5 369.082 427.5 371.5C394 380.5 384.827 383 350.327 383C320.5 383 302.5 383 259 370.5C249.407 367.743 240.961 359.441 238 352Z" fill="#F89A81"/>
<path d="M364.378 362C385.134 362 378.825 307.357 378.825 307.357L348.727 294V354.714C348.727 354.714 352.339 362 364.378 362Z" fill="#EBEBEB"/>
<path d="M332.059 360.692C312.225 357.054 320.392 309.763 320.392 309.763L350.727 294V353.416C350.727 353.416 343.549 362.799 332.059 360.692Z" fill="#F5F5F5"/>
<path d="M383 254.5C383 269.688 367.33 282 348 282C328.67 282 313 269.688 313 254.5C313 239.312 328.67 227 348 227C367.33 227 383 239.312 383 254.5Z" fill="#4A2932"/>
<path fill-rule="evenodd" clip-rule="evenodd" d="M337.375 294.595C339.932 293.08 341.5 290.329 341.5 287.357V238C341.5 235.239 343.738 233 346.5 233C349.261 233 351.5 235.239 351.5 238V281.171C351.5 287.837 355.173 293.959 361.055 297.096C370.997 302.399 382.795 302.96 393.196 298.626C401.504 295.165 410.622 294.131 419.493 295.643L443.01 299.651C448.283 300.55 455.071 306.499 451.47 310.454C449.901 312.178 448.478 310.727 446.18 310.336L417.813 305.501C410.806 304.306 403.604 305.123 397.043 307.857C383.873 313.344 368.937 312.633 356.349 305.919L350.891 303.009C348.245 301.597 345.053 301.669 342.473 303.198C328.255 311.624 311.035 313.32 295.446 307.831C287.709 305.107 279.383 304.508 271.336 306.096L252.415 309.83C248.978 310.509 244.366 309.787 243.761 306.336C243.149 302.847 247.072 300.692 250.548 300.006L269.399 296.285C279.201 294.351 289.343 295.08 298.767 298.399C311.565 302.905 325.702 301.512 337.375 294.595Z" fill="#4A2932"/>
<ellipse cx="234.5" cy="226.5" rx="25.5" ry="33.5" fill="#5B3236"/>
<ellipse cx="217.554" cy="211.865" rx="7.98981" ry="10.7204" transform="rotate(10.503 217.554 211.865)" fill="#D9D9D9"/>
<ellipse cx="455" cy="223.5" rx="25" ry="33.5" fill="#5B3236"/>
<ellipse cx="438.287" cy="209.456" rx="7.98981" ry="10.7204" transform="rotate(10.503 438.287 209.456)" fill="#D9D9D9"/>
<defs>
<linearGradient id="paint0_linear_522_26" x1="284.5" y1="0" x2="284.5" y2="474" gradientUnits="userSpaceOnUse">
<stop stop-color="#628FF4"/>
<stop offset="0.4" stop-color="#BA6958"/>
</linearGradient>
</defs>
</svg>
