<svg width="569" height="474" viewBox="0 0 569 474" fill="none" xmlns="http://www.w3.org/2000/svg">
<path d="M145 48.7293C145 48.7293 119.131 -7.3787 71.9568 29.6287C24.783 66.6361 68.3046 112 68.3046 112L145 48.7293Z" fill="#424242"/>
<path d="M125 64.3617C125 64.3617 112.474 38.9654 89.6317 55.7161C66.7896 72.4668 87.8633 93 87.8633 93L125 64.3617Z" fill="#424242"/>
<path d="M400 41.8604C400 41.8604 426.856 3.26286 462.257 31.0723C497.658 58.8818 465.919 97 465.919 97L400 41.8604Z" fill="#424242"/>
<path d="M417 57.7089C417 57.7089 428.959 37.9451 448.766 49.7719C468.572 61.5988 450.354 84 450.354 84L417 57.7089Z" fill="#424242"/>
<path d="M346.917 473.741C346.917 473.741 547.631 464.813 567.097 364.065C574.317 326.703 561.076 273.673 525.928 255.595C487.637 235.899 472.785 238.309 433.356 244.708C412.341 248.118 384.345 252.661 342.097 255.595C281.07 259.832 236.125 254.341 199.033 249.809C162.27 245.318 133.222 241.769 103.876 249.568C12.5221 290.696 6.10883 364.279 80.2174 420.893C92.9914 430.192 107.727 438.984 125.636 448.375C219.108 478.379 346.917 473.741 346.917 473.741Z" fill="#424242"/>
<path d="M220.583 15.6011C81.9021 37.9628 -37.9039 218.031 11.2307 339.961C33.3524 377.342 51.9971 400.352 80.2174 420.893C6.10883 364.279 12.5221 290.696 103.876 249.568C133.222 241.769 162.27 245.318 199.033 249.809C236.125 254.341 281.07 259.832 342.097 255.595C384.345 252.661 412.341 248.118 433.356 244.708C472.785 238.309 487.637 235.899 525.928 255.595C524.893 250.502 522.577 239.254 521.376 233.901C493.971 109.833 448.323 53.4495 372.183 29.3722C366.303 19.9171 355.339 15.6011 346.917 15.6011C335.375 15.998 327.553 16.9822 322.012 18.4168C319.824 18.1112 317.616 17.8209 315.389 17.5451C315.88 17.1608 316.372 16.7787 316.862 16.398C323.05 11.5922 328.927 7.02759 330.072 1.29083C330.652 -1.61216 302.845 -0.569122 280.862 14.4678C278.842 14.3484 276.808 14.2374 274.759 14.1344C279.379 10.926 284.64 8.1663 285.555 2.49516C286.514 -3.45372 239.849 5.74762 220.583 15.6011Z" fill="#424242"/>
<path d="M352.333 369.692C332.499 366.054 340.666 318.763 340.666 318.763L371 303V362.416C371 362.416 363.822 371.799 352.333 369.692Z" fill="#424242"/>
<path d="M384.651 371C405.407 371 399.098 316.357 399.098 316.357L369 303V363.714C369 363.714 372.612 371 384.651 371Z" fill="#424242"/>
<path d="M305.5 296.5C320.582 276.822 366.966 261 366.966 261C366.966 261 419.983 280.042 436.5 302.5C446.806 316.512 441.761 325.681 440 328.5C437.263 332.882 430.11 343.081 416.5 343.5C402.577 343.928 366.966 314.5 366.966 314.5C366.966 314.5 348.758 338.969 332.5 343.5C318.295 347.459 301.5 336.831 297 328.5C295.5 321.5 296.302 308.5 305.5 296.5Z" fill="#424242"/>
<path d="M404 270.5C404 285.688 388.33 298 369 298C349.67 298 334 285.688 334 270.5C334 255.312 349.67 243 369 243C388.33 243 404 255.312 404 270.5Z" fill="#424242"/>
<path fill-rule="evenodd" clip-rule="evenodd" d="M226.66 179.49C223.992 182.261 220.871 184.631 216.435 187.211C213.449 188.948 211.289 192.584 211.612 195.332C211.935 198.08 214.617 198.9 217.604 197.164C222.975 194.04 227.704 190.616 232.105 186.046C236.488 181.493 240.152 176.213 243.76 169.788C245.555 166.593 245.058 163.518 242.649 162.921C240.241 162.324 236.834 164.431 235.039 167.627C231.968 173.094 229.345 176.701 226.66 179.49Z" fill="#424242"/>
<path fill-rule="evenodd" clip-rule="evenodd" d="M440.124 218.226C432.457 218.569 424.681 217.693 414.709 215.289C407.997 213.671 399.882 215.993 396.584 220.474C393.286 224.956 396.053 229.901 402.766 231.519C414.839 234.429 426.392 236.004 439.04 235.438C451.638 234.874 464.189 232.238 478.227 227.847C485.211 225.663 488.703 220.46 486.026 216.225C483.35 211.99 475.52 210.328 468.536 212.512C456.59 216.248 447.841 217.88 440.124 218.226Z" fill="#424242"/>
<path fill-rule="evenodd" clip-rule="evenodd" d="M278.291 224.272C270.622 223.996 262.941 222.496 253.195 219.297C246.635 217.143 238.36 218.804 234.711 223.005C231.063 227.206 233.423 232.358 239.984 234.512C251.783 238.385 263.172 240.886 275.825 241.341C288.427 241.794 301.149 240.177 315.496 236.932C322.632 235.317 326.532 230.412 324.206 225.975C321.88 221.539 314.208 219.251 307.072 220.865C294.863 223.627 286.011 224.549 278.291 224.272Z" fill="#424242"/>
<path fill-rule="evenodd" clip-rule="evenodd" d="M476.499 177.22C473.756 174.524 471.418 171.379 468.884 166.917C467.178 163.913 463.564 161.716 460.813 162.011C458.061 162.305 457.214 164.979 458.92 167.983C461.988 173.386 465.363 178.151 469.888 182.598C474.395 187.028 479.638 190.745 486.025 194.419C489.202 196.247 492.282 195.781 492.903 193.379C493.525 190.977 491.453 187.548 488.276 185.72C482.841 182.594 479.261 179.934 476.499 177.22Z" fill="#424242"/>
<path d="M177.929 268.001C192.679 267.895 208 279.889 208 290.589C208 301.288 192.393 312.416 177.929 311.988C163.26 311.554 147.911 302.671 149.061 288.211C150.143 274.598 164.114 268.099 177.929 268.001Z" fill="#424242"/>
<path d="M517.756 268.001C532.91 267.899 540 276.028 540 286.348C540 296.667 526.5 307.401 511.64 306.988C496.57 306.57 486.916 296.854 488.098 282.908C489.21 269.778 503.563 268.096 517.756 268.001Z" fill="#424242"/>
<path fill-rule="evenodd" clip-rule="evenodd" d="M372.5 271C374.709 271 376.5 272.791 376.5 275V309.404C383.806 321.587 391.961 329.078 400.308 333.307C408.854 337.637 417.899 338.698 426.991 337.532C429.183 337.252 431.187 338.8 431.468 340.991C431.748 343.183 430.2 345.187 428.009 345.468C417.601 346.802 406.896 345.613 396.692 340.443C387.908 335.993 379.718 328.705 372.467 317.964C364.625 329.819 350.38 347.5 323 347.5C320.791 347.5 319 345.709 319 343.5C319 341.291 320.791 339.5 323 339.5C349.296 339.5 361.307 320.671 368.5 309.337V275C368.5 272.791 370.291 271 372.5 271Z" fill="#424242"/>
</svg>
