<svg width="64" height="65" viewBox="0 0 64 65" fill="none" xmlns="http://www.w3.org/2000/svg">
<path d="M32.0003 35.2084C31.1885 35.1987 30.3932 35.4419 29.7215 35.9052C29.0498 36.3685 28.534 37.0297 28.2436 37.7997C27.9531 38.5697 27.9018 39.4117 28.0967 40.2122C28.2916 41.0127 28.7233 41.7333 29.3337 42.2771V46.0417C29.3337 46.76 29.6146 47.4489 30.1147 47.9568C30.6148 48.4647 31.2931 48.75 32.0003 48.75C32.7076 48.75 33.3858 48.4647 33.8859 47.9568C34.386 47.4489 34.667 46.76 34.667 46.0417V42.2771C35.2774 41.7333 35.709 41.0127 35.9039 40.2122C36.0988 39.4117 36.0476 38.5697 35.7571 37.7997C35.4666 37.0297 34.9508 36.3685 34.2791 35.9052C33.6075 35.4419 32.8122 35.1987 32.0003 35.2084ZM45.3337 24.375V18.9584C45.3337 15.3669 43.9289 11.9225 41.4284 9.38295C38.9279 6.84339 35.5365 5.41669 32.0003 5.41669C28.4641 5.41669 25.0727 6.84339 22.5722 9.38295C20.0717 11.9225 18.667 15.3669 18.667 18.9584V24.375C16.5453 24.375 14.5104 25.231 13.0101 26.7548C11.5098 28.2785 10.667 30.3451 10.667 32.5V51.4584C10.667 53.6132 11.5098 55.6799 13.0101 57.2036C14.5104 58.7273 16.5453 59.5834 18.667 59.5834H45.3337C47.4554 59.5834 49.4902 58.7273 50.9905 57.2036C52.4908 55.6799 53.3337 53.6132 53.3337 51.4584V32.5C53.3337 30.3451 52.4908 28.2785 50.9905 26.7548C49.4902 25.231 47.4554 24.375 45.3337 24.375ZM24.0003 18.9584C24.0003 16.8035 24.8432 14.7368 26.3435 13.2131C27.8438 11.6894 29.8786 10.8334 32.0003 10.8334C34.1221 10.8334 36.1569 11.6894 37.6572 13.2131C39.1575 14.7368 40.0003 16.8035 40.0003 18.9584V24.375H24.0003V18.9584ZM48.0003 51.4584C48.0003 52.1767 47.7194 52.8655 47.2193 53.3734C46.7192 53.8814 46.0409 54.1667 45.3337 54.1667H18.667C17.9597 54.1667 17.2815 53.8814 16.7814 53.3734C16.2813 52.8655 16.0003 52.1767 16.0003 51.4584V32.5C16.0003 31.7817 16.2813 31.0929 16.7814 30.5849C17.2815 30.077 17.9597 29.7917 18.667 29.7917H45.3337C46.0409 29.7917 46.7192 30.077 47.2193 30.5849C47.7194 31.0929 48.0003 31.7817 48.0003 32.5V51.4584Z" fill="black"/>
</svg>
