<svg width="56" height="55" viewBox="0 0 56 55" fill="none" xmlns="http://www.w3.org/2000/svg">
<path fill-rule="evenodd" clip-rule="evenodd" d="M56 13.5417C56 9.95019 54.5952 6.50582 52.0948 3.96626C49.5943 1.42671 46.2029 0 42.6667 0C39.1304 0 35.7391 1.42671 33.2386 3.96626C30.7381 6.50582 29.3333 9.95019 29.3333 13.5417V18.9583H8C5.87827 18.9583 3.84344 19.8144 2.34315 21.3381C0.842855 22.8618 0 24.9284 0 27.0833V46.0417C0 48.1965 0.842855 50.2632 2.34315 51.7869C3.84344 53.3106 5.87827 54.1667 8 54.1667H34.6667C36.7884 54.1667 38.8232 53.3106 40.3235 51.7869C41.8238 50.2632 42.6667 48.1965 42.6667 46.0417V27.0833C42.6667 24.9284 41.8238 22.8618 40.3235 21.3381C38.8232 19.8144 36.7884 18.9583 34.6667 18.9583V13.5417C34.6667 11.3868 35.5095 9.32016 37.0098 7.79642C38.5101 6.27269 40.5449 5.41667 42.6667 5.41667C44.7884 5.41667 46.8232 6.27269 48.3235 7.79642C49.8238 9.32016 50.6667 11.3868 50.6667 13.5417V17C50.6667 17.5523 51.1144 18 51.6667 18H55C55.5523 18 56 17.5523 56 17V13.5417ZM36.5523 47.9567C37.0524 47.4488 37.3333 46.76 37.3333 46.0417V27.0833C37.3333 26.365 37.0524 25.6762 36.5523 25.1683C36.0522 24.6603 35.3739 24.375 34.6667 24.375H8C7.29276 24.375 6.61448 24.6603 6.11438 25.1683C5.61429 25.6762 5.33333 26.365 5.33333 27.0833V46.0417C5.33333 46.76 5.61429 47.4488 6.11438 47.9567C6.61448 48.4647 7.29276 48.75 8 48.75H34.6667C35.3739 48.75 36.0522 48.4647 36.5523 47.9567Z" fill="black"/>
<path d="M21.3333 29.7917C20.5215 29.782 19.7262 30.0252 19.0545 30.4885C18.3828 30.9518 17.8671 31.613 17.5766 32.383C17.2861 33.153 17.2348 33.995 17.4297 34.7955C17.6246 35.596 18.0563 36.3166 18.6667 36.8604V40.625C18.6667 41.3433 18.9476 42.0322 19.4477 42.5401C19.9478 43.048 20.6261 43.3333 21.3333 43.3333C22.0406 43.3333 22.7189 43.048 23.219 42.5401C23.719 42.0322 24 41.3433 24 40.625V36.8604C24.6104 36.3166 25.042 35.596 25.2369 34.7955C25.4318 33.995 25.3806 33.153 25.0901 32.383C24.7996 31.613 24.2838 30.9518 23.6122 30.4885C22.9405 30.0252 22.1452 29.782 21.3333 29.7917Z" fill="black"/>
</svg>
