<svg width="775" height="695" viewBox="0 0 775 695" fill="none" xmlns="http://www.w3.org/2000/svg">
<path d="M341.862 45.231V16C341.862 7.16344 349.025 0 357.862 0H390.248H420.531C429.368 0 436.531 7.16345 436.531 16V45.231H341.862Z" fill="#885551"/>
<path d="M452.218 45.231H758.186C767.022 45.231 774.186 52.3944 774.186 61.231V415.272C774.186 424.109 767.022 431.272 758.186 431.272H16C7.16346 431.272 0 424.109 0 415.272V61.231C0 52.3944 7.16344 45.231 16 45.231H452.218Z" fill="#BA6958"/>
<path d="M57.9682 177.823C58.5053 176.963 59.1499 176.319 59.9018 175.889C60.4747 175.531 61.1103 175.352 61.8086 175.352C62.2741 175.352 62.5068 175.477 62.5068 175.728C62.5068 175.835 62.4083 175.925 62.2114 175.996C61.4236 176.301 60.797 176.856 60.3315 177.661C59.9555 178.306 59.7407 178.95 59.687 179.595C59.7944 179.577 59.9555 179.568 60.1704 179.568C62.0861 179.568 63.0439 180.526 63.0439 182.442C63.0439 184.357 62.0861 185.315 60.1704 185.315C59.2036 185.315 58.4248 184.993 57.834 184.348C57.1715 183.668 56.8403 182.755 56.8403 181.609C56.8403 180.231 57.2163 178.968 57.9682 177.823ZM51.4692 177.823C52.0063 176.963 52.6508 176.319 53.4028 175.889C53.9757 175.531 54.6113 175.352 55.3095 175.352C55.775 175.352 56.0078 175.477 56.0078 175.728C56.0078 175.835 55.9093 175.925 55.7124 175.996C54.9246 176.301 54.298 176.856 53.8325 177.661C53.4565 178.306 53.2417 178.95 53.188 179.595C53.2954 179.577 53.4565 179.568 53.6714 179.568C55.587 179.568 56.5449 180.526 56.5449 182.442C56.5449 184.357 55.587 185.315 53.6714 185.315C52.7046 185.315 51.9258 184.993 51.3349 184.348C50.6725 183.668 50.3413 182.755 50.3413 181.609C50.3413 180.231 50.7173 178.968 51.4692 177.823ZM95.0288 203.899C96.479 203.899 97.2041 204.32 97.2041 205.161C97.2041 205.43 97.0966 205.94 96.8818 206.692C95.9329 209.969 93.9098 212.466 90.8125 214.185C87.733 215.886 84.5462 216.736 81.2519 216.736C75.7555 216.736 71.4765 214.991 68.415 211.499C65.3714 208.008 63.8496 203.55 63.8496 198.125C63.8496 192.629 65.3803 188.072 68.4419 184.456C71.5034 180.821 75.8987 179.004 81.6279 179.004C84.9938 179.004 88.2164 179.908 91.2959 181.717C94.3753 183.525 96.2731 186.157 96.9892 189.612C97.0966 190.006 97.1504 190.31 97.1504 190.525C97.1504 191.402 96.4163 191.841 94.9482 191.841C93.5875 191.841 92.8624 191.465 92.7729 190.713C91.9673 184.536 88.2522 181.448 81.6279 181.448C77.0804 181.448 73.7055 183.185 71.5034 186.658C69.3012 190.113 68.2002 193.873 68.2002 197.937C68.2002 201.93 69.2386 205.654 71.3154 209.109C73.4101 212.565 76.7223 214.292 81.2519 214.292C83.9733 214.292 86.4708 213.433 88.7446 211.714C91.0363 209.995 92.4059 207.757 92.8535 205C92.9788 204.266 93.7039 203.899 95.0288 203.899ZM103.435 216.736C101.966 216.736 101.232 216.324 101.232 215.501V190.471C101.232 189.648 101.966 189.236 103.435 189.236C104.885 189.236 105.61 189.648 105.61 190.471V193.452C106.899 190.642 109.244 189.236 112.646 189.236C114.651 189.236 116.388 189.72 117.856 190.686C118.214 190.919 118.393 191.206 118.393 191.546C118.393 191.957 118.151 192.342 117.668 192.7C117.292 192.969 116.871 193.103 116.406 193.103C115.779 193.103 115.197 192.88 114.66 192.432C114.123 191.966 113.273 191.734 112.109 191.734C109.549 191.734 107.821 192.96 106.926 195.413C106.048 197.866 105.61 200.157 105.61 202.288V215.501C105.61 216.324 104.885 216.736 103.435 216.736ZM133.029 216.736C129.001 216.736 125.662 215.51 123.012 213.057C120.38 210.586 119.064 207.301 119.064 203.201C119.064 199.047 120.398 195.681 123.066 193.103C125.751 190.525 129.144 189.236 133.244 189.236C137.093 189.236 140.37 190.283 143.073 192.378C145.795 194.473 147.155 197.552 147.155 201.617C147.155 202.583 146.43 203.067 144.98 203.067H123.415C123.415 205.931 124.239 208.518 125.886 210.828C127.551 213.137 129.941 214.292 133.056 214.292C135.33 214.292 137.362 213.684 139.152 212.466C141.086 211.177 142.133 209.7 142.294 208.035C142.384 207.265 143.1 206.88 144.443 206.88C145.911 206.88 146.645 207.283 146.645 208.089C146.645 208.662 146.448 209.36 146.054 210.183C145.338 211.687 144.156 212.976 142.509 214.051C139.824 215.841 136.664 216.736 133.029 216.736ZM142.751 200.596C142.303 194.652 139.134 191.68 133.244 191.68C127.98 191.68 124.785 194.652 123.657 200.596H142.751ZM175.353 216.736C173.259 216.736 171.871 215.456 171.191 212.896C168.935 215.456 165.605 216.736 161.201 216.736C158.497 216.736 156.179 216.19 154.245 215.098C151.756 213.719 150.512 211.705 150.512 209.055C150.512 207.14 151.049 205.6 152.124 204.436C153.216 203.255 154.648 202.503 156.42 202.18C158.211 201.84 159.974 201.67 161.711 201.67C162.284 201.67 162.928 201.688 163.645 201.724C164.379 201.76 165.122 201.778 165.874 201.778C168.111 201.778 169.705 201.482 170.654 200.891V198.179C170.654 193.846 168.147 191.68 163.134 191.68C161.254 191.68 159.589 192.154 158.139 193.103C156.492 194.178 155.668 195.467 155.668 196.971C155.668 197.794 154.943 198.206 153.493 198.206C152.043 198.206 151.318 197.794 151.318 196.971C151.354 194.876 152.517 193.059 154.809 191.519C157.083 189.997 159.858 189.236 163.134 189.236C165.909 189.236 168.586 189.916 171.164 191.277C173.742 192.638 175.031 194.938 175.031 198.179V209.969C175.031 211.293 175.201 212.341 175.541 213.111C175.864 213.791 176.329 214.31 176.938 214.668C177.332 214.901 177.529 215.179 177.529 215.501C177.529 216.324 176.804 216.736 175.353 216.736ZM161.201 214.292C163.313 214.292 165.417 213.657 167.512 212.386C169.606 211.114 170.654 209.288 170.654 206.907V203.846C169.49 204.096 168.085 204.221 166.437 204.221C165.614 204.221 164.79 204.204 163.967 204.168C163.143 204.114 162.32 204.087 161.496 204.087C160.422 204.069 159.303 204.177 158.139 204.409C156.975 204.624 156.098 205.26 155.507 206.316C155.06 207.104 154.836 207.99 154.836 208.975C154.872 210.712 155.507 212.045 156.743 212.976C157.853 213.854 159.339 214.292 161.201 214.292ZM203.391 216.763C201.94 216.763 201.215 216.351 201.215 215.528V201.294C201.215 198.949 200.58 196.774 199.309 194.768C198.055 192.745 196.113 191.734 193.481 191.734C188.002 191.734 185.263 195.18 185.263 202.073V215.528C185.263 216.351 184.538 216.763 183.088 216.763C181.62 216.763 180.886 216.351 180.886 215.528V190.471C180.886 189.648 181.62 189.236 183.088 189.236C184.538 189.236 185.263 189.648 185.263 190.471V193.506C186.857 190.642 189.721 189.209 193.857 189.209C196.721 189.191 199.389 190.203 201.86 192.244C204.348 194.267 205.593 197.284 205.593 201.294V215.528C205.593 216.351 204.859 216.763 203.391 216.763ZM222.834 189.209C226.844 189.209 229.79 190.552 231.669 193.238V180.213C231.669 179.407 232.395 179.004 233.845 179.004C235.313 179.004 236.047 179.407 236.047 180.213V215.528C236.047 216.333 235.313 216.736 233.845 216.736C232.395 216.736 231.669 216.333 231.669 215.528V212.681C229.79 215.367 226.844 216.709 222.834 216.709C218.734 216.709 215.502 215.393 213.139 212.762C210.794 210.112 209.621 206.844 209.621 202.959C209.621 199.056 210.794 195.789 213.139 193.157C215.502 190.525 218.734 189.209 222.834 189.209ZM222.834 191.653C219.862 191.653 217.642 192.888 216.174 195.359C214.724 197.812 213.999 200.345 213.999 202.959C213.999 205.555 214.724 208.089 216.174 210.559C217.642 213.03 219.862 214.265 222.834 214.265C225.824 214.265 228.044 213.03 229.494 210.559C230.944 208.089 231.669 205.555 231.669 202.959C231.669 200.345 230.944 197.812 229.494 195.359C228.044 192.888 225.824 191.653 222.834 191.653ZM254.174 189.236C258.31 189.236 261.694 190.507 264.326 193.05C266.957 195.592 268.273 198.904 268.273 202.986C268.273 207.068 266.957 210.38 264.326 212.923C261.694 215.465 258.31 216.736 254.174 216.736C250.039 216.736 246.655 215.465 244.023 212.923C241.391 210.38 240.075 207.068 240.075 202.986C240.075 198.904 241.391 195.592 244.023 193.05C246.655 190.507 250.039 189.236 254.174 189.236ZM254.174 191.68C251.041 191.68 248.633 192.853 246.95 195.198C245.285 197.543 244.453 200.139 244.453 202.986C244.453 205.833 245.285 208.429 246.95 210.774C248.633 213.12 251.041 214.292 254.174 214.292C257.307 214.292 259.707 213.12 261.372 210.774C263.054 208.429 263.896 205.833 263.896 202.986C263.896 200.139 263.054 197.543 261.372 195.198C259.707 192.853 257.307 191.68 254.174 191.68ZM308.234 216.736C306.784 216.736 306.059 216.333 306.059 215.528V201.267C306.059 198.081 305.262 195.69 303.669 194.097C302.075 192.504 300.312 191.707 298.378 191.707C292.864 191.671 290.107 195.126 290.107 202.073V215.528C290.107 216.333 289.382 216.736 287.932 216.736C286.464 216.736 285.729 216.333 285.729 215.528V180.213C285.729 179.407 286.464 179.004 287.932 179.004C289.382 179.004 290.107 179.407 290.107 180.213V193.506C291.7 190.642 294.565 189.209 298.701 189.209C302.174 189.209 304.994 190.364 307.16 192.674C309.344 194.983 310.436 197.848 310.436 201.267V215.528C310.436 216.333 309.702 216.736 308.234 216.736ZM327.194 183.221C326.765 183.221 326.371 182.997 326.013 182.549C325.69 182.137 325.529 181.77 325.529 181.448C325.529 181.144 325.717 180.804 326.093 180.428L335.197 171.941C335.466 171.691 335.779 171.565 336.137 171.565C336.818 171.565 337.444 171.932 338.017 172.666C338.447 173.257 338.662 173.803 338.662 174.304C338.662 174.788 338.474 175.164 338.098 175.432L327.893 182.952C327.66 183.131 327.427 183.221 327.194 183.221ZM338.635 216.736C336.54 216.736 335.152 215.456 334.472 212.896C332.216 215.456 328.886 216.736 324.482 216.736C321.778 216.736 319.46 216.19 317.526 215.098C315.038 213.719 313.793 211.705 313.793 209.055C313.793 207.14 314.331 205.6 315.405 204.436C316.497 203.255 317.929 202.503 319.702 202.18C321.492 201.84 323.256 201.67 324.992 201.67C325.565 201.67 326.21 201.688 326.926 201.724C327.66 201.76 328.403 201.778 329.155 201.778C331.393 201.778 332.986 201.482 333.935 200.891V198.179C333.935 193.846 331.429 191.68 326.415 191.68C324.536 191.68 322.871 192.154 321.42 193.103C319.773 194.178 318.95 195.467 318.95 196.971C318.95 197.794 318.225 198.206 316.774 198.206C315.324 198.206 314.599 197.794 314.599 196.971C314.635 194.876 315.799 193.059 318.09 191.519C320.364 189.997 323.139 189.236 326.415 189.236C329.191 189.236 331.867 189.916 334.445 191.277C337.023 192.638 338.312 194.938 338.312 198.179V209.969C338.312 211.293 338.483 212.341 338.823 213.111C339.145 213.791 339.61 214.31 340.219 214.668C340.613 214.901 340.81 215.179 340.81 215.501C340.81 216.324 340.085 216.736 338.635 216.736ZM324.482 214.292C326.595 214.292 328.698 213.657 330.793 212.386C332.888 211.114 333.935 209.288 333.935 206.907V203.846C332.771 204.096 331.366 204.221 329.719 204.221C328.895 204.221 328.072 204.204 327.248 204.168C326.424 204.114 325.601 204.087 324.777 204.087C323.703 204.069 322.584 204.177 321.42 204.409C320.257 204.624 319.379 205.26 318.789 206.316C318.341 207.104 318.117 207.99 318.117 208.975C318.153 210.712 318.789 212.045 320.024 212.976C321.134 213.854 322.62 214.292 324.482 214.292ZM357.38 189.209C361.48 189.209 364.702 190.525 367.048 193.157C369.411 195.789 370.593 199.056 370.593 202.959C370.593 206.844 369.411 210.112 367.048 212.762C364.702 215.393 361.48 216.709 357.38 216.709C353.369 216.709 350.424 215.367 348.544 212.681V215.528C348.544 216.333 347.819 216.736 346.369 216.736C344.901 216.736 344.167 216.333 344.167 215.528V180.213C344.167 179.407 344.901 179.004 346.369 179.004C347.819 179.004 348.544 179.407 348.544 180.213V193.238C350.424 190.552 353.369 189.209 357.38 189.209ZM357.38 191.653C354.408 191.653 352.188 192.888 350.72 195.359C349.27 197.812 348.544 200.345 348.544 202.959C348.544 205.555 349.27 208.089 350.72 210.559C352.188 213.03 354.408 214.265 357.38 214.265C360.37 214.265 362.59 213.03 364.04 210.559C365.49 208.089 366.215 205.555 366.215 202.959C366.215 200.345 365.49 197.812 364.04 195.359C362.59 192.888 360.37 191.653 357.38 191.653ZM376.367 181.367C377.978 181.367 378.784 182.173 378.784 183.784C378.784 185.396 377.978 186.201 376.367 186.201C374.755 186.201 373.95 185.396 373.95 183.784C373.95 182.173 374.755 181.367 376.367 181.367ZM374.165 190.445C374.165 189.639 374.899 189.236 376.367 189.236C377.835 189.236 378.569 189.639 378.569 190.445V215.501C378.569 216.324 377.835 216.736 376.367 216.736C374.899 216.736 374.165 216.324 374.165 215.501V190.445ZM395.676 216.736C390.018 216.7 387.189 214.292 387.189 209.512V191.68H383.645C382.194 191.68 381.469 191.277 381.469 190.471C381.469 189.648 382.194 189.236 383.645 189.236H387.189V180.24C387.189 179.416 387.923 179.004 389.392 179.004C390.842 179.004 391.567 179.416 391.567 180.24V189.236H396.616C398.084 189.236 398.818 189.648 398.818 190.471C398.818 191.277 398.084 191.68 396.616 191.68H391.567V209.512C391.567 212.681 392.936 214.274 395.676 214.292C396.195 214.292 396.687 214.248 397.153 214.158C397.618 214.051 398.084 213.997 398.549 213.997C400.035 213.997 400.778 214.409 400.778 215.232C400.778 215.823 400.152 216.226 398.898 216.441C397.824 216.638 396.75 216.736 395.676 216.736ZM415.576 189.236C419.711 189.236 423.095 190.507 425.727 193.05C428.359 195.592 429.675 198.904 429.675 202.986C429.675 207.068 428.359 210.38 425.727 212.923C423.095 215.465 419.711 216.736 415.576 216.736C411.44 216.736 408.056 215.465 405.424 212.923C402.792 210.38 401.477 207.068 401.477 202.986C401.477 198.904 402.792 195.592 405.424 193.05C408.056 190.507 411.44 189.236 415.576 189.236ZM415.576 191.68C412.443 191.68 410.034 192.853 408.352 195.198C406.686 197.543 405.854 200.139 405.854 202.986C405.854 205.833 406.686 208.429 408.352 210.774C410.034 213.12 412.443 214.292 415.576 214.292C418.709 214.292 421.108 213.12 422.773 210.774C424.456 208.429 425.297 205.833 425.297 202.986C425.297 200.139 424.456 197.543 422.773 195.198C421.108 192.853 418.709 191.68 415.576 191.68ZM443.935 216.736C441.518 216.736 439.128 216.199 436.765 215.125C434.419 214.033 432.987 212.189 432.468 209.593C432.396 209.27 432.36 209.029 432.36 208.867C432.36 208.08 433.103 207.686 434.589 207.686C435.825 207.686 436.532 208.035 436.711 208.733C437.678 212.439 440.086 214.292 443.935 214.292C445.546 214.292 447.122 213.809 448.662 212.842C450.219 211.875 450.998 210.47 450.998 208.626C450.998 207.444 450.157 206.486 448.474 205.752C447.364 205.251 445.895 204.866 444.069 204.597C442.744 204.401 441.411 204.186 440.068 203.953C438.725 203.72 437.454 203.201 436.254 202.395C434.088 200.927 433.005 199.038 433.005 196.729C433.005 194.061 434.285 192.145 436.845 190.982C439.405 189.818 441.796 189.236 444.016 189.236C446.218 189.236 448.348 189.737 450.407 190.74C452.466 191.743 453.827 193.363 454.489 195.601C454.579 195.905 454.624 196.12 454.624 196.245C454.624 196.997 453.889 197.373 452.421 197.373C451.15 197.373 450.434 197.033 450.273 196.353C449.503 193.238 447.417 191.68 444.016 191.68C442.565 191.68 441.097 192.092 439.611 192.915C438.125 193.721 437.382 194.965 437.382 196.648C437.382 197.812 438.322 198.77 440.202 199.522C441.384 200.005 442.825 200.381 444.526 200.65C445.797 200.829 447.086 201.053 448.393 201.321C449.7 201.572 450.962 202.091 452.18 202.879C454.292 204.257 455.349 206.119 455.349 208.465C455.349 211.347 454.068 213.451 451.508 214.776C448.966 216.083 446.442 216.736 443.935 216.736ZM483.037 216.736C480.62 216.736 478.229 216.199 475.866 215.125C473.521 214.033 472.089 212.189 471.569 209.593C471.498 209.27 471.462 209.029 471.462 208.867C471.462 208.08 472.205 207.686 473.691 207.686C474.926 207.686 475.633 208.035 475.812 208.733C476.779 212.439 479.187 214.292 483.037 214.292C484.648 214.292 486.223 213.809 487.763 212.842C489.321 211.875 490.1 210.47 490.1 208.626C490.1 207.444 489.258 206.486 487.575 205.752C486.465 205.251 484.997 204.866 483.171 204.597C481.846 204.401 480.512 204.186 479.169 203.953C477.827 203.72 476.555 203.201 475.356 202.395C473.19 200.927 472.106 199.038 472.106 196.729C472.106 194.061 473.387 192.145 475.947 190.982C478.507 189.818 480.897 189.236 483.117 189.236C485.319 189.236 487.45 189.737 489.509 190.74C491.568 191.743 492.928 193.363 493.591 195.601C493.68 195.905 493.725 196.12 493.725 196.245C493.725 196.997 492.991 197.373 491.523 197.373C490.252 197.373 489.536 197.033 489.374 196.353C488.605 193.238 486.519 191.68 483.117 191.68C481.667 191.68 480.199 192.092 478.713 192.915C477.227 193.721 476.484 194.965 476.484 196.648C476.484 197.812 477.424 198.77 479.304 199.522C480.485 200.005 481.927 200.381 483.627 200.65C484.899 200.829 486.188 201.053 487.495 201.321C488.802 201.572 490.064 202.091 491.281 202.879C493.394 204.257 494.45 206.119 494.45 208.465C494.45 211.347 493.17 213.451 490.61 214.776C488.068 216.083 485.543 216.736 483.037 216.736ZM522.648 216.736C520.554 216.736 519.166 215.456 518.486 212.896C516.23 215.456 512.9 216.736 508.496 216.736C505.792 216.736 503.474 216.19 501.54 215.098C499.051 213.719 497.807 211.705 497.807 209.055C497.807 207.14 498.344 205.6 499.418 204.436C500.511 203.255 501.943 202.503 503.715 202.18C505.506 201.84 507.269 201.67 509.006 201.67C509.579 201.67 510.223 201.688 510.939 201.724C511.673 201.76 512.416 201.778 513.168 201.778C515.406 201.778 517 201.482 517.949 200.891V198.179C517.949 193.846 515.442 191.68 510.429 191.68C508.549 191.68 506.884 192.154 505.434 193.103C503.787 194.178 502.963 195.467 502.963 196.971C502.963 197.794 502.238 198.206 500.788 198.206C499.338 198.206 498.613 197.794 498.613 196.971C498.649 194.876 499.812 193.059 502.104 191.519C504.378 189.997 507.153 189.236 510.429 189.236C513.204 189.236 515.881 189.916 518.459 191.277C521.037 192.638 522.326 194.938 522.326 198.179V209.969C522.326 211.293 522.496 212.341 522.836 213.111C523.159 213.791 523.624 214.31 524.233 214.668C524.627 214.901 524.824 215.179 524.824 215.501C524.824 216.324 524.099 216.736 522.648 216.736ZM508.496 214.292C510.608 214.292 512.712 213.657 514.807 212.386C516.901 211.114 517.949 209.288 517.949 206.907V203.846C516.785 204.096 515.38 204.221 513.732 204.221C512.909 204.221 512.085 204.204 511.262 204.168C510.438 204.114 509.615 204.087 508.791 204.087C507.717 204.069 506.598 204.177 505.434 204.409C504.27 204.624 503.393 205.26 502.802 206.316C502.355 207.104 502.131 207.99 502.131 208.975C502.167 210.712 502.802 212.045 504.038 212.976C505.148 213.854 506.634 214.292 508.496 214.292ZM527.509 180.213C527.509 179.407 528.243 179.004 529.711 179.004C531.162 179.004 531.887 179.407 531.887 180.213V215.528C531.887 216.333 531.162 216.736 529.711 216.736C528.243 216.736 527.509 216.333 527.509 215.528V180.213ZM538.815 189.209C540.266 189.209 540.991 189.621 540.991 190.445V204.678C540.991 207.023 541.617 209.208 542.871 211.231C544.142 213.236 546.093 214.239 548.725 214.239C554.204 214.239 556.943 210.792 556.943 203.899V190.445C556.943 189.621 557.668 189.209 559.118 189.209C560.586 189.209 561.32 189.621 561.32 190.445V215.501C561.32 216.324 560.586 216.736 559.118 216.736C557.668 216.736 556.943 216.324 556.943 215.501V212.466C555.349 215.331 552.485 216.763 548.349 216.763C545.485 216.781 542.808 215.778 540.319 213.755C537.849 211.714 536.613 208.688 536.613 204.678V190.445C536.613 189.621 537.347 189.209 538.815 189.209ZM578.562 189.209C582.572 189.209 585.517 190.552 587.397 193.238V180.213C587.397 179.407 588.122 179.004 589.572 179.004C591.04 179.004 591.774 179.407 591.774 180.213V215.528C591.774 216.333 591.04 216.736 589.572 216.736C588.122 216.736 587.397 216.333 587.397 215.528V212.681C585.517 215.367 582.572 216.709 578.562 216.709C574.462 216.709 571.23 215.393 568.867 212.762C566.521 210.112 565.349 206.844 565.349 202.959C565.349 199.056 566.521 195.789 568.867 193.157C571.23 190.525 574.462 189.209 578.562 189.209ZM578.562 191.653C575.59 191.653 573.369 192.888 571.901 195.359C570.451 197.812 569.726 200.345 569.726 202.959C569.726 205.555 570.451 208.089 571.901 210.559C573.369 213.03 575.59 214.265 578.562 214.265C581.551 214.265 583.771 213.03 585.222 210.559C586.672 208.089 587.397 205.555 587.397 202.959C587.397 200.345 586.672 197.812 585.222 195.359C583.771 192.888 581.551 191.653 578.562 191.653ZM621.315 216.736C619.221 216.736 617.833 215.456 617.153 212.896C614.897 215.456 611.567 216.736 607.163 216.736C604.459 216.736 602.141 216.19 600.207 215.098C597.718 213.719 596.474 211.705 596.474 209.055C596.474 207.14 597.011 205.6 598.085 204.436C599.178 203.255 600.61 202.503 602.382 202.18C604.173 201.84 605.936 201.67 607.673 201.67C608.246 201.67 608.89 201.688 609.606 201.724C610.34 201.76 611.083 201.778 611.835 201.778C614.073 201.778 615.667 201.482 616.616 200.891V198.179C616.616 193.846 614.109 191.68 609.096 191.68C607.216 191.68 605.551 192.154 604.101 193.103C602.454 194.178 601.63 195.467 601.63 196.971C601.63 197.794 600.905 198.206 599.455 198.206C598.005 198.206 597.28 197.794 597.28 196.971C597.316 194.876 598.479 193.059 600.771 191.519C603.045 189.997 605.82 189.236 609.096 189.236C611.871 189.236 614.548 189.916 617.126 191.277C619.704 192.638 620.993 194.938 620.993 198.179V209.969C620.993 211.293 621.163 212.341 621.503 213.111C621.826 213.791 622.291 214.31 622.9 214.668C623.294 214.901 623.491 215.179 623.491 215.501C623.491 216.324 622.766 216.736 621.315 216.736ZM607.163 214.292C609.275 214.292 611.379 213.657 613.474 212.386C615.568 211.114 616.616 209.288 616.616 206.907V203.846C615.452 204.096 614.047 204.221 612.399 204.221C611.576 204.221 610.752 204.204 609.929 204.168C609.105 204.114 608.282 204.087 607.458 204.087C606.384 204.069 605.265 204.177 604.101 204.409C602.937 204.624 602.06 205.26 601.469 206.316C601.022 207.104 600.798 207.99 600.798 208.975C600.834 210.712 601.469 212.045 602.705 212.976C603.815 213.854 605.301 214.292 607.163 214.292ZM640.061 189.209C644.16 189.209 647.383 190.525 649.729 193.157C652.092 195.789 653.273 199.056 653.273 202.959C653.273 206.844 652.092 210.112 649.729 212.762C647.383 215.393 644.16 216.709 640.061 216.709C636.05 216.709 633.105 215.367 631.225 212.681V215.528C631.225 216.333 630.5 216.736 629.05 216.736C627.582 216.736 626.848 216.333 626.848 215.528V180.213C626.848 179.407 627.582 179.004 629.05 179.004C630.5 179.004 631.225 179.407 631.225 180.213V193.238C633.105 190.552 636.05 189.209 640.061 189.209ZM640.061 191.653C637.089 191.653 634.868 192.888 633.4 195.359C631.95 197.812 631.225 200.345 631.225 202.959C631.225 205.555 631.95 208.089 633.4 210.559C634.868 213.03 637.089 214.265 640.061 214.265C643.05 214.265 645.271 213.03 646.721 210.559C648.171 208.089 648.896 205.555 648.896 202.959C648.896 200.345 648.171 197.812 646.721 195.359C645.271 192.888 643.05 191.653 640.061 191.653ZM656.63 180.213C656.63 179.407 657.364 179.004 658.833 179.004C660.283 179.004 661.008 179.407 661.008 180.213V215.528C661.008 216.333 660.283 216.736 658.833 216.736C657.364 216.736 656.63 216.333 656.63 215.528V180.213ZM678.356 216.736C674.328 216.736 670.989 215.51 668.339 213.057C665.708 210.586 664.392 207.301 664.392 203.201C664.392 199.047 665.725 195.681 668.393 193.103C671.079 190.525 674.471 189.236 678.571 189.236C682.421 189.236 685.697 190.283 688.4 192.378C691.122 194.473 692.482 197.552 692.482 201.617C692.482 202.583 691.757 203.067 690.307 203.067H668.742C668.742 205.931 669.566 208.518 671.213 210.828C672.878 213.137 675.268 214.292 678.383 214.292C680.657 214.292 682.689 213.684 684.479 212.466C686.413 211.177 687.46 209.7 687.622 208.035C687.711 207.265 688.427 206.88 689.77 206.88C691.238 206.88 691.972 207.283 691.972 208.089C691.972 208.662 691.775 209.36 691.381 210.183C690.665 211.687 689.484 212.976 687.836 214.051C685.151 215.841 681.991 216.736 678.356 216.736ZM688.078 200.596C687.631 194.652 684.462 191.68 678.571 191.68C673.308 191.68 670.112 194.652 668.984 200.596H688.078ZM706.743 216.736C704.326 216.736 701.936 216.199 699.572 215.125C697.227 214.033 695.795 212.189 695.275 209.593C695.204 209.27 695.168 209.029 695.168 208.867C695.168 208.08 695.911 207.686 697.397 207.686C698.632 207.686 699.34 208.035 699.519 208.733C700.485 212.439 702.893 214.292 706.743 214.292C708.354 214.292 709.93 213.809 711.469 212.842C713.027 211.875 713.806 210.47 713.806 208.626C713.806 207.444 712.964 206.486 711.281 205.752C710.171 205.251 708.703 204.866 706.877 204.597C705.552 204.401 704.218 204.186 702.875 203.953C701.533 203.72 700.262 203.201 699.062 202.395C696.896 200.927 695.812 199.038 695.812 196.729C695.812 194.061 697.093 192.145 699.653 190.982C702.213 189.818 704.603 189.236 706.823 189.236C709.025 189.236 711.156 189.737 713.215 190.74C715.274 191.743 716.634 193.363 717.297 195.601C717.386 195.905 717.431 196.12 717.431 196.245C717.431 196.997 716.697 197.373 715.229 197.373C713.958 197.373 713.242 197.033 713.081 196.353C712.311 193.238 710.225 191.68 706.823 191.68C705.373 191.68 703.905 192.092 702.419 192.915C700.933 193.721 700.19 194.965 700.19 196.648C700.19 197.812 701.13 198.77 703.01 199.522C704.191 200.005 705.633 200.381 707.333 200.65C708.605 200.829 709.894 201.053 711.201 201.321C712.508 201.572 713.77 202.091 714.987 202.879C717.1 204.257 718.156 206.119 718.156 208.465C718.156 211.347 716.876 213.451 714.316 214.776C711.774 216.083 709.249 216.736 706.743 216.736ZM726.723 217.864C726.186 218.723 725.542 219.368 724.79 219.798C724.217 220.156 723.581 220.335 722.883 220.335C722.417 220.335 722.185 220.209 722.185 219.959C722.185 219.851 722.283 219.762 722.48 219.69C723.268 219.386 723.894 218.831 724.36 218.025C724.736 217.381 724.951 216.736 725.004 216.092C724.897 216.11 724.736 216.118 724.521 216.118C722.605 216.118 721.647 215.161 721.647 213.245C721.647 211.329 722.605 210.371 724.521 210.371C725.488 210.371 726.267 210.694 726.857 211.338C727.52 212.019 727.851 212.932 727.851 214.077C727.851 215.456 727.475 216.718 726.723 217.864ZM121.857 283.736C117.847 283.736 114.902 282.393 113.022 279.708V292.733C113.022 293.538 112.297 293.941 110.847 293.941C109.379 293.941 108.645 293.538 108.645 292.733V257.418C108.645 256.612 109.379 256.209 110.847 256.209C112.297 256.209 113.022 256.612 113.022 257.418V260.264C114.902 257.579 117.847 256.236 121.857 256.236C125.957 256.236 129.18 257.552 131.525 260.184C133.889 262.816 135.07 266.083 135.07 269.986C135.07 273.871 133.889 277.139 131.525 279.788C129.18 282.42 125.957 283.736 121.857 283.736ZM121.857 281.292C124.847 281.292 127.067 280.057 128.518 277.586C129.968 275.116 130.693 272.582 130.693 269.986C130.693 267.372 129.968 264.839 128.518 262.386C127.067 259.915 124.847 258.68 121.857 258.68C118.885 258.68 116.665 259.915 115.197 262.386C113.747 264.839 113.022 267.372 113.022 269.986C113.022 272.582 113.747 275.116 115.197 277.586C116.665 280.057 118.885 281.292 121.857 281.292ZM163.269 283.736C161.174 283.736 159.786 282.456 159.106 279.896C156.85 282.456 153.52 283.736 149.116 283.736C146.412 283.736 144.094 283.19 142.16 282.098C139.672 280.719 138.427 278.705 138.427 276.055C138.427 274.14 138.964 272.6 140.039 271.436C141.131 270.255 142.563 269.503 144.335 269.18C146.126 268.84 147.889 268.67 149.626 268.67C150.199 268.67 150.843 268.688 151.56 268.724C152.294 268.76 153.037 268.778 153.789 268.778C156.026 268.778 157.62 268.482 158.569 267.891V265.179C158.569 260.846 156.062 258.68 151.049 258.68C149.169 258.68 147.504 259.154 146.054 260.103C144.407 261.178 143.583 262.467 143.583 263.971C143.583 264.794 142.858 265.206 141.408 265.206C139.958 265.206 139.233 264.794 139.233 263.971C139.269 261.876 140.432 260.059 142.724 258.519C144.998 256.997 147.773 256.236 151.049 256.236C153.824 256.236 156.501 256.916 159.079 258.277C161.657 259.638 162.946 261.938 162.946 265.179V276.969C162.946 278.293 163.116 279.341 163.457 280.111C163.779 280.791 164.244 281.31 164.853 281.668C165.247 281.901 165.444 282.179 165.444 282.501C165.444 283.324 164.719 283.736 163.269 283.736ZM149.116 281.292C151.228 281.292 153.332 280.657 155.427 279.386C157.521 278.114 158.569 276.288 158.569 273.907V270.846C157.405 271.096 156 271.221 154.353 271.221C153.529 271.221 152.705 271.204 151.882 271.168C151.058 271.114 150.235 271.087 149.411 271.087C148.337 271.069 147.218 271.177 146.054 271.409C144.89 271.624 144.013 272.26 143.422 273.316C142.975 274.104 142.751 274.99 142.751 275.975C142.787 277.712 143.422 279.045 144.658 279.976C145.768 280.854 147.254 281.292 149.116 281.292ZM171.003 283.736C169.535 283.736 168.801 283.324 168.801 282.501V257.471C168.801 256.648 169.535 256.236 171.003 256.236C172.453 256.236 173.178 256.648 173.178 257.471V260.452C174.467 257.642 176.813 256.236 180.214 256.236C182.22 256.236 183.956 256.72 185.424 257.686C185.782 257.919 185.961 258.206 185.961 258.546C185.961 258.957 185.72 259.342 185.236 259.7C184.86 259.969 184.44 260.103 183.974 260.103C183.347 260.103 182.766 259.88 182.228 259.432C181.691 258.966 180.841 258.734 179.677 258.734C177.117 258.734 175.389 259.96 174.494 262.413C173.617 264.866 173.178 267.157 173.178 269.288V282.501C173.178 283.324 172.453 283.736 171.003 283.736ZM212.145 283.736C210.051 283.736 208.663 282.456 207.983 279.896C205.727 282.456 202.397 283.736 197.993 283.736C195.289 283.736 192.971 283.19 191.037 282.098C188.548 280.719 187.304 278.705 187.304 276.055C187.304 274.14 187.841 272.6 188.915 271.436C190.008 270.255 191.44 269.503 193.212 269.18C195.003 268.84 196.766 268.67 198.503 268.67C199.076 268.67 199.72 268.688 200.436 268.724C201.171 268.76 201.914 268.778 202.665 268.778C204.903 268.778 206.497 268.482 207.446 267.891V265.179C207.446 260.846 204.939 258.68 199.926 258.68C198.046 258.68 196.381 259.154 194.931 260.103C193.284 261.178 192.46 262.467 192.46 263.971C192.46 264.794 191.735 265.206 190.285 265.206C188.835 265.206 188.11 264.794 188.11 263.971C188.146 261.876 189.309 260.059 191.601 258.519C193.875 256.997 196.65 256.236 199.926 256.236C202.701 256.236 205.378 256.916 207.956 258.277C210.534 259.638 211.823 261.938 211.823 265.179V276.969C211.823 278.293 211.993 279.341 212.333 280.111C212.656 280.791 213.121 281.31 213.73 281.668C214.124 281.901 214.321 282.179 214.321 282.501C214.321 283.324 213.596 283.736 212.145 283.736ZM197.993 281.292C200.105 281.292 202.209 280.657 204.304 279.386C206.398 278.114 207.446 276.288 207.446 273.907V270.846C206.282 271.096 204.877 271.221 203.229 271.221C202.406 271.221 201.582 271.204 200.759 271.168C199.935 271.114 199.112 271.087 198.288 271.087C197.214 271.069 196.095 271.177 194.931 271.409C193.767 271.624 192.89 272.26 192.299 273.316C191.852 274.104 191.628 274.99 191.628 275.975C191.664 277.712 192.299 279.045 193.535 279.976C194.645 280.854 196.131 281.292 197.993 281.292ZM233.308 256.209C234.758 256.209 235.483 256.621 235.483 257.445V271.678C235.483 274.023 236.11 276.208 237.363 278.231C238.634 280.236 240.585 281.239 243.217 281.239C248.696 281.239 251.435 277.792 251.435 270.899V257.445C251.435 256.621 252.16 256.209 253.61 256.209C255.078 256.209 255.812 256.621 255.812 257.445V282.501C255.812 283.324 255.078 283.736 253.61 283.736C252.16 283.736 251.435 283.324 251.435 282.501V279.466C249.842 282.331 246.977 283.763 242.841 283.763C239.977 283.781 237.3 282.778 234.811 280.755C232.341 278.714 231.105 275.688 231.105 271.678V257.445C231.105 256.621 231.839 256.209 233.308 256.209ZM283.688 283.763C282.238 283.763 281.513 283.351 281.513 282.528V268.294C281.513 265.949 280.878 263.774 279.606 261.768C278.353 259.745 276.411 258.734 273.779 258.734C268.3 258.734 265.561 262.18 265.561 269.073V282.528C265.561 283.351 264.836 283.763 263.386 283.763C261.918 283.763 261.184 283.351 261.184 282.528V257.471C261.184 256.648 261.918 256.236 263.386 256.236C264.836 256.236 265.561 256.648 265.561 257.471V260.506C267.154 257.642 270.019 256.209 274.155 256.209C277.019 256.191 279.687 257.203 282.158 259.244C284.646 261.267 285.891 264.284 285.891 268.294V282.528C285.891 283.351 285.157 283.763 283.688 283.763ZM310.517 283.736C309.049 283.736 308.315 283.324 308.315 282.501V258.653H304.851C303.4 258.653 302.675 258.25 302.675 257.445C302.675 256.621 303.4 256.209 304.851 256.209H308.315V253.228C308.315 248.448 311.144 246.04 316.801 246.004C317.875 246.004 318.95 246.103 320.024 246.3C321.277 246.514 321.904 246.917 321.904 247.508C321.904 248.332 321.161 248.743 319.675 248.743C319.209 248.743 318.744 248.699 318.278 248.609C317.813 248.502 317.32 248.448 316.801 248.448C314.062 248.466 312.692 250.059 312.692 253.228V256.209H317.822C319.29 256.209 320.024 256.621 320.024 257.445C320.024 258.25 319.29 258.653 317.822 258.653H312.692V282.501C312.692 283.324 311.967 283.736 310.517 283.736ZM327.463 256.209C328.913 256.209 329.638 256.621 329.638 257.445V271.678C329.638 274.023 330.265 276.208 331.518 278.231C332.789 280.236 334.741 281.239 337.373 281.239C342.851 281.239 345.59 277.792 345.59 270.899V257.445C345.59 256.621 346.315 256.209 347.766 256.209C349.234 256.209 349.968 256.621 349.968 257.445V282.501C349.968 283.324 349.234 283.736 347.766 283.736C346.315 283.736 345.59 283.324 345.59 282.501V279.466C343.997 282.331 341.132 283.763 336.997 283.763C334.132 283.781 331.455 282.778 328.967 280.755C326.496 278.714 325.261 275.688 325.261 271.678V257.445C325.261 256.621 325.995 256.209 327.463 256.209ZM367.531 283.736C361.874 283.7 359.045 281.292 359.045 276.512V258.68H355.5C354.05 258.68 353.325 258.277 353.325 257.471C353.325 256.648 354.05 256.236 355.5 256.236H359.045V247.24C359.045 246.416 359.779 246.004 361.247 246.004C362.697 246.004 363.422 246.416 363.422 247.24V256.236H368.471C369.939 256.236 370.673 256.648 370.673 257.471C370.673 258.277 369.939 258.68 368.471 258.68H363.422V276.512C363.422 279.681 364.792 281.274 367.531 281.292C368.05 281.292 368.543 281.248 369.008 281.158C369.474 281.051 369.939 280.997 370.405 280.997C371.891 280.997 372.634 281.409 372.634 282.232C372.634 282.823 372.007 283.226 370.754 283.441C369.68 283.638 368.605 283.736 367.531 283.736ZM378.22 256.209C379.67 256.209 380.395 256.621 380.395 257.445V271.678C380.395 274.023 381.022 276.208 382.275 278.231C383.546 280.236 385.498 281.239 388.129 281.239C393.608 281.239 396.347 277.792 396.347 270.899V257.445C396.347 256.621 397.072 256.209 398.522 256.209C399.991 256.209 400.725 256.621 400.725 257.445V282.501C400.725 283.324 399.991 283.736 398.522 283.736C397.072 283.736 396.347 283.324 396.347 282.501V279.466C394.754 282.331 391.889 283.763 387.753 283.763C384.889 283.781 382.212 282.778 379.724 280.755C377.253 278.714 376.018 275.688 376.018 271.678V257.445C376.018 256.621 376.752 256.209 378.22 256.209ZM408.298 283.736C406.83 283.736 406.096 283.324 406.096 282.501V257.471C406.096 256.648 406.83 256.236 408.298 256.236C409.748 256.236 410.473 256.648 410.473 257.471V260.452C411.762 257.642 414.108 256.236 417.509 256.236C419.514 256.236 421.251 256.72 422.719 257.686C423.077 257.919 423.256 258.206 423.256 258.546C423.256 258.957 423.015 259.342 422.531 259.7C422.155 259.969 421.735 260.103 421.269 260.103C420.642 260.103 420.061 259.88 419.523 259.432C418.986 258.966 418.136 258.734 416.972 258.734C414.412 258.734 412.684 259.96 411.789 262.413C410.912 264.866 410.473 267.157 410.473 269.288V282.501C410.473 283.324 409.748 283.736 408.298 283.736ZM438.027 256.236C442.163 256.236 445.546 257.507 448.178 260.05C450.81 262.592 452.126 265.904 452.126 269.986C452.126 274.068 450.81 277.38 448.178 279.923C445.546 282.465 442.163 283.736 438.027 283.736C433.891 283.736 430.507 282.465 427.875 279.923C425.244 277.38 423.928 274.068 423.928 269.986C423.928 265.904 425.244 262.592 427.875 260.05C430.507 257.507 433.891 256.236 438.027 256.236ZM438.027 258.68C434.894 258.68 432.486 259.853 430.803 262.198C429.138 264.543 428.305 267.139 428.305 269.986C428.305 272.833 429.138 275.429 430.803 277.774C432.486 280.12 434.894 281.292 438.027 281.292C441.16 281.292 443.559 280.12 445.224 277.774C446.907 275.429 447.749 272.833 447.749 269.986C447.749 267.139 446.907 264.543 445.224 262.198C443.559 259.853 441.16 258.68 438.027 258.68ZM482.795 256.209C486.895 256.209 490.117 257.525 492.463 260.157C494.826 262.789 496.008 266.056 496.008 269.959C496.008 273.844 494.826 277.112 492.463 279.762C490.117 282.393 486.895 283.709 482.795 283.709C478.784 283.709 475.839 282.367 473.959 279.681V282.528C473.959 283.333 473.234 283.736 471.784 283.736C470.316 283.736 469.582 283.333 469.582 282.528V247.213C469.582 246.407 470.316 246.004 471.784 246.004C473.234 246.004 473.959 246.407 473.959 247.213V260.238C475.839 257.552 478.784 256.209 482.795 256.209ZM482.795 258.653C479.823 258.653 477.603 259.888 476.135 262.359C474.685 264.812 473.959 267.345 473.959 269.959C473.959 272.555 474.685 275.089 476.135 277.559C477.603 280.03 479.823 281.265 482.795 281.265C485.785 281.265 488.005 280.03 489.455 277.559C490.905 275.089 491.63 272.555 491.63 269.959C491.63 267.345 490.905 264.812 489.455 262.359C488.005 259.888 485.785 258.653 482.795 258.653ZM502.238 283.736C500.77 283.736 500.036 283.324 500.036 282.501V257.471C500.036 256.648 500.77 256.236 502.238 256.236C503.688 256.236 504.414 256.648 504.414 257.471V260.452C505.703 257.642 508.048 256.236 511.45 256.236C513.455 256.236 515.192 256.72 516.66 257.686C517.018 257.919 517.197 258.206 517.197 258.546C517.197 258.957 516.955 259.342 516.472 259.7C516.096 259.969 515.675 260.103 515.209 260.103C514.583 260.103 514.001 259.88 513.464 259.432C512.927 258.966 512.076 258.734 510.913 258.734C508.352 258.734 506.625 259.96 505.729 262.413C504.852 264.866 504.414 267.157 504.414 269.288V282.501C504.414 283.324 503.688 283.736 502.238 283.736ZM522.299 248.367C523.911 248.367 524.716 249.173 524.716 250.784C524.716 252.396 523.911 253.201 522.299 253.201C520.688 253.201 519.882 252.396 519.882 250.784C519.882 249.173 520.688 248.367 522.299 248.367ZM520.097 257.445C520.097 256.639 520.831 256.236 522.299 256.236C523.767 256.236 524.501 256.639 524.501 257.445V282.501C524.501 283.324 523.767 283.736 522.299 283.736C520.831 283.736 520.097 283.324 520.097 282.501V257.445ZM530.893 247.213C530.893 246.407 531.627 246.004 533.095 246.004C534.545 246.004 535.27 246.407 535.27 247.213V282.528C535.27 283.333 534.545 283.736 533.095 283.736C531.627 283.736 530.893 283.333 530.893 282.528V247.213ZM541.474 247.213C541.474 246.407 542.208 246.004 543.676 246.004C545.126 246.004 545.852 246.407 545.852 247.213V282.528C545.852 283.333 545.126 283.736 543.676 283.736C542.208 283.736 541.474 283.333 541.474 282.528V247.213ZM574.748 283.736C572.653 283.736 571.266 282.456 570.585 279.896C568.33 282.456 565 283.736 560.595 283.736C557.892 283.736 555.573 283.19 553.64 282.098C551.151 280.719 549.907 278.705 549.907 276.055C549.907 274.14 550.444 272.6 551.518 271.436C552.61 270.255 554.042 269.503 555.815 269.18C557.605 268.84 559.369 268.67 561.105 268.67C561.678 268.67 562.323 268.688 563.039 268.724C563.773 268.76 564.516 268.778 565.268 268.778C567.506 268.778 569.099 268.482 570.048 267.891V265.179C570.048 260.846 567.542 258.68 562.529 258.68C560.649 258.68 558.984 259.154 557.534 260.103C555.887 261.178 555.063 262.467 555.063 263.971C555.063 264.794 554.338 265.206 552.888 265.206C551.438 265.206 550.712 264.794 550.712 263.971C550.748 261.876 551.912 260.059 554.204 258.519C556.477 256.997 559.252 256.236 562.529 256.236C565.304 256.236 567.98 256.916 570.559 258.277C573.137 259.638 574.426 261.938 574.426 265.179V276.969C574.426 278.293 574.596 279.341 574.936 280.111C575.258 280.791 575.724 281.31 576.333 281.668C576.726 281.901 576.923 282.179 576.923 282.501C576.923 283.324 576.198 283.736 574.748 283.736ZM560.595 281.292C562.708 281.292 564.812 280.657 566.906 279.386C569.001 278.114 570.048 276.288 570.048 273.907V270.846C568.885 271.096 567.479 271.221 565.832 271.221C565.008 271.221 564.185 271.204 563.361 271.168C562.538 271.114 561.714 271.087 560.891 271.087C559.816 271.069 558.697 271.177 557.534 271.409C556.37 271.624 555.493 272.26 554.902 273.316C554.454 274.104 554.23 274.99 554.23 275.975C554.266 277.712 554.902 279.045 556.137 279.976C557.247 280.854 558.733 281.292 560.595 281.292ZM602.785 283.763C601.335 283.763 600.61 283.351 600.61 282.528V268.294C600.61 265.949 599.974 263.774 598.703 261.768C597.45 259.745 595.507 258.734 592.875 258.734C587.397 258.734 584.658 262.18 584.658 269.073V282.528C584.658 283.351 583.933 283.763 582.482 283.763C581.014 283.763 580.28 283.351 580.28 282.528V257.471C580.28 256.648 581.014 256.236 582.482 256.236C583.933 256.236 584.658 256.648 584.658 257.471V260.506C586.251 257.642 589.116 256.209 593.251 256.209C596.116 256.191 598.784 257.203 601.254 259.244C603.743 261.267 604.987 264.284 604.987 268.294V282.528C604.987 283.351 604.253 283.763 602.785 283.763ZM622.551 283.736C616.893 283.7 614.064 281.292 614.064 276.512V258.68H610.52C609.069 258.68 608.344 258.277 608.344 257.471C608.344 256.648 609.069 256.236 610.52 256.236H614.064V247.24C614.064 246.416 614.799 246.004 616.267 246.004C617.717 246.004 618.442 246.416 618.442 247.24V256.236H623.491C624.959 256.236 625.693 256.648 625.693 257.471C625.693 258.277 624.959 258.68 623.491 258.68H618.442V276.512C618.442 279.681 619.812 281.274 622.551 281.292C623.07 281.292 623.562 281.248 624.028 281.158C624.493 281.051 624.959 280.997 625.424 280.997C626.91 280.997 627.653 281.409 627.653 282.232C627.653 282.823 627.027 283.226 625.773 283.441C624.699 283.638 623.625 283.736 622.551 283.736ZM642.316 283.736C638.288 283.736 634.949 282.51 632.299 280.057C629.667 277.586 628.352 274.301 628.352 270.201C628.352 266.047 629.685 262.681 632.353 260.103C635.039 257.525 638.431 256.236 642.531 256.236C646.381 256.236 649.657 257.283 652.36 259.378C655.082 261.473 656.442 264.552 656.442 268.617C656.442 269.583 655.717 270.067 654.267 270.067H632.702C632.702 272.931 633.526 275.518 635.173 277.828C636.838 280.137 639.228 281.292 642.343 281.292C644.617 281.292 646.649 280.684 648.439 279.466C650.373 278.177 651.42 276.7 651.582 275.035C651.671 274.265 652.387 273.88 653.73 273.88C655.198 273.88 655.932 274.283 655.932 275.089C655.932 275.662 655.735 276.36 655.341 277.183C654.625 278.687 653.444 279.976 651.796 281.051C649.111 282.841 645.951 283.736 642.316 283.736ZM652.038 267.596C651.59 261.652 648.422 258.68 642.531 258.68C637.268 258.68 634.072 261.652 632.944 267.596H652.038ZM662.324 247.696C661.787 248.555 661.142 249.2 660.39 249.63C659.817 249.988 659.182 250.167 658.483 250.167C658.018 250.167 657.785 250.041 657.785 249.791C657.785 249.683 657.884 249.594 658.081 249.522C658.868 249.218 659.495 248.663 659.96 247.857C660.336 247.213 660.551 246.568 660.605 245.924C660.498 245.942 660.336 245.95 660.122 245.95C658.206 245.95 657.248 244.993 657.248 243.077C657.248 241.161 658.206 240.203 660.122 240.203C661.088 240.203 661.867 240.526 662.458 241.17C663.12 241.851 663.452 242.764 663.452 243.909C663.452 245.288 663.076 246.55 662.324 247.696ZM668.823 247.696C668.286 248.555 667.641 249.2 666.889 249.63C666.316 249.988 665.681 250.167 664.982 250.167C664.517 250.167 664.284 250.041 664.284 249.791C664.284 249.683 664.383 249.594 664.58 249.522C665.367 249.218 665.994 248.663 666.459 247.857C666.835 247.213 667.05 246.568 667.104 245.924C666.997 245.942 666.835 245.95 666.621 245.95C664.705 245.95 663.747 244.993 663.747 243.077C663.747 241.161 664.705 240.203 666.621 240.203C667.587 240.203 668.366 240.526 668.957 241.17C669.619 241.851 669.951 242.764 669.951 243.909C669.951 245.288 669.575 246.55 668.823 247.696Z" fill="white"/>
<path d="M331.375 330.688C331.375 330.75 331.354 330.875 331.312 331.062C330.885 333.083 329.781 334.641 328 335.734C326.229 336.828 324.359 337.375 322.391 337.375C319.13 337.375 316.682 336.297 315.047 334.141C313.411 331.984 312.594 329.385 312.594 326.344C312.594 323.281 313.464 320.698 315.203 318.594C316.943 316.479 319.422 315.422 322.641 315.422C324.568 315.422 326.401 315.964 328.141 317.047C329.88 318.13 330.927 319.688 331.281 321.719C331.323 321.885 331.344 322.021 331.344 322.125C331.344 322.479 331.016 322.656 330.359 322.656C329.786 322.656 329.474 322.49 329.422 322.156C329.193 320.448 328.411 319.083 327.078 318.062C325.745 317.031 324.266 316.516 322.641 316.516C319.891 316.516 317.849 317.536 316.516 319.578C315.182 321.62 314.516 323.875 314.516 326.344C314.516 328.771 315.135 331.036 316.375 333.141C317.625 335.234 319.63 336.281 322.391 336.281C324.057 336.281 325.583 335.76 326.969 334.719C328.354 333.667 329.188 332.302 329.469 330.625C329.521 330.312 329.833 330.156 330.406 330.156C331.052 330.156 331.375 330.333 331.375 330.688ZM347.453 337.375C347.193 337.375 346.964 337.318 346.766 337.203C345.901 336.693 345.38 335.927 345.203 334.906C343.807 336.552 341.818 337.375 339.234 337.375C337.911 337.375 336.594 337.047 335.281 336.391C333.979 335.724 333.328 334.589 333.328 332.984C333.328 331.141 334 329.979 335.344 329.5C336.698 329.01 338.094 328.766 339.531 328.766C339.896 328.766 340.286 328.781 340.703 328.812C341.13 328.833 341.557 328.844 341.984 328.844C343.349 328.844 344.37 328.625 345.047 328.188V326.5C345.047 323.833 343.49 322.49 340.375 322.469C339.167 322.469 338.115 322.771 337.219 323.375C336.219 324.062 335.714 324.87 335.703 325.797C335.703 326.161 335.38 326.344 334.734 326.344C334.109 326.344 333.797 326.161 333.797 325.797C333.807 324.589 334.458 323.547 335.75 322.672C337 321.807 338.542 321.375 340.375 321.375C341.958 321.375 343.453 321.771 344.859 322.562C346.266 323.354 346.969 324.667 346.969 326.5V333.531C346.969 335.01 347.365 335.984 348.156 336.453C348.333 336.557 348.422 336.682 348.422 336.828C348.422 336.974 348.323 337.104 348.125 337.219C347.917 337.323 347.693 337.375 347.453 337.375ZM339.234 336.266C340.516 336.266 341.802 335.849 343.094 335.016C344.396 334.172 345.047 333.005 345.047 331.516V329.625C344.151 329.823 343.182 329.922 342.141 329.922C341.693 329.922 341.24 329.911 340.781 329.891C340.323 329.87 339.865 329.859 339.406 329.859C336.635 329.859 335.25 330.901 335.25 332.984C335.25 335.172 336.578 336.266 339.234 336.266ZM355.984 337.375C352.63 337.375 350.536 336.01 349.703 333.281C349.63 333.062 349.594 332.932 349.594 332.891C349.594 332.526 349.911 332.344 350.547 332.344C351.099 332.344 351.417 332.5 351.5 332.812C352.083 335.125 353.589 336.281 356.016 336.281C357.036 336.281 358.026 335.979 358.984 335.375C359.953 334.771 360.438 333.891 360.438 332.734C360.438 331.964 359.911 331.349 358.859 330.891C358.13 330.557 357.24 330.318 356.188 330.172C355.427 330.057 354.667 329.932 353.906 329.797C353.156 329.661 352.453 329.365 351.797 328.906C350.589 328.052 349.984 326.964 349.984 325.641C349.984 324.13 350.682 323.042 352.078 322.375C353.484 321.708 354.818 321.375 356.078 321.375C359.161 321.375 361.078 322.552 361.828 324.906C361.901 325.198 361.938 325.349 361.938 325.359C361.938 325.714 361.615 325.891 360.969 325.891C360.427 325.922 360.109 325.76 360.016 325.406C359.547 323.448 358.234 322.469 356.078 322.469C355.151 322.469 354.224 322.729 353.297 323.25C352.37 323.76 351.906 324.557 351.906 325.641C351.906 326.37 352.49 326.979 353.656 327.469C354.365 327.76 355.24 327.99 356.281 328.156C357.042 328.271 357.781 328.406 358.5 328.562C359.219 328.708 359.911 329 360.578 329.438C361.766 330.208 362.359 331.307 362.359 332.734C362.359 334.339 361.641 335.516 360.203 336.266C358.776 337.005 357.37 337.375 355.984 337.375ZM373.281 337.219C372.698 337.323 372.104 337.375 371.5 337.375C368.417 337.375 366.875 336.01 366.875 333.281V322.484H364.5C363.865 322.484 363.547 322.302 363.547 321.938C363.547 321.573 363.865 321.391 364.5 321.391H366.875V315.984C366.875 315.62 367.198 315.438 367.844 315.438C368.479 315.438 368.797 315.62 368.797 315.984V321.391H372.047C372.682 321.391 373 321.573 373 321.938C373 322.302 372.682 322.484 372.047 322.484H368.797V333.281C368.797 335.281 369.698 336.286 371.5 336.297C371.802 336.297 372.089 336.266 372.359 336.203C372.641 336.141 372.911 336.109 373.172 336.109C373.828 336.109 374.156 336.297 374.156 336.672C374.156 336.943 373.865 337.125 373.281 337.219ZM382.453 321.375C384.766 321.375 386.656 322.115 388.125 323.594C389.604 325.073 390.344 327 390.344 329.375C390.344 331.75 389.604 333.677 388.125 335.156C386.656 336.635 384.766 337.375 382.453 337.375C380.141 337.375 378.245 336.635 376.766 335.156C375.297 333.677 374.562 331.75 374.562 329.375C374.562 327 375.297 325.073 376.766 323.594C378.245 322.115 380.141 321.375 382.453 321.375ZM382.453 322.469C380.568 322.469 379.099 323.167 378.047 324.562C377.005 325.958 376.484 327.562 376.484 329.375C376.484 331.177 377.005 332.781 378.047 334.188C379.099 335.583 380.568 336.281 382.453 336.281C384.349 336.281 385.818 335.583 386.859 334.188C387.901 332.781 388.422 331.177 388.422 329.375C388.422 327.562 387.901 325.958 386.859 324.562C385.818 323.167 384.349 322.469 382.453 322.469ZM393.641 337.375C393.005 337.375 392.688 337.193 392.688 336.828V321.922C392.688 321.557 393.005 321.375 393.641 321.375C394.286 321.375 394.609 321.557 394.609 321.922V324.125C394.88 323.594 395.359 323.005 396.047 322.359C396.745 321.703 397.734 321.375 399.016 321.375C400.089 321.375 401.021 321.641 401.812 322.172C401.969 322.276 402.047 322.411 402.047 322.578C402.047 322.797 401.927 322.984 401.688 323.141C401.521 323.255 401.359 323.312 401.203 323.312C401.057 323.312 400.938 323.271 400.844 323.188C400.271 322.75 399.578 322.531 398.766 322.531C397.068 322.531 395.948 323.37 395.406 325.047C394.875 326.714 394.609 328.141 394.609 329.328V336.828C394.609 337.193 394.286 337.375 393.641 337.375ZM423.656 336.922C423.562 337.224 423.188 337.375 422.531 337.375C421.948 337.375 421.62 337.229 421.547 336.938L416.781 318.25L412.078 336.906C412.005 337.219 411.646 337.375 411 337.375C410.406 337.375 410.062 337.24 409.969 336.969L402.875 316.141C402.844 315.984 402.828 315.906 402.828 315.906C402.828 315.583 403.188 315.422 403.906 315.422C404.448 315.422 404.771 315.578 404.875 315.891L411.359 334.922L416.156 315.844C416.229 315.562 416.583 315.422 417.219 315.422C417.833 315.422 418.177 315.578 418.25 315.891L423.094 334.906L429.531 315.672C429.594 315.505 429.807 315.422 430.172 315.422C430.557 315.422 430.75 315.51 430.75 315.688C430.75 315.698 430.74 315.734 430.719 315.797L423.656 336.922ZM443.953 337.375C443.693 337.375 443.464 337.318 443.266 337.203C442.401 336.693 441.88 335.927 441.703 334.906C440.307 336.552 438.318 337.375 435.734 337.375C434.411 337.375 433.094 337.047 431.781 336.391C430.479 335.724 429.828 334.589 429.828 332.984C429.828 331.141 430.5 329.979 431.844 329.5C433.198 329.01 434.594 328.766 436.031 328.766C436.396 328.766 436.786 328.781 437.203 328.812C437.63 328.833 438.057 328.844 438.484 328.844C439.849 328.844 440.87 328.625 441.547 328.188V326.5C441.547 323.833 439.99 322.49 436.875 322.469C435.667 322.469 434.615 322.771 433.719 323.375C432.719 324.062 432.214 324.87 432.203 325.797C432.203 326.161 431.88 326.344 431.234 326.344C430.609 326.344 430.297 326.161 430.297 325.797C430.307 324.589 430.958 323.547 432.25 322.672C433.5 321.807 435.042 321.375 436.875 321.375C438.458 321.375 439.953 321.771 441.359 322.562C442.766 323.354 443.469 324.667 443.469 326.5V333.531C443.469 335.01 443.865 335.984 444.656 336.453C444.833 336.557 444.922 336.682 444.922 336.828C444.922 336.974 444.823 337.104 444.625 337.219C444.417 337.323 444.193 337.375 443.953 337.375ZM435.734 336.266C437.016 336.266 438.302 335.849 439.594 335.016C440.896 334.172 441.547 333.005 441.547 331.516V329.625C440.651 329.823 439.682 329.922 438.641 329.922C438.193 329.922 437.74 329.911 437.281 329.891C436.823 329.87 436.365 329.859 435.906 329.859C433.135 329.859 431.75 330.901 431.75 332.984C431.75 335.172 433.078 336.266 435.734 336.266ZM453.375 343.25C452.24 343.25 451.057 343.042 449.828 342.625C448.609 342.219 447.661 341.51 446.984 340.5C446.943 340.427 446.922 340.359 446.922 340.297C446.922 339.943 447.245 339.766 447.891 339.766C448.328 339.766 448.625 339.88 448.781 340.109C449.688 341.474 451.219 342.156 453.375 342.156C456.917 342.156 458.688 340.312 458.688 336.625V335.062C457.552 336.542 455.922 337.281 453.797 337.281C449.182 337.281 446.875 334.953 446.875 330.297V321.828C446.875 321.464 447.198 321.281 447.844 321.281C448.479 321.281 448.797 321.464 448.797 321.828V330.297C448.797 331.818 449.224 333.182 450.078 334.391C450.943 335.589 452.182 336.188 453.797 336.188C455.349 336.188 456.552 335.578 457.406 334.359C458.271 333.13 458.703 331.776 458.703 330.297V321.828C458.703 321.464 459.021 321.281 459.656 321.281C460.302 321.281 460.625 321.464 460.625 321.828V336.625C460.625 341.042 458.208 343.25 453.375 343.25Z" fill="#4A2932"/>
<path d="M340.284 431.272V565.387V693.717H436.531V544.349V431.272H340.284Z" fill="#885551"/>
<path d="M281.379 551.713C296.477 568.06 301.819 580.438 303.468 610.618C261.843 596.485 242.159 601.502 210.376 622.189C259.427 634.946 283.108 649.67 316.091 694.243H461.251C488.186 651.866 512.194 636.814 567.491 622.189C534.897 602.671 515.341 596.274 473.347 610.092C474.687 573.634 481.967 563.598 498.066 550.661L496.71 550.824C448.248 556.648 418.18 560.262 388.145 622.189C364.715 578.03 346.473 557.923 281.379 551.713Z" fill="#9FD8CB"/>
</svg>
