<svg width="260" height="275" viewBox="0 0 260 275" fill="none" xmlns="http://www.w3.org/2000/svg">
<path d="M175.032 259.844C227.551 274.188 266.901 237.747 258.83 216.425C250.76 195.103 225.234 199.367 207.47 216.425C207.47 216.425 154.984 254.368 175.032 259.844Z" fill="#5B3236"/>
<path fill-rule="evenodd" clip-rule="evenodd" d="M230.275 256.686C229.036 257.224 227.765 257.735 226.464 258.215H226.411L230.591 242.489L216.19 234.413C214.877 240.503 213.34 247.01 211.384 254.778L218.543 260.65C217.174 260.99 215.779 261.297 214.36 261.568L210.499 258.264C210.161 259.587 209.811 260.947 209.449 262.347C208.032 262.527 206.594 262.671 205.135 262.778C205.899 260.227 206.611 257.811 207.278 255.506L193.947 244.093L195.106 241.43L208.229 252.191C210.293 244.912 211.901 238.727 213.293 232.788L203.609 227.357L204.768 225.117L213.892 230.187C214.989 225.344 215.965 220.582 216.953 215.431L211.814 213.092C212.674 212.401 213.547 211.739 214.429 211.107L217.501 212.541C217.742 211.259 217.985 209.949 218.231 208.605C219.235 208.001 220.247 207.437 221.263 206.912C220.881 209.292 220.507 211.565 220.133 213.77L236.229 221.283L241.272 202.31C242.161 202.395 243.034 202.526 243.889 202.706L238.89 222.526L258.274 231.575C257.96 232.303 257.611 233.032 257.228 233.76L238.237 225.117L234.122 241.43L245.339 247.664C244.586 248.271 243.809 248.867 243.006 249.452L233.451 244.093L230.275 256.686ZM235.536 223.888L219.638 216.653C218.736 221.826 217.814 226.695 216.751 231.776L231.291 239.857L235.536 223.888Z" fill="#885551"/>
<path d="M101.659 265.504C101.659 265.504 98.9953 270.765 101.27 272.027C107.494 275.481 113.33 270.108 114.108 270.492C114.497 270.684 114.365 272.729 115.664 273.562C123.444 278.551 147.953 268.957 147.953 268.957L124.611 258.596L101.659 265.504Z" fill="#4A2932"/>
<path d="M24.2361 246.808C21.5253 248.731 20.6089 252.182 22.6871 253.73C27.3342 257.192 31.594 254.115 32.3685 254.5C32.7558 254.692 33.5303 257.448 37.4029 258.73C46.697 261.807 67.2217 259.115 67.2217 259.115L31.9813 242.193C28.6541 244.145 26.9469 244.885 24.2361 246.808Z" fill="#4A2932"/>
<path d="M35.9578 189.123C24.1609 199.722 18.0668 213.598 21.5672 226.807C32.3318 253.122 46.0585 254.507 69.7949 258.275L35.9578 189.123Z" fill="#BA6958"/>
<path d="M80.8223 263.879C107.203 268.068 114.199 266.574 121.9 261.554V145.702H46.3322C40.8534 198.346 37.291 231.05 48.6574 244.893C60.0238 258.736 65.3108 260.322 80.8223 263.879Z" fill="#F1AD94"/>
<path d="M25.5799 181.835C24.689 170.897 27.117 162.82 36.7215 145.058L52.0892 149.704C50.6903 157.733 51.6131 162.386 56.6995 170.995C68.4941 193.188 67.8132 200.134 56.6995 205.062C45.219 206.022 33.6338 202.559 25.5799 181.835Z" fill="#AD5F52"/>
<path d="M143.129 190.409C140.93 165.566 124.416 157.543 116.433 156.637" stroke="#1B1717"/>
<path d="M177.563 106.14C202.017 139.192 211.248 158.685 212.28 196.77C205.029 246.045 188.29 259.298 146.318 269.196C121.836 269.549 111.814 263.561 105.043 234.339C102.242 210.095 111.479 185.245 119.702 149.519L177.563 106.14Z" fill="#BA6958"/>
<path d="M88.8195 206.464C80.312 196.519 90.1931 180.176 119.255 149.569C125.419 146.859 136.592 149.569 145.838 160.793C153.665 175.803 150.769 182.126 143.911 192.918C114.468 209.989 100.35 216.01 88.8195 206.464Z" fill="#AD5F52"/>
<path d="M137.983 15.6731C137.983 15.6731 146.303 -2.37333 161.476 9.52963C176.649 21.4326 162.651 36.0233 162.651 36.0233L137.983 15.6731Z" fill="#BA6958"/>
<path d="M144.415 20.7012C144.415 20.7012 148.444 12.5328 155.79 17.9204C163.137 23.3081 156.359 29.9123 156.359 29.9123L144.415 20.7012Z" fill="#5B3236"/>
<path d="M54.3566 13.4639C54.3566 13.4639 45.7187 1.04947 34.3324 9.99404C22.946 18.9386 33.1545 31.1988 33.1545 31.1988L54.3566 13.4639Z" fill="#BA6958"/>
<path d="M48.8883 18.5613C48.8883 18.5613 45.0417 12.2045 38.6713 16.0085C32.3008 19.8124 38.1604 27.0175 38.1604 27.0175L48.8883 18.5613Z" fill="#5B3236"/>
<path d="M71.4303 152.373C71.4303 152.373 6.87302 149.501 0.611954 117.097C-1.70996 105.08 2.54874 88.0235 13.8534 82.2088C26.1694 75.8739 30.9464 76.6491 43.6282 78.7071C50.3874 79.804 59.392 81.2653 72.9804 82.2088C92.6092 83.5716 107.065 81.8055 118.995 80.348C130.82 78.9035 140.163 77.7621 149.601 80.2705C178.984 93.4988 181.047 117.166 157.211 135.375C153.102 138.366 148.363 141.194 142.603 144.214C112.538 153.865 71.4303 152.373 71.4303 152.373Z" fill="#F7B9A2"/>
<path d="M112.064 5.0179C156.669 12.2103 195.203 70.127 179.4 109.344C172.284 121.367 166.287 128.768 157.211 135.375C181.047 117.166 178.984 93.4988 149.601 80.2705C140.163 77.7621 130.82 78.9035 118.995 80.348C107.065 81.8055 92.6092 83.5716 72.9804 82.2088C59.392 81.2653 50.3874 79.804 43.6282 78.7071C30.9464 76.6491 26.1694 75.8739 13.8534 82.2088C14.1863 80.5707 14.9312 76.953 15.3177 75.2312C24.1321 35.3265 38.8143 17.1914 63.3036 9.44719C65.195 6.40608 68.7214 5.0179 71.4303 5.0179C75.1425 5.14556 77.6583 5.46211 79.4407 5.92353C80.1443 5.82525 80.8544 5.73185 81.5709 5.64317C81.4127 5.51955 81.2545 5.39664 81.0969 5.27422C79.1067 3.72849 77.2165 2.26033 76.8481 0.41518C76.6617 -0.518531 85.6054 -0.183051 92.6759 4.65337C93.3255 4.61498 93.9798 4.57927 94.6388 4.54614C93.153 3.5142 91.4608 2.62659 91.1666 0.802535C90.858 -1.11084 105.867 1.84865 112.064 5.0179Z" fill="#BA6958"/>
<path d="M87.9044 98.4172C86.3503 90.5957 64.9819 83.9474 64.9819 83.9474C64.9819 83.9474 45.1675 92.16 44.002 98.4172C42.6757 105.538 46.5213 111.884 53.7149 112.105C58.1932 112.243 63.4279 107.803 63.4279 107.803C63.4279 107.803 70.4372 113.124 75.8604 112.887C84.0318 112.53 89.3031 105.457 87.9044 98.4172Z" fill="#F5F5F5"/>
<ellipse cx="8.20175" cy="10.7749" rx="8.20175" ry="10.7749" transform="matrix(-1 0 0 1 115.789 62.076)" fill="#5B3236"/>
<ellipse cx="2.56982" cy="3.44807" rx="2.56982" ry="3.44807" transform="matrix(-0.983245 0.182287 0.182287 0.983245 114.937 64.285)" fill="#D9D9D9"/>
<ellipse cx="8.04094" cy="10.7749" rx="8.04094" ry="10.7749" transform="matrix(-1 0 0 1 44.707 61.1111)" fill="#5B3236"/>
<ellipse cx="2.56982" cy="3.44807" rx="2.56982" ry="3.44807" transform="matrix(-0.983245 0.182287 0.182287 0.983245 43.9404 63.5101)" fill="#D9D9D9"/>
<path d="M70.0095 128.234C76.3889 127.064 73.7621 111.854 73.7621 111.854L64.0055 106.784V125.894C64.0055 125.894 66.3141 128.912 70.0095 128.234Z" fill="#F5F5F5"/>
<path d="M59.6145 128.655C52.9385 128.655 54.9678 111.08 54.9678 111.08L64.6485 106.784V126.312C64.6485 126.312 63.4867 128.655 59.6145 128.655Z" fill="#EBEBEB"/>
<path fill-rule="evenodd" clip-rule="evenodd" d="M63.4057 90.7018C62.769 90.7018 62.2528 91.2232 62.2528 91.8663V106.214C62.1018 106.357 61.8762 106.548 61.58 106.772C60.9668 107.237 60.1118 107.802 59.1341 108.337C57.1197 109.439 54.8396 110.274 53.1342 110.116C48.0174 109.641 45.7266 105.432 45.7266 101.571C45.7266 100.928 45.2104 100.406 44.5736 100.406C43.9368 100.406 43.4206 100.928 43.4206 101.571C43.4206 106.25 46.274 111.819 52.9235 112.435C55.3489 112.66 58.1467 111.526 60.2327 110.385C61.3053 109.798 62.2562 109.171 62.9639 108.635C63.1421 108.5 63.3089 108.368 63.4608 108.24C63.6162 108.355 63.7871 108.476 63.9707 108.602C64.7817 109.156 65.9101 109.844 67.2055 110.516C69.7527 111.837 73.1393 113.202 76.083 113.216C80.6443 113.238 83.8537 111.323 85.8985 108.773C87.9095 106.265 88.7715 103.177 88.7715 100.794C88.7715 100.151 88.2553 99.6299 87.6185 99.6299C86.9817 99.6299 86.4655 100.151 86.4655 100.794C86.4655 102.682 85.7612 105.243 84.1065 107.307C82.4856 109.328 79.9301 110.906 76.0942 110.887C73.7184 110.876 70.7369 109.73 68.2592 108.444C67.0421 107.812 65.9938 107.172 65.263 106.673C64.9616 106.467 64.7256 106.292 64.5587 106.159V91.8663C64.5587 91.2232 64.0425 90.7018 63.4057 90.7018ZM62.4032 106.058C62.4174 106.041 62.4146 106.042 62.4027 106.059C62.4029 106.059 62.403 106.059 62.4032 106.058Z" fill="#4A2932"/>
<ellipse cx="11.2573" cy="8.84503" rx="11.2573" ry="8.84503" transform="matrix(-1 0 0 1 75.585 78.158)" fill="#4A2932"/>
<path fill-rule="evenodd" clip-rule="evenodd" d="M107.004 43.9129C107.889 43.9996 108.771 44.2806 109.884 44.8431C110.633 45.2217 111.597 45.0044 112.035 44.3577C112.474 43.7111 112.222 42.88 111.473 42.5014C110.125 41.8205 108.819 41.3597 107.358 41.2168C105.904 41.0744 104.427 41.2599 102.756 41.6949C101.924 41.9113 101.454 42.6683 101.704 43.3857C101.955 44.103 102.832 44.5092 103.664 44.2928C105.086 43.9226 106.113 43.8257 107.004 43.9129Z" fill="#4A2932"/>
<path fill-rule="evenodd" clip-rule="evenodd" d="M39.4144 43.3147C40.2747 43.2602 41.171 43.4019 42.3452 43.7898C43.1356 44.0508 44.0083 43.6779 44.2944 42.9568C44.5806 42.2358 44.1718 41.4396 43.3814 41.1785C41.9598 40.709 40.6228 40.4543 39.2035 40.5443C37.7899 40.6338 36.4217 41.0571 34.9192 41.7625C34.1718 42.1134 33.8777 42.9507 34.2624 43.6325C34.647 44.3144 35.5647 44.5827 36.3121 44.2318C37.5906 43.6315 38.5484 43.3696 39.4144 43.3147Z" fill="#4A2932"/>
<path d="M125.783 86.1991C121.039 86.1652 116.111 90.023 116.111 93.4643C116.111 96.9055 121.131 100.485 125.783 100.347C130.501 100.207 135.438 97.3503 135.068 92.6995C134.72 88.3211 130.227 86.2308 125.783 86.1991Z" fill="#F89A81"/>
<path d="M16.4821 86.1992C11.6081 86.1665 9.32759 88.7809 9.32759 92.1002C9.32759 95.4194 13.6697 98.8717 18.4493 98.739C23.2964 98.6044 26.4014 95.4795 26.0214 90.9937C25.6636 86.7707 21.0472 86.2298 16.4821 86.1992Z" fill="#F89A81"/>
</svg>
