<svg width="333" height="71" viewBox="0 0 333 71" fill="none" xmlns="http://www.w3.org/2000/svg">
<rect x="0.5" y="0.5" width="332" height="70" rx="24.5" fill="white" stroke="#879FD4"/>
<path d="M106.871 43.92C106.364 44.32 105.591 44.6667 104.551 44.96C103.511 45.2533 102.498 45.4 101.511 45.4C99.8578 45.4 98.3778 45.04 97.0711 44.32C95.7644 43.5733 94.7378 42.5467 93.9911 41.24C93.2444 39.9333 92.8711 38.4533 92.8711 36.8C92.8711 35.0667 93.2311 33.5733 93.9511 32.32C94.6978 31.0667 95.7244 30.1067 97.0311 29.44C98.3378 28.7467 99.8578 28.4 101.591 28.4C102.311 28.4 103.031 28.4667 103.751 28.6C104.498 28.7333 105.178 28.9467 105.791 29.24C106.111 29.4 106.338 29.6133 106.471 29.88C106.631 30.12 106.711 30.3867 106.711 30.68C106.711 31.1067 106.551 31.5067 106.231 31.88C105.938 32.2267 105.538 32.4 105.031 32.4C104.818 32.4 104.591 32.36 104.351 32.28C103.871 32.0933 103.351 31.9467 102.791 31.84C102.231 31.7067 101.738 31.64 101.311 31.64C99.9244 31.64 98.7644 32.1067 97.8311 33.04C96.9244 33.9733 96.4711 35.2267 96.4711 36.8C96.4711 38.48 96.9378 39.8 97.8711 40.76C98.8311 41.72 100.058 42.2 101.551 42.2C102.164 42.2 102.818 42.0933 103.511 41.88C104.204 41.6667 104.764 41.4 105.191 41.08C105.484 40.8933 105.804 40.8 106.151 40.8C106.604 40.8 106.964 40.96 107.231 41.28C107.524 41.5733 107.671 41.9467 107.671 42.4C107.671 42.9867 107.404 43.4933 106.871 43.92ZM115.593 45.4C114.446 45.4 113.393 45.1333 112.433 44.6C111.473 44.0667 110.699 43.3333 110.113 42.4C109.553 41.44 109.273 40.36 109.273 39.16C109.273 37.9333 109.553 36.8667 110.113 35.96C110.699 35.0267 111.473 34.3067 112.433 33.8C113.393 33.2667 114.446 33 115.593 33C116.766 33 117.819 33.2667 118.753 33.8C119.713 34.3067 120.473 35.0267 121.033 35.96C121.593 36.8667 121.873 37.9333 121.873 39.16C121.873 40.36 121.593 41.44 121.033 42.4C120.473 43.3333 119.713 44.0667 118.753 44.6C117.819 45.1333 116.766 45.4 115.593 45.4ZM115.593 42.16C116.419 42.16 117.086 41.88 117.593 41.32C118.126 40.7333 118.393 40.0133 118.393 39.16C118.393 38.28 118.126 37.5733 117.593 37.04C117.086 36.5067 116.419 36.24 115.593 36.24C114.793 36.24 114.113 36.5067 113.553 37.04C113.019 37.5733 112.753 38.28 112.753 39.16C112.753 40.0133 113.019 40.7333 113.553 41.32C114.113 41.88 114.793 42.16 115.593 42.16ZM134.331 45.4C133.825 45.4 133.398 45.2533 133.051 44.96C132.731 44.6667 132.571 44.2933 132.571 43.84V38.96C132.571 37.9733 132.345 37.2667 131.891 36.84C131.465 36.4133 130.931 36.2 130.291 36.2C129.625 36.2 129.065 36.4133 128.611 36.84C128.185 37.2667 127.918 37.76 127.811 38.32V43.68C127.811 44.1333 127.638 44.52 127.291 44.84C126.971 45.1333 126.571 45.28 126.091 45.28C125.585 45.28 125.158 45.1333 124.811 44.84C124.465 44.5467 124.291 44.1733 124.291 43.72V34.76C124.291 34.3333 124.451 33.9733 124.771 33.68C125.118 33.36 125.558 33.2 126.091 33.2C126.518 33.2 126.878 33.32 127.171 33.56C127.465 33.7733 127.665 34.0533 127.771 34.4C128.491 33.4667 129.585 33 131.051 33C132.545 33 133.758 33.44 134.691 34.32C135.625 35.2 136.091 36.6 136.091 38.52V43.92C136.091 44.3467 135.918 44.7067 135.571 45C135.251 45.2667 134.838 45.4 134.331 45.4ZM144.096 45.4C142.949 45.4 142.003 45.0667 141.256 44.4C140.509 43.7333 140.136 42.7067 140.136 41.32V37C140.136 36.7333 140.003 36.6 139.736 36.6H139.136C138.656 36.6 138.296 36.4533 138.056 36.16C137.816 35.8667 137.696 35.4933 137.696 35.04C137.696 34.56 137.816 34.1733 138.056 33.88C138.296 33.56 138.656 33.4 139.136 33.4H139.736C140.003 33.4 140.136 33.2667 140.136 33V30.04C140.136 29.5867 140.296 29.2 140.616 28.88C140.936 28.56 141.349 28.4 141.856 28.4C142.363 28.4 142.776 28.56 143.096 28.88C143.443 29.1733 143.616 29.56 143.616 30.04V33C143.616 33.2667 143.749 33.4 144.016 33.4H145.496C145.949 33.4 146.323 33.56 146.616 33.88C146.936 34.2 147.096 34.5867 147.096 35.04C147.096 35.4933 146.936 35.8667 146.616 36.16C146.323 36.4533 145.936 36.6 145.456 36.6H144.016C143.749 36.6 143.616 36.7333 143.616 37V40.76C143.616 41.24 143.696 41.5733 143.856 41.76C144.043 41.9467 144.269 42.04 144.536 42.04C144.643 42.04 144.856 42.0133 145.176 41.96C145.496 41.88 145.696 41.84 145.776 41.84C146.203 41.84 146.563 42 146.856 42.32C147.149 42.64 147.296 43.0267 147.296 43.48C147.296 43.8267 147.189 44.1467 146.976 44.44C146.789 44.7333 146.483 44.9467 146.056 45.08C145.709 45.1867 145.376 45.2667 145.056 45.32C144.736 45.3733 144.416 45.4 144.096 45.4ZM154.491 45.4C152.705 45.4 151.251 44.84 150.131 43.72C149.038 42.5733 148.491 41.0533 148.491 39.16C148.491 37.2667 149.025 35.7733 150.091 34.68C151.185 33.56 152.611 33 154.371 33C155.625 33 156.718 33.44 157.651 34.32C157.758 34 157.958 33.7333 158.251 33.52C158.545 33.3067 158.891 33.2 159.291 33.2C159.825 33.2 160.251 33.36 160.571 33.68C160.918 33.9733 161.091 34.3333 161.091 34.76V43.84C161.091 44.2933 160.918 44.6667 160.571 44.96C160.251 45.2533 159.825 45.4 159.291 45.4C158.411 45.4 157.865 45.0133 157.651 44.24C156.798 45.0133 155.745 45.4 154.491 45.4ZM154.771 42.16C155.625 42.16 156.305 41.88 156.811 41.32C157.318 40.7333 157.571 40.0133 157.571 39.16C157.571 38.28 157.318 37.5733 156.811 37.04C156.305 36.5067 155.625 36.24 154.771 36.24C153.945 36.24 153.265 36.5067 152.731 37.04C152.225 37.5733 151.971 38.28 151.971 39.16C151.971 40.0133 152.225 40.7333 152.731 41.32C153.265 41.88 153.945 42.16 154.771 42.16ZM152.091 29.52L155.491 26.56C155.891 26.24 156.305 26.0533 156.731 26C157.158 26 157.518 26.16 157.811 26.48C158.131 26.7733 158.291 27.1467 158.291 27.6C158.291 28.1867 158.065 28.6 157.611 28.84L153.411 31.2C153.331 31.2267 153.238 31.2667 153.131 31.32C153.051 31.3733 152.945 31.4 152.811 31.4C152.065 31.4 151.691 31.0667 151.691 30.4C151.691 30.0533 151.825 29.76 152.091 29.52ZM169.656 45.4C168.536 45.4 167.483 45.1467 166.496 44.64C165.536 44.1333 164.763 43.4 164.176 42.44C163.589 41.48 163.296 40.3333 163.296 39C163.323 37.16 163.923 35.7067 165.096 34.64C166.269 33.5467 167.789 33 169.656 33C170.376 33 171.083 33.08 171.776 33.24C172.469 33.4 173.069 33.6933 173.576 34.12C173.976 34.44 174.176 34.8533 174.176 35.36C174.176 35.7867 174.016 36.1733 173.696 36.52C173.403 36.8667 173.029 37.04 172.576 37.04C172.283 37.04 172.016 36.96 171.776 36.8C171.376 36.5867 171.016 36.44 170.696 36.36C170.403 36.28 170.069 36.24 169.696 36.24C168.816 36.24 168.096 36.4933 167.536 37C166.976 37.5067 166.696 38.1867 166.696 39.04C166.696 40.0267 167.003 40.8 167.616 41.36C168.229 41.8933 168.949 42.16 169.776 42.16C170.709 42.16 171.589 41.8133 172.416 41.12C172.736 40.88 173.043 40.76 173.336 40.76C173.763 40.76 174.123 40.9333 174.416 41.28C174.736 41.6267 174.896 42.0267 174.896 42.48C174.896 42.6667 174.856 42.88 174.776 43.12C174.696 43.3333 174.549 43.5467 174.336 43.76C173.616 44.3467 172.843 44.76 172.016 45C171.216 45.2667 170.429 45.4 169.656 45.4ZM182.104 45.4C180.957 45.4 180.011 45.0667 179.264 44.4C178.517 43.7333 178.144 42.7067 178.144 41.32V37C178.144 36.7333 178.011 36.6 177.744 36.6H177.144C176.664 36.6 176.304 36.4533 176.064 36.16C175.824 35.8667 175.704 35.4933 175.704 35.04C175.704 34.56 175.824 34.1733 176.064 33.88C176.304 33.56 176.664 33.4 177.144 33.4H177.744C178.011 33.4 178.144 33.2667 178.144 33V30.04C178.144 29.5867 178.304 29.2 178.624 28.88C178.944 28.56 179.357 28.4 179.864 28.4C180.371 28.4 180.784 28.56 181.104 28.88C181.451 29.1733 181.624 29.56 181.624 30.04V33C181.624 33.2667 181.757 33.4 182.024 33.4H183.504C183.957 33.4 184.331 33.56 184.624 33.88C184.944 34.2 185.104 34.5867 185.104 35.04C185.104 35.4933 184.944 35.8667 184.624 36.16C184.331 36.4533 183.944 36.6 183.464 36.6H182.024C181.757 36.6 181.624 36.7333 181.624 37V40.76C181.624 41.24 181.704 41.5733 181.864 41.76C182.051 41.9467 182.277 42.04 182.544 42.04C182.651 42.04 182.864 42.0133 183.184 41.96C183.504 41.88 183.704 41.84 183.784 41.84C184.211 41.84 184.571 42 184.864 42.32C185.157 42.64 185.304 43.0267 185.304 43.48C185.304 43.8267 185.197 44.1467 184.984 44.44C184.797 44.7333 184.491 44.9467 184.064 45.08C183.717 45.1867 183.384 45.2667 183.064 45.32C182.744 45.3733 182.424 45.4 182.104 45.4ZM192.499 45.4C190.713 45.4 189.259 44.84 188.139 43.72C187.046 42.5733 186.499 41.0533 186.499 39.16C186.499 37.2667 187.033 35.7733 188.099 34.68C189.193 33.56 190.619 33 192.379 33C193.633 33 194.726 33.44 195.659 34.32C195.766 34 195.966 33.7333 196.259 33.52C196.553 33.3067 196.899 33.2 197.299 33.2C197.833 33.2 198.259 33.36 198.579 33.68C198.926 33.9733 199.099 34.3333 199.099 34.76V43.84C199.099 44.2933 198.926 44.6667 198.579 44.96C198.259 45.2533 197.833 45.4 197.299 45.4C196.419 45.4 195.873 45.0133 195.659 44.24C194.806 45.0133 193.753 45.4 192.499 45.4ZM192.779 42.16C193.633 42.16 194.313 41.88 194.819 41.32C195.326 40.7333 195.579 40.0133 195.579 39.16C195.579 38.28 195.326 37.5733 194.819 37.04C194.313 36.5067 193.633 36.24 192.779 36.24C191.953 36.24 191.273 36.5067 190.739 37.04C190.233 37.5733 189.979 38.28 189.979 39.16C189.979 40.0133 190.233 40.7333 190.739 41.32C191.273 41.88 191.953 42.16 192.779 42.16ZM212.144 45.4C211.637 45.4 211.211 45.2533 210.864 44.96C210.544 44.6667 210.384 44.2933 210.384 43.84V38.96C210.384 37.9733 210.157 37.2667 209.704 36.84C209.277 36.4133 208.744 36.2 208.104 36.2C207.437 36.2 206.877 36.4133 206.424 36.84C205.997 37.2667 205.731 37.76 205.624 38.32V43.68C205.624 44.1333 205.451 44.52 205.104 44.84C204.784 45.1333 204.384 45.28 203.904 45.28C203.397 45.28 202.971 45.1333 202.624 44.84C202.277 44.5467 202.104 44.1733 202.104 43.72V34.76C202.104 34.3333 202.264 33.9733 202.584 33.68C202.931 33.36 203.371 33.2 203.904 33.2C204.331 33.2 204.691 33.32 204.984 33.56C205.277 33.7733 205.477 34.0533 205.584 34.4C206.304 33.4667 207.397 33 208.864 33C210.357 33 211.571 33.44 212.504 34.32C213.437 35.2 213.904 36.6 213.904 38.52V43.92C213.904 44.3467 213.731 44.7067 213.384 45C213.064 45.2667 212.651 45.4 212.144 45.4ZM222.429 45.4C221.282 45.4 220.229 45.1333 219.269 44.6C218.309 44.0667 217.535 43.3333 216.949 42.4C216.389 41.44 216.109 40.36 216.109 39.16C216.109 37.9333 216.389 36.8667 216.949 35.96C217.535 35.0267 218.309 34.3067 219.269 33.8C220.229 33.2667 221.282 33 222.429 33C223.602 33 224.655 33.2667 225.589 33.8C226.549 34.3067 227.309 35.0267 227.869 35.96C228.429 36.8667 228.709 37.9333 228.709 39.16C228.709 40.36 228.429 41.44 227.869 42.4C227.309 43.3333 226.549 44.0667 225.589 44.6C224.655 45.1333 223.602 45.4 222.429 45.4ZM222.429 42.16C223.255 42.16 223.922 41.88 224.429 41.32C224.962 40.7333 225.229 40.0133 225.229 39.16C225.229 38.28 224.962 37.5733 224.429 37.04C223.922 36.5067 223.255 36.24 222.429 36.24C221.629 36.24 220.949 36.5067 220.389 37.04C219.855 37.5733 219.589 38.28 219.589 39.16C219.589 40.0133 219.855 40.7333 220.389 41.32C220.949 41.88 221.629 42.16 222.429 42.16ZM235.287 45.4C233.474 45.4 231.981 45.0267 230.807 44.28C230.567 44.12 230.394 43.9333 230.287 43.72C230.181 43.48 230.127 43.2533 230.127 43.04C230.127 42.5867 230.274 42.1733 230.567 41.8C230.887 41.4267 231.274 41.24 231.727 41.24C231.941 41.24 232.154 41.2933 232.367 41.4C232.847 41.6133 233.394 41.8 234.007 41.96C234.621 42.0933 235.181 42.16 235.687 42.16C236.674 42.16 237.167 41.9333 237.167 41.48C237.167 41.2133 237.047 40.9867 236.807 40.8C236.567 40.5867 236.007 40.44 235.127 40.36C234.781 40.3333 234.327 40.28 233.767 40.2C233.234 40.12 232.701 39.9733 232.167 39.76C231.634 39.52 231.181 39.1733 230.807 38.72C230.461 38.2667 230.287 37.6533 230.287 36.88C230.287 35.68 230.741 34.7333 231.647 34.04C232.554 33.3467 233.767 33 235.287 33C236.167 33 236.994 33.0933 237.767 33.28C238.567 33.4667 239.167 33.7467 239.567 34.12C239.941 34.4667 240.127 34.8667 240.127 35.32C240.127 35.72 239.981 36.08 239.687 36.4C239.394 36.72 239.021 36.88 238.567 36.88C238.327 36.88 238.101 36.8267 237.887 36.72C237.567 36.5067 237.154 36.3467 236.647 36.24C236.167 36.1333 235.674 36.08 235.167 36.08C234.154 36.08 233.647 36.2933 233.647 36.72C233.647 36.9067 233.741 37.08 233.927 37.24C234.141 37.3733 234.607 37.4933 235.327 37.6C235.781 37.6533 236.301 37.7333 236.887 37.84C237.474 37.92 238.034 38.08 238.567 38.32C239.127 38.5333 239.594 38.8933 239.967 39.4C240.341 39.9067 240.527 40.6 240.527 41.48C240.527 42.68 240.047 43.64 239.087 44.36C238.127 45.0533 236.861 45.4 235.287 45.4Z" fill="#1B1717"/>
</svg>
