<svg width="817" height="953" viewBox="0 0 817 953" fill="none" xmlns="http://www.w3.org/2000/svg">
<path d="M815.649 62.5058C814.019 44.5703 805.33 28.0163 791.495 16.4829C777.653 4.95751 759.799 -0.600904 741.859 1.0296C723.919 2.6601 707.361 11.3461 695.825 25.178L408.271 370.128L120.751 25.178C115.085 18.184 108.086 12.3852 100.16 8.11862C92.2333 3.852 83.5379 1.20259 74.5787 0.324267C65.6194 -0.554051 56.5749 0.356248 47.9706 3.00228C39.3662 5.64832 31.3736 9.97731 24.457 15.7378C17.5404 21.4983 11.8376 28.5755 7.68016 36.5582C3.52268 44.5408 0.993304 53.2699 0.23897 62.2382C-0.515364 71.2064 0.520394 80.2352 3.28605 88.7998C6.05171 97.3645 10.4921 105.294 16.3494 112.129L319.837 476.235L16.3494 840.342C10.4921 847.176 6.05171 855.106 3.28605 863.671C0.520394 872.235 -0.515364 881.264 0.23897 890.232C0.993304 899.201 3.52268 907.93 7.68016 915.912C11.8376 923.895 17.5404 930.972 24.457 936.733C31.3736 942.493 39.3662 946.822 47.9706 949.468C56.5749 952.114 65.6194 953.025 74.5787 952.146C83.5379 951.268 92.2333 948.619 100.16 944.352C108.086 940.085 115.085 934.287 120.751 927.293L408.271 582.342L695.825 927.293C701.456 934.388 708.45 940.286 716.396 944.64C724.341 948.993 733.077 951.714 742.089 952.642C751.102 953.571 760.209 952.688 768.875 950.045C777.541 947.403 785.591 943.054 792.551 937.255C799.512 931.456 805.242 924.324 809.404 916.279C813.567 908.234 816.078 899.438 816.79 890.408C817.502 881.378 816.4 872.297 813.55 863.698C810.699 855.1 806.158 847.159 800.192 840.342L496.705 476.235L800.192 112.129C811.721 98.2902 817.28 80.4413 815.649 62.5058Z" fill="#FF0000"/>
</svg>
