<svg width="30" height="30" viewBox="0 0 30 30" fill="none" xmlns="http://www.w3.org/2000/svg">
<path d="M17.2256 5.80021L26.126 12.5115C26.3338 12.6738 26.5825 12.8032 26.8574 12.8923C27.1323 12.9813 27.428 13.0282 27.7272 13.0302C28.0263 13.0321 28.3231 12.9891 28.6 12.9037C28.8769 12.8183 29.1285 12.6921 29.34 12.5326C29.5516 12.373 29.7189 12.1833 29.8322 11.9745C29.9455 11.7657 30.0025 11.542 29.9999 11.3164C29.9973 11.0908 29.9352 10.8678 29.8171 10.6605C29.699 10.4533 29.5273 10.2658 29.3121 10.109L16.5654 0.497432C16.1428 0.178907 15.5698 -2.90838e-05 14.9723 -2.90838e-05C14.3748 -2.90838e-05 13.8018 0.178907 13.3793 0.497432L0.632524 10.109C0.222073 10.4295 -0.00504578 10.8587 8.81053e-05 11.3042C0.00522199 11.7496 0.242199 12.1758 0.659973 12.4908C1.07775 12.8058 1.64289 12.9845 2.23369 12.9884C2.82449 12.9923 3.39367 12.821 3.81864 12.5115L12.719 5.80021L12.719 28.3009C12.719 28.7515 12.9564 29.1837 13.379 29.5023C13.8016 29.821 14.3747 30 14.9723 30C15.5699 30 16.143 29.821 16.5656 29.5023C16.9882 29.1837 17.2256 28.7515 17.2256 28.3009L17.2256 5.80021Z" fill="#878787"/>
<path fill-rule="evenodd" clip-rule="evenodd" d="M17.2256 5.80021L26.126 12.5115C26.3338 12.6738 26.5825 12.8032 26.8574 12.8923C27.1323 12.9813 27.428 13.0282 27.7272 13.0302C28.0263 13.0321 28.3231 12.9891 28.6 12.9037C28.8769 12.8183 29.1285 12.6921 29.34 12.5326C29.5516 12.373 29.7189 12.1833 29.8322 11.9745C29.9455 11.7657 30.0025 11.542 29.9999 11.3164C29.9973 11.0908 29.9352 10.8678 29.8171 10.6605C29.699 10.4533 29.5273 10.2658 29.3121 10.109L16.5654 0.497432C16.1428 0.178907 15.5698 -2.90838e-05 14.9723 -2.90838e-05C14.3748 -2.90838e-05 13.8018 0.178907 13.3793 0.497432L0.632524 10.109C0.222073 10.4295 -0.00504578 10.8587 8.81053e-05 11.3042C0.00522199 11.7496 0.242199 12.1758 0.659973 12.4908C1.07775 12.8058 1.64289 12.9845 2.23369 12.9884C2.82449 12.9923 3.39367 12.821 3.81864 12.5115L12.719 5.80021L12.719 28.3009C12.719 28.7515 12.9564 29.1837 13.379 29.5023C13.8016 29.821 14.3747 30 14.9723 30C15.5699 30 16.143 29.821 16.5656 29.5023C16.9882 29.1837 17.2256 28.7515 17.2256 28.3009L17.2256 5.80021Z" fill="#878787"/>
</svg>
