<svg width="25" height="33" viewBox="0 0 25 33" fill="none" xmlns="http://www.w3.org/2000/svg">
<path d="M10.6453 26.6197L3.22835 19.2373C3.05513 19.0588 2.84793 18.9164 2.61885 18.8185C2.38976 18.7205 2.14336 18.669 1.89404 18.6668C1.64472 18.6646 1.39746 18.7119 1.16669 18.8059C0.935927 18.8999 0.726277 19.0387 0.549973 19.2141C0.373668 19.3896 0.234241 19.5983 0.139827 19.828C0.0454138 20.0577 -0.00209565 20.3038 7.08969e-05 20.5519C0.00223744 20.8001 0.0540361 21.0453 0.152446 21.2734C0.250855 21.5014 0.393905 21.7076 0.573247 21.88L11.1955 32.4528C11.5476 32.8032 12.0252 33 12.5231 33C13.021 33 13.4985 32.8032 13.8506 32.4528L24.4729 21.88C24.8149 21.5275 25.0042 21.0554 24.9999 20.5654C24.9956 20.0754 24.7982 19.6066 24.45 19.2601C24.1019 18.9136 23.6309 18.717 23.1386 18.7127C22.6463 18.7085 22.1719 18.8969 21.8178 19.2373L14.4008 26.6197V1.86897C14.4008 1.37329 14.203 0.897908 13.8508 0.547408C13.4987 0.196908 13.0211 0 12.5231 0C12.0251 0 11.5475 0.196908 11.1953 0.547408C10.8432 0.897908 10.6453 1.37329 10.6453 1.86897V26.6197Z" fill="#878787"/>
<path fill-rule="evenodd" clip-rule="evenodd" d="M10.6453 26.6197L3.22835 19.2373C3.05513 19.0588 2.84793 18.9164 2.61885 18.8185C2.38976 18.7205 2.14336 18.669 1.89404 18.6668C1.64472 18.6646 1.39746 18.7119 1.16669 18.8059C0.935927 18.8999 0.726277 19.0387 0.549973 19.2141C0.373668 19.3896 0.234241 19.5983 0.139827 19.828C0.0454138 20.0577 -0.00209565 20.3038 7.08969e-05 20.5519C0.00223744 20.8001 0.0540361 21.0453 0.152446 21.2734C0.250855 21.5014 0.393905 21.7076 0.573247 21.88L11.1955 32.4528C11.5476 32.8032 12.0252 33 12.5231 33C13.021 33 13.4985 32.8032 13.8506 32.4528L24.4729 21.88C24.8149 21.5275 25.0042 21.0554 24.9999 20.5654C24.9956 20.0754 24.7982 19.6066 24.45 19.2601C24.1019 18.9136 23.6309 18.717 23.1386 18.7127C22.6463 18.7085 22.1719 18.8969 21.8178 19.2373L14.4008 26.6197V1.86897C14.4008 1.37329 14.203 0.897908 13.8508 0.547408C13.4987 0.196908 13.0211 0 12.5231 0C12.0251 0 11.5475 0.196908 11.1953 0.547408C10.8432 0.897908 10.6453 1.37329 10.6453 1.86897V26.6197Z" fill="#878787"/>
</svg>
