<svg width="38" height="39" viewBox="0 0 38 39" fill="none" xmlns="http://www.w3.org/2000/svg">
<path d="M8.83763 31L8.76783 31.4688L8.41578 31.1857L8.07587 31.6119L8.45827 31.9193L8 32.0989L8.2003 32.6103L8.61608 32.449L8.54628 32.9148L9.08649 33L9.1654 32.4855L9.58422 32.8234L9.92413 32.3973L9.54173 32.0898L10 31.9102L9.7997 31.3988L9.30197 31.5936L9.37785 31.0852L8.83763 31Z" fill="#3FDCFF"/>
<path d="M11.1049 5.6521L11.0626 5.936L10.8494 5.76455L10.6436 6.02264L10.8752 6.20883L10.5977 6.3176L10.719 6.62731L10.9707 6.5296L10.9285 6.81166L11.2556 6.86327L11.3034 6.55172L11.557 6.75635L11.7629 6.49826L11.5313 6.31207L11.8088 6.2033L11.6875 5.8936L11.3861 6.01158L11.4321 5.70372L11.1049 5.6521Z" fill="#66E2FF"/>
<path d="M17.9026 4.23914L17.8321 4.7123L17.4768 4.42656L17.1337 4.85671L17.5197 5.16703L17.0571 5.3483L17.2593 5.86448L17.679 5.70164L17.6085 6.17173L18.1537 6.25776L18.2334 5.73851L18.6561 6.07956L18.9992 5.64941L18.6132 5.33909L19.0758 5.15781L18.8736 4.64163L18.3712 4.83827L18.4478 4.32517L17.9026 4.23914Z" fill="#3FDCFF"/>
<path d="M5.30034 32L4.76852 32.1543L5.03535 33.0825L4.1328 32.8585L4 33.3979L4.96864 33.6386L4.27605 34.3612L4.67476 34.7439L5.3197 34.0718L5.58654 35L6.11835 34.8457L5.83308 33.8533L6.86474 34.1094L7 33.57L6.03197 33.3297L6.72333 32.6091L6.32432 32.224L5.58623 32.9942L5.30034 32Z" fill="#66E2FF"/>
<path d="M34.4245 1.00934L34.174 1.08201L34.2997 1.51921L33.8746 1.41369L33.812 1.66775L34.2683 1.78112L33.942 2.12151L34.1298 2.30174L34.4336 1.98518L34.5593 2.42238L34.8098 2.3497L34.6754 1.88228L35.1613 2.00291L35.225 1.74885L34.7691 1.63563L35.0947 1.29625L34.9068 1.11486L34.5591 1.47764L34.4245 1.00934Z" fill="#3FDCFF"/>
<path d="M32.0288 0L31.8499 0.0519087L31.9396 0.364191L31.636 0.28882L31.5913 0.470293L31.9172 0.55127L31.6842 0.794411L31.8183 0.923144L32.0353 0.69703L32.1251 1.00931L32.304 0.957404L32.208 0.623527L32.5551 0.709696L32.6006 0.528223L32.2749 0.447349L32.5075 0.204936L32.3733 0.0753714L32.125 0.3345L32.0288 0Z" fill="#66E2FF"/>
<path d="M30.8669 24L30.5123 24.1029L30.6902 24.7217L30.0885 24.5723L30 24.9319L30.6458 25.0924L30.184 25.5742L30.4498 25.8293L30.8798 25.3812L31.0577 26L31.4122 25.8971L31.2221 25.2355L31.9098 25.4063L32 25.0467L31.3546 24.8864L31.8156 24.4061L31.5495 24.1494L31.0575 24.6628L30.8669 24Z" fill="#21B3D3"/>
<path d="M32.202 2.01862L32.1175 2.58641L31.6911 2.24352L31.2794 2.7597L31.7425 3.13209L31.1875 3.34962L31.4301 3.96903L31.9337 3.77362L31.8491 4.33773L32.5034 4.44097L32.599 3.81787L33.1063 4.22712L33.518 3.71094L33.0548 3.33856L33.6099 3.12102L33.3672 2.50161L32.7644 2.73758L32.8563 2.12185L32.202 2.01862Z" fill="#21B3D3"/>
<path d="M1.6149 38.6566C1.82122 32.1031 3.11372 30.1116 5.85401 28.8663C7.76369 28.5815 9.55168 28.8023 11.547 29.0488C14.3931 29.4003 17.6611 29.8039 22.3058 28.8663C28.7089 25.8492 31.8133 18.8884 37.0418 3.12885C34.9468 6.46885 33.7247 8.46475 32.6008 9.28565C31.111 11.7752 29.5536 13.0022 24.8291 14.7359C14.0703 17.8931 11.0935 19.8699 7.56984 23.517C4.66581 26.174 2.99766 29.2832 0 35.7296C0.282854 37.9504 0.683686 38.4448 1.6149 38.6566Z" fill="#21B3D3"/>
<path d="M17.8648 10.9006C12.9233 14.9525 11.7333 16.5153 9.89126 19.1769C13.2533 16.6806 15.429 15.3078 25.4347 13.4238C27.81 12.8054 29.5206 11.5657 32.6008 9.28565C33.7247 8.46475 34.9468 6.46885 37.0418 3.12885C34.3736 5.62917 31.2959 6.73673 23.3151 7.34313C20.845 9.43076 19.7662 9.97545 17.8648 10.9006Z" fill="#3FDCFF"/>
<path d="M19.6816 7.56982C2.28649 10.8248 2.53328 21.9754 3.43166 27.5542C8.36432 17.5985 11.5164 13.9157 17.8648 10.9006C19.7662 9.97545 20.845 9.43076 23.3151 7.34313C22.2032 7.42762 20.996 7.50238 19.6816 7.56982Z" fill="#66E2FF"/>
</svg>
