<svg width="41" height="40" viewBox="0 0 41 40" fill="none" xmlns="http://www.w3.org/2000/svg">
<path d="M0 2.73261C0 1.87151 0.69806 1.17345 1.55916 1.17345H24.9855C25.8466 1.17345 26.5447 1.87151 26.5447 2.73261V8.22865C26.5447 9.08975 25.8466 9.78781 24.9855 9.78781H1.55916C0.69806 9.78781 0 9.08975 0 8.22865V2.73261Z" fill="#EAEAEA"/>
<path d="M0 17.0769C0 16.2158 0.69806 15.5177 1.55916 15.5177H24.9855C25.8466 15.5177 26.5447 16.2158 26.5447 17.0769V22.5729C26.5447 23.434 25.8466 24.1321 24.9855 24.1321H1.55916C0.69806 24.1321 0 23.434 0 22.5729V17.0769Z" fill="#EAEAEA"/>
<path d="M0 31.772C0 30.9109 0.69806 30.2128 1.55916 30.2128H24.9855C25.8466 30.2128 26.5447 30.9109 26.5447 31.772V37.268C26.5447 38.1291 25.8466 38.8272 24.9855 38.8272H1.55916C0.69806 38.8272 0 38.1291 0 37.268V31.772Z" fill="#EAEAEA"/>
<path fill-rule="evenodd" clip-rule="evenodd" d="M34.3015 0.004078C31.3099 0.110964 29.0183 2.58459 29.0394 5.57808C29.0603 8.5495 31.3319 10.968 34.3015 11.0741C37.3783 11.1841 40.1267 8.65673 40.1484 5.57808C40.1702 2.47812 37.6927 -0.117082 34.3015 0.004078ZM37.8041 3.00036C37.5056 2.72311 37.0389 2.7398 36.7609 3.03767L33.444 6.59153L32.2241 5.40003C31.9683 5.15017 31.5617 5.14409 31.2986 5.38621C31.0212 5.64134 31.0075 6.07449 31.2682 6.34664L32.826 7.97318C33.1631 8.32518 33.7255 8.32578 34.0634 7.97449L37.8339 4.05431C38.1204 3.75646 38.107 3.28157 37.8041 3.00036Z" fill="#879FD4"/>
<path d="M33.444 6.59153L36.7609 3.03767C37.0389 2.7398 37.5056 2.72311 37.8041 3.00036C38.107 3.28157 38.1204 3.75646 37.8339 4.05431L34.0634 7.97449C33.7255 8.32578 33.1631 8.32518 32.826 7.97318L31.2682 6.34664C31.0075 6.07449 31.0212 5.64134 31.2986 5.38621C31.5617 5.14409 31.9683 5.15017 32.2241 5.40003L33.444 6.59153Z" fill="#EAEAEA"/>
<path fill-rule="evenodd" clip-rule="evenodd" d="M34.3015 14.4653C31.3099 14.5722 29.0183 17.0458 29.0394 20.0393C29.0603 23.0107 31.3319 25.4292 34.3015 25.5353C37.3783 25.6453 40.1267 23.1179 40.1484 20.0393C40.1702 16.9393 37.6927 14.3441 34.3015 14.4653ZM37.8041 17.4616C37.5056 17.1843 37.0389 17.201 36.7609 17.4989L33.444 21.0527L32.2241 19.8612C31.9683 19.6114 31.5617 19.6053 31.2986 19.8474C31.0212 20.1026 31.0075 20.5357 31.2682 20.8079L32.826 22.4344C33.1631 22.7864 33.7255 22.787 34.0634 22.4357L37.8339 18.5155C38.1204 18.2177 38.107 17.7428 37.8041 17.4616Z" fill="#879FD4"/>
<path d="M33.444 21.0527L36.7609 17.4989C37.0389 17.201 37.5056 17.1843 37.8041 17.4616C38.107 17.7428 38.1204 18.2177 37.8339 18.5155L34.0634 22.4357C33.7255 22.787 33.1631 22.7864 32.826 22.4344L31.2682 20.8079C31.0075 20.5357 31.0212 20.1026 31.2986 19.8474C31.5617 19.6053 31.9683 19.6114 32.2241 19.8612L33.444 21.0527Z" fill="#EAEAEA"/>
<path fill-rule="evenodd" clip-rule="evenodd" d="M34.3015 28.9265C31.3099 29.0334 29.0183 31.507 29.0394 34.5005C29.0603 37.4719 31.3319 39.8904 34.3015 39.9965C37.3783 40.1065 40.1267 37.5792 40.1484 34.5005C40.1702 31.4005 37.6927 28.8053 34.3015 28.9265ZM37.8042 31.9228C37.5056 31.6455 37.0389 31.6622 36.7609 31.9601L33.444 35.514L32.2241 34.3225C31.9683 34.0726 31.5617 34.0665 31.2986 34.3086C31.0212 34.5638 31.0075 34.9969 31.2682 35.2691L32.826 36.8956C33.1631 37.2476 33.7255 37.2482 34.0634 36.8969L37.8339 32.9767C38.1204 32.6789 38.107 32.204 37.8042 31.9228Z" fill="#879FD4"/>
<path d="M33.444 35.514L36.7609 31.9601C37.0389 31.6622 37.5056 31.6455 37.8042 31.9228C38.107 32.204 38.1204 32.6789 37.8339 32.9767L34.0634 36.8969C33.7255 37.2482 33.1631 37.2476 32.826 36.8956L31.2682 35.2691C31.0075 34.9969 31.0212 34.5638 31.2986 34.3086C31.5617 34.0665 31.9683 34.0726 32.2241 34.3225L33.444 35.514Z" fill="#EAEAEA"/>
</svg>
