<svg width="27" height="40" viewBox="0 0 27 40" fill="none" xmlns="http://www.w3.org/2000/svg">
<path d="M21.5279 15.3071H5.09269C5.09269 16.8292 6.32475 18.0866 7.84457 18.0866H13.2902H18.776C20.2958 18.0866 21.5279 16.8292 21.5279 15.3071Z" fill="#FFD987"/>
<path d="M5.09269 15.3071H21.5279H22.9135C23.3023 15.3071 23.6174 14.9915 23.6174 14.6022C23.6174 14.2129 23.3023 13.8973 22.9135 13.8973H19.3178H9.43254H7.38317H3.66685C3.2781 13.8973 2.96295 14.2129 2.96295 14.6022C2.96295 14.9915 3.2781 15.3071 3.66685 15.3071H5.09269Z" fill="#E2AF42"/>
<path d="M19.3178 13.8973L26.3033 2.39303C26.9405 1.34358 26.1862 0 24.9597 0H18.4904C17.7845 0 17.1328 0.379065 16.7831 0.993107L13.1956 7.29104L9.43254 13.8973H19.3178Z" fill="#879FD4"/>
<path d="M7.38317 13.8973H9.43254L13.1956 7.29104L9.59681 0.991025C9.24672 0.378154 8.59568 0 7.89064 0H1.57501C0.341141 0 -0.412046 1.35813 0.240079 2.40712L7.38317 13.8973Z" fill="#6276A3"/>
<path fill-rule="evenodd" clip-rule="evenodd" d="M13.2902 40C19.3267 40 24.2202 35.0945 24.2202 29.0433C24.2202 22.9921 19.3267 18.0866 13.2902 18.0866C7.25372 18.0866 2.36019 22.9921 2.36019 29.0433C2.36019 35.0945 7.25372 40 13.2902 40ZM13.2902 37.5831C17.9951 37.5831 21.8092 33.7597 21.8092 29.0433C21.8092 24.3269 17.9951 20.5035 13.2902 20.5035C8.58529 20.5035 4.77122 24.3269 4.77122 29.0433C4.77122 33.7597 8.58529 37.5831 13.2902 37.5831Z" fill="#E2AF42"/>
<path fill-rule="evenodd" clip-rule="evenodd" d="M13.2902 37.5831C17.9951 37.5831 21.8092 33.7597 21.8092 29.0433C21.8092 24.3269 17.9951 20.5035 13.2902 20.5035C8.58529 20.5035 4.77122 24.3269 4.77122 29.0433C4.77122 33.7597 8.58529 37.5831 13.2902 37.5831ZM14.0502 32.4673C13.9633 32.4673 13.8929 32.3968 13.8929 32.3098V24.1697C13.8929 23.6907 13.3267 23.441 12.9766 23.7674C12.1281 24.5582 10.9464 25.6784 10.5979 26.1027C10.0353 26.7875 10.9059 27.6051 11.6025 26.9084C11.9315 26.5792 12.1739 26.3363 12.338 26.1716C12.4372 26.0721 12.6071 26.1426 12.6071 26.2831V32.3098C12.6071 32.3968 12.5367 32.4673 12.4498 32.4673H11.2013C10.8236 32.4673 10.5175 32.7739 10.5175 33.1521C10.5175 33.5303 10.8236 33.8369 11.2013 33.8369H15.2987C15.6764 33.8369 15.9825 33.5303 15.9825 33.1521C15.9825 32.7739 15.6764 32.4673 15.2987 32.4673H14.0502Z" fill="#FFD987"/>
<path d="M12.9766 23.7674C13.3267 23.441 13.8929 23.6907 13.8929 24.1697V32.3098C13.8929 32.3968 13.9633 32.4673 14.0502 32.4673H15.2987C15.6764 32.4673 15.9825 32.7739 15.9825 33.1521C15.9825 33.5303 15.6764 33.8369 15.2987 33.8369H11.2013C10.8236 33.8369 10.5175 33.5303 10.5175 33.1521C10.5175 32.7739 10.8236 32.4673 11.2013 32.4673H12.4498C12.5367 32.4673 12.6071 32.3968 12.6071 32.3098V26.2831C12.6071 26.1426 12.4372 26.0721 12.338 26.1716C12.1739 26.3363 11.9315 26.5792 11.6025 26.9084C10.9059 27.6051 10.0353 26.7875 10.5979 26.1027C10.9464 25.6784 12.1281 24.5582 12.9766 23.7674Z" fill="#E2AF42"/>
</svg>
