<svg width="40" height="43" viewBox="0 0 40 43" fill="none" xmlns="http://www.w3.org/2000/svg">
<path fill-rule="evenodd" clip-rule="evenodd" d="M22.2639 0.0406613C21.6669 -1.72748e-05 20.9357 -9.40188e-06 20.0416 2.98255e-07H19.9584C19.0643 -9.40188e-06 18.3331 -1.72748e-05 17.7361 0.0406613C17.1192 0.0826866 16.5582 0.172191 16.022 0.394216C15.3926 0.654814 14.8206 1.0369 14.3389 1.51864C13.8571 2.00043 13.475 2.57246 13.2144 3.20201L13.2138 3.20332C12.9474 3.84911 12.8683 4.54255 12.839 5.33666L12.8387 5.34453L12.8385 5.3524C12.8303 5.69638 12.7351 6.03266 12.5616 6.32979C12.3909 6.62216 12.1499 6.86723 11.8607 7.04286C11.564 7.20565 11.2312 7.29187 10.8926 7.2936C10.5485 7.29536 10.2095 7.20978 9.90745 7.04488L9.90087 7.04129L9.89424 7.03777C9.18989 6.66464 8.5527 6.38718 7.85618 6.2947L7.85469 6.2945C6.49176 6.11527 5.11343 6.48456 4.02268 7.3212L4.01862 7.32435C3.56202 7.6777 3.20542 8.11711 2.8605 8.63008C2.52201 9.13347 2.15079 9.77633 1.695 10.5657L1.65432 10.6361C1.21552 11.3959 0.855241 12.0198 0.595084 12.5501C0.322848 13.1051 0.119218 13.6367 0.0443432 14.2146C-0.044471 14.8893 0.000411628 15.575 0.176437 16.2324C0.352602 16.8904 0.656667 17.5072 1.07126 18.0476L1.07293 18.0497C1.50118 18.6053 2.0619 19.0175 2.73155 19.4389L2.73255 19.4395C3.35832 19.8324 3.72188 20.4747 3.72188 21.1404C3.72188 21.8064 3.35818 22.4478 2.73409 22.8384L2.72929 22.8414C1.19874 23.8987 0.620731 24.5935 0.176437 26.0484C0.000271604 26.7064 -0.0445364 27.3926 0.0445611 28.0679C0.120478 28.6431 0.323364 29.1736 0.595056 29.7289C0.857479 30.2652 1.22153 30.897 1.66631 31.6689L1.71453 31.7524C2.16128 32.5244 2.52644 33.1554 2.8595 33.6508C3.2044 34.1637 3.56145 34.6038 4.02008 34.9576L4.0226 34.9596C4.56301 35.3741 5.17981 35.6782 5.83776 35.8544C6.49571 36.0305 7.18192 36.0754 7.8572 35.9863L7.85882 35.9861C8.55314 35.8935 9.19018 35.616 9.89424 35.2431L9.90087 35.2395L9.90745 35.236C10.2095 35.071 10.5485 34.9855 10.8926 34.9872C11.2336 34.989 11.5687 35.0764 11.867 35.2415C12.4424 35.5788 12.8128 36.2119 12.839 36.9429L12.839 36.9441C13.0037 38.7702 13.2552 39.6674 14.3389 40.7622C14.8206 41.2439 15.3926 41.626 16.022 41.8866C16.5583 42.1087 17.1191 42.1981 17.7361 42.2402C18.3331 42.2809 19.0643 42.2808 19.9584 42.2808H20.0416C20.9357 42.2808 21.6669 42.2809 22.2639 42.2402C22.8809 42.1981 23.4417 42.1087 23.978 41.8866C24.6074 41.626 25.1794 41.2439 25.6611 40.7622C26.1429 40.2804 26.525 39.7084 26.7856 39.0788L26.7862 39.0775C27.0525 38.4319 27.1317 37.7406 27.161 36.9441L27.161 36.9429C27.1873 36.2103 27.5588 35.5765 28.1322 35.2419C28.4307 35.0766 28.7661 34.989 29.1074 34.9872C29.4515 34.9855 29.7905 35.071 30.0925 35.236L30.0991 35.2395L30.1058 35.2431C30.8098 35.616 31.4469 35.8935 32.1412 35.9861L32.1428 35.9863C32.8181 36.0754 33.5043 36.0305 34.1622 35.8544C34.8202 35.6782 35.437 35.3741 35.9774 34.9596L35.978 34.9591C36.4383 34.6055 36.796 34.1641 37.1407 33.6509C37.4733 33.1555 37.8377 32.5244 38.283 31.7533L38.3457 31.6447C38.7845 30.8849 39.1448 30.261 39.4049 29.7307C39.6772 29.1757 39.8808 28.6441 39.9557 28.0661C40.0445 27.3914 39.9996 26.7058 39.8236 26.0484C39.6474 25.3905 39.3433 24.7737 38.9287 24.2333L38.9271 24.2311C38.4988 23.6755 37.9381 23.2634 37.2685 22.842L37.2611 22.8374L37.2537 22.8328C36.9598 22.6538 36.7161 22.4031 36.5454 22.1042C36.3762 21.8077 36.2843 21.4735 36.2781 21.1323C36.2811 20.4692 36.6444 19.8314 37.2659 19.4424L37.2707 19.4394C37.9356 19.019 38.5011 18.6057 38.9287 18.0476C39.3433 17.5072 39.6474 16.8904 39.8236 16.2324C39.9997 15.5744 40.0445 14.8882 39.9554 14.213C39.8795 13.6377 39.6766 13.1072 39.4049 12.552C39.1425 12.0157 38.7785 11.3839 38.3337 10.6121L38.2855 10.5284C37.8387 9.75644 37.4736 9.1254 37.1405 8.63008C36.7956 8.11716 36.4386 7.67702 35.9799 7.32322L35.9774 7.32128C35.437 6.90668 34.8202 6.60262 34.1622 6.42645C33.5043 6.25029 32.8181 6.20547 32.1428 6.29457L32.1412 6.29479C31.4471 6.38733 30.8101 6.66469 30.1051 7.03709L30.098 7.04083L30.0909 7.04468C29.789 7.20936 29.4503 7.29481 29.1064 7.29305C28.7681 7.29133 28.4357 7.20525 28.1391 7.04275C27.85 6.86713 27.6091 6.62211 27.4384 6.32979C27.2649 6.03266 27.1697 5.69638 27.1615 5.3524L27.1613 5.34459L27.161 5.33678C27.1318 4.54508 27.0555 3.84989 26.785 3.20055C26.5244 2.57157 26.1425 2.00006 25.6611 1.51864C25.1793 1.03685 24.6073 0.654727 23.9778 0.394127C23.4416 0.172101 22.8808 0.0826866 22.2639 0.0406613ZM14.2562 21.1404C14.2562 18.1887 16.7854 15.3966 20 15.3966C23.2146 15.3966 25.7438 17.4127 25.7438 21.1404C25.7438 24.8682 22.7359 26.6674 20 26.6674C17.2641 26.6674 14.2562 24.0921 14.2562 21.1404Z" fill="#879FD4"/>
</svg>
