<svg width="172" height="121" viewBox="0 0 172 121" fill="none" xmlns="http://www.w3.org/2000/svg">
<path d="M95.5774 28.8345C96.3471 34.4838 95.574 41.7151 93.3349 45.4494C92.564 46.7349 91.6195 47.6061 90.5043 47.8555C89.199 48.1476 87.7521 47.497 86.3251 46.2345C82.9915 43.2853 79.7662 36.9966 78.7072 31.5837C77.1177 23.4587 80.3607 11.6534 84.2022 11.0292C88.0437 10.4049 94.4594 20.6286 95.5774 28.8345Z" fill="#66BD6E"/>
<path d="M97.6858 62.4577C102.791 65.6473 106.554 60.0613 102.22 56.9629C99.3555 55.3889 96.0719 50.6861 93.3349 45.4494C92.564 46.7349 91.6195 47.6061 90.5043 47.8555C89.199 48.1476 87.7521 47.497 86.3251 46.2345C89.1483 52.9366 92.9842 59.5199 97.6858 62.4577Z" fill="#57351C"/>
<path d="M102.22 56.9629C106.554 60.0613 102.791 65.6473 97.6858 62.4577C84.3273 79.9361 79.2038 87.9347 58.9993 95.8072L89.3562 95.8072C95.4913 90.333 102.095 74.315 116.037 64.1556C126.034 56.8709 137.79 59.4952 149.589 67.0076C153.092 69.2378 157.841 68.2204 159.838 64.5535C161.603 61.3116 160.503 57.2402 157.312 55.4252C146.101 49.0476 140.08 46.7869 131.049 45.9599C130.315 45.8927 129.893 45.0781 130.273 44.442L141.65 25.4138C143.611 22.1342 142.585 17.8876 139.351 15.8916C135.997 13.8223 131.602 14.9855 129.591 18.3985C120.47 33.877 111.191 46.5236 102.22 56.9629Z" fill="#664126"/>
<path d="M25.0554 48.4782C28.7206 52.5356 31.8779 58.6626 31.9029 62.8033C31.9114 64.2287 31.5488 65.4188 30.7079 66.2079C29.7236 67.1316 28.1163 67.3853 26.2021 67.1448C21.7303 66.5828 15.5835 63.3233 11.7911 59.6063C6.09863 54.0269 2.67287 42.973 5.69417 40.4404C8.71547 37.9078 19.7315 42.5846 25.0554 48.4782Z" fill="#66BD6E"/>
<path d="M44.7123 74.4396C50.857 74.2515 51.1808 67.838 45.7571 67.6891C42.4236 67.9652 37.0661 65.4903 31.9029 62.8033C31.9114 64.2287 31.5488 65.4188 30.7079 66.2079C29.7236 67.1316 28.1163 67.3853 26.2021 67.1448C32.2171 70.9445 39.0529 74.6128 44.7123 74.4396Z" fill="#57351C"/>
<path d="M45.7571 67.6891C51.1808 67.838 50.857 74.2515 44.7123 74.4396C43.7135 83.16 43.0908 89.8164 41.7278 95.8431L57.3633 95.8431C58.7088 88.1726 59.4656 79.0694 61.6253 66.0412C63.5662 54.3326 78.1376 50.8105 92.4146 50.4863C96.653 50.39 100.258 47.0648 100.057 43.1064C99.8792 39.6066 96.7622 36.9718 93.0161 37.2306C79.8534 38.1399 73.4015 39.5486 65.0833 43.6882C64.4073 44.0246 63.6069 43.6048 63.6017 42.9001L63.4458 21.819C63.419 18.1855 60.274 15.3727 56.3938 15.5117C52.3711 15.6558 49.1519 18.9084 49.2056 22.6741C49.449 39.7515 48.0538 54.6743 45.7571 67.6891Z" fill="#664126"/>
</svg>
