<svg width="47" height="40" viewBox="0 0 47 40" fill="none" xmlns="http://www.w3.org/2000/svg">
<path fill-rule="evenodd" clip-rule="evenodd" d="M46.0568 38.1541V16.1543C46.0568 14.3737 44.6134 12.9303 42.8328 12.9303L28.7395 12.9303H20.5413C18.7608 12.9303 17.3174 14.3737 17.3174 16.1543V27.0697V31.8596C17.3174 33.6402 18.7608 35.0836 20.5413 35.0836H37.2139C37.9235 35.0836 38.6059 35.3566 39.1197 35.8459L42.944 39.4881C44.1169 40.6052 46.0568 39.7738 46.0568 38.1541ZM23.2126 24.4445C23.2126 23.5796 23.9137 22.8786 24.7786 22.8786C25.6434 22.8786 26.3445 23.5796 26.3445 24.4445C26.3445 25.3093 25.6434 26.0104 24.7786 26.0104C23.9137 26.0104 23.2126 25.3093 23.2126 24.4445ZM29.7066 24.4445C29.7066 23.5796 30.4077 22.8786 31.2726 22.8786C32.1374 22.8786 32.8385 23.5796 32.8385 24.4445C32.8385 25.3093 32.1374 26.0104 31.2726 26.0104C30.4077 26.0104 29.7066 25.3093 29.7066 24.4445ZM35.9243 24.4445C35.9243 23.5796 36.6254 22.8786 37.4902 22.8786C38.3551 22.8786 39.0562 23.5796 39.0562 24.4445C39.0562 25.3093 38.3551 26.0104 37.4902 26.0104C36.6254 26.0104 35.9243 25.3093 35.9243 24.4445Z" fill="#879FD4"/>
<path d="M0 1.84594V23.8457C0 25.6263 1.44342 27.0697 3.22398 27.0697H17.3174V16.1543C17.3174 14.3737 18.7608 12.9303 20.5413 12.9303H28.7395V8.14037C28.7395 6.35982 27.296 4.91639 25.5155 4.91639H8.84291C8.13333 4.91639 7.45094 4.64344 6.93711 4.15407L3.11281 0.511878C1.93991 -0.605168 0 0.226222 0 1.84594Z" fill="#566C9F"/>
<path d="M24.7786 22.8786C23.9137 22.8786 23.2126 23.5796 23.2126 24.4445C23.2126 25.3093 23.9137 26.0104 24.7786 26.0104C25.6434 26.0104 26.3445 25.3093 26.3445 24.4445C26.3445 23.5796 25.6434 22.8786 24.7786 22.8786Z" fill="#EAEAEA"/>
<path d="M31.2726 22.8786C30.4077 22.8786 29.7066 23.5796 29.7066 24.4445C29.7066 25.3093 30.4077 26.0104 31.2726 26.0104C32.1374 26.0104 32.8385 25.3093 32.8385 24.4445C32.8385 23.5796 32.1374 22.8786 31.2726 22.8786Z" fill="#EAEAEA"/>
<path d="M37.4902 22.8786C36.6254 22.8786 35.9243 23.5796 35.9243 24.4445C35.9243 25.3093 36.6254 26.0104 37.4902 26.0104C38.3551 26.0104 39.0562 25.3093 39.0562 24.4445C39.0562 23.5796 38.3551 22.8786 37.4902 22.8786Z" fill="#EAEAEA"/>
</svg>
