<svg width="58" height="58" viewBox="0 0 58 58" fill="none" xmlns="http://www.w3.org/2000/svg">
<mask id="mask0_65_549" style="mask-type:alpha" maskUnits="userSpaceOnUse" x="0" y="0" width="58" height="58">
<circle cx="29" cy="29" r="29" fill="#D9D9D9"/>
</mask>
<g mask="url(#mask0_65_549)">
<circle cx="29" cy="29" r="29" fill="#817C7C"/>
<path d="M16.2034 20.3482C16.2034 20.3482 13.8975 15.347 9.6927 18.6456C5.48789 21.9443 9.36716 25.9877 9.36716 25.9877L16.2034 20.3482Z" fill="#C8C1C1"/>
<path d="M14.3445 21.7221C14.3445 21.7221 13.2759 19.4044 11.3274 20.9331C9.37879 22.4617 11.1765 24.3355 11.1765 24.3355L14.3445 21.7221Z" fill="#C8C1C1"/>
<path d="M39.1283 19.8038C39.1283 19.8038 41.5155 16.3424 44.6622 18.8363C47.8089 21.3302 44.9877 24.7486 44.9877 24.7486L39.1283 19.8038Z" fill="#C8C1C1"/>
<path d="M40.7805 21.2231C40.7805 21.2231 41.8046 19.5044 43.5007 20.5329C45.1968 21.5614 43.6367 23.5094 43.6367 23.5094L40.7805 21.2231Z" fill="#C8C1C1"/>
<path d="M34.5362 57.9771C34.5362 57.9771 52.3125 57.1874 54.0365 48.2762C54.6758 44.9715 53.5032 40.2809 50.3904 38.6818C46.9991 36.9397 45.6837 37.1529 42.1917 37.7189C40.3305 38.0205 37.851 38.4224 34.1094 38.6818C28.7044 39.0566 24.7239 38.5709 21.4389 38.1701C18.183 37.7729 15.6103 37.459 13.0113 38.1488C4.92055 41.7866 4.35255 48.2951 10.916 53.3027C12.0473 54.1251 13.3524 54.9028 14.9385 55.7335C23.2168 58.3874 34.5362 57.9771 34.5362 57.9771Z" fill="#C8C1C1"/>
<path d="M23.3475 17.4542C11.0652 19.4321 0.45457 35.3593 4.80617 46.1441C6.76538 49.4505 8.41665 51.4857 10.916 53.3027C4.35255 48.2951 4.92055 41.7866 13.0113 38.1488C15.6103 37.459 18.183 37.7729 21.4389 38.1701C24.7239 38.5709 28.7044 39.0566 34.1094 38.6818C37.851 38.4224 40.3305 38.0205 42.1917 37.7189C45.6837 37.1529 46.9991 36.9397 50.3904 38.6818C50.2987 38.2314 50.0936 37.2365 49.9872 36.763C47.5601 25.7891 43.5172 20.8019 36.7739 18.6723C36.2531 17.836 35.2821 17.4542 34.5362 17.4542C33.514 17.4893 32.8213 17.5764 32.3305 17.7033C32.1367 17.6762 31.9412 17.6506 31.7439 17.6262C31.7875 17.5922 31.831 17.5584 31.8744 17.5247C32.4224 17.0996 32.9429 16.6959 33.0444 16.1885C33.0957 15.9317 30.633 16.0239 28.6861 17.354C28.5072 17.3434 28.327 17.3336 28.1456 17.3245C28.5547 17.0407 29.0207 16.7966 29.1017 16.295C29.1866 15.7688 25.0537 16.5827 23.3475 17.4542Z" fill="#C8C1C1"/>
</g>
</svg>
