<svg width="40" height="33" viewBox="0 0 40 33" fill="none" xmlns="http://www.w3.org/2000/svg">
<path d="M0 1.02564C0 0.459195 0.46637 0 1.04167 0H38.9583C39.5336 0 40 0.459195 40 1.02564V5.53846C40 6.10491 39.5336 6.5641 38.9583 6.5641H1.04167C0.466371 6.5641 0 6.10491 0 5.53846V1.02564ZM0 14.1538C0 13.5874 0.46637 13.1282 1.04167 13.1282H25.625C26.2003 13.1282 26.6667 13.5874 26.6667 14.1538V18.6667C26.6667 19.2331 26.2003 19.6923 25.625 19.6923H1.04167C0.46637 19.6923 0 19.2331 0 18.6667V14.1538ZM0 27.2821C0 26.7156 0.46637 26.2564 1.04167 26.2564H38.9583C39.5336 26.2564 40 26.7156 40 27.2821V31.7949C40 32.3613 39.5336 32.8205 38.9583 32.8205H1.04167C0.466371 32.8205 0 32.3613 0 31.7949V27.2821ZM30 10.3949C30 9.52534 31.0301 9.05031 31.7085 9.607L38.9283 15.5309C39.4632 15.9698 39.4186 16.7919 38.8392 17.1722L31.6195 21.9113C30.9272 22.3657 30 21.8771 30 21.0579V10.3949Z" fill="#879FD4"/>
</svg>
