<svg width="44" height="40" viewBox="0 0 44 40" fill="none" xmlns="http://www.w3.org/2000/svg">
<path d="M41.1765 37.1678C42.3797 37.1678 43.3551 36.1923 43.3551 34.9891V5.05447C43.3551 3.85124 42.3797 2.87582 41.1765 2.87582H40.305V31.9826C40.305 33.1858 39.3296 34.1612 38.1264 34.1612H24.4009C23.0501 34.1612 22.1561 35.1295 21.6993 36.732C21.2549 35.0844 20.3486 34.1612 18.9542 34.1612H5.3159C4.11267 34.1612 3.13725 33.1858 3.13725 31.9826V2.87582H2.17865C0.975414 2.87582 0 3.85124 0 5.05447V34.9891C0 36.1923 0.975414 37.1678 2.17865 37.1678H16.0349C16.2755 37.1678 16.4706 37.3628 16.4706 37.6035V37.8214C16.4706 39.0246 17.446 40 18.6492 40H24.8366C26.0398 40 27.0152 39.0246 27.0152 37.8214V37.6035C27.0152 37.3628 27.2103 37.1678 27.451 37.1678H41.1765Z" fill="#BA6958"/>
<path d="M32.7669 3.35515C32.43 3.01825 31.8837 3.01825 31.5468 3.35515L25.403 9.49894C25.1143 9.78772 25.1143 10.2559 25.403 10.5447L26.4787 11.6203C26.751 11.8926 27.1924 11.8926 27.4646 11.6203L31.634 7.45101L34.2484 4.83663L32.7669 3.35515Z" fill="#879FD4"/>
<path d="M12.2876 26.9281C12.2876 26.9281 11.8083 27.451 10.9368 28.1917C9.62963 28.8018 8.27886 26.7974 7.53812 26.7974C6.79738 26.7974 7.07918 27.5002 6.71024 27.8867C6.23311 28.3866 5.46782 27.8867 5.35948 28.8889C5.25799 29.8277 6.29736 29.7925 7.05882 29.4554C7.60507 29.2135 7.83911 28.6734 8.19172 28.8889C9.76035 29.8475 11.2936 29.8911 11.8954 29.3246C12.6362 28.6275 13.3333 27.8867 13.3333 27.8867C12.8719 27.647 12.5054 27.3639 12.2876 26.9281Z" fill="#879FD4"/>
<path d="M31.634 7.45101L27.4646 11.6203C27.1924 11.8926 26.751 11.8926 26.4787 11.6203L25.403 10.5447L21.6993 14.2484L21.4379 14.5098L25.6209 18.6928L34.2484 10.0654L31.634 7.45101Z" fill="#B7C4E2"/>
<path d="M17.4292 26.7974L13.3333 22.7016L12.881 23.1539C12.7474 23.2875 12.6304 23.4374 12.5401 23.6033C11.8544 24.8649 11.8285 25.6331 12.2876 26.9281C12.5054 27.3639 12.8719 27.647 13.3333 27.8867C14.707 28.3748 15.4453 28.3578 16.5279 27.6469C16.6354 27.5762 16.7342 27.4924 16.8252 27.4014L17.4292 26.7974Z" fill="#B7C4E2"/>
<path d="M25.6209 18.6928L21.4379 14.5098C21.1732 14.2451 20.744 14.2451 20.4793 14.5098L13.3333 21.6558C13.0446 21.9446 13.0446 22.4128 13.3333 22.7016L17.4292 26.7974C17.742 27.1103 18.2492 27.1103 18.5621 26.7974L21.6993 23.6602L25.6209 19.7386C25.9097 19.4498 25.9097 18.9816 25.6209 18.6928Z" fill="#879FD4"/>
<path d="M36.6884 7.27672L34.2484 4.83663L31.634 7.45101L34.2484 10.0654C34.5371 10.3542 35.0053 10.3542 35.2941 10.0654L36.6884 8.67105C37.0735 8.28602 37.0735 7.66175 36.6884 7.27672Z" fill="#566C9F"/>
<path d="M36.2246 2.97848C35.3738 2.12766 33.9944 2.12766 33.1435 2.97848L32.7669 3.35515L34.2484 4.83663L36.6884 7.27672L37.0651 6.90005C37.9159 6.04923 37.9159 4.66979 37.0651 3.81897L36.2246 2.97848Z" fill="#3C4A69"/>
<path d="M5.31099 6.09622e-06C4.10775 7.37243e-06 3.13725 0.975421 3.13725 2.17865V2.87582V31.9826C3.13725 33.1858 4.11267 34.1612 5.3159 34.1612H18.9542C20.3486 34.1612 21.2549 35.0844 21.6993 36.732V23.6602L18.5621 26.7974C18.2492 27.1103 17.742 27.1103 17.4292 26.7974L16.8252 27.4014C16.7342 27.4924 16.6354 27.5762 16.5279 27.6469C15.4453 28.3578 14.707 28.3748 13.3333 27.8867C13.3333 27.8867 12.6362 28.6275 11.8954 29.3246C11.2936 29.8911 9.76035 29.8475 8.19172 28.8889C7.83911 28.6734 7.60507 29.2135 7.05882 29.4554C6.29736 29.7925 5.25799 29.8277 5.35948 28.8889C5.46782 27.8867 6.23311 28.3866 6.71024 27.8867C7.07918 27.5002 6.79738 26.7974 7.53812 26.7974C8.27886 26.7974 9.62963 28.8018 10.9368 28.1917C11.8083 27.451 12.2876 26.9281 12.2876 26.9281C11.8285 25.6331 11.8544 24.8649 12.5401 23.6033C12.6304 23.4374 12.7474 23.2875 12.881 23.1539L13.3333 22.7016C13.0446 22.4128 13.0446 21.9446 13.3333 21.6558L20.4793 14.5098C20.744 14.2451 21.1732 14.2451 21.4379 14.5098L21.6993 14.2484V2.87582C21.6993 2.87582 21.6122 1.70664 21.1765 1.08936C20.7407 0.472072 20.061 5.86451e-06 19.3464 3.90669e-06C16.3949 -4.17992e-06 9.0053 2.17785e-06 5.31099 6.09622e-06Z" fill="#EAEAEA"/>
<path d="M21.6993 36.732C22.1561 35.1295 23.0501 34.1612 24.4009 34.1612H38.1264C39.3296 34.1612 40.305 33.1858 40.305 31.9826V2.87582V2.17866C40.305 0.975423 39.3296 8.59195e-06 38.1264 8.59195e-06H24.3178C24.0842 8.59195e-06 23.8517 0.0358362 23.6373 0.128675C23.249 0.296876 22.6114 0.625655 22.2658 1.08936C21.8284 1.67619 21.6993 2.87582 21.6993 2.87582V14.2484L25.403 10.5447C25.1143 10.2559 25.1143 9.78772 25.403 9.49894L31.5468 3.35515C31.8837 3.01825 32.43 3.01825 32.7669 3.35515L33.1435 2.97848C33.9944 2.12766 35.3738 2.12766 36.2246 2.97848L37.0651 3.81897C37.9159 4.66979 37.9159 6.04923 37.0651 6.90005L36.6884 7.27672C37.0735 7.66175 37.0735 8.28602 36.6884 8.67105L35.2941 10.0654C35.0053 10.3542 34.5371 10.3542 34.2484 10.0654L25.6209 18.6928C25.9097 18.9816 25.9097 19.4498 25.6209 19.7386L21.6993 23.6602V36.732Z" fill="#D9D9D9"/>
</svg>
