<svg width="863" height="151" viewBox="0 0 863 151" fill="none" xmlns="http://www.w3.org/2000/svg">
<path d="M250.486 112.06C247.7 114.26 243.446 116.167 237.726 117.78C232.006 119.393 226.433 120.2 221.006 120.2C211.913 120.2 203.773 118.22 196.586 114.26C189.4 110.153 183.753 104.507 179.646 97.32C175.54 90.1333 173.486 81.9933 173.486 72.9C173.486 63.3667 175.466 55.1533 179.426 48.26C183.533 41.3667 189.18 36.0867 196.366 32.42C203.553 28.6067 211.913 26.7 221.446 26.7C225.406 26.7 229.366 27.0667 233.326 27.8C237.433 28.5333 241.173 29.7067 244.546 31.32C246.306 32.2 247.553 33.3733 248.286 34.84C249.166 36.16 249.606 37.6267 249.606 39.24C249.606 41.5867 248.726 43.7867 246.966 45.84C245.353 47.7467 243.153 48.7 240.366 48.7C239.193 48.7 237.946 48.48 236.626 48.04C233.986 47.0133 231.126 46.2067 228.046 45.62C224.966 44.8867 222.253 44.52 219.906 44.52C212.28 44.52 205.9 47.0867 200.766 52.22C195.78 57.3533 193.286 64.2467 193.286 72.9C193.286 82.14 195.853 89.4 200.986 94.68C206.266 99.96 213.013 102.6 221.226 102.6C224.6 102.6 228.193 102.013 232.006 100.84C235.82 99.6667 238.9 98.2 241.246 96.44C242.86 95.4134 244.62 94.9 246.526 94.9C249.02 94.9 251 95.78 252.466 97.54C254.08 99.1534 254.886 101.207 254.886 103.7C254.886 106.927 253.42 109.713 250.486 112.06Z" fill="black"/>
<path d="M296.695 120.2C286.868 120.2 278.875 117.12 272.715 110.96C266.702 104.653 263.695 96.2934 263.695 85.88C263.695 75.4667 266.628 67.2533 272.495 61.24C278.508 55.08 286.355 52 296.035 52C302.928 52 308.942 54.42 314.075 59.26C314.662 57.5 315.762 56.0333 317.375 54.86C318.988 53.6867 320.895 53.1 323.095 53.1C326.028 53.1 328.375 53.98 330.135 55.74C332.042 57.3533 332.995 59.3333 332.995 61.68V111.62C332.995 114.113 332.042 116.167 330.135 117.78C328.375 119.393 326.028 120.2 323.095 120.2C318.255 120.2 315.248 118.073 314.075 113.82C309.382 118.073 303.588 120.2 296.695 120.2ZM298.235 102.38C302.928 102.38 306.668 100.84 309.455 97.76C312.242 94.5333 313.635 90.5733 313.635 85.88C313.635 81.04 312.242 77.1533 309.455 74.22C306.668 71.2867 302.928 69.82 298.235 69.82C293.688 69.82 289.948 71.2867 287.015 74.22C284.228 77.1533 282.835 81.04 282.835 85.88C282.835 90.5733 284.228 94.5333 287.015 97.76C289.948 100.84 293.688 102.38 298.235 102.38Z" fill="black"/>
<path d="M372.401 120.2C362.427 120.2 354.214 118.147 347.761 114.04C346.441 113.16 345.487 112.133 344.901 110.96C344.314 109.64 344.021 108.393 344.021 107.22C344.021 104.727 344.827 102.453 346.441 100.4C348.201 98.3467 350.327 97.32 352.821 97.32C353.994 97.32 355.167 97.6133 356.341 98.2C358.981 99.3734 361.987 100.4 365.361 101.28C368.734 102.013 371.814 102.38 374.601 102.38C380.027 102.38 382.741 101.133 382.741 98.64C382.741 97.1733 382.081 95.9267 380.761 94.9C379.441 93.7267 376.361 92.92 371.521 92.48C369.614 92.3334 367.121 92.04 364.041 91.6C361.107 91.16 358.174 90.3534 355.241 89.18C352.307 87.86 349.814 85.9534 347.761 83.46C345.854 80.9667 344.901 77.5933 344.901 73.34C344.901 66.74 347.394 61.5333 352.381 57.72C357.367 53.9067 364.041 52 372.401 52C377.241 52 381.787 52.5133 386.041 53.54C390.441 54.5667 393.741 56.1067 395.941 58.16C397.994 60.0667 399.021 62.2667 399.021 64.76C399.021 66.96 398.214 68.94 396.601 70.7C394.987 72.46 392.934 73.34 390.441 73.34C389.121 73.34 387.874 73.0467 386.701 72.46C384.941 71.2867 382.667 70.4067 379.881 69.82C377.241 69.2333 374.527 68.94 371.741 68.94C366.167 68.94 363.381 70.1133 363.381 72.46C363.381 73.4867 363.894 74.44 364.921 75.32C366.094 76.0533 368.661 76.7134 372.621 77.3C375.114 77.5933 377.974 78.0333 381.201 78.62C384.427 79.06 387.507 79.94 390.441 81.26C393.521 82.4333 396.087 84.4133 398.141 87.2C400.194 89.9867 401.221 93.8 401.221 98.64C401.221 105.24 398.581 110.52 393.301 114.48C388.021 118.293 381.054 120.2 372.401 120.2Z" fill="black"/>
<path d="M440.829 120.2C434.523 120.2 429.316 118.367 425.209 114.7C421.103 111.033 419.049 105.387 419.049 97.76V74C419.049 72.5333 418.316 71.8 416.849 71.8H413.549C410.909 71.8 408.929 70.9933 407.609 69.38C406.289 67.7667 405.629 65.7133 405.629 63.22C405.629 60.58 406.289 58.4533 407.609 56.84C408.929 55.08 410.909 54.2 413.549 54.2H416.849C418.316 54.2 419.049 53.4667 419.049 52V35.72C419.049 33.2267 419.929 31.1 421.689 29.34C423.449 27.58 425.723 26.7 428.509 26.7C431.296 26.7 433.569 27.58 435.329 29.34C437.236 30.9533 438.189 33.08 438.189 35.72V52C438.189 53.4667 438.923 54.2 440.389 54.2H448.529C451.023 54.2 453.076 55.08 454.689 56.84C456.449 58.6 457.329 60.7267 457.329 63.22C457.329 65.7133 456.449 67.7667 454.689 69.38C453.076 70.9933 450.949 71.8 448.309 71.8H440.389C438.923 71.8 438.189 72.5333 438.189 74V94.68C438.189 97.32 438.629 99.1534 439.509 100.18C440.536 101.207 441.783 101.72 443.249 101.72C443.836 101.72 445.009 101.573 446.769 101.28C448.529 100.84 449.629 100.62 450.069 100.62C452.416 100.62 454.396 101.5 456.009 103.26C457.623 105.02 458.429 107.147 458.429 109.64C458.429 111.547 457.843 113.307 456.669 114.92C455.643 116.533 453.956 117.707 451.609 118.44C449.703 119.027 447.869 119.467 446.109 119.76C444.349 120.053 442.589 120.2 440.829 120.2Z" fill="black"/>
<path d="M499.764 120.2C493.457 120.2 487.664 118.733 482.384 115.8C477.104 112.867 472.85 108.833 469.624 103.7C466.544 98.42 465.004 92.48 465.004 85.88C465.004 79.1333 466.544 73.2667 469.624 68.28C472.85 63.1467 477.104 59.1867 482.384 56.4C487.664 53.4667 493.457 52 499.764 52C506.217 52 512.01 53.4667 517.144 56.4C522.424 59.1867 526.604 63.1467 529.684 68.28C532.764 73.2667 534.304 79.1333 534.304 85.88C534.304 92.48 532.764 98.42 529.684 103.7C526.604 108.833 522.424 112.867 517.144 115.8C512.01 118.733 506.217 120.2 499.764 120.2ZM499.764 102.38C504.31 102.38 507.977 100.84 510.764 97.76C513.697 94.5333 515.164 90.5733 515.164 85.88C515.164 81.04 513.697 77.1533 510.764 74.22C507.977 71.2867 504.31 69.82 499.764 69.82C495.364 69.82 491.624 71.2867 488.544 74.22C485.61 77.1533 484.144 81.04 484.144 85.88C484.144 90.5733 485.61 94.5333 488.544 97.76C491.624 100.84 495.364 102.38 499.764 102.38Z" fill="black"/>
<path d="M557.507 119.54C554.72 119.54 552.373 118.733 550.467 117.12C548.56 115.507 547.607 113.453 547.607 110.96V61.68C547.607 59.3333 548.487 57.3533 550.247 55.74C552.153 53.98 554.573 53.1 557.507 53.1C560.147 53.1 562.273 53.9067 563.887 55.52C565.647 56.9867 566.673 58.82 566.967 61.02C568.58 58.5267 570.78 56.4 573.567 54.64C576.353 52.88 579.287 52 582.367 52C584.273 52 586.107 52.22 587.867 52.66C589.92 53.2467 591.607 54.42 592.927 56.18C594.247 57.7933 594.907 59.7 594.907 61.9C594.907 64.98 593.88 67.5467 591.827 69.6C589.92 71.5067 587.647 72.1667 585.007 71.58C583.1 71.14 581.193 70.92 579.287 70.92C575.913 70.92 573.127 72.0933 570.927 74.44C568.727 76.7867 567.407 81.5533 566.967 88.74V110.74C566.967 113.233 566.013 115.36 564.107 117.12C562.347 118.733 560.147 119.54 557.507 119.54Z" fill="black"/>
<path d="M627.855 120.2C624.775 120.2 621.988 119.247 619.495 117.34C617.002 115.287 615.462 112.647 614.875 109.42L601.455 37.92C601.162 34.9867 601.968 32.5667 603.875 30.66C605.928 28.7533 608.422 27.8 611.355 27.8C613.848 27.8 615.975 28.5333 617.735 30C619.495 31.4667 620.595 33.4467 621.035 35.94L628.955 84.12C629.248 85.88 629.908 86.76 630.935 86.76C631.815 86.76 632.475 85.9534 632.915 84.34L643.475 45.4C644.208 42.6133 645.602 40.56 647.655 39.24C649.708 37.7733 651.908 37.04 654.255 37.04C656.602 37.04 658.802 37.7733 660.855 39.24C662.908 40.56 664.302 42.6133 665.035 45.4L675.595 84.34C676.035 85.9534 676.695 86.76 677.575 86.76C678.748 86.76 679.408 85.88 679.555 84.12L687.475 35.94C687.915 33.4467 689.015 31.4667 690.775 30C692.682 28.5333 694.808 27.8 697.155 27.8C700.088 27.8 702.508 28.7533 704.415 30.66C706.468 32.5667 707.348 34.9867 707.055 37.92L693.415 109.42C692.828 112.647 691.288 115.287 688.795 117.34C686.302 119.247 683.515 120.2 680.435 120.2C677.648 120.2 675.008 119.32 672.515 117.56C670.168 115.653 668.408 113.16 667.235 110.08L656.235 71.36C655.795 69.7467 655.135 68.94 654.255 68.94C653.228 68.94 652.495 69.7467 652.055 71.36L641.055 110.08C640.175 113.16 638.488 115.653 635.995 117.56C633.502 119.32 630.788 120.2 627.855 120.2Z" fill="#879FD4"/>
<path d="M746.793 120.2C736.966 120.2 728.973 117.12 722.813 110.96C716.799 104.653 713.793 96.2934 713.793 85.88C713.793 75.4667 716.726 67.2533 722.593 61.24C728.606 55.08 736.453 52 746.133 52C753.026 52 759.039 54.42 764.173 59.26C764.759 57.5 765.859 56.0333 767.473 54.86C769.086 53.6867 770.993 53.1 773.193 53.1C776.126 53.1 778.473 53.98 780.233 55.74C782.139 57.3533 783.093 59.3333 783.093 61.68V111.62C783.093 114.113 782.139 116.167 780.233 117.78C778.473 119.393 776.126 120.2 773.193 120.2C768.353 120.2 765.346 118.073 764.173 113.82C759.479 118.073 753.686 120.2 746.793 120.2ZM748.333 102.38C753.026 102.38 756.766 100.84 759.553 97.76C762.339 94.5333 763.733 90.5733 763.733 85.88C763.733 81.04 762.339 77.1533 759.553 74.22C756.766 71.2867 753.026 69.82 748.333 69.82C743.786 69.82 740.046 71.2867 737.113 74.22C734.326 77.1533 732.933 81.04 732.933 85.88C732.933 90.5733 734.326 94.5333 737.113 97.76C740.046 100.84 743.786 102.38 748.333 102.38Z" fill="#879FD4"/>
<path d="M793.018 60.8C793.018 57.8667 794.045 55.6667 796.098 54.2C798.152 52.7333 800.498 52 803.138 52C805.192 52 806.952 52.5867 808.418 53.76C810.032 54.7867 811.132 56.2533 811.718 58.16L825.358 91.38C826.092 93.2867 827.118 94.24 828.438 94.24C829.758 94.24 830.712 93.2867 831.298 91.38L843.178 58.16C843.912 56.1067 845.085 54.5667 846.698 53.54C848.458 52.5133 850.292 52 852.198 52C854.692 52 856.965 52.8067 859.018 54.42C861.218 56.0333 862.318 58.16 862.318 60.8C862.318 62.2667 862.025 63.66 861.438 64.98L827.118 144.18C826.092 146.38 824.772 147.92 823.158 148.8C821.692 149.827 820.152 150.34 818.538 150.34C815.898 150.34 813.478 149.387 811.278 147.48C809.225 145.72 808.198 143.593 808.198 141.1C808.198 139.78 808.492 138.607 809.078 137.58L820.958 116.46C818.465 115.727 816.485 113.893 815.018 110.96L793.678 64.76C793.238 63.44 793.018 62.12 793.018 60.8Z" fill="#879FD4"/>
<path d="M120.271 33.7997C112.649 25.1032 111.14 10.9714 93.4211 10.9714C63.2009 10.9714 49.5414 27.9842 55.3741 49.4533C59.5969 64.9969 73.7088 70.5748 89.7251 72.2816C108.908 74.3258 127.446 68.4768 127.446 49.4533C127.446 42.4455 124.891 39.0697 120.271 33.7997Z" fill="#885551"/>
<path d="M67.3316 64.346C67.3316 64.346 42.6016 96.219 52.7651 115.655C60.6756 130.783 75.542 139.063 92.5514 137.614C110.646 136.072 120.292 126.162 125.272 108.698C130.217 91.3589 111.14 64.346 111.14 64.346H67.3316Z" fill="#885551"/>
<path d="M46.1995 107.172C46.2769 107.239 46.3285 107.33 46.3453 107.431C46.8805 110.642 48.0763 114.048 49.5643 117.073C51.054 120.102 52.8222 122.72 54.4842 124.369C54.6225 124.506 54.6527 124.719 54.5582 124.889C54.4636 125.059 54.2758 125.146 54.0863 125.101H54.0774L54.0571 125.096C54.0437 125.093 54.0238 125.088 53.9976 125.082C53.9453 125.069 53.8676 125.05 53.766 125.025C53.5628 124.974 53.2635 124.899 52.878 124.799C52.1069 124.599 50.9906 124.298 49.6073 123.899C46.8411 123.101 43.0055 121.906 38.7265 120.319C30.1806 117.15 19.8183 112.399 12.6903 106.089C5.56408 99.7801 0.707995 91.1773 0.0711957 83.6338C-0.247869 79.8541 0.491691 76.3156 2.56897 73.479C4.64837 70.6395 8.03048 68.555 12.896 67.6151C17.6658 66.6936 21.403 68.1085 24.4877 70.8986C27.549 73.6674 29.9683 77.7894 32.1674 82.2946C33.2209 84.4529 34.2295 86.7113 35.2351 88.9632L35.3728 89.2715C36.4254 91.6281 37.4771 93.9728 38.5822 96.1997C40.7969 100.662 43.2024 104.6 46.1995 107.172Z" fill="#885551"/>
<path d="M55.1998 13.1696C64.2344 6.65866 69.397 16.6855 69.397 16.6855L57.9245 26.8425C57.9245 26.8425 46.1652 19.6805 55.1998 13.1696Z" fill="#885551"/>
<path d="M89.242 0C99.1414 2.56206e-06 96.8594 8.6541 96.8594 8.6541C92.0505 8.10753 87.2497 8.24872 81.037 9.9431C81.037 9.9431 79.3426 -3.04551e-06 89.242 0Z" fill="#885551"/>
<path d="M137.556 75.434C134.041 67.0601 110.814 79.2387 110.814 79.2387L119.945 94.4576C119.945 94.4576 141.252 84.2392 137.556 75.434Z" fill="#885551"/>
<path d="M82.3336 142.88C79.1042 139.338 69.0115 137.765 69.0115 137.765C69.0115 137.765 54.6622 136.911 54.6129 142.88C54.5633 148.866 69.0115 148.13 69.0115 148.13C69.0115 148.13 86.1017 147.013 82.3336 142.88Z" fill="#885551"/>
<path d="M94.072 142.88C97.3015 139.338 107.394 137.765 107.394 137.765C107.394 137.765 121.743 136.911 121.793 142.88C121.842 148.866 107.394 148.13 107.394 148.13C107.394 148.13 90.304 147.013 94.072 142.88Z" fill="#885551"/>
</svg>
