<svg width="352" height="112" viewBox="0 0 352 112" fill="none" xmlns="http://www.w3.org/2000/svg">
<path d="M111.359 65.84C110.346 66.64 108.799 67.3333 106.719 67.92C104.639 68.5067 102.613 68.8 100.639 68.8C97.3327 68.8 94.3727 68.08 91.7594 66.64C89.146 65.1467 87.0927 63.0933 85.5994 60.48C84.106 57.8667 83.3594 54.9067 83.3594 51.6C83.3594 48.1333 84.0794 45.1467 85.5194 42.64C87.0127 40.1333 89.066 38.2133 91.6794 36.88C94.2927 35.4933 97.3327 34.8 100.799 34.8C102.239 34.8 103.679 34.9333 105.119 35.2C106.613 35.4667 107.973 35.8933 109.199 36.48C109.839 36.8 110.293 37.2267 110.559 37.76C110.879 38.24 111.039 38.7733 111.039 39.36C111.039 40.2133 110.719 41.0133 110.079 41.76C109.493 42.4533 108.693 42.8 107.679 42.8C107.253 42.8 106.799 42.72 106.319 42.56C105.359 42.1867 104.319 41.8933 103.199 41.68C102.079 41.4133 101.093 41.28 100.239 41.28C97.466 41.28 95.146 42.2133 93.2794 44.08C91.466 45.9467 90.5594 48.4533 90.5594 51.6C90.5594 54.96 91.4927 57.6 93.3594 59.52C95.2794 61.44 97.7327 62.4 100.719 62.4C101.946 62.4 103.253 62.1867 104.639 61.76C106.026 61.3333 107.146 60.8 107.999 60.16C108.586 59.7867 109.226 59.6 109.919 59.6C110.826 59.6 111.546 59.92 112.079 60.56C112.666 61.1467 112.959 61.8933 112.959 62.8C112.959 63.9733 112.426 64.9867 111.359 65.84ZM128.163 68.8C124.589 68.8 121.683 67.68 119.443 65.44C117.256 63.1467 116.163 60.1067 116.163 56.32C116.163 52.5333 117.229 49.5467 119.363 47.36C121.549 45.12 124.403 44 127.923 44C130.429 44 132.616 44.88 134.483 46.64C134.696 46 135.096 45.4667 135.682 45.04C136.269 44.6133 136.963 44.4 137.763 44.4C138.829 44.4 139.683 44.72 140.323 45.36C141.016 45.9467 141.363 46.6667 141.363 47.52V65.68C141.363 66.5867 141.016 67.3333 140.323 67.92C139.683 68.5067 138.829 68.8 137.763 68.8C136.003 68.8 134.909 68.0267 134.483 66.48C132.776 68.0267 130.669 68.8 128.163 68.8ZM128.723 62.32C130.429 62.32 131.789 61.76 132.803 60.64C133.816 59.4667 134.323 58.0267 134.323 56.32C134.323 54.56 133.816 53.1467 132.803 52.08C131.789 51.0133 130.429 50.48 128.723 50.48C127.069 50.48 125.709 51.0133 124.643 52.08C123.629 53.1467 123.123 54.56 123.123 56.32C123.123 58.0267 123.629 59.4667 124.643 60.64C125.709 61.76 127.069 62.32 128.723 62.32ZM155.692 68.8C152.065 68.8 149.079 68.0533 146.732 66.56C146.252 66.24 145.905 65.8667 145.692 65.44C145.479 64.96 145.372 64.5067 145.372 64.08C145.372 63.1733 145.665 62.3467 146.252 61.6C146.892 60.8533 147.665 60.48 148.572 60.48C148.999 60.48 149.425 60.5867 149.852 60.8C150.812 61.2267 151.905 61.6 153.132 61.92C154.359 62.1867 155.479 62.32 156.492 62.32C158.465 62.32 159.452 61.8667 159.452 60.96C159.452 60.4267 159.212 59.9733 158.732 59.6C158.252 59.1733 157.132 58.88 155.372 58.72C154.679 58.6667 153.772 58.56 152.652 58.4C151.585 58.24 150.519 57.9467 149.452 57.52C148.385 57.04 147.479 56.3467 146.732 55.44C146.039 54.5333 145.692 53.3067 145.692 51.76C145.692 49.36 146.599 47.4667 148.412 46.08C150.225 44.6933 152.652 44 155.692 44C157.452 44 159.105 44.1867 160.652 44.56C162.252 44.9333 163.452 45.4933 164.252 46.24C164.999 46.9333 165.372 47.7333 165.372 48.64C165.372 49.44 165.079 50.16 164.492 50.8C163.905 51.44 163.159 51.76 162.252 51.76C161.772 51.76 161.319 51.6533 160.892 51.44C160.252 51.0133 159.425 50.6933 158.412 50.48C157.452 50.2667 156.465 50.16 155.452 50.16C153.425 50.16 152.412 50.5867 152.412 51.44C152.412 51.8133 152.599 52.16 152.972 52.48C153.399 52.7467 154.332 52.9867 155.772 53.2C156.679 53.3067 157.719 53.4667 158.892 53.68C160.065 53.84 161.185 54.16 162.252 54.64C163.372 55.0667 164.305 55.7867 165.052 56.8C165.799 57.8133 166.172 59.2 166.172 60.96C166.172 63.36 165.212 65.28 163.292 66.72C161.372 68.1067 158.839 68.8 155.692 68.8ZM180.575 68.8C178.282 68.8 176.388 68.1333 174.895 66.8C173.402 65.4667 172.655 63.4133 172.655 60.64V52C172.655 51.4667 172.388 51.2 171.855 51.2H170.655C169.695 51.2 168.975 50.9067 168.495 50.32C168.015 49.7333 167.775 48.9867 167.775 48.08C167.775 47.12 168.015 46.3467 168.495 45.76C168.975 45.12 169.695 44.8 170.655 44.8H171.855C172.388 44.8 172.655 44.5333 172.655 44V38.08C172.655 37.1733 172.975 36.4 173.615 35.76C174.255 35.12 175.082 34.8 176.095 34.8C177.108 34.8 177.935 35.12 178.575 35.76C179.268 36.3467 179.615 37.12 179.615 38.08V44C179.615 44.5333 179.882 44.8 180.415 44.8H183.375C184.282 44.8 185.028 45.12 185.615 45.76C186.255 46.4 186.575 47.1733 186.575 48.08C186.575 48.9867 186.255 49.7333 185.615 50.32C185.028 50.9067 184.255 51.2 183.295 51.2H180.415C179.882 51.2 179.615 51.4667 179.615 52V59.52C179.615 60.48 179.775 61.1467 180.095 61.52C180.468 61.8933 180.922 62.08 181.455 62.08C181.668 62.08 182.095 62.0267 182.735 61.92C183.375 61.76 183.775 61.68 183.935 61.68C184.788 61.68 185.508 62 186.095 62.64C186.682 63.28 186.975 64.0533 186.975 64.96C186.975 65.6533 186.762 66.2933 186.335 66.88C185.962 67.4667 185.348 67.8933 184.495 68.16C183.802 68.3733 183.135 68.5333 182.495 68.64C181.855 68.7467 181.215 68.8 180.575 68.8ZM202.006 68.8C199.712 68.8 197.606 68.2667 195.686 67.2C193.766 66.1333 192.219 64.6667 191.046 62.8C189.926 60.88 189.366 58.72 189.366 56.32C189.366 53.8667 189.926 51.7333 191.046 49.92C192.219 48.0533 193.766 46.6133 195.686 45.6C197.606 44.5333 199.712 44 202.006 44C204.352 44 206.459 44.5333 208.326 45.6C210.246 46.6133 211.766 48.0533 212.886 49.92C214.006 51.7333 214.566 53.8667 214.566 56.32C214.566 58.72 214.006 60.88 212.886 62.8C211.766 64.6667 210.246 66.1333 208.326 67.2C206.459 68.2667 204.352 68.8 202.006 68.8ZM202.006 62.32C203.659 62.32 204.992 61.76 206.006 60.64C207.072 59.4667 207.606 58.0267 207.606 56.32C207.606 54.56 207.072 53.1467 206.006 52.08C204.992 51.0133 203.659 50.48 202.006 50.48C200.406 50.48 199.046 51.0133 197.926 52.08C196.859 53.1467 196.326 54.56 196.326 56.32C196.326 58.0267 196.859 59.4667 197.926 60.64C199.046 61.76 200.406 62.32 202.006 62.32ZM223.003 68.56C221.99 68.56 221.136 68.2667 220.443 67.68C219.75 67.0933 219.403 66.3467 219.403 65.44V47.52C219.403 46.6667 219.723 45.9467 220.363 45.36C221.056 44.72 221.936 44.4 223.003 44.4C223.963 44.4 224.736 44.6933 225.323 45.28C225.963 45.8133 226.336 46.48 226.443 47.28C227.03 46.3733 227.83 45.6 228.843 44.96C229.856 44.32 230.923 44 232.043 44C232.736 44 233.403 44.08 234.043 44.24C234.79 44.4533 235.403 44.88 235.883 45.52C236.363 46.1067 236.603 46.8 236.603 47.6C236.603 48.72 236.23 49.6533 235.483 50.4C234.79 51.0933 233.963 51.3333 233.003 51.12C232.31 50.96 231.616 50.88 230.923 50.88C229.696 50.88 228.683 51.3067 227.883 52.16C227.083 53.0133 226.603 54.7467 226.443 57.36V65.36C226.443 66.2667 226.096 67.04 225.403 67.68C224.763 68.2667 223.963 68.56 223.003 68.56Z" fill="#1B1717"/>
<path d="M248.584 68.8C247.464 68.8 246.451 68.4533 245.544 67.76C244.638 67.0133 244.078 66.0533 243.864 64.88L238.984 38.88C238.878 37.8133 239.171 36.9333 239.864 36.24C240.611 35.5467 241.518 35.2 242.584 35.2C243.491 35.2 244.264 35.4667 244.904 36C245.544 36.5333 245.944 37.2533 246.104 38.16L248.984 55.68C249.091 56.32 249.331 56.64 249.704 56.64C250.024 56.64 250.264 56.3467 250.424 55.76L254.264 41.6C254.531 40.5867 255.038 39.84 255.784 39.36C256.531 38.8267 257.331 38.56 258.184 38.56C259.038 38.56 259.838 38.8267 260.584 39.36C261.331 39.84 261.838 40.5867 262.104 41.6L265.944 55.76C266.104 56.3467 266.344 56.64 266.664 56.64C267.091 56.64 267.331 56.32 267.384 55.68L270.264 38.16C270.424 37.2533 270.824 36.5333 271.464 36C272.158 35.4667 272.931 35.2 273.784 35.2C274.851 35.2 275.731 35.5467 276.424 36.24C277.171 36.9333 277.491 37.8133 277.384 38.88L272.424 64.88C272.211 66.0533 271.651 67.0133 270.744 67.76C269.838 68.4533 268.824 68.8 267.704 68.8C266.691 68.8 265.731 68.48 264.824 67.84C263.971 67.1467 263.331 66.24 262.904 65.12L258.904 51.04C258.744 50.4533 258.504 50.16 258.184 50.16C257.811 50.16 257.544 50.4533 257.384 51.04L253.384 65.12C253.064 66.24 252.451 67.1467 251.544 67.84C250.638 68.48 249.651 68.8 248.584 68.8ZM291.834 68.8C288.261 68.8 285.354 67.68 283.114 65.44C280.928 63.1467 279.834 60.1067 279.834 56.32C279.834 52.5333 280.901 49.5467 283.034 47.36C285.221 45.12 288.074 44 291.594 44C294.101 44 296.288 44.88 298.154 46.64C298.368 46 298.768 45.4667 299.354 45.04C299.941 44.6133 300.634 44.4 301.434 44.4C302.501 44.4 303.354 44.72 303.994 45.36C304.688 45.9467 305.034 46.6667 305.034 47.52V65.68C305.034 66.5867 304.688 67.3333 303.994 67.92C303.354 68.5067 302.501 68.8 301.434 68.8C299.674 68.8 298.581 68.0267 298.154 66.48C296.448 68.0267 294.341 68.8 291.834 68.8ZM292.394 62.32C294.101 62.32 295.461 61.76 296.474 60.64C297.488 59.4667 297.994 58.0267 297.994 56.32C297.994 54.56 297.488 53.1467 296.474 52.08C295.461 51.0133 294.101 50.48 292.394 50.48C290.741 50.48 289.381 51.0133 288.314 52.08C287.301 53.1467 286.794 54.56 286.794 56.32C286.794 58.0267 287.301 59.4667 288.314 60.64C289.381 61.76 290.741 62.32 292.394 62.32ZM308.644 47.2C308.644 46.1333 309.017 45.3333 309.764 44.8C310.51 44.2667 311.364 44 312.324 44C313.07 44 313.71 44.2133 314.244 44.64C314.83 45.0133 315.23 45.5467 315.444 46.24L320.404 58.32C320.67 59.0133 321.044 59.36 321.524 59.36C322.004 59.36 322.35 59.0133 322.564 58.32L326.884 46.24C327.15 45.4933 327.577 44.9333 328.164 44.56C328.804 44.1867 329.47 44 330.164 44C331.07 44 331.897 44.2933 332.644 44.88C333.444 45.4667 333.844 46.24 333.844 47.2C333.844 47.7333 333.737 48.24 333.524 48.72L321.044 77.52C320.67 78.32 320.19 78.88 319.604 79.2C319.07 79.5733 318.51 79.76 317.924 79.76C316.964 79.76 316.084 79.4133 315.284 78.72C314.537 78.08 314.164 77.3067 314.164 76.4C314.164 75.92 314.27 75.4933 314.484 75.12L318.804 67.44C317.897 67.1733 317.177 66.5067 316.644 65.44L308.884 48.64C308.724 48.16 308.644 47.68 308.644 47.2Z" fill="#879FD4"/>
<path d="M101.728 98.7107C102.086 104.461 89.6828 109.922 74.025 110.908C58.3671 111.895 47.7591 110.908 50.9326 103.558C46.8662 105.078 33.5833 104.774 40.2592 98.8548C14.016 97.9792 0 93.2052 0 87.4471C0 82.7604 13.289 78.7257 32.3847 76.9143C47.9201 75.9674 56.6303 75.769 72.1678 76.4695C94.1363 77.9841 110 82.3265 110 87.4471C110 90.0781 105.812 92.5037 98.7591 94.4459C100.57 95.6824 101.629 97.1248 101.728 98.7107Z" fill="#879FD4"/>
<path fill-rule="evenodd" clip-rule="evenodd" d="M24.9853 15.3676C43.4883 2.2532 60.7949 20.5731 64.7399 45.0731C64.7399 45.0731 65.9626 49.1023 67.4755 54.9899C67.5054 55.1066 67.5355 55.224 67.5657 55.3421C67.9944 57.0187 68.4445 58.8389 68.8954 60.7544C69.7541 64.4023 70.6155 68.3959 71.3362 72.4017L71.3477 72.4658L71.351 72.4844C71.4768 73.1851 71.5982 73.886 71.7144 74.5855C71.8454 75.3731 71.9698 76.1587 72.0867 76.9399C72.2158 77.8027 72.3357 78.6601 72.4448 79.5086C72.899 83.0386 73.1681 86.4157 73.1459 89.3927C68.758 90.2114 63.2475 90.7359 57.2113 90.8318C56.5476 90.8424 55.8776 90.8477 55.202 90.8477C54.7954 90.8477 54.3908 90.8458 53.9885 90.8419C51.4787 90.818 49.054 90.72 46.7564 90.5574C44.3174 88.8562 42.0331 87.0558 39.8999 85.1752C39.4395 84.7732 38.9827 84.3589 38.5328 83.9401C37.2061 82.7119 35.9415 81.4525 34.7381 80.167C33.8806 79.251 33.0541 78.3218 32.2585 77.3812C32.0689 77.157 31.8811 76.9322 31.695 76.7068C31.3783 76.3232 31.0667 75.9379 30.7602 75.5509C29.0127 73.3449 27.429 71.0846 26.0055 68.7932C25.2947 67.649 24.6239 66.497 23.9925 65.34C21.5476 60.8596 19.6955 56.3058 18.4111 51.8452C18.161 50.9768 17.9325 50.112 17.7253 49.252C14.1643 34.4719 16.9005 21.0978 24.9853 15.3676Z" fill="#5B3236"/>
<path fill-rule="evenodd" clip-rule="evenodd" d="M17.0305 30.4503C17.1648 29.6213 17.3259 28.8121 17.5135 28.0244L37.0746 31.6069L44.4445 12.3959C45.2109 12.7182 45.964 13.0925 46.7025 13.5159L39.8228 32.1103L56.4422 35.154C56.8981 34.1867 57.3627 33.073 57.8375 31.9349C58.3544 30.696 58.8833 29.4281 59.4262 28.2889C59.9179 29.2904 60.3836 30.3236 60.8218 31.3852C60.5336 32.0244 60.2496 32.8037 59.9694 33.5724C59.6962 34.3221 59.4266 35.0618 59.1603 35.6518L62.5493 36.1738C62.8726 37.21 63.1713 38.266 63.444 39.3392L57.935 38.3802C55.7593 43.2498 53.7961 47.7864 51.8796 52.4624L67.2352 54.6001C67.2672 54.7251 67.2993 54.851 67.3315 54.9777C67.3429 55.0222 67.3542 55.0669 67.3656 55.1116C67.384 55.1841 67.4025 55.2569 67.421 55.33C67.8296 56.944 68.258 58.6911 68.6878 60.5281C66.6609 64.8212 64.9399 68.7182 63.3734 72.6192L71.0923 72.0399C71.1137 72.1584 71.1349 72.2769 71.156 72.3954L71.1674 72.4595L71.1707 72.4781C71.2743 73.0612 71.3749 73.6444 71.4721 74.2269L62.3479 75.231C62.0004 76.1368 61.6592 77.0475 61.3227 77.9681C60.2924 80.7865 59.3619 83.9393 58.3949 87.2159C58.0433 88.4073 57.6868 89.6152 57.319 90.8292C57.2673 90.8301 57.2156 90.831 57.1639 90.8318C56.5064 90.8423 55.8427 90.8477 55.1734 90.8477C54.8232 90.8477 54.4745 90.8462 54.1274 90.8433C54.6567 89.2238 55.1595 87.6159 55.6516 86.0424C56.5565 83.1487 57.4249 80.3718 58.3538 77.8546C58.636 77.0897 58.9198 76.3314 59.2061 75.5768L42.534 77.4116C42.4035 77.7881 42.2721 78.1676 42.14 78.5505C41.8502 79.39 41.5135 80.3319 41.1663 81.3033C40.721 82.549 40.2584 83.8432 39.8553 85.0317C39.4534 84.6741 39.0545 84.3077 38.6609 83.9378C38.0218 83.3402 37.3972 82.7353 36.7871 82.1236C36.9559 81.688 37.1688 81.1789 37.3793 80.6755C37.6068 80.1317 37.8314 79.5945 37.9947 79.1638C38.1625 78.7211 38.329 78.2828 38.4941 77.8486L33.2762 78.3508C32.9957 78.0275 32.7188 77.7027 32.4457 77.3766C32.2578 77.1523 32.0717 76.9275 31.8874 76.702C31.5737 76.3183 31.2651 75.9328 30.9614 75.5457C30.8611 75.4178 30.7613 75.2898 30.6621 75.1616L39.8006 74.4293C42.7239 66.816 45.2506 60.4982 47.7111 54.6579L32.0704 53.0636L26.1274 68.5833C25.4691 67.5053 24.8459 66.4205 24.2574 65.3313C24.1948 65.2155 24.1326 65.0996 24.0708 64.9837L28.9647 52.7471L18.7079 51.7599C18.4682 50.9154 18.2486 50.0743 18.049 49.2377C18.0242 49.1338 17.9997 49.0298 17.9755 48.926L29.9659 50.1372L36.1001 34.1472L17.0305 30.4503ZM66.9125 57.2659C64.3093 62.982 62.1976 67.9096 60.2573 72.8531L43.6931 74.0962C46.2545 66.8288 48.5438 60.7387 50.8584 54.9787L66.9125 57.2659ZM38.8705 34.6843L55.1803 37.8462C52.9262 42.684 50.8611 47.2798 48.783 52.1339L33.0327 50.4626L38.8705 34.6843Z" fill="#885551" fill-opacity="0.38"/>
</svg>
