<svg width="339" height="60" viewBox="0 0 339 60" fill="none" xmlns="http://www.w3.org/2000/svg">
<path d="M98.9109 44.6778C97.8174 45.5411 96.1483 46.2893 93.9037 46.9224C91.6592 47.5555 89.4721 47.8721 87.3426 47.8721C83.7743 47.8721 80.5801 47.0951 77.76 45.5411C74.9399 43.9296 72.7241 41.7138 71.1126 38.8937C69.5011 36.0736 68.6953 32.8794 68.6953 29.3111C68.6953 25.5701 69.4723 22.3471 71.0262 19.6421C72.6377 16.9371 74.8535 14.8651 77.6737 13.4263C80.4938 11.9299 83.7743 11.1817 87.5153 11.1817C89.0692 11.1817 90.6232 11.3256 92.1771 11.6134C93.7886 11.9011 95.2563 12.3615 96.58 12.9946C97.2706 13.34 97.7598 13.8004 98.0476 14.3759C98.3929 14.8939 98.5656 15.4694 98.5656 16.1025C98.5656 17.0234 98.2203 17.8867 97.5296 18.6924C96.8965 19.4406 96.0332 19.8147 94.9397 19.8147C94.4793 19.8147 93.9901 19.7284 93.4721 19.5557C92.4361 19.1529 91.3138 18.8363 90.1052 18.6061C88.8966 18.3183 87.8318 18.1745 86.911 18.1745C83.9182 18.1745 81.4146 19.1816 79.4003 21.196C77.4434 23.2104 76.465 25.9154 76.465 29.3111C76.465 32.9369 77.4722 35.7858 79.4866 37.8577C81.5585 39.9297 84.206 40.9656 87.429 40.9656C88.7527 40.9656 90.1628 40.7354 91.6592 40.275C93.1555 39.8146 94.3642 39.239 95.285 38.5484C95.9181 38.1455 96.6088 37.9441 97.357 37.9441C98.3354 37.9441 99.1123 38.2894 99.6879 38.98C100.321 39.6131 100.638 40.4189 100.638 41.3973C100.638 42.6635 100.062 43.757 98.9109 44.6778Z" fill="black"/>
<path d="M117.044 47.8721C113.188 47.8721 110.051 46.6634 107.634 44.2462C105.274 41.7714 104.094 38.4908 104.094 34.4045C104.094 30.3182 105.245 27.0952 107.547 24.7355C109.907 22.3183 112.986 21.1097 116.785 21.1097C119.49 21.1097 121.849 22.0593 123.864 23.9586C124.094 23.2679 124.526 22.6924 125.159 22.232C125.792 21.7715 126.54 21.5413 127.403 21.5413C128.554 21.5413 129.475 21.8867 130.166 22.5773C130.914 23.2104 131.288 23.9874 131.288 24.9082V44.5052C131.288 45.4836 130.914 46.2893 130.166 46.9224C129.475 47.5555 128.554 47.8721 127.403 47.8721C125.504 47.8721 124.324 47.0375 123.864 45.3685C122.022 47.0375 119.749 47.8721 117.044 47.8721ZM117.648 40.8793C119.49 40.8793 120.957 40.275 122.051 39.0664C123.144 37.8002 123.691 36.2462 123.691 34.4045C123.691 32.5053 123.144 30.9801 122.051 29.829C120.957 28.678 119.49 28.1024 117.648 28.1024C115.864 28.1024 114.396 28.678 113.245 29.829C112.152 30.9801 111.605 32.5053 111.605 34.4045C111.605 36.2462 112.152 37.8002 113.245 39.0664C114.396 40.275 115.864 40.8793 117.648 40.8793Z" fill="black"/>
<path d="M146.751 47.8721C142.838 47.8721 139.615 47.0663 137.082 45.4548C136.564 45.1095 136.19 44.7066 135.96 44.2462C135.73 43.7282 135.615 43.239 135.615 42.7786C135.615 41.8002 135.931 40.9081 136.564 40.1023C137.255 39.2966 138.09 38.8937 139.068 38.8937C139.528 38.8937 139.989 39.0088 140.449 39.239C141.485 39.6995 142.665 40.1023 143.989 40.4477C145.312 40.7354 146.521 40.8793 147.615 40.8793C149.744 40.8793 150.809 40.3901 150.809 39.4117C150.809 38.8362 150.55 38.347 150.032 37.9441C149.514 37.4836 148.305 37.1671 146.406 36.9944C145.658 36.9369 144.679 36.8218 143.471 36.6491C142.32 36.4765 141.169 36.1599 140.018 35.6995C138.867 35.1815 137.888 34.4333 137.082 33.4549C136.334 32.4765 135.96 31.1528 135.96 29.4837C135.96 26.8938 136.938 24.8507 138.895 23.3543C140.852 21.8579 143.471 21.1097 146.751 21.1097C148.651 21.1097 150.435 21.3111 152.104 21.714C153.83 22.1169 155.125 22.7212 155.989 23.5269C156.794 24.2751 157.197 25.1384 157.197 26.1168C157.197 26.9801 156.881 27.7571 156.248 28.4478C155.615 29.1384 154.809 29.4837 153.83 29.4837C153.312 29.4837 152.823 29.3686 152.363 29.1384C151.672 28.678 150.78 28.3326 149.687 28.1024C148.651 27.8722 147.586 27.7571 146.492 27.7571C144.305 27.7571 143.212 28.2175 143.212 29.1384C143.212 29.5413 143.413 29.9154 143.816 30.2607C144.277 30.5485 145.284 30.8074 146.838 31.0377C147.816 31.1528 148.938 31.3254 150.205 31.5556C151.471 31.7283 152.679 32.0736 153.83 32.5916C155.039 33.052 156.046 33.829 156.852 34.9225C157.658 36.016 158.061 37.5124 158.061 39.4117C158.061 42.0016 157.025 44.0735 154.953 45.6275C152.881 47.1239 150.147 47.8721 146.751 47.8721Z" fill="black"/>
<path d="M173.603 47.8721C171.129 47.8721 169.085 47.1526 167.474 45.7138C165.862 44.275 165.057 42.0592 165.057 39.0664V29.7427C165.057 29.1672 164.769 28.8794 164.193 28.8794H162.898C161.862 28.8794 161.086 28.5629 160.568 27.9298C160.05 27.2967 159.791 26.4909 159.791 25.5125C159.791 24.4766 160.05 23.642 160.568 23.0089C161.086 22.3183 161.862 21.973 162.898 21.973H164.193C164.769 21.973 165.057 21.6852 165.057 21.1097V14.7212C165.057 13.7428 165.402 12.9083 166.093 12.2177C166.783 11.527 167.675 11.1817 168.769 11.1817C169.862 11.1817 170.755 11.527 171.445 12.2177C172.193 12.8508 172.567 13.6853 172.567 14.7212V21.1097C172.567 21.6852 172.855 21.973 173.431 21.973H176.625C177.603 21.973 178.409 22.3183 179.042 23.0089C179.733 23.6996 180.078 24.5341 180.078 25.5125C180.078 26.4909 179.733 27.2967 179.042 27.9298C178.409 28.5629 177.575 28.8794 176.539 28.8794H173.431C172.855 28.8794 172.567 29.1672 172.567 29.7427V37.8577C172.567 38.8937 172.74 39.6131 173.085 40.016C173.488 40.4189 173.978 40.6203 174.553 40.6203C174.783 40.6203 175.244 40.5628 175.934 40.4477C176.625 40.275 177.057 40.1887 177.229 40.1887C178.15 40.1887 178.927 40.534 179.56 41.2246C180.193 41.9153 180.51 42.7498 180.51 43.7282C180.51 44.4764 180.28 45.167 179.819 45.8001C179.416 46.4332 178.754 46.8936 177.834 47.1814C177.085 47.4116 176.366 47.5843 175.675 47.6994C174.985 47.8145 174.294 47.8721 173.603 47.8721Z" fill="black"/>
<path d="M196.73 47.8721C194.255 47.8721 191.982 47.2965 189.91 46.1455C187.838 44.9944 186.169 43.4117 184.903 41.3973C183.694 39.3254 183.09 36.9944 183.09 34.4045C183.09 31.7571 183.694 29.4549 184.903 27.4981C186.169 25.4837 187.838 23.9298 189.91 22.8363C191.982 21.6852 194.255 21.1097 196.73 21.1097C199.262 21.1097 201.536 21.6852 203.55 22.8363C205.622 23.9298 207.262 25.4837 208.471 27.4981C209.679 29.4549 210.284 31.7571 210.284 34.4045C210.284 36.9944 209.679 39.3254 208.471 41.3973C207.262 43.4117 205.622 44.9944 203.55 46.1455C201.536 47.2965 199.262 47.8721 196.73 47.8721ZM196.73 40.8793C198.514 40.8793 199.953 40.275 201.046 39.0664C202.197 37.8002 202.773 36.2462 202.773 34.4045C202.773 32.5053 202.197 30.9801 201.046 29.829C199.953 28.678 198.514 28.1024 196.73 28.1024C195.003 28.1024 193.536 28.678 192.327 29.829C191.176 30.9801 190.6 32.5053 190.6 34.4045C190.6 36.2462 191.176 37.8002 192.327 39.0664C193.536 40.275 195.003 40.8793 196.73 40.8793Z" fill="black"/>
<path d="M219.389 47.6131C218.295 47.6131 217.374 47.2965 216.626 46.6634C215.878 46.0303 215.504 45.2246 215.504 44.2462V24.9082C215.504 23.9874 215.849 23.2104 216.54 22.5773C217.288 21.8867 218.238 21.5413 219.389 21.5413C220.425 21.5413 221.259 21.8579 221.892 22.491C222.583 23.0665 222.986 23.7859 223.101 24.6492C223.734 23.6708 224.597 22.8363 225.691 22.1456C226.784 21.455 227.935 21.1097 229.144 21.1097C229.892 21.1097 230.612 21.196 231.302 21.3687C232.108 21.5989 232.77 22.0593 233.288 22.75C233.806 23.383 234.065 24.1312 234.065 24.9945C234.065 26.2032 233.662 27.2104 232.856 28.0161C232.108 28.7643 231.216 29.0233 230.18 28.7931C229.432 28.6204 228.684 28.5341 227.935 28.5341C226.612 28.5341 225.518 28.9945 224.655 29.9154C223.792 30.8362 223.274 32.7067 223.101 35.5268V44.1599C223.101 45.1383 222.727 45.9728 221.979 46.6634C221.288 47.2965 220.425 47.6131 219.389 47.6131Z" fill="black"/>
<path d="M246.994 47.8721C245.786 47.8721 244.692 47.498 243.714 46.7498C242.735 45.944 242.131 44.908 241.901 43.6419L236.635 15.5845C236.519 14.4335 236.836 13.4838 237.584 12.7356C238.39 11.9875 239.368 11.6134 240.519 11.6134C241.498 11.6134 242.332 11.9011 243.023 12.4767C243.714 13.0522 244.145 13.8292 244.318 14.8076L247.426 33.7139C247.541 34.4045 247.8 34.7499 248.203 34.7499C248.548 34.7499 248.807 34.4333 248.98 33.8002L253.124 18.5198C253.411 17.4263 253.958 16.6205 254.764 16.1025C255.57 15.527 256.433 15.2392 257.354 15.2392C258.275 15.2392 259.138 15.527 259.944 16.1025C260.75 16.6205 261.296 17.4263 261.584 18.5198L265.728 33.8002C265.901 34.4333 266.16 34.7499 266.505 34.7499C266.965 34.7499 267.224 34.4045 267.282 33.7139L270.39 14.8076C270.562 13.8292 270.994 13.0522 271.685 12.4767C272.433 11.9011 273.267 11.6134 274.188 11.6134C275.339 11.6134 276.289 11.9875 277.037 12.7356C277.843 13.4838 278.188 14.4335 278.073 15.5845L272.721 43.6419C272.49 44.908 271.886 45.944 270.908 46.7498C269.929 47.498 268.836 47.8721 267.627 47.8721C266.534 47.8721 265.498 47.5267 264.519 46.8361C263.598 46.0879 262.908 45.1095 262.447 43.9009L258.131 28.7067C257.958 28.0737 257.699 27.7571 257.354 27.7571C256.951 27.7571 256.663 28.0737 256.491 28.7067L252.174 43.9009C251.829 45.1095 251.167 46.0879 250.188 46.8361C249.21 47.5267 248.145 47.8721 246.994 47.8721Z" fill="#885551"/>
<path d="M293.667 47.8721C289.81 47.8721 286.674 46.6634 284.257 44.2462C281.897 41.7714 280.717 38.4908 280.717 34.4045C280.717 30.3182 281.868 27.0952 284.17 24.7355C286.53 22.3183 289.609 21.1097 293.408 21.1097C296.113 21.1097 298.472 22.0593 300.487 23.9586C300.717 23.2679 301.148 22.6924 301.782 22.232C302.415 21.7715 303.163 21.5413 304.026 21.5413C305.177 21.5413 306.098 21.8867 306.789 22.5773C307.537 23.2104 307.911 23.9874 307.911 24.9082V44.5052C307.911 45.4836 307.537 46.2893 306.789 46.9224C306.098 47.5555 305.177 47.8721 304.026 47.8721C302.127 47.8721 300.947 47.0375 300.487 45.3685C298.645 47.0375 296.372 47.8721 293.667 47.8721ZM294.271 40.8793C296.113 40.8793 297.58 40.275 298.674 39.0664C299.767 37.8002 300.314 36.2462 300.314 34.4045C300.314 32.5053 299.767 30.9801 298.674 29.829C297.58 28.678 296.113 28.1024 294.271 28.1024C292.487 28.1024 291.019 28.678 289.868 29.829C288.774 30.9801 288.228 32.5053 288.228 34.4045C288.228 36.2462 288.774 37.8002 289.868 39.0664C291.019 40.275 292.487 40.8793 294.271 40.8793Z" fill="#885551"/>
<path d="M311.806 24.5629C311.806 23.4118 312.209 22.5485 313.015 21.973C313.82 21.3974 314.741 21.1097 315.777 21.1097C316.583 21.1097 317.274 21.3399 317.849 21.8003C318.482 22.2032 318.914 22.7787 319.144 23.5269L324.497 36.5628C324.784 37.311 325.187 37.6851 325.705 37.6851C326.223 37.6851 326.597 37.311 326.827 36.5628L331.489 23.5269C331.777 22.7212 332.237 22.1169 332.871 21.714C333.561 21.3111 334.281 21.1097 335.029 21.1097C336.007 21.1097 336.899 21.4262 337.705 22.0593C338.568 22.6924 339 23.5269 339 24.5629C339 25.1384 338.885 25.6852 338.655 26.2032L325.187 57.282C324.784 58.1454 324.266 58.7497 323.633 59.095C323.058 59.4979 322.453 59.6993 321.82 59.6993C320.784 59.6993 319.835 59.3252 318.971 58.577C318.166 57.8864 317.763 57.0518 317.763 56.0734C317.763 55.5554 317.878 55.095 318.108 54.6921L322.77 46.4044C321.792 46.1167 321.015 45.3973 320.439 44.2462L312.065 26.1168C311.892 25.5989 311.806 25.0809 311.806 24.5629Z" fill="#885551"/>
<path d="M47.8133 13.9677C44.8222 10.5551 44.2301 5.00964 37.2769 5.00964C25.4182 5.00964 20.0581 11.6856 22.3469 20.1103C24.004 26.2098 29.5416 28.3986 35.8266 29.0684C43.3542 29.8705 50.6287 27.5754 50.6287 20.1103C50.6287 17.3604 49.6259 16.0357 47.8133 13.9677Z" fill="#885551"/>
<path d="M27.0391 25.9544C27.0391 25.9544 17.3348 38.4617 21.3231 46.0886C24.4272 52.0249 30.261 55.2742 36.9356 54.7054C44.036 54.1003 47.8212 50.2114 49.7755 43.3585C51.7158 36.5545 44.23 25.9544 44.23 25.9544H27.0391Z" fill="#885551"/>
<path d="M18.7467 42.7598C18.7771 42.7859 18.7973 42.8218 18.8039 42.8613C19.0139 44.1213 19.4831 45.458 20.0671 46.6451C20.6516 47.8337 21.3455 48.861 21.9977 49.508C22.052 49.5619 22.0638 49.6452 22.0267 49.712C21.9896 49.7788 21.9159 49.8128 21.8415 49.7952H21.8381L21.8301 49.7933C21.8248 49.792 21.817 49.7901 21.8067 49.7876C21.7862 49.7827 21.7557 49.7752 21.7159 49.7654C21.6361 49.7456 21.5187 49.7161 21.3674 49.6767C21.0648 49.5981 20.6268 49.4803 20.0839 49.3237C18.9984 49.0105 17.4933 48.5416 15.8142 47.9189C12.4607 46.6751 8.39444 44.8107 5.59731 42.3346C2.80092 39.8591 0.895348 36.4833 0.645461 33.5231C0.520257 32.0399 0.810468 30.6514 1.62561 29.5383C2.44159 28.424 3.76876 27.606 5.67805 27.2372C7.54976 26.8756 9.01627 27.4308 10.2267 28.5257C11.428 29.6122 12.3774 31.2297 13.2403 32.9976C13.6538 33.8445 14.0495 34.7307 14.4441 35.6144L14.4982 35.7354C14.9112 36.6602 15.3239 37.5802 15.7576 38.4541C16.6266 40.2052 17.5706 41.7506 18.7467 42.7598Z" fill="#885551"/>
<path d="M22.2785 5.87222C25.8237 3.31727 27.8496 7.25189 27.8496 7.25189L23.3477 11.2376C23.3477 11.2376 18.7332 8.42717 22.2785 5.87222Z" fill="#885551"/>
<path d="M35.637 0.704346C39.5216 0.704347 38.6261 4.1003 38.6261 4.1003C36.7391 3.88582 34.8552 3.94123 32.4173 4.60612C32.4173 4.60612 31.7524 0.704345 35.637 0.704346Z" fill="#885551"/>
<path d="M54.5957 30.3054C53.2164 27.0194 44.1021 31.7984 44.1021 31.7984L47.6853 37.7705C47.6853 37.7705 56.0461 33.7607 54.5957 30.3054Z" fill="#885551"/>
<path d="M32.9261 56.7718C31.6588 55.3819 27.6983 54.7646 27.6983 54.7646C27.6983 54.7646 22.0675 54.4297 22.0482 56.7718C22.0287 59.121 27.6983 58.8319 27.6983 58.8319C27.6983 58.8319 34.4047 58.3936 32.9261 56.7718Z" fill="#885551"/>
<path d="M37.5323 56.7718C38.7996 55.3819 42.7601 54.7646 42.7601 54.7646C42.7601 54.7646 48.3909 54.4297 48.4103 56.7718C48.4297 59.121 42.7601 58.8319 42.7601 58.8319C42.7601 58.8319 36.0537 58.3936 37.5323 56.7718Z" fill="#885551"/>
</svg>
