<svg width="251" height="46" viewBox="0 0 251 46" fill="none" xmlns="http://www.w3.org/2000/svg">
<path d="M28.3594 31.84C27.346 32.64 25.7994 33.3333 23.7194 33.92C21.6394 34.5067 19.6127 34.8 17.6394 34.8C14.3327 34.8 11.3727 34.08 8.75938 32.64C6.14604 31.1467 4.09271 29.0933 2.59938 26.48C1.10604 23.8667 0.359375 20.9067 0.359375 17.6C0.359375 14.1333 1.07938 11.1467 2.51938 8.64C4.01271 6.13333 6.06604 4.21333 8.67938 2.88C11.2927 1.49333 14.3327 0.799998 17.7994 0.799998C19.2394 0.799998 20.6794 0.933331 22.1194 1.2C23.6127 1.46666 24.9727 1.89333 26.1994 2.48C26.8394 2.8 27.2927 3.22667 27.5594 3.76C27.8794 4.24 28.0394 4.77333 28.0394 5.36C28.0394 6.21333 27.7194 7.01333 27.0794 7.76C26.4927 8.45333 25.6927 8.8 24.6794 8.8C24.2527 8.8 23.7994 8.72 23.3194 8.56C22.3594 8.18667 21.3194 7.89333 20.1994 7.68C19.0794 7.41333 18.0927 7.28 17.2394 7.28C14.466 7.28 12.146 8.21333 10.2794 10.08C8.46604 11.9467 7.55938 14.4533 7.55938 17.6C7.55938 20.96 8.49271 23.6 10.3594 25.52C12.2794 27.44 14.7327 28.4 17.7194 28.4C18.946 28.4 20.2527 28.1867 21.6394 27.76C23.026 27.3333 24.146 26.8 24.9994 26.16C25.586 25.7867 26.226 25.6 26.9194 25.6C27.826 25.6 28.546 25.92 29.0794 26.56C29.666 27.1467 29.9594 27.8933 29.9594 28.8C29.9594 29.9733 29.426 30.9867 28.3594 31.84ZM45.1625 34.8C41.5892 34.8 38.6825 33.68 36.4425 31.44C34.2558 29.1467 33.1625 26.1067 33.1625 22.32C33.1625 18.5333 34.2292 15.5467 36.3625 13.36C38.5492 11.12 41.4025 10 44.9225 10C47.4292 10 49.6158 10.88 51.4825 12.64C51.6958 12 52.0958 11.4667 52.6825 11.04C53.2692 10.6133 53.9625 10.4 54.7625 10.4C55.8292 10.4 56.6825 10.72 57.3225 11.36C58.0158 11.9467 58.3625 12.6667 58.3625 13.52V31.68C58.3625 32.5867 58.0158 33.3333 57.3225 33.92C56.6825 34.5067 55.8292 34.8 54.7625 34.8C53.0025 34.8 51.9092 34.0267 51.4825 32.48C49.7758 34.0267 47.6692 34.8 45.1625 34.8ZM45.7225 28.32C47.4292 28.32 48.7892 27.76 49.8025 26.64C50.8158 25.4667 51.3225 24.0267 51.3225 22.32C51.3225 20.56 50.8158 19.1467 49.8025 18.08C48.7892 17.0133 47.4292 16.48 45.7225 16.48C44.0692 16.48 42.7092 17.0133 41.6425 18.08C40.6292 19.1467 40.1225 20.56 40.1225 22.32C40.1225 24.0267 40.6292 25.4667 41.6425 26.64C42.7092 27.76 44.0692 28.32 45.7225 28.32ZM72.6919 34.8C69.0652 34.8 66.0785 34.0533 63.7319 32.56C63.2519 32.24 62.9052 31.8667 62.6919 31.44C62.4785 30.96 62.3719 30.5067 62.3719 30.08C62.3719 29.1733 62.6652 28.3467 63.2519 27.6C63.8919 26.8533 64.6652 26.48 65.5719 26.48C65.9985 26.48 66.4252 26.5867 66.8519 26.8C67.8119 27.2267 68.9052 27.6 70.1319 27.92C71.3585 28.1867 72.4785 28.32 73.4919 28.32C75.4652 28.32 76.4519 27.8667 76.4519 26.96C76.4519 26.4267 76.2119 25.9733 75.7319 25.6C75.2519 25.1733 74.1319 24.88 72.3719 24.72C71.6785 24.6667 70.7719 24.56 69.6519 24.4C68.5852 24.24 67.5185 23.9467 66.4519 23.52C65.3852 23.04 64.4785 22.3467 63.7319 21.44C63.0385 20.5333 62.6919 19.3067 62.6919 17.76C62.6919 15.36 63.5985 13.4667 65.4119 12.08C67.2252 10.6933 69.6519 10 72.6919 10C74.4519 10 76.1052 10.1867 77.6519 10.56C79.2519 10.9333 80.4519 11.4933 81.2519 12.24C81.9985 12.9333 82.3719 13.7333 82.3719 14.64C82.3719 15.44 82.0785 16.16 81.4919 16.8C80.9052 17.44 80.1585 17.76 79.2519 17.76C78.7719 17.76 78.3185 17.6533 77.8919 17.44C77.2519 17.0133 76.4252 16.6933 75.4119 16.48C74.4519 16.2667 73.4652 16.16 72.4519 16.16C70.4252 16.16 69.4119 16.5867 69.4119 17.44C69.4119 17.8133 69.5985 18.16 69.9719 18.48C70.3985 18.7467 71.3319 18.9867 72.7719 19.2C73.6785 19.3067 74.7185 19.4667 75.8919 19.68C77.0652 19.84 78.1852 20.16 79.2519 20.64C80.3719 21.0667 81.3052 21.7867 82.0519 22.8C82.7985 23.8133 83.1719 25.2 83.1719 26.96C83.1719 29.36 82.2119 31.28 80.2919 32.72C78.3719 34.1067 75.8385 34.8 72.6919 34.8ZM97.575 34.8C95.2817 34.8 93.3883 34.1333 91.895 32.8C90.4017 31.4667 89.655 29.4133 89.655 26.64V18C89.655 17.4667 89.3883 17.2 88.855 17.2H87.655C86.695 17.2 85.975 16.9067 85.495 16.32C85.015 15.7333 84.775 14.9867 84.775 14.08C84.775 13.12 85.015 12.3467 85.495 11.76C85.975 11.12 86.695 10.8 87.655 10.8H88.855C89.3883 10.8 89.655 10.5333 89.655 10V4.08C89.655 3.17333 89.975 2.4 90.615 1.76C91.255 1.12 92.0817 0.799998 93.095 0.799998C94.1083 0.799998 94.935 1.12 95.575 1.76C96.2683 2.34666 96.615 3.12 96.615 4.08V10C96.615 10.5333 96.8817 10.8 97.415 10.8H100.375C101.282 10.8 102.028 11.12 102.615 11.76C103.255 12.4 103.575 13.1733 103.575 14.08C103.575 14.9867 103.255 15.7333 102.615 16.32C102.028 16.9067 101.255 17.2 100.295 17.2H97.415C96.8817 17.2 96.615 17.4667 96.615 18V25.52C96.615 26.48 96.775 27.1467 97.095 27.52C97.4683 27.8933 97.9217 28.08 98.455 28.08C98.6683 28.08 99.095 28.0267 99.735 27.92C100.375 27.76 100.775 27.68 100.935 27.68C101.788 27.68 102.508 28 103.095 28.64C103.682 29.28 103.975 30.0533 103.975 30.96C103.975 31.6533 103.762 32.2933 103.335 32.88C102.962 33.4667 102.348 33.8933 101.495 34.16C100.802 34.3733 100.135 34.5333 99.495 34.64C98.855 34.7467 98.215 34.8 97.575 34.8ZM119.006 34.8C116.712 34.8 114.606 34.2667 112.686 33.2C110.766 32.1333 109.219 30.6667 108.046 28.8C106.926 26.88 106.366 24.72 106.366 22.32C106.366 19.8667 106.926 17.7333 108.046 15.92C109.219 14.0533 110.766 12.6133 112.686 11.6C114.606 10.5333 116.712 10 119.006 10C121.352 10 123.459 10.5333 125.326 11.6C127.246 12.6133 128.766 14.0533 129.886 15.92C131.006 17.7333 131.566 19.8667 131.566 22.32C131.566 24.72 131.006 26.88 129.886 28.8C128.766 30.6667 127.246 32.1333 125.326 33.2C123.459 34.2667 121.352 34.8 119.006 34.8ZM119.006 28.32C120.659 28.32 121.992 27.76 123.006 26.64C124.072 25.4667 124.606 24.0267 124.606 22.32C124.606 20.56 124.072 19.1467 123.006 18.08C121.992 17.0133 120.659 16.48 119.006 16.48C117.406 16.48 116.046 17.0133 114.926 18.08C113.859 19.1467 113.326 20.56 113.326 22.32C113.326 24.0267 113.859 25.4667 114.926 26.64C116.046 27.76 117.406 28.32 119.006 28.32ZM140.003 34.56C138.99 34.56 138.136 34.2667 137.443 33.68C136.75 33.0933 136.403 32.3467 136.403 31.44V13.52C136.403 12.6667 136.723 11.9467 137.363 11.36C138.056 10.72 138.936 10.4 140.003 10.4C140.963 10.4 141.736 10.6933 142.323 11.28C142.963 11.8133 143.336 12.48 143.443 13.28C144.03 12.3733 144.83 11.6 145.843 10.96C146.856 10.32 147.923 10 149.043 10C149.736 10 150.403 10.08 151.043 10.24C151.79 10.4533 152.403 10.88 152.883 11.52C153.363 12.1067 153.603 12.8 153.603 13.6C153.603 14.72 153.23 15.6533 152.483 16.4C151.79 17.0933 150.963 17.3333 150.003 17.12C149.31 16.96 148.616 16.88 147.923 16.88C146.696 16.88 145.683 17.3067 144.883 18.16C144.083 19.0133 143.603 20.7467 143.443 23.36V31.36C143.443 32.2667 143.096 33.04 142.403 33.68C141.763 34.2667 140.963 34.56 140.003 34.56Z" fill="#1A1A1A"/>
<path d="M165.584 34.8C164.464 34.8 163.451 34.4533 162.544 33.76C161.638 33.0133 161.078 32.0533 160.864 30.88L155.984 4.88C155.878 3.81333 156.171 2.93333 156.864 2.24C157.611 1.54666 158.518 1.2 159.584 1.2C160.491 1.2 161.264 1.46667 161.904 2C162.544 2.53333 162.944 3.25333 163.104 4.16L165.984 21.68C166.091 22.32 166.331 22.64 166.704 22.64C167.024 22.64 167.264 22.3467 167.424 21.76L171.264 7.6C171.531 6.58667 172.038 5.84 172.784 5.36C173.531 4.82666 174.331 4.56 175.184 4.56C176.038 4.56 176.838 4.82666 177.584 5.36C178.331 5.84 178.838 6.58667 179.104 7.6L182.944 21.76C183.104 22.3467 183.344 22.64 183.664 22.64C184.091 22.64 184.331 22.32 184.384 21.68L187.264 4.16C187.424 3.25333 187.824 2.53333 188.464 2C189.158 1.46667 189.931 1.2 190.784 1.2C191.851 1.2 192.731 1.54666 193.424 2.24C194.171 2.93333 194.491 3.81333 194.384 4.88L189.424 30.88C189.211 32.0533 188.651 33.0133 187.744 33.76C186.838 34.4533 185.824 34.8 184.704 34.8C183.691 34.8 182.731 34.48 181.824 33.84C180.971 33.1467 180.331 32.24 179.904 31.12L175.904 17.04C175.744 16.4533 175.504 16.16 175.184 16.16C174.811 16.16 174.544 16.4533 174.384 17.04L170.384 31.12C170.064 32.24 169.451 33.1467 168.544 33.84C167.638 34.48 166.651 34.8 165.584 34.8ZM208.834 34.8C205.261 34.8 202.354 33.68 200.114 31.44C197.928 29.1467 196.834 26.1067 196.834 22.32C196.834 18.5333 197.901 15.5467 200.034 13.36C202.221 11.12 205.074 10 208.594 10C211.101 10 213.288 10.88 215.154 12.64C215.368 12 215.768 11.4667 216.354 11.04C216.941 10.6133 217.634 10.4 218.434 10.4C219.501 10.4 220.354 10.72 220.994 11.36C221.688 11.9467 222.034 12.6667 222.034 13.52V31.68C222.034 32.5867 221.688 33.3333 220.994 33.92C220.354 34.5067 219.501 34.8 218.434 34.8C216.674 34.8 215.581 34.0267 215.154 32.48C213.448 34.0267 211.341 34.8 208.834 34.8ZM209.394 28.32C211.101 28.32 212.461 27.76 213.474 26.64C214.488 25.4667 214.994 24.0267 214.994 22.32C214.994 20.56 214.488 19.1467 213.474 18.08C212.461 17.0133 211.101 16.48 209.394 16.48C207.741 16.48 206.381 17.0133 205.314 18.08C204.301 19.1467 203.794 20.56 203.794 22.32C203.794 24.0267 204.301 25.4667 205.314 26.64C206.381 27.76 207.741 28.32 209.394 28.32ZM225.644 13.2C225.644 12.1333 226.017 11.3333 226.764 10.8C227.51 10.2667 228.364 10 229.324 10C230.07 10 230.71 10.2133 231.244 10.64C231.83 11.0133 232.23 11.5467 232.444 12.24L237.404 24.32C237.67 25.0133 238.044 25.36 238.524 25.36C239.004 25.36 239.35 25.0133 239.564 24.32L243.884 12.24C244.15 11.4933 244.577 10.9333 245.164 10.56C245.804 10.1867 246.47 10 247.164 10C248.07 10 248.897 10.2933 249.644 10.88C250.444 11.4667 250.844 12.24 250.844 13.2C250.844 13.7333 250.737 14.24 250.524 14.72L238.044 43.52C237.67 44.32 237.19 44.88 236.604 45.2C236.07 45.5733 235.51 45.76 234.924 45.76C233.964 45.76 233.084 45.4133 232.284 44.72C231.537 44.08 231.164 43.3067 231.164 42.4C231.164 41.92 231.27 41.4933 231.484 41.12L235.804 33.44C234.897 33.1733 234.177 32.5067 233.644 31.44L225.884 14.64C225.724 14.16 225.644 13.68 225.644 13.2Z" fill="#879FD4"/>
</svg>
