<svg width="485" height="85" viewBox="0 0 485 85" fill="none" xmlns="http://www.w3.org/2000/svg">
<path d="M140.883 63.0267C139.316 64.264 136.924 65.3364 133.706 66.2438C130.489 67.1512 127.355 67.6049 124.302 67.6049C119.188 67.6049 114.61 66.4913 110.568 64.264C106.526 61.9543 103.35 58.7784 101.04 54.7363C98.7303 50.6943 97.5754 46.1161 97.5754 41.0016C97.5754 35.6397 98.6891 31.0202 100.916 27.1432C103.226 23.2661 106.402 20.2964 110.444 18.2342C114.486 16.0894 119.188 15.017 124.55 15.017C126.777 15.017 129.004 15.2233 131.232 15.6357C133.541 16.0482 135.645 16.7081 137.542 17.6155C138.532 18.1104 139.233 18.7704 139.646 19.5953C140.141 20.3377 140.388 21.1626 140.388 22.07C140.388 23.3898 139.893 24.6272 138.903 25.7821C137.996 26.8545 136.759 27.3906 135.191 27.3906C134.531 27.3906 133.83 27.2669 133.088 27.0194C131.603 26.442 129.994 25.9883 128.262 25.6583C126.53 25.2459 125.004 25.0397 123.684 25.0397C119.394 25.0397 115.806 26.4832 112.919 29.3704C110.114 32.2576 108.712 36.1347 108.712 41.0016C108.712 46.1985 110.155 50.2818 113.042 53.2515C116.012 56.2212 119.807 57.706 124.426 57.706C126.323 57.706 128.345 57.3761 130.489 56.7161C132.634 56.0562 134.366 55.2313 135.686 54.2414C136.594 53.664 137.583 53.3752 138.656 53.3752C140.058 53.3752 141.172 53.8702 141.997 54.8601C142.904 55.7675 143.358 56.9223 143.358 58.3247C143.358 60.1395 142.533 61.7068 140.883 63.0267Z" fill="#885551"/>
<path d="M166.873 67.6049C161.346 67.6049 156.85 65.8726 153.385 62.408C150.003 58.8609 148.312 54.1589 148.312 48.3021C148.312 42.4452 149.962 37.8257 153.262 34.4436C156.644 30.979 161.057 29.2467 166.501 29.2467C170.378 29.2467 173.761 30.6078 176.648 33.33C176.978 32.3401 177.596 31.5152 178.504 30.8553C179.411 30.1953 180.484 29.8654 181.721 29.8654C183.371 29.8654 184.691 30.3603 185.68 31.3502C186.753 32.2576 187.289 33.3712 187.289 34.6911V62.7792C187.289 64.1815 186.753 65.3364 185.68 66.2438C184.691 67.1512 183.371 67.6049 181.721 67.6049C178.999 67.6049 177.308 66.4088 176.648 64.0166C174.008 66.4088 170.75 67.6049 166.873 67.6049ZM167.739 57.5823C170.378 57.5823 172.482 56.7161 174.049 54.9838C175.617 53.169 176.4 50.9418 176.4 48.3021C176.4 45.5799 175.617 43.3939 174.049 41.744C172.482 40.0942 170.378 39.2693 167.739 39.2693C165.181 39.2693 163.078 40.0942 161.428 41.744C159.861 43.3939 159.077 45.5799 159.077 48.3021C159.077 50.9418 159.861 53.169 161.428 54.9838C163.078 56.7161 165.181 57.5823 167.739 57.5823Z" fill="#885551"/>
<path d="M209.452 67.6049C203.843 67.6049 199.223 66.45 195.594 64.1403C194.851 63.6453 194.315 63.0679 193.985 62.408C193.655 61.6656 193.49 60.9644 193.49 60.3045C193.49 58.9021 193.944 57.6235 194.851 56.4687C195.841 55.3138 197.037 54.7363 198.44 54.7363C199.1 54.7363 199.76 54.9013 200.42 55.2313C201.904 55.8912 203.595 56.4687 205.493 56.9636C207.39 57.376 209.122 57.5823 210.69 57.5823C213.742 57.5823 215.268 56.8811 215.268 55.4788C215.268 54.6539 214.897 53.9527 214.154 53.3752C213.412 52.7153 211.68 52.2616 208.957 52.0141C207.885 51.9317 206.483 51.7667 204.75 51.5192C203.1 51.2717 201.451 50.818 199.801 50.1581C198.151 49.4157 196.749 48.3433 195.594 46.941C194.521 45.5386 193.985 43.6413 193.985 41.2491C193.985 37.537 195.388 34.6086 198.192 32.4638C200.997 30.3191 204.75 29.2467 209.452 29.2467C212.174 29.2467 214.732 29.5354 217.124 30.1128C219.599 30.6903 221.455 31.5564 222.692 32.7113C223.847 33.7837 224.424 35.021 224.424 36.4234C224.424 37.6607 223.971 38.7744 223.063 39.7643C222.156 40.7542 221.001 41.2491 219.599 41.2491C218.856 41.2491 218.155 41.0841 217.495 40.7542C216.505 40.0942 215.227 39.5993 213.659 39.2693C212.174 38.9394 210.648 38.7744 209.081 38.7744C205.946 38.7744 204.379 39.4343 204.379 40.7542C204.379 41.3316 204.668 41.8678 205.245 42.3627C205.905 42.7752 207.349 43.1464 209.576 43.4764C210.978 43.6413 212.587 43.8888 214.402 44.2188C216.217 44.4662 217.949 44.9612 219.599 45.7036C221.331 46.3635 222.775 47.4772 223.929 49.0445C225.084 50.6118 225.662 52.7566 225.662 55.4788C225.662 59.1908 224.177 62.1605 221.207 64.3878C218.238 66.5325 214.319 67.6049 209.452 67.6049Z" fill="#885551"/>
<path d="M247.939 67.6049C244.392 67.6049 241.464 66.5738 239.154 64.5115C236.844 62.4492 235.689 59.2733 235.689 54.9838V41.6203C235.689 40.7954 235.277 40.3829 234.452 40.3829H232.596C231.111 40.3829 229.997 39.9292 229.255 39.0218C228.512 38.1145 228.141 36.9596 228.141 35.5572C228.141 34.0724 228.512 32.8763 229.255 31.9689C229.997 30.979 231.111 30.4841 232.596 30.4841H234.452C235.277 30.4841 235.689 30.0716 235.689 29.2467V20.0902C235.689 18.6879 236.184 17.4918 237.174 16.5019C238.164 15.512 239.443 15.017 241.01 15.017C242.577 15.017 243.856 15.512 244.846 16.5019C245.918 17.4093 246.454 18.6054 246.454 20.0902V29.2467C246.454 30.0716 246.867 30.4841 247.692 30.4841H252.27C253.672 30.4841 254.827 30.979 255.734 31.9689C256.724 32.9588 257.219 34.1549 257.219 35.5572C257.219 36.9596 256.724 38.1145 255.734 39.0218C254.827 39.9292 253.631 40.3829 252.146 40.3829H247.692C246.867 40.3829 246.454 40.7954 246.454 41.6203V53.2515C246.454 54.7363 246.702 55.7675 247.197 56.3449C247.774 56.9223 248.475 57.2111 249.3 57.2111C249.63 57.2111 250.29 57.1286 251.28 56.9636C252.27 56.7161 252.889 56.5924 253.136 56.5924C254.456 56.5924 255.569 57.0873 256.477 58.0772C257.384 59.0671 257.838 60.2632 257.838 61.6656C257.838 62.7379 257.508 63.7278 256.848 64.6352C256.271 65.5426 255.322 66.2026 254.002 66.615C252.93 66.945 251.899 67.1925 250.909 67.3574C249.919 67.5224 248.929 67.6049 247.939 67.6049Z" fill="#885551"/>
<path d="M281.086 67.6049C277.539 67.6049 274.28 66.78 271.311 65.1302C268.341 63.4804 265.949 61.2119 264.134 58.3247C262.402 55.355 261.536 52.0141 261.536 48.3021C261.536 44.5075 262.402 41.2079 264.134 38.4032C265.949 35.516 268.341 33.2887 271.311 31.7214C274.28 30.0716 277.539 29.2467 281.086 29.2467C284.715 29.2467 287.974 30.0716 290.861 31.7214C293.831 33.2887 296.182 35.516 297.914 38.4032C299.646 41.2079 300.512 44.5075 300.512 48.3021C300.512 52.0141 299.646 55.355 297.914 58.3247C296.182 61.2119 293.831 63.4804 290.861 65.1302C287.974 66.78 284.715 67.6049 281.086 67.6049ZM281.086 57.5823C283.643 57.5823 285.705 56.7161 287.273 54.9838C288.922 53.169 289.747 50.9418 289.747 48.3021C289.747 45.5799 288.922 43.3939 287.273 41.744C285.705 40.0942 283.643 39.2693 281.086 39.2693C278.611 39.2693 276.508 40.0942 274.775 41.744C273.126 43.3939 272.301 45.5799 272.301 48.3021C272.301 50.9418 273.126 53.169 274.775 54.9838C276.508 56.7161 278.611 57.5823 281.086 57.5823Z" fill="#885551"/>
<path d="M313.563 67.2337C311.995 67.2337 310.676 66.78 309.603 65.8726C308.531 64.9652 307.995 63.8103 307.995 62.408V34.6911C307.995 33.3712 308.49 32.2576 309.479 31.3502C310.552 30.3603 311.913 29.8654 313.563 29.8654C315.048 29.8654 316.244 30.3191 317.151 31.2265C318.141 32.0514 318.718 33.0825 318.883 34.3199C319.791 32.9175 321.028 31.7214 322.595 30.7315C324.163 29.7416 325.813 29.2467 327.545 29.2467C328.617 29.2467 329.648 29.3704 330.638 29.6179C331.793 29.9479 332.742 30.6078 333.484 31.5977C334.227 32.5051 334.598 33.5775 334.598 34.8148C334.598 36.5471 334.02 37.9907 332.866 39.1456C331.793 40.218 330.515 40.5892 329.03 40.2592C327.957 40.0117 326.885 39.888 325.813 39.888C323.915 39.888 322.348 40.5479 321.111 41.8678C319.873 43.1876 319.131 45.8686 318.883 49.9106V62.2843C318.883 63.6866 318.347 64.8827 317.275 65.8726C316.285 66.78 315.048 67.2337 313.563 67.2337Z" fill="#885551"/>
<path d="M353.129 67.6049C351.397 67.6049 349.83 67.0687 348.427 65.9963C347.025 64.8415 346.159 63.3566 345.829 61.5418L338.281 21.3276C338.116 19.6778 338.57 18.3167 339.642 17.2443C340.797 16.1719 342.199 15.6357 343.849 15.6357C345.251 15.6357 346.448 16.0482 347.437 16.8731C348.427 17.698 349.046 18.8116 349.293 20.2139L353.748 47.3122C353.913 48.3021 354.284 48.797 354.862 48.797C355.357 48.797 355.728 48.3433 355.975 47.4359L361.915 25.5346C362.327 23.9673 363.111 22.8124 364.266 22.07C365.42 21.2451 366.658 20.8326 367.978 20.8326C369.298 20.8326 370.535 21.2451 371.69 22.07C372.845 22.8124 373.628 23.9673 374.041 25.5346L379.98 47.4359C380.228 48.3433 380.599 48.797 381.094 48.797C381.754 48.797 382.125 48.3021 382.207 47.3122L386.662 20.2139C386.909 18.8116 387.528 17.698 388.518 16.8731C389.59 16.0482 390.786 15.6357 392.106 15.6357C393.756 15.6357 395.117 16.1719 396.19 17.2443C397.344 18.3167 397.839 19.6778 397.674 21.3276L390.003 61.5418C389.673 63.3566 388.807 64.8415 387.404 65.9963C386.002 67.0687 384.435 67.6049 382.702 67.6049C381.135 67.6049 379.65 67.11 378.248 66.1201C376.928 65.0477 375.938 63.6454 375.278 61.913L369.091 40.1355C368.844 39.2281 368.473 38.7744 367.978 38.7744C367.4 38.7744 366.988 39.2281 366.74 40.1355L360.553 61.913C360.059 63.6454 359.11 65.0477 357.708 66.1201C356.305 67.11 354.779 67.6049 353.129 67.6049Z" fill="#885551"/>
<path d="M420.024 67.6049C414.497 67.6049 410.002 65.8726 406.537 62.408C403.155 58.8609 401.464 54.1589 401.464 48.3021C401.464 42.4452 403.114 37.8257 406.413 34.4436C409.795 30.979 414.209 29.2467 419.653 29.2467C423.53 29.2467 426.912 30.6078 429.799 33.33C430.129 32.3401 430.748 31.5152 431.655 30.8553C432.563 30.1953 433.635 29.8654 434.873 29.8654C436.522 29.8654 437.842 30.3603 438.832 31.3502C439.904 32.2576 440.441 33.3712 440.441 34.6911V62.7792C440.441 64.1815 439.904 65.3364 438.832 66.2438C437.842 67.1512 436.522 67.6049 434.873 67.6049C432.15 67.6049 430.459 66.4088 429.799 64.0166C427.16 66.4088 423.901 67.6049 420.024 67.6049ZM420.89 57.5823C423.53 57.5823 425.634 56.7161 427.201 54.9838C428.768 53.169 429.552 50.9418 429.552 48.3021C429.552 45.5799 428.768 43.3939 427.201 41.744C425.634 40.0942 423.53 39.2693 420.89 39.2693C418.333 39.2693 416.23 40.0942 414.58 41.744C413.012 43.3939 412.229 45.5799 412.229 48.3021C412.229 50.9418 413.012 53.169 414.58 54.9838C416.23 56.7161 418.333 57.5823 420.89 57.5823Z" fill="#885551"/>
<path d="M446.023 34.1961C446.023 32.5463 446.601 31.309 447.756 30.4841C448.91 29.6591 450.23 29.2467 451.715 29.2467C452.87 29.2467 453.86 29.5767 454.685 30.2366C455.592 30.814 456.211 31.6389 456.541 32.7113L464.212 51.3955C464.625 52.4678 465.202 53.004 465.945 53.004C466.687 53.004 467.223 52.4678 467.553 51.3955L474.235 32.7113C474.648 31.5564 475.308 30.6903 476.215 30.1128C477.205 29.5354 478.236 29.2467 479.308 29.2467C480.711 29.2467 481.989 29.7004 483.144 30.6078C484.382 31.5152 485 32.7113 485 34.1961C485 35.021 484.835 35.8047 484.505 36.5471L465.202 81.0921C464.625 82.3295 463.883 83.1957 462.975 83.6906C462.15 84.268 461.284 84.5568 460.377 84.5568C458.892 84.5568 457.531 84.0206 456.293 82.9482C455.139 81.9583 454.561 80.7622 454.561 79.3598C454.561 78.6174 454.726 77.9575 455.056 77.3801L461.738 65.5014C460.335 65.0889 459.222 64.0578 458.397 62.408L446.395 36.4234C446.147 35.681 446.023 34.9386 446.023 34.1961Z" fill="#885551"/>
<path d="M67.6452 19.0102C63.358 14.119 62.5094 6.17073 52.5435 6.17073C35.5465 6.17073 27.8639 15.7393 31.1444 27.8144C33.5195 36.5567 41.4566 39.6939 50.4648 40.6538C61.254 41.8036 71.6804 38.5139 71.6804 27.8144C71.6804 23.8729 70.2431 21.9742 67.6452 19.0102Z" fill="#885551"/>
<path d="M37.8698 36.1906C37.8698 36.1906 23.9607 54.1172 29.677 65.0488C34.1262 73.5571 42.4876 78.2144 52.0544 77.3991C62.2312 76.5318 67.6566 70.9579 70.4576 61.1358C73.2386 51.3836 62.5093 36.1906 62.5093 36.1906H37.8698Z" fill="#885551"/>
<path d="M25.9843 60.2777C26.0279 60.315 26.0569 60.3665 26.0663 60.423C26.3673 62.2291 27.0399 64.1449 27.8768 65.8464C28.7147 67.55 29.7092 69.0224 30.644 69.9498C30.7217 70.0269 30.7387 70.1464 30.6855 70.2421C30.6324 70.3379 30.5267 70.3866 30.4201 70.3613H30.4152L30.4037 70.3586C30.3962 70.3568 30.385 70.3541 30.3703 70.3506C30.3408 70.3434 30.2972 70.3328 30.24 70.3186C30.1257 70.2903 29.9574 70.2479 29.7405 70.1916C29.3068 70.0788 28.679 69.9101 27.901 69.6856C26.3452 69.2367 24.1879 68.5647 21.7812 67.6721C16.9747 65.8894 11.1466 63.2172 7.13747 59.6681C3.12944 56.12 0.398203 51.2815 0.0400431 47.0387C-0.139411 44.9129 0.276545 42.9227 1.44489 41.3273C2.61442 39.7303 4.51664 38.5579 7.25319 38.0292C9.93589 37.511 12.0378 38.3068 13.7728 39.876C15.4946 41.4333 16.8553 43.7517 18.0921 46.2855C18.6847 47.4994 19.2519 48.7696 19.8175 50.0362L19.895 50.2096C20.487 51.5351 21.0785 52.8538 21.7001 54.1063C22.9457 56.6162 24.2986 58.8311 25.9843 60.2777Z" fill="#885551"/>
<path d="M31.0464 7.40705C36.1278 3.74508 39.0314 9.38452 39.0314 9.38452L32.5789 15.0972C32.5789 15.0972 25.965 11.069 31.0464 7.40705Z" fill="#885551"/>
<path d="M50.193 0C55.7608 1.441e-06 54.4773 4.86739 54.4773 4.86739C51.7726 4.55997 49.0725 4.63939 45.5782 5.59237C45.5782 5.59237 44.6253 -1.71291e-06 50.193 0Z" fill="#885551"/>
<path d="M77.3664 42.4269C75.3894 37.7171 62.3259 44.5668 62.3259 44.5668L67.4617 53.1264C67.4617 53.1264 79.4452 47.3793 77.3664 42.4269Z" fill="#885551"/>
<path d="M46.3075 80.3609C44.4911 78.3688 38.8146 77.484 38.8146 77.484C38.8146 77.484 30.7441 77.0039 30.7163 80.3609C30.6884 83.7279 38.8146 83.3135 38.8146 83.3135C38.8146 83.3135 48.4268 82.6853 46.3075 80.3609Z" fill="#885551"/>
<path d="M52.9096 80.3609C54.726 78.3688 60.4025 77.484 60.4025 77.484C60.4025 77.484 68.473 77.0039 68.5008 80.3609C68.5286 83.7279 60.4025 83.3135 60.4025 83.3135C60.4025 83.3135 50.7903 82.6853 52.9096 80.3609Z" fill="#885551"/>
</svg>
