<svg width="47" height="47" viewBox="0 0 47 47" fill="none" xmlns="http://www.w3.org/2000/svg">
<circle cx="23.5" cy="23.5" r="23.5" fill="#BA6958"/>
<path d="M20.8087 20.9853C20.9213 20.9853 21.0126 20.8934 21.0126 20.7801V15.5249C21.0126 14.1304 22.1354 13 23.5204 13C24.9054 13 26.0282 14.1304 26.0282 15.5249V20.7801C26.0282 20.8934 26.1194 20.9853 26.232 20.9853H31.4922C32.8772 20.9853 34 22.1158 34 23.5103C34 24.9047 32.8772 26.0352 31.4922 26.0352H26.232C26.1194 26.0352 26.0282 26.1271 26.0282 26.2405V31.4751C26.0282 32.8696 24.9054 34 23.5204 34C22.1354 34 21.0126 32.8696 21.0126 31.4751V26.2405C21.0126 26.1271 20.9213 26.0352 20.8087 26.0352H15.5078C14.1228 26.0352 13 24.9047 13 23.5103C13 22.1158 14.1228 20.9853 15.5078 20.9853H20.8087Z" fill="white"/>
</svg>
