<svg width="499" height="528" viewBox="0 0 499 528" fill="none" xmlns="http://www.w3.org/2000/svg">
<path d="M162.639 498.06C61.9729 525.554 -13.4529 455.705 2.01715 414.836C17.4872 373.967 66.4141 382.14 100.463 414.836C100.463 414.836 201.066 487.565 162.639 498.06Z" fill="#5B3236"/>
<path fill-rule="evenodd" clip-rule="evenodd" d="M56.7507 492.007C59.1266 493.039 61.5625 494.018 64.0559 494.938H64.157L56.1443 464.795L83.7479 449.315C86.2651 460.988 89.2108 473.46 92.9611 488.351L79.2376 499.605C81.8623 500.257 84.5363 500.846 87.2572 501.365L94.656 495.031C95.3041 497.568 95.9749 500.175 96.6699 502.859C99.3856 503.204 102.142 503.48 104.938 503.684C103.473 498.794 102.108 494.163 100.83 489.746L126.383 467.869L124.161 462.766L99.0088 483.391C95.0508 469.439 91.9698 457.584 89.3024 446.2L107.864 435.791L105.641 431.497L88.1537 441.216C86.0499 431.931 84.1803 422.805 82.2865 412.931L92.1366 408.448C90.4879 407.124 88.8151 405.854 87.1231 404.642L81.2357 407.391C80.7744 404.934 80.3089 402.424 79.8356 399.847C77.9119 398.69 75.9726 397.608 74.024 396.602C74.7575 401.163 75.4739 405.521 76.1899 409.746L45.3392 424.148L35.6719 387.781C33.9686 387.944 32.2951 388.196 30.6569 388.54L40.2377 426.53L3.08249 443.875C3.68476 445.271 4.35416 446.668 5.089 448.064L41.4905 431.497L49.3762 462.766L27.8763 474.714C29.3191 475.878 30.8101 477.021 32.348 478.141L50.6633 467.869L56.7507 492.007ZM46.6666 429.142L77.1396 415.273C78.8684 425.189 80.6366 434.522 82.6741 444.261L54.803 459.75L46.6666 429.142Z" fill="#885551"/>
<path d="M303.279 508.908C303.279 508.908 308.384 518.994 304.025 521.412C292.094 528.032 280.909 517.735 279.417 518.47C278.672 518.838 278.925 522.758 276.435 524.355C261.521 533.917 214.544 515.528 214.544 515.528L259.284 495.669L303.279 508.908Z" fill="#4A2932"/>
<path d="M451.679 473.074C456.875 476.76 458.632 483.376 454.649 486.343C445.741 492.977 437.576 487.08 436.092 487.817C435.349 488.185 433.865 493.468 426.442 495.926C408.627 501.823 369.286 496.663 369.286 496.663L436.834 464.228C443.211 467.97 446.484 469.388 451.679 473.074Z" fill="#4A2932"/>
<path d="M429.212 362.505C451.824 382.82 463.505 409.418 456.795 434.736C436.162 485.177 409.851 487.831 364.354 495.053L429.212 362.505Z" fill="#BA6958"/>
<path d="M343.218 505.796C292.652 513.825 279.242 510.961 264.48 501.34V279.278H409.327C419.829 380.186 426.657 442.871 404.87 469.404C383.084 495.938 372.95 498.978 343.218 505.796Z" fill="#F1AD94"/>
<path d="M448.256 348.514C449.963 327.55 445.309 312.068 426.9 278.023L397.444 286.927C400.125 302.316 398.356 311.237 388.607 327.738C365.999 370.276 367.304 383.589 388.607 393.035C410.612 394.876 432.818 388.239 448.256 348.514Z" fill="#AD5F52"/>
<path d="M223.791 364.969C228.005 317.35 259.66 301.972 274.961 300.236" stroke="black"/>
<path d="M157.787 203.447C110.914 266.799 93.221 304.163 91.2426 377.163C105.143 471.611 137.227 497.015 217.677 515.987C264.604 516.664 283.813 505.185 296.791 449.173C302.161 402.704 284.455 355.072 268.694 286.593L157.787 203.447Z" fill="#BA6958"/>
<path d="M233.655 30.04C233.655 30.04 217.707 -4.55082 188.624 18.2644C159.541 41.0796 186.372 69.0467 186.372 69.0467L233.655 30.04Z" fill="#BA6958"/>
<path d="M221.325 39.6775C221.325 39.6775 213.603 24.0206 199.52 34.3475C185.438 44.6744 198.43 57.3332 198.43 57.3332L221.325 39.6775Z" fill="#5B3236"/>
<path d="M393.946 28.4895C393.946 28.4895 409.246 6.57255 429.413 22.3637C449.58 38.1548 431.499 59.7996 431.499 59.7996L393.946 28.4895Z" fill="#BA6958"/>
<path d="M404.427 35.5763C404.427 35.5763 411.8 23.3918 424.011 30.6831C436.221 37.9744 424.99 51.7848 424.99 51.7848L404.427 35.5763Z" fill="#5B3236"/>
<path d="M361.22 292.064C361.22 292.064 484.962 286.559 496.963 224.448C501.413 201.414 493.25 168.721 471.582 157.575C447.975 145.433 438.818 146.919 414.51 150.863C401.555 152.966 384.295 155.767 358.249 157.575C320.625 160.187 292.916 156.802 270.049 154.009C247.385 151.24 229.476 149.052 211.384 153.86C155.065 179.216 151.111 224.58 196.799 259.483C204.674 265.215 213.759 270.636 224.8 276.425C282.426 294.923 361.22 292.064 361.22 292.064Z" fill="#F7B9A2"/>
<path d="M283.335 9.61816C197.838 23.4042 123.977 134.417 154.268 209.588C167.906 232.633 179.401 246.819 196.799 259.483C151.111 224.58 155.065 179.216 211.384 153.86C229.476 149.052 247.385 151.24 270.049 154.009C292.916 156.802 320.625 160.187 358.249 157.575C384.295 155.767 401.555 152.966 414.51 150.863C438.818 146.919 447.975 145.433 471.582 157.575C470.944 154.435 469.516 147.501 468.775 144.201C451.88 67.7126 423.738 32.9518 376.797 18.1081C373.172 12.279 366.413 9.61816 361.22 9.61816C354.105 9.86284 349.283 10.4696 345.866 11.354C344.518 11.1657 343.157 10.9866 341.783 10.8167C342.086 10.5797 342.39 10.3441 342.692 10.1095C346.506 7.14664 350.129 4.33254 350.836 0.795804C351.193 -0.993904 334.05 -0.350866 320.497 8.91944C319.252 8.84586 317.998 8.77741 316.735 8.71391C319.583 6.7359 322.826 5.03456 323.39 1.53827C323.982 -2.12923 295.212 3.54343 283.335 9.61816Z" fill="#BA6958"/>
<path d="M361.22 292.064C361.22 292.064 484.962 286.559 496.963 224.448C501.413 201.414 493.25 168.721 471.582 157.575C447.975 145.433 438.818 146.919 414.51 150.863C401.555 152.966 384.295 155.767 358.249 157.575C320.625 160.187 292.916 156.802 270.049 154.009C247.385 151.24 229.476 149.052 211.384 153.86C155.065 179.216 151.111 224.58 196.799 259.483C204.674 265.215 213.759 270.636 224.8 276.425C282.426 294.923 361.22 292.064 361.22 292.064Z" fill="#F7B9A2"/>
<path d="M283.335 9.61816C197.838 23.4042 123.977 134.417 154.268 209.588C167.906 232.633 179.401 246.819 196.799 259.483C151.111 224.58 155.065 179.216 211.384 153.86C229.476 149.052 247.385 151.24 270.049 154.009C292.916 156.802 320.625 160.187 358.249 157.575C384.295 155.767 401.555 152.966 414.51 150.863C438.818 146.919 447.975 145.433 471.582 157.575C470.944 154.435 469.516 147.501 468.775 144.201C451.88 67.7126 423.738 32.9518 376.797 18.1081C373.172 12.279 366.413 9.61816 361.22 9.61816C354.105 9.86284 349.283 10.4696 345.866 11.354C344.518 11.1657 343.157 10.9866 341.783 10.8167C342.086 10.5797 342.39 10.3441 342.692 10.1095C346.506 7.14664 350.129 4.33254 350.836 0.795804C351.193 -0.993904 334.05 -0.350866 320.497 8.91944C319.252 8.84586 317.998 8.77741 316.735 8.71391C319.583 6.7359 322.826 5.03456 323.39 1.53827C323.982 -2.12923 295.212 3.54343 283.335 9.61816Z" fill="#BA6958"/>
<path d="M329.644 188.644C332.622 173.651 373.581 160.908 373.581 160.908C373.581 160.908 411.56 176.65 413.794 188.644C416.337 202.292 408.965 214.455 395.177 214.88C386.593 215.144 376.559 206.634 376.559 206.634C376.559 206.634 363.124 216.833 352.729 216.379C337.067 215.694 326.963 202.136 329.644 188.644Z" fill="#F5F5F5"/>
<ellipse cx="291.915" cy="139.637" rx="15.7209" ry="20.6529" fill="#5B3236"/>
<ellipse cx="281.468" cy="130.616" rx="4.92576" ry="6.60915" transform="rotate(10.503 281.468 130.616)" fill="#D9D9D9"/>
<ellipse cx="427.854" cy="137.79" rx="15.4126" ry="20.6529" fill="#5B3236"/>
<ellipse cx="417.55" cy="129.131" rx="4.92576" ry="6.60915" transform="rotate(10.503 417.55 129.131)" fill="#D9D9D9"/>
<path d="M363.943 245.795C351.715 243.552 356.75 214.397 356.75 214.397L375.451 204.679V241.309C375.451 241.309 371.026 247.094 363.943 245.795Z" fill="#F5F5F5"/>
<path d="M383.867 246.601C396.664 246.601 392.774 212.914 392.774 212.914L374.218 204.679V242.11C374.218 242.11 376.445 246.601 383.867 246.601Z" fill="#EBEBEB"/>
<path fill-rule="evenodd" clip-rule="evenodd" d="M376.601 173.855C377.821 173.855 378.811 174.854 378.811 176.087V203.589C379.1 203.863 379.532 204.228 380.1 204.658C381.276 205.549 382.914 206.632 384.788 207.657C388.65 209.771 393.02 211.37 396.289 211.067C406.096 210.158 410.487 202.089 410.487 194.688C410.487 193.456 411.477 192.456 412.697 192.456C413.918 192.456 414.907 193.456 414.907 194.688C414.907 203.657 409.438 214.331 396.693 215.513C392.044 215.943 386.681 213.771 382.683 211.582C380.627 210.457 378.804 209.257 377.448 208.229C377.106 207.97 376.786 207.717 376.495 207.473C376.197 207.692 375.87 207.924 375.518 208.165C373.963 209.227 371.8 210.545 369.317 211.834C364.435 214.367 357.944 216.982 352.301 217.01C343.558 217.053 337.407 213.38 333.487 208.493C329.633 203.686 327.98 197.766 327.98 193.2C327.98 191.968 328.97 190.968 330.19 190.968C331.411 190.968 332.4 191.968 332.4 193.2C332.4 196.819 333.75 201.728 336.922 205.683C340.029 209.557 344.927 212.582 352.28 212.546C356.834 212.523 362.548 210.327 367.298 207.863C369.631 206.652 371.64 205.425 373.041 204.468C373.618 204.073 374.071 203.739 374.391 203.483V176.087C374.391 174.854 375.38 173.855 376.601 173.855ZM378.522 203.29C378.495 203.256 378.5 203.258 378.523 203.292C378.523 203.291 378.523 203.291 378.522 203.29Z" fill="#4A2932"/>
<ellipse cx="374.835" cy="166.765" rx="21.5777" ry="16.9539" fill="#4A2932"/>
<path fill-rule="evenodd" clip-rule="evenodd" d="M293.033 84.1705C291.336 84.3367 289.647 84.8754 287.513 85.9534C286.076 86.6791 284.23 86.2626 283.389 85.0231C282.548 83.7837 283.031 82.1906 284.467 81.465C287.051 80.1598 289.554 79.2767 292.354 79.0026C295.142 78.7296 297.973 79.0853 301.176 79.9191C302.77 80.3339 303.672 81.7848 303.191 83.1599C302.71 84.5349 301.029 85.3134 299.435 84.8986C296.709 84.1891 294.741 84.0033 293.033 84.1705Z" fill="#4A2932"/>
<path fill-rule="evenodd" clip-rule="evenodd" d="M422.587 83.0246C420.938 82.9201 419.22 83.1918 416.969 83.9351C415.454 84.4355 413.782 83.7207 413.233 82.3386C412.685 80.9564 413.468 79.4303 414.983 78.9299C417.708 78.0299 420.271 77.5419 422.991 77.7142C425.701 77.8859 428.323 78.6972 431.203 80.0493C432.636 80.7219 433.199 82.3267 432.462 83.6338C431.725 84.9408 429.966 85.4551 428.533 84.7824C426.083 83.6318 424.247 83.1298 422.587 83.0246Z" fill="#4A2932"/>
<path d="M257.039 165.223C266.132 165.158 275.577 172.553 275.577 179.149C275.577 185.745 265.956 192.605 257.039 192.341C247.995 192.074 238.532 186.597 239.241 177.683C239.909 169.291 248.522 165.284 257.039 165.223Z" fill="#F89A81"/>
<path d="M466.544 165.223C475.886 165.161 480.257 170.172 480.257 176.534C480.257 182.896 471.934 189.514 462.773 189.259C453.482 189.001 447.531 183.012 448.259 174.413C448.945 166.319 457.793 165.282 466.544 165.223Z" fill="#F89A81"/>
<path d="M327.889 395.744C344.196 376.681 325.256 345.355 269.552 286.688C257.736 281.495 236.321 286.688 218.599 308.203C203.595 336.973 209.147 349.093 222.291 369.778C278.726 402.5 305.788 414.041 327.889 395.744Z" fill="#AD5F52"/>
<path d="M438.957 319.187C438.957 303.4 335.21 303.4 335.21 319.187V431.956C335.21 448.872 438.957 448.872 438.957 431.956V319.187Z" fill="#D6D6D6"/>
<path fill-rule="evenodd" clip-rule="evenodd" d="M335.21 353.018V337.794C328.144 337.794 322.039 339.274 316.88 341.846L324.774 355.596C327.722 353.957 331.197 353.018 335.21 353.018ZM318.008 402.069C321.865 407.589 327.623 410.53 335.21 410.53V424.626C318.924 424.626 308.515 416.068 302.22 404.324L318.008 402.069Z" fill="#D6D6D6"/>
<path d="M389.339 307.349C417.682 307.349 438.957 308.476 438.957 318.626C438.957 328.775 394.236 327.434 389.339 327.647C384.441 327.86 335.099 327.708 335.21 318.626C335.32 309.543 360.995 307.349 389.339 307.349Z" fill="#F01212"/>
<path fill-rule="evenodd" clip-rule="evenodd" d="M385.776 412.339L385.744 412.306C385.731 411.955 385.716 411.612 385.699 411.278C385.717 411.632 385.733 411.996 385.746 412.37C385.756 412.359 385.766 412.349 385.776 412.339Z" fill="#FD5252"/>
<path d="M410.269 377.503C410.348 373.626 408.234 369.931 404.947 367.873C398.914 364.095 390.865 364.615 385.882 375.069C380.89 364.715 372.872 364.214 366.861 367.983C363.575 370.043 361.467 373.737 361.522 377.614C361.66 387.282 370.774 397.215 385.744 412.306L385.776 412.339C400.749 397.23 410.072 387.203 410.269 377.503Z" fill="#FD5252"/>
<path d="M356.642 354.864C356.193 354.864 355.968 354.742 355.968 354.5V348.415L353.457 354.579C353.382 354.769 353.145 354.864 352.744 354.864C352.343 354.864 352.101 354.771 352.017 354.586L349.176 348.256V354.606C349.176 354.778 349.002 354.864 348.654 354.864C348.306 354.864 348.132 354.778 348.132 354.606V345.95C348.132 345.703 348.389 345.58 348.905 345.58C349.288 345.58 349.521 345.672 349.605 345.857L352.916 353.258L355.942 345.857C356.021 345.672 356.252 345.58 356.636 345.58C357.085 345.58 357.31 345.703 357.31 345.95V354.5C357.31 354.742 357.087 354.864 356.642 354.864Z" fill="#1A1A1A"/>
<path d="M364.71 354.864C364.512 354.864 364.351 354.826 364.228 354.751C363.919 354.571 363.725 354.335 363.646 354.044C363.364 354.375 362.985 354.595 362.51 354.705C362.038 354.811 361.613 354.864 361.234 354.864C360.631 354.864 360.019 354.72 359.398 354.434C358.781 354.143 358.472 353.646 358.472 352.941C358.472 352.139 358.776 351.63 359.384 351.414C359.992 351.199 360.622 351.091 361.274 351.091C361.415 351.091 361.587 351.095 361.789 351.104C361.997 351.113 362.19 351.117 362.371 351.117C362.869 351.117 363.223 351.06 363.435 350.945V350.318C363.435 349.326 362.86 348.831 361.71 348.831C361.287 348.831 360.911 348.937 360.58 349.148C360.197 349.395 360.005 349.69 360.005 350.033C360.005 350.276 359.781 350.397 359.331 350.397C358.891 350.397 358.671 350.276 358.671 350.033C358.671 349.518 358.966 349.064 359.556 348.672C360.142 348.289 360.86 348.097 361.71 348.097C362.393 348.097 363.074 348.265 363.752 348.6C364.43 348.93 364.769 349.503 364.769 350.318V353.165C364.769 353.72 364.913 354.079 365.199 354.242C365.322 354.313 365.384 354.397 365.384 354.494C365.384 354.604 365.316 354.694 365.179 354.764C365.06 354.831 364.904 354.864 364.71 354.864ZM361.234 354.13C361.732 354.13 362.223 353.983 362.708 353.687C363.192 353.388 363.435 352.965 363.435 352.419V351.784C363.184 351.828 362.875 351.851 362.51 351.851C362.307 351.851 362.102 351.846 361.895 351.837C361.688 351.824 361.481 351.817 361.274 351.817C360.301 351.817 359.814 352.192 359.814 352.941C359.814 353.734 360.287 354.13 361.234 354.13Z" fill="#1A1A1A"/>
<path d="M375.877 354.864C375.432 354.864 375.209 354.74 375.209 354.494V351.058C375.209 350.56 375.097 350.069 374.872 349.584C374.648 349.095 374.231 348.851 373.624 348.851C373.02 348.851 372.608 349.097 372.388 349.591C372.168 350.08 372.058 350.566 372.058 351.051V354.494C372.058 354.74 371.833 354.864 371.384 354.864C370.939 354.864 370.716 354.74 370.716 354.494V351.058C370.716 350.56 370.604 350.069 370.379 349.584C370.155 349.095 369.736 348.851 369.124 348.851C368.6 348.851 368.199 349.078 367.921 349.531C367.675 349.937 367.551 350.443 367.551 351.051V354.494C367.551 354.74 367.329 354.864 366.884 354.864C366.435 354.864 366.21 354.74 366.21 354.494V348.467C366.21 348.221 366.435 348.097 366.884 348.097C367.329 348.097 367.551 348.221 367.551 348.467V348.871C367.983 348.355 368.558 348.097 369.276 348.097C370.135 348.097 370.837 348.421 371.384 349.069C371.921 348.421 372.67 348.097 373.63 348.097C375.577 348.097 376.551 349.084 376.551 351.058V354.494C376.551 354.74 376.326 354.864 375.877 354.864Z" fill="#1A1A1A"/>
<path d="M381.103 346.617C380.976 346.617 380.857 346.551 380.747 346.419C380.65 346.309 380.601 346.197 380.601 346.082C380.601 345.976 380.645 345.882 380.733 345.798L382.868 343.809C382.956 343.725 383.055 343.684 383.165 343.684C383.367 343.684 383.546 343.787 383.7 343.994C383.815 344.144 383.872 344.294 383.872 344.443C383.872 344.593 383.812 344.712 383.693 344.8L381.341 346.531C381.266 346.589 381.187 346.617 381.103 346.617ZM383.951 354.864C383.753 354.864 383.592 354.826 383.469 354.751C383.16 354.571 382.967 354.335 382.887 354.044C382.605 354.375 382.227 354.595 381.751 354.705C381.28 354.811 380.854 354.864 380.476 354.864C379.872 354.864 379.26 354.72 378.639 354.434C378.022 354.143 377.714 353.646 377.714 352.941C377.714 352.139 378.018 351.63 378.625 351.414C379.233 351.199 379.863 351.091 380.515 351.091C380.656 351.091 380.828 351.095 381.031 351.104C381.238 351.113 381.431 351.117 381.612 351.117C382.11 351.117 382.464 351.06 382.676 350.945V350.318C382.676 349.326 382.101 348.831 380.951 348.831C380.528 348.831 380.152 348.937 379.821 349.148C379.438 349.395 379.247 349.69 379.247 350.033C379.247 350.276 379.022 350.397 378.573 350.397C378.132 350.397 377.912 350.276 377.912 350.033C377.912 349.518 378.207 349.064 378.797 348.672C379.383 348.289 380.101 348.097 380.951 348.097C381.634 348.097 382.315 348.265 382.993 348.6C383.671 348.93 384.011 349.503 384.011 350.318V353.165C384.011 353.72 384.154 354.079 384.44 354.242C384.563 354.313 384.625 354.397 384.625 354.494C384.625 354.604 384.557 354.694 384.42 354.764C384.301 354.831 384.145 354.864 383.951 354.864ZM380.476 354.13C380.973 354.13 381.465 353.983 381.949 353.687C382.434 353.388 382.676 352.965 382.676 352.419V351.784C382.425 351.828 382.116 351.851 381.751 351.851C381.548 351.851 381.343 351.846 381.136 351.837C380.929 351.824 380.722 351.817 380.515 351.817C379.542 351.817 379.055 352.192 379.055 352.941C379.055 353.734 379.529 354.13 380.476 354.13Z" fill="#1A1A1A"/>
<path d="M395.098 354.487C395.098 355.482 394.774 356.207 394.127 356.661C393.484 357.119 392.704 357.348 391.788 357.348C391.259 357.348 390.706 357.258 390.129 357.077C389.557 356.896 389.114 356.582 388.801 356.132C388.77 356.088 388.755 356.044 388.755 356C388.755 355.758 388.977 355.637 389.422 355.637C389.735 355.637 389.944 355.714 390.05 355.868C390.389 356.361 390.964 356.608 391.774 356.608C393.096 356.608 393.757 355.877 393.757 354.414V354.057C393.325 354.573 392.715 354.831 391.926 354.831C389.812 354.831 388.755 353.839 388.755 351.857V348.434C388.755 348.188 388.98 348.064 389.429 348.064C389.874 348.064 390.096 348.188 390.096 348.434V351.857C390.096 352.39 390.248 352.897 390.552 353.377C390.856 353.857 391.314 354.097 391.926 354.097C392.517 354.097 392.968 353.857 393.281 353.377C393.598 352.897 393.757 352.397 393.757 351.877V348.434C393.757 348.188 393.979 348.064 394.424 348.064C394.873 348.064 395.098 348.188 395.098 348.434V354.487Z" fill="#1A1A1A"/>
<path d="M400.397 354.864C399.948 354.864 399.723 354.74 399.723 354.494V346.109C399.723 345.862 399.948 345.739 400.397 345.739H404.553C405.267 345.739 405.919 345.959 406.509 346.399C407.104 346.84 407.401 347.437 407.401 348.19C407.401 348.943 407.104 349.542 406.509 349.987C405.919 350.428 405.267 350.648 404.553 350.648H401.065V354.494C401.065 354.74 400.842 354.864 400.397 354.864ZM404.553 349.908C404.99 349.908 405.349 349.723 405.631 349.353C405.917 348.978 406.06 348.591 406.06 348.19C406.06 347.789 405.917 347.404 405.631 347.034C405.349 346.664 404.99 346.479 404.553 346.479H401.065V349.908H404.553Z" fill="#1A1A1A"/>
<path d="M414.465 354.864C414.267 354.864 414.106 354.826 413.982 354.751C413.674 354.571 413.48 354.335 413.401 354.044C413.119 354.375 412.74 354.595 412.264 354.705C411.793 354.811 411.368 354.864 410.989 354.864C410.386 354.864 409.773 354.72 409.152 354.434C408.536 354.143 408.227 353.646 408.227 352.941C408.227 352.139 408.531 351.63 409.139 351.414C409.747 351.199 410.377 351.091 411.029 351.091C411.17 351.091 411.342 351.095 411.544 351.104C411.751 351.113 411.945 351.117 412.126 351.117C412.623 351.117 412.978 351.06 413.19 350.945V350.318C413.19 349.326 412.615 348.831 411.465 348.831C411.042 348.831 410.665 348.937 410.335 349.148C409.952 349.395 409.76 349.69 409.76 350.033C409.76 350.276 409.536 350.397 409.086 350.397C408.646 350.397 408.426 350.276 408.426 350.033C408.426 349.518 408.721 349.064 409.311 348.672C409.897 348.289 410.615 348.097 411.465 348.097C412.148 348.097 412.828 348.265 413.507 348.6C414.185 348.93 414.524 349.503 414.524 350.318V353.165C414.524 353.72 414.667 354.079 414.954 354.242C415.077 354.313 415.139 354.397 415.139 354.494C415.139 354.604 415.07 354.694 414.934 354.764C414.815 354.831 414.659 354.864 414.465 354.864ZM410.989 354.13C411.487 354.13 411.978 353.983 412.463 353.687C412.947 353.388 413.19 352.965 413.19 352.419V351.784C412.938 351.828 412.63 351.851 412.264 351.851C412.062 351.851 411.857 351.846 411.65 351.837C411.443 351.824 411.236 351.817 411.029 351.817C410.055 351.817 409.569 352.192 409.569 352.941C409.569 353.734 410.042 354.13 410.989 354.13Z" fill="#1A1A1A"/>
<path d="M416.639 357.374C416.189 357.374 415.965 357.251 415.965 357.004V348.461C415.965 348.214 416.189 348.091 416.639 348.091C417.084 348.091 417.306 348.214 417.306 348.461V348.864C417.813 348.353 418.493 348.097 419.348 348.097C421.603 348.097 422.731 349.225 422.731 351.48C422.731 353.736 421.603 354.864 419.348 354.864C418.498 354.864 417.817 354.608 417.306 354.097V357.004C417.306 357.251 417.084 357.374 416.639 357.374ZM419.348 354.124C420.044 354.124 420.557 353.831 420.887 353.245C421.222 352.659 421.39 352.071 421.39 351.48C421.39 350.89 421.222 350.302 420.887 349.716C420.557 349.13 420.044 348.837 419.348 348.837C418.656 348.837 418.143 349.13 417.808 349.716C417.473 350.302 417.306 350.89 417.306 351.48C417.306 352.071 417.473 352.659 417.808 353.245C418.143 353.831 418.656 354.124 419.348 354.124Z" fill="#1A1A1A"/>
<path d="M426.946 346.617C426.819 346.617 426.7 346.551 426.59 346.419C426.493 346.309 426.444 346.197 426.444 346.082C426.444 345.976 426.488 345.882 426.576 345.798L428.711 343.809C428.799 343.725 428.898 343.684 429.008 343.684C429.211 343.684 429.389 343.787 429.543 343.994C429.658 344.144 429.715 344.294 429.715 344.443C429.715 344.593 429.656 344.712 429.537 344.8L427.184 346.531C427.109 346.589 427.03 346.617 426.946 346.617ZM429.794 354.864C429.596 354.864 429.435 354.826 429.312 354.751C429.004 354.571 428.81 354.335 428.73 354.044C428.449 354.375 428.07 354.595 427.594 354.705C427.123 354.811 426.698 354.864 426.319 354.864C425.715 354.864 425.103 354.72 424.482 354.434C423.865 354.143 423.557 353.646 423.557 352.941C423.557 352.139 423.861 351.63 424.469 351.414C425.077 351.199 425.706 351.091 426.358 351.091C426.499 351.091 426.671 351.095 426.874 351.104C427.081 351.113 427.275 351.117 427.455 351.117C427.953 351.117 428.308 351.06 428.519 350.945V350.318C428.519 349.326 427.944 348.831 426.794 348.831C426.372 348.831 425.995 348.937 425.665 349.148C425.281 349.395 425.09 349.69 425.09 350.033C425.09 350.276 424.865 350.397 424.416 350.397C423.975 350.397 423.755 350.276 423.755 350.033C423.755 349.518 424.05 349.064 424.64 348.672C425.226 348.289 425.944 348.097 426.794 348.097C427.477 348.097 428.158 348.265 428.836 348.6C429.515 348.93 429.854 349.503 429.854 350.318V353.165C429.854 353.72 429.997 354.079 430.283 354.242C430.407 354.313 430.468 354.397 430.468 354.494C430.468 354.604 430.4 354.694 430.263 354.764C430.144 354.831 429.988 354.864 429.794 354.864ZM426.319 354.13C426.817 354.13 427.308 353.983 427.792 353.687C428.277 353.388 428.519 352.965 428.519 352.419V351.784C428.268 351.828 427.96 351.851 427.594 351.851C427.391 351.851 427.187 351.846 426.979 351.837C426.772 351.824 426.565 351.817 426.358 351.817C425.385 351.817 424.898 352.192 424.898 352.941C424.898 353.734 425.372 354.13 426.319 354.13Z" fill="#1A1A1A"/>
<path d="M380.432 429.29C379.987 429.29 379.764 429.167 379.764 428.92V425.015H374.61V428.92C374.61 429.167 374.388 429.29 373.943 429.29C373.494 429.29 373.269 429.167 373.269 428.92V420.377C373.269 420.13 373.494 420.007 373.943 420.007C374.388 420.007 374.61 420.13 374.61 420.377V424.282H379.764V420.377C379.764 420.13 379.987 420.007 380.432 420.007C380.881 420.007 381.106 420.13 381.106 420.377V428.92C381.106 429.167 380.881 429.29 380.432 429.29Z" fill="#1A1A1A"/>
<path d="M382.942 421.943C382.489 421.943 382.262 421.718 382.262 421.269C382.262 420.815 382.489 420.588 382.942 420.588C383.392 420.588 383.616 420.815 383.616 421.269C383.616 421.718 383.392 421.943 382.942 421.943ZM382.942 429.29C382.493 429.29 382.268 429.167 382.268 428.92V422.894C382.268 422.647 382.493 422.524 382.942 422.524C383.387 422.524 383.61 422.647 383.61 422.894V428.92C383.61 429.167 383.387 429.29 382.942 429.29Z" fill="#1A1A1A"/>
<path d="M387.224 421.936C386.74 421.936 386.497 421.714 386.497 421.269C386.497 420.824 386.74 420.601 387.224 420.601C387.709 420.601 387.951 420.824 387.951 421.269C387.951 421.714 387.709 421.936 387.224 421.936ZM385.678 431.821C385.409 431.821 385.13 431.797 384.839 431.748C384.469 431.678 384.284 431.559 384.284 431.391C384.284 431.14 384.511 431.015 384.964 431.015C385.083 431.015 385.2 431.026 385.315 431.048C385.429 431.07 385.548 431.081 385.671 431.081C386.262 431.081 386.557 430.72 386.557 429.997V422.907C386.557 422.661 386.779 422.537 387.224 422.537C387.673 422.537 387.898 422.661 387.898 422.907V429.997C387.898 431.204 387.158 431.812 385.678 431.821Z" fill="#1A1A1A"/>
<path d="M392.543 429.29C391.512 429.29 390.653 428.984 389.966 428.372C389.283 427.759 388.942 426.938 388.942 425.907C388.942 424.876 389.283 424.055 389.966 423.443C390.653 422.83 391.512 422.524 392.543 422.524C393.574 422.524 394.431 422.83 395.114 423.443C395.801 424.055 396.144 424.876 396.144 425.907C396.144 426.938 395.801 427.759 395.114 428.372C394.431 428.984 393.574 429.29 392.543 429.29ZM392.543 428.557C393.279 428.557 393.838 428.279 394.222 427.724C394.609 427.165 394.803 426.559 394.803 425.907C394.803 425.251 394.609 424.645 394.222 424.09C393.838 423.535 393.279 423.258 392.543 423.258C391.812 423.258 391.253 423.535 390.865 424.09C390.477 424.645 390.283 425.251 390.283 425.907C390.283 426.559 390.477 427.165 390.865 427.724C391.253 428.279 391.812 428.557 392.543 428.557Z" fill="#1A1A1A"/>
<path d="M414.803 275.766C416.848 264.924 401.395 250.957 401.395 250.957C401.395 250.957 407.221 264.633 405.864 273.51C404.494 282.472 394.691 293.809 394.691 293.809C394.691 293.809 412.836 286.184 414.803 275.766Z" fill="#E1F3FF" stroke="#E1F3FF" stroke-linejoin="round"/>
<path d="M365.371 293.81C365.371 300.576 372.084 307.342 383.273 311.853C381.035 302.832 374.792 304.297 381.035 293.81C387.279 283.323 394.462 278.023 396.699 269.001C398.937 259.98 385.511 246.447 374.322 246.447C376.56 250.958 381.035 255.469 381.035 264.49C381.035 273.512 365.371 287.044 365.371 293.81Z" fill="#BEE6FF"/>
</svg>
