<svg width="28" height="30" viewBox="0 0 28 30" fill="none" xmlns="http://www.w3.org/2000/svg">
<path d="M23.2208 6.44609C24.7622 6.44609 25.3186 6.60381 25.8819 6.90554C26.4487 7.20727 26.8842 7.6393 27.1883 8.20161C27.4924 8.7605 27.6514 9.31253 27.6514 10.8418V19.1942C27.6514 20.7235 27.4924 21.2755 27.1883 21.8344C26.8952 22.3877 26.4396 22.8397 25.8819 23.1305C25.322 23.4322 24.7622 23.5899 23.2208 23.5899H4.43381C2.89242 23.5899 2.336 23.4322 1.77267 23.1305C1.21495 22.8397 0.759391 22.3877 0.466291 21.8344C0.162161 21.2789 0.00318354 20.7235 0.00318354 19.1942V10.8418C0.00318354 9.31253 0.162161 8.7605 0.466291 8.20161C0.759391 7.6483 1.21495 7.19633 1.77267 6.90554C2.336 6.60381 2.89242 6.44609 4.43381 6.44609H23.2208ZM23.8912 9.88171H3.76334L3.48686 9.89885L3.46612 10.1732V19.8594L3.4834 20.1337L3.75989 20.1543H23.8912L24.1677 20.1372L24.1885 19.8629V10.1766L24.1712 9.90228L23.8912 9.88171ZM25.9234 2.90824e-06C26.3552 -0.000785754 26.7717 0.158854 27.0908 0.447486C27.4099 0.736117 27.6085 1.13282 27.6475 1.55948C27.6865 1.98614 27.5631 2.41183 27.3016 2.75273C27.04 3.09362 26.6593 3.32502 26.2344 3.40134L25.9234 3.42877H1.7312C1.29938 3.42956 0.882914 3.26992 0.563809 2.98129C0.244704 2.69266 0.0460886 2.29595 0.00707189 1.86929C-0.0319448 1.44263 0.0914647 1.01694 0.353001 0.676047C0.614538 0.335152 0.995246 0.103758 1.42015 0.0274325L1.7312 2.90824e-06H25.9234Z" fill="black"/>
<path d="M27.4362 27.0187C27.1171 26.7301 26.7006 26.5704 26.2688 26.5712H2.07661L1.76556 26.5987C1.34065 26.675 0.959946 26.9064 0.698409 27.2473C0.436872 27.5882 0.313463 28.0139 0.35248 28.4405C0.391496 28.8672 0.590112 29.2639 0.909217 29.5525C1.22832 29.8411 1.64479 30.0008 2.07661 30H26.2688L26.5798 29.9726C27.0048 29.8962 27.3855 29.6648 27.647 29.324C27.9085 28.9831 28.0319 28.5574 27.9929 28.1307C27.9539 27.704 27.7553 27.3073 27.4362 27.0187Z" fill="black"/>
</svg>
