<svg width="1049" height="141" viewBox="0 0 1049 141" fill="none" xmlns="http://www.w3.org/2000/svg">
<path d="M3.33516 47C2.46849 47 1.70182 46.7 1.03516 46.1C0.36849 45.5 0.0351564 44.7 0.0351564 43.7C0.0351564 43.3667 0.101823 42.9333 0.235156 42.4L12.7352 8.5C13.2018 7.36666 13.9018 6.5 14.8352 5.9C15.7685 5.3 16.7685 5 17.8352 5C18.9018 5 19.9018 5.3 20.8352 5.9C21.8352 6.5 22.5685 7.36666 23.0352 8.5L36.3352 42.4C36.4685 42.9333 36.5352 43.3667 36.5352 43.7C36.5352 44.7 36.2018 45.5 35.5352 46.1C34.8685 46.7 34.1018 47 33.2352 47C32.6352 47 32.0018 46.8333 31.3352 46.5C30.7352 46.2333 30.2685 45.7667 29.9352 45.1L26.6352 36.3C26.5685 35.9 26.3018 35.7 25.8352 35.7H10.5352C10.0685 35.7 9.76849 35.9 9.63516 36.3L6.63516 45.1C6.30182 45.7667 5.80182 46.2333 5.13516 46.5C4.53516 46.8333 3.93516 47 3.33516 47ZM13.5352 29.7H22.5352C22.9352 29.7 23.2352 29.5667 23.4352 29.3C23.7018 28.9667 23.7685 28.5667 23.6352 28.1L18.8352 14.4C18.6352 13.7333 18.3352 13.4 17.9352 13.4C17.4685 13.4 17.1352 13.7333 16.9352 14.4L12.4352 28.2C12.3018 28.6 12.3352 28.9667 12.5352 29.3C12.8018 29.5667 13.1352 29.7 13.5352 29.7ZM38.5859 19.9C38.5859 18.8333 38.9526 18 39.6859 17.4C40.4193 16.8 41.2193 16.5 42.0859 16.5C43.4859 16.5 44.4859 17.2 45.0859 18.6L52.8859 37.7C53.0859 38.2333 53.4526 38.5 53.9859 38.5C54.5193 38.5 54.8859 38.2667 55.0859 37.8L61.7859 18.7C62.3193 17.2333 63.3526 16.5 64.8859 16.5C65.8193 16.5 66.6526 16.8 67.3859 17.4C68.1859 18 68.5859 18.7333 68.5859 19.6C68.5859 19.9333 68.4859 20.4 68.2859 21L52.9859 58.3C52.4526 59.7667 51.4193 60.5 49.8859 60.5C49.0193 60.5 48.1859 60.2 47.3859 59.6C46.6526 59 46.2859 58.2667 46.2859 57.4C46.2859 56.7333 46.3859 56.2667 46.5859 56L51.4859 46C50.0859 45.8667 49.1193 45.2 48.5859 44L38.7859 21.1C38.6526 20.5667 38.5859 20.1667 38.5859 19.9ZM94.3172 19.8C94.3172 18.8667 94.6172 18.1 95.2172 17.5C95.8839 16.8333 96.7172 16.5 97.7172 16.5C98.6505 16.5 99.4505 16.8333 100.117 17.5C100.784 18.1 101.117 18.8667 101.117 19.8V33.9C101.117 36.9 100.451 39.3667 99.1172 41.3C97.7839 43.2333 96.0505 44.6667 93.9172 45.6C91.7839 46.5333 89.5172 47 87.1172 47C84.7172 47 82.4505 46.5333 80.3172 45.6C78.1839 44.6667 76.4505 43.2333 75.1172 41.3C73.7839 39.3667 73.1172 36.9 73.1172 33.9V19.8C73.1172 18.8667 73.4172 18.1 74.0172 17.5C74.6839 16.8333 75.5172 16.5 76.5172 16.5C77.4505 16.5 78.2505 16.8333 78.9172 17.5C79.5839 18.1 79.9172 18.8667 79.9172 19.8V33.9C79.9172 36.3667 80.6505 38.1333 82.1172 39.2C83.5839 40.2667 85.2505 40.8 87.1172 40.8C89.0505 40.8 90.7172 40.2667 92.1172 39.2C93.5839 38.1333 94.3172 36.3667 94.3172 33.9V19.8ZM121.478 47C118.611 47 116.045 46.3333 113.778 45C111.511 43.6667 109.745 41.8333 108.478 39.5C107.211 37.1 106.578 34.4333 106.578 31.5C106.578 28.6333 107.211 26.0667 108.478 23.8C109.745 21.5333 111.511 19.7667 113.778 18.5C116.045 17.1667 118.611 16.5 121.478 16.5C123.345 16.5 125.011 16.8 126.478 17.4C127.945 18 129.211 18.8333 130.278 19.9V5.9C130.278 4.76667 130.611 3.93333 131.278 3.4C132.011 2.8 132.811 2.5 133.678 2.5C134.545 2.5 135.311 2.8 135.978 3.4C136.711 3.93333 137.078 4.76667 137.078 5.9V43.9C137.078 44.9 136.711 45.6667 135.978 46.2C135.311 46.7333 134.545 47 133.678 47C132.811 47 132.011 46.7333 131.278 46.2C130.611 45.6667 130.278 44.9 130.278 43.9V43.5C129.211 44.5667 127.945 45.4 126.478 46C125.011 46.6667 123.345 47 121.478 47ZM122.078 40.8C124.611 40.8 126.611 39.9667 128.078 38.3C129.545 36.5667 130.278 34.3 130.278 31.5C130.278 28.8333 129.545 26.7 128.078 25.1C126.611 23.5 124.611 22.7 122.078 22.7C119.478 22.7 117.378 23.5 115.778 25.1C114.178 26.7 113.378 28.8333 113.378 31.5C113.378 34.3 114.178 36.5667 115.778 38.3C117.378 39.9667 119.478 40.8 122.078 40.8ZM157.513 47C154.647 47 152.08 46.3333 149.813 45C147.547 43.6667 145.78 41.8333 144.513 39.5C143.247 37.1 142.613 34.4333 142.613 31.5C142.613 28.6333 143.247 26.0667 144.513 23.8C145.78 21.5333 147.547 19.7667 149.813 18.5C152.08 17.1667 154.647 16.5 157.513 16.5C159.38 16.5 161.047 16.8333 162.513 17.5C163.98 18.1 165.247 18.9 166.313 19.9C166.447 18.9667 166.847 18.2667 167.513 17.8C168.18 17.2667 168.913 17 169.713 17C170.58 17 171.347 17.3 172.013 17.9C172.747 18.4333 173.113 19.2667 173.113 20.4V43.9C173.113 44.9 172.747 45.6667 172.013 46.2C171.347 46.7333 170.58 47 169.713 47C168.847 47 168.047 46.7333 167.313 46.2C166.647 45.6667 166.313 44.9 166.313 43.9V43.5C165.247 44.5667 163.98 45.4 162.513 46C161.047 46.6667 159.38 47 157.513 47ZM158.113 40.8C160.647 40.8 162.647 39.9667 164.113 38.3C165.58 36.5667 166.313 34.3 166.313 31.5C166.313 28.8333 165.58 26.7 164.113 25.1C162.647 23.5 160.647 22.7 158.113 22.7C155.513 22.7 153.413 23.5 151.813 25.1C150.213 26.7 149.413 28.8333 149.413 31.5C149.413 34.3 150.213 36.5667 151.813 38.3C153.413 39.9667 155.513 40.8 158.113 40.8ZM213.568 47C210.701 47 208.135 46.3333 205.868 45C203.601 43.6667 201.835 41.8333 200.568 39.5C199.301 37.1 198.668 34.4333 198.668 31.5C198.668 28.6333 199.301 26.0667 200.568 23.8C201.835 21.5333 203.601 19.7667 205.868 18.5C208.135 17.1667 210.701 16.5 213.568 16.5C215.435 16.5 217.101 16.8333 218.568 17.5C220.035 18.1 221.301 18.9 222.368 19.9C222.501 18.9667 222.901 18.2667 223.568 17.8C224.235 17.2667 224.968 17 225.768 17C226.635 17 227.401 17.3 228.068 17.9C228.801 18.4333 229.168 19.2667 229.168 20.4V43.9C229.168 44.9 228.801 45.6667 228.068 46.2C227.401 46.7333 226.635 47 225.768 47C224.901 47 224.101 46.7333 223.368 46.2C222.701 45.6667 222.368 44.9 222.368 43.9V43.5C221.301 44.5667 220.035 45.4 218.568 46C217.101 46.6667 215.435 47 213.568 47ZM214.168 40.8C216.701 40.8 218.701 39.9667 220.168 38.3C221.635 36.5667 222.368 34.3 222.368 31.5C222.368 28.8333 221.635 26.7 220.168 25.1C218.701 23.5 216.701 22.7 214.168 22.7C211.568 22.7 209.468 23.5 207.868 25.1C206.268 26.7 205.468 28.8333 205.468 31.5C205.468 34.3 206.268 36.5667 207.868 38.3C209.468 39.9667 211.568 40.8 214.168 40.8ZM268.023 47C265.423 47 263.289 46.2 261.623 44.6C259.956 43 259.123 40.6 259.123 37.4V24.7C259.123 24.0333 258.789 23.7 258.123 23.7H256.323C255.456 23.7 254.723 23.4333 254.123 22.9C253.523 22.3 253.223 21.5667 253.223 20.7C253.223 19.7667 253.523 19 254.123 18.4C254.723 17.8 255.456 17.5 256.323 17.5H258.123C258.789 17.5 259.123 17.1667 259.123 16.5V8.1C259.123 7.16667 259.423 6.43333 260.023 5.9C260.689 5.3 261.489 5 262.423 5C263.423 5 264.223 5.3 264.823 5.9C265.489 6.43333 265.823 7.16667 265.823 8.1V16.5C265.823 17.1667 266.156 17.5 266.823 17.5H272.223C273.023 17.5 273.723 17.8 274.323 18.4C274.923 19 275.223 19.7667 275.223 20.7C275.223 21.5667 274.923 22.3 274.323 22.9C273.789 23.4333 273.056 23.7 272.123 23.7H266.823C266.156 23.7 265.823 24.0333 265.823 24.7V36.5C265.823 39.3 266.956 40.7 269.223 40.7C269.889 40.7 270.589 40.6 271.323 40.4C272.056 40.2 272.556 40.1 272.823 40.1C273.756 40.1 274.456 40.4 274.923 41C275.456 41.6 275.723 42.3 275.723 43.1C275.723 43.7 275.556 44.3 275.223 44.9C274.889 45.4333 274.356 45.8333 273.623 46.1C272.889 46.3667 271.956 46.5667 270.823 46.7C269.756 46.9 268.823 47 268.023 47ZM301.446 19.8C301.446 18.8667 301.746 18.1 302.346 17.5C303.013 16.8333 303.846 16.5 304.846 16.5C305.779 16.5 306.579 16.8333 307.246 17.5C307.913 18.1 308.246 18.8667 308.246 19.8V33.9C308.246 36.9 307.579 39.3667 306.246 41.3C304.913 43.2333 303.179 44.6667 301.046 45.6C298.913 46.5333 296.646 47 294.246 47C291.846 47 289.579 46.5333 287.446 45.6C285.313 44.6667 283.579 43.2333 282.246 41.3C280.913 39.3667 280.246 36.9 280.246 33.9V19.8C280.246 18.8667 280.546 18.1 281.146 17.5C281.813 16.8333 282.646 16.5 283.646 16.5C284.579 16.5 285.379 16.8333 286.046 17.5C286.713 18.1 287.046 18.8667 287.046 19.8V33.9C287.046 36.3667 287.779 38.1333 289.246 39.2C290.713 40.2667 292.379 40.8 294.246 40.8C296.179 40.8 297.846 40.2667 299.246 39.2C300.713 38.1333 301.446 36.3667 301.446 33.9V19.8ZM339.127 47C338.26 47 337.46 46.7333 336.727 46.2C336.06 45.6667 335.727 44.9 335.727 43.9V5.9C335.727 4.76667 336.06 3.93333 336.727 3.4C337.46 2.8 338.26 2.5 339.127 2.5C339.993 2.5 340.76 2.8 341.427 3.4C342.16 3.93333 342.527 4.76667 342.527 5.9V20.2C343.593 19.0667 344.993 18.1667 346.727 17.5C348.527 16.8333 350.193 16.5 351.727 16.5C355.193 16.5 358.127 17.7 360.527 20.1C362.993 22.5 364.227 26.0333 364.227 30.7V43.9C364.227 44.9 363.86 45.6667 363.127 46.2C362.393 46.7333 361.627 47 360.827 47C359.96 47 359.16 46.7333 358.427 46.2C357.76 45.6667 357.427 44.9 357.427 43.9V31.3C357.427 28.3667 356.76 26.2 355.427 24.8C354.16 23.4 352.46 22.7 350.327 22.7C347.46 22.7 345.427 23.6 344.227 25.4C343.093 27.1333 342.527 29.0667 342.527 31.2V43.9C342.527 44.9 342.16 45.6667 341.427 46.2C340.76 46.7333 339.993 47 339.127 47ZM375.262 47C374.395 47 373.595 46.7333 372.862 46.2C372.195 45.6667 371.862 44.9 371.862 43.9V19.9C371.862 18.7667 372.195 17.9333 372.862 17.4C373.595 16.8 374.395 16.5 375.262 16.5C376.128 16.5 376.895 16.8 377.562 17.4C378.295 17.9333 378.662 18.7667 378.662 19.9V43.9C378.662 44.9 378.295 45.6667 377.562 46.2C376.895 46.7333 376.128 47 375.262 47ZM375.362 11C374.095 11 372.995 10.6 372.062 9.8C371.195 8.93333 370.762 7.9 370.762 6.7C370.762 5.56666 371.195 4.6 372.062 3.8C372.995 2.93333 374.095 2.5 375.362 2.5C376.562 2.5 377.595 2.93333 378.462 3.8C379.328 4.6 379.762 5.56666 379.762 6.7C379.762 7.9 379.328 8.93333 378.462 9.8C377.595 10.6 376.562 11 375.362 11ZM384.501 60.5C383.167 60.5 382.001 60.3333 381.001 60C379.534 59.4667 378.801 58.4667 378.801 57C378.801 55.8 379.234 54.9333 380.101 54.4C380.901 53.8667 381.667 53.7333 382.401 54C382.734 54.0667 383.034 54.1 383.301 54.1C383.567 54.1667 383.834 54.2 384.101 54.2C385.234 54.2 386.134 53.8333 386.801 53.1C387.467 52.3667 387.801 51.1667 387.801 49.5V19.6C387.801 18.6 388.167 17.8333 388.901 17.3C389.634 16.7667 390.367 16.5 391.101 16.5C391.967 16.5 392.734 16.8 393.401 17.4C394.134 17.9333 394.501 18.6667 394.501 19.6V49.7C394.501 53.1667 393.501 55.8333 391.501 57.7C389.567 59.5667 387.234 60.5 384.501 60.5ZM391.401 11C390.134 11 389.034 10.6 388.101 9.8C387.234 8.93333 386.801 7.9 386.801 6.7C386.801 5.56666 387.234 4.6 388.101 3.8C389.034 2.93333 390.134 2.5 391.401 2.5C392.601 2.5 393.634 2.93333 394.501 3.8C395.367 4.6 395.801 5.56666 395.801 6.7C395.801 7.9 395.367 8.93333 394.501 9.8C393.634 10.6 392.601 11 391.401 11ZM416.316 47C413.383 47 410.716 46.3333 408.316 45C405.983 43.6667 404.15 41.8333 402.816 39.5C401.483 37.1 400.816 34.4333 400.816 31.5C400.816 28.6333 401.483 26.0667 402.816 23.8C404.15 21.5333 405.983 19.7667 408.316 18.5C410.716 17.1667 413.383 16.5 416.316 16.5C419.25 16.5 421.883 17.1667 424.216 18.5C426.55 19.7667 428.383 21.5333 429.716 23.8C431.116 26.0667 431.816 28.6333 431.816 31.5C431.816 34.4333 431.116 37.1 429.716 39.5C428.383 41.8333 426.55 43.6667 424.216 45C421.883 46.3333 419.25 47 416.316 47ZM416.316 40.8C418.916 40.8 421.016 39.9667 422.616 38.3C424.216 36.5667 425.016 34.3 425.016 31.5C425.016 28.8333 424.216 26.7 422.616 25.1C421.016 23.5 418.916 22.7 416.316 22.7C413.65 22.7 411.516 23.5 409.916 25.1C408.383 26.7 407.616 28.8333 407.616 31.5C407.616 34.3 408.383 36.5667 409.916 38.3C411.516 39.9667 413.65 40.8 416.316 40.8ZM453.777 57C452.911 57 452.177 56.5667 451.577 55.7C449.311 52.6333 447.344 48.8333 445.677 44.3C444.077 39.7667 443.277 34.5 443.277 28.5C443.277 24.4333 443.744 20.6667 444.677 17.2C445.677 13.6667 446.911 10.5333 448.377 7.8C449.911 5 451.511 2.7 453.177 0.899997C453.911 0.299998 454.611 -8.34465e-07 455.277 -8.34465e-07C456.011 -8.34465e-07 456.611 0.233332 457.077 0.699999C457.544 1.16667 457.777 1.76666 457.777 2.5C457.777 3.1 457.611 3.66666 457.277 4.2C454.477 6.86666 452.311 10.4 450.777 14.8C449.244 19.2 448.477 23.7667 448.477 28.5C448.477 33.7667 449.277 38.5333 450.877 42.8C452.477 47 454.211 50.3667 456.077 52.9C456.344 53.3667 456.477 53.8667 456.477 54.4C456.477 55.0667 456.211 55.6667 455.677 56.2C455.144 56.7333 454.511 57 453.777 57ZM480.658 47C477.791 47 475.224 46.3333 472.958 45C470.691 43.6667 468.924 41.8333 467.658 39.5C466.391 37.1 465.758 34.4333 465.758 31.5C465.758 28.6333 466.391 26.0667 467.658 23.8C468.924 21.5333 470.691 19.7667 472.958 18.5C475.224 17.1667 477.791 16.5 480.658 16.5C482.524 16.5 484.191 16.8333 485.658 17.5C487.124 18.1 488.391 18.9 489.458 19.9C489.591 18.9667 489.991 18.2667 490.658 17.8C491.324 17.2667 492.058 17 492.858 17C493.724 17 494.491 17.3 495.158 17.9C495.891 18.4333 496.258 19.2667 496.258 20.4V43.9C496.258 44.9 495.891 45.6667 495.158 46.2C494.491 46.7333 493.724 47 492.858 47C491.991 47 491.191 46.7333 490.458 46.2C489.791 45.6667 489.458 44.9 489.458 43.9V43.5C488.391 44.5667 487.124 45.4 485.658 46C484.191 46.6667 482.524 47 480.658 47ZM481.258 40.8C483.791 40.8 485.791 39.9667 487.258 38.3C488.724 36.5667 489.458 34.3 489.458 31.5C489.458 28.8333 488.724 26.7 487.258 25.1C485.791 23.5 483.791 22.7 481.258 22.7C478.658 22.7 476.558 23.5 474.958 25.1C473.358 26.7 472.558 28.8333 472.558 31.5C472.558 34.3 473.358 36.5667 474.958 38.3C476.558 39.9667 478.658 40.8 481.258 40.8ZM509.793 57C509.126 57 508.493 56.7333 507.893 56.2C507.36 55.6667 507.093 55.0667 507.093 54.4C507.093 53.8667 507.226 53.3667 507.493 52.9C509.426 50.3667 511.16 47 512.693 42.8C514.293 38.5333 515.093 33.7667 515.093 28.5C515.093 23.7667 514.326 19.2 512.793 14.8C511.26 10.4 509.093 6.86666 506.293 4.2C505.96 3.66666 505.793 3.1 505.793 2.5C505.793 1.76666 506.026 1.16667 506.493 0.699999C507.026 0.233332 507.626 -8.34465e-07 508.293 -8.34465e-07C509.026 -8.34465e-07 509.726 0.299998 510.393 0.899997C512.06 2.7 513.626 5 515.093 7.8C516.626 10.5333 517.86 13.6667 518.793 17.2C519.793 20.6667 520.293 24.4333 520.293 28.5C520.293 34.5 519.46 39.7667 517.793 44.3C516.193 48.8333 514.26 52.6333 511.993 55.7C511.393 56.5667 510.66 57 509.793 57ZM566.693 47C563.826 47 561.26 46.3333 558.993 45C556.726 43.6667 554.96 41.8333 553.693 39.5C552.426 37.1 551.793 34.4333 551.793 31.5C551.793 28.6333 552.426 26.0667 553.693 23.8C554.96 21.5333 556.726 19.7667 558.993 18.5C561.26 17.1667 563.826 16.5 566.693 16.5C568.56 16.5 570.226 16.8333 571.693 17.5C573.16 18.1 574.426 18.9 575.493 19.9C575.626 18.9667 576.026 18.2667 576.693 17.8C577.36 17.2667 578.093 17 578.893 17C579.76 17 580.526 17.3 581.193 17.9C581.926 18.4333 582.293 19.2667 582.293 20.4V43.9C582.293 44.9 581.926 45.6667 581.193 46.2C580.526 46.7333 579.76 47 578.893 47C578.026 47 577.226 46.7333 576.493 46.2C575.826 45.6667 575.493 44.9 575.493 43.9V43.5C574.426 44.5667 573.16 45.4 571.693 46C570.226 46.6667 568.56 47 566.693 47ZM567.293 40.8C569.826 40.8 571.826 39.9667 573.293 38.3C574.76 36.5667 575.493 34.3 575.493 31.5C575.493 28.8333 574.76 26.7 573.293 25.1C571.826 23.5 569.826 22.7 567.293 22.7C564.693 22.7 562.593 23.5 560.993 25.1C559.393 26.7 558.593 28.8333 558.593 31.5C558.593 34.3 559.393 36.5667 560.993 38.3C562.593 39.9667 564.693 40.8 567.293 40.8ZM616.048 47C615.048 47 614.248 46.7 613.648 46.1C613.048 45.5 612.748 44.7333 612.748 43.8V24.7C612.748 24.0333 612.414 23.7 611.748 23.7H609.448C608.581 23.7 607.848 23.4333 607.248 22.9C606.648 22.3 606.348 21.5667 606.348 20.7C606.348 19.7667 606.648 19 607.248 18.4C607.848 17.8 608.581 17.5 609.448 17.5H611.748C612.414 17.5 612.748 17.1667 612.748 16.5V13.9C612.748 10.5667 613.614 7.93333 615.348 6C617.148 4 619.681 3 622.948 3C623.681 3 624.414 3.1 625.148 3.3C625.948 3.43333 626.548 3.56667 626.948 3.7C628.214 4.16667 628.848 5.1 628.848 6.5C628.848 7.56667 628.514 8.4 627.848 9C627.248 9.53333 626.514 9.8 625.648 9.8C625.181 9.8 624.748 9.73333 624.348 9.6C623.948 9.46666 623.381 9.4 622.648 9.4C621.514 9.4 620.714 9.8 620.248 10.6C619.781 11.4 619.548 12.5667 619.548 14.1V16.5C619.548 17.1667 619.881 17.5 620.548 17.5H624.848C625.648 17.5 626.348 17.8 626.948 18.4C627.548 19 627.848 19.7667 627.848 20.7C627.848 21.5667 627.548 22.3 626.948 22.9C626.414 23.4333 625.681 23.7 624.748 23.7H620.548C619.881 23.7 619.548 24.0333 619.548 24.7V43.8C619.548 44.7333 619.214 45.5 618.548 46.1C617.881 46.7 617.048 47 616.048 47ZM646.883 47C643.949 47 641.283 46.3333 638.883 45C636.549 43.6667 634.716 41.8333 633.383 39.5C632.049 37.1 631.383 34.4333 631.383 31.5C631.383 28.6333 632.049 26.0667 633.383 23.8C634.716 21.5333 636.549 19.7667 638.883 18.5C641.283 17.1667 643.949 16.5 646.883 16.5C649.816 16.5 652.449 17.1667 654.783 18.5C657.116 19.7667 658.949 21.5333 660.283 23.8C661.683 26.0667 662.383 28.6333 662.383 31.5C662.383 34.4333 661.683 37.1 660.283 39.5C658.949 41.8333 657.116 43.6667 654.783 45C652.449 46.3333 649.816 47 646.883 47ZM646.883 40.8C649.483 40.8 651.583 39.9667 653.183 38.3C654.783 36.5667 655.583 34.3 655.583 31.5C655.583 28.8333 654.783 26.7 653.183 25.1C651.583 23.5 649.483 22.7 646.883 22.7C644.216 22.7 642.083 23.5 640.483 25.1C638.949 26.7 638.183 28.8333 638.183 31.5C638.183 34.3 638.949 36.5667 640.483 38.3C642.083 39.9667 644.216 40.8 646.883 40.8ZM675.144 31.2V43.9C675.144 44.9 674.777 45.6667 674.044 46.2C673.377 46.7333 672.61 47 671.744 47C670.877 47 670.077 46.7333 669.344 46.2C668.677 45.6667 668.344 44.9 668.344 43.9V20.4C668.344 19.2667 668.677 18.4333 669.344 17.9C670.077 17.3 670.877 17 671.744 17C672.61 17 673.377 17.3 674.044 17.9C674.777 18.4333 675.144 19.2667 675.144 20.4V20.8C676.077 19.5333 677.277 18.5 678.744 17.7C680.277 16.9 681.877 16.5 683.544 16.5C684.344 16.5 685.144 16.6 685.944 16.8C686.744 17 687.344 17.4 687.744 18C688.144 18.6 688.344 19.2667 688.344 20C688.344 20.8667 688.044 21.6667 687.444 22.4C686.91 23.0667 686.11 23.4 685.044 23.4C684.577 23.4 684.077 23.3333 683.544 23.2C683.077 23.0667 682.477 23 681.744 23C679.81 23 678.21 23.7333 676.944 25.2C675.744 26.6667 675.144 28.6667 675.144 31.2ZM690.555 60.5C689.222 60.5 688.055 60.3333 687.055 60C685.589 59.4667 684.855 58.4667 684.855 57C684.855 55.8 685.289 54.9333 686.155 54.4C686.955 53.8667 687.722 53.7333 688.455 54C688.789 54.0667 689.089 54.1 689.355 54.1C689.622 54.1667 689.889 54.2 690.155 54.2C691.289 54.2 692.189 53.8333 692.855 53.1C693.522 52.3667 693.855 51.1667 693.855 49.5V19.6C693.855 18.6 694.222 17.8333 694.955 17.3C695.689 16.7667 696.422 16.5 697.155 16.5C698.022 16.5 698.789 16.8 699.455 17.4C700.189 17.9333 700.555 18.6667 700.555 19.6V49.7C700.555 53.1667 699.555 55.8333 697.555 57.7C695.622 59.5667 693.289 60.5 690.555 60.5ZM697.455 11C696.189 11 695.089 10.6 694.155 9.8C693.289 8.93333 692.855 7.9 692.855 6.7C692.855 5.56666 693.289 4.6 694.155 3.8C695.089 2.93333 696.189 2.5 697.455 2.5C698.655 2.5 699.689 2.93333 700.555 3.8C701.422 4.6 701.855 5.56666 701.855 6.7C701.855 7.9 701.422 8.93333 700.555 9.8C699.689 10.6 698.655 11 697.455 11ZM721.771 47C718.904 47 716.338 46.3333 714.071 45C711.804 43.6667 710.038 41.8333 708.771 39.5C707.504 37.1 706.871 34.4333 706.871 31.5C706.871 28.6333 707.504 26.0667 708.771 23.8C710.038 21.5333 711.804 19.7667 714.071 18.5C716.338 17.1667 718.904 16.5 721.771 16.5C723.638 16.5 725.304 16.8333 726.771 17.5C728.238 18.1 729.504 18.9 730.571 19.9C730.704 18.9667 731.104 18.2667 731.771 17.8C732.438 17.2667 733.171 17 733.971 17C734.838 17 735.604 17.3 736.271 17.9C737.004 18.4333 737.371 19.2667 737.371 20.4V43.9C737.371 44.9 737.004 45.6667 736.271 46.2C735.604 46.7333 734.838 47 733.971 47C733.104 47 732.304 46.7333 731.571 46.2C730.904 45.6667 730.571 44.9 730.571 43.9V43.5C729.504 44.5667 728.238 45.4 726.771 46C725.304 46.6667 723.638 47 721.771 47ZM722.371 40.8C724.904 40.8 726.904 39.9667 728.371 38.3C729.838 36.5667 730.571 34.3 730.571 31.5C730.571 28.8333 729.838 26.7 728.371 25.1C726.904 23.5 724.904 22.7 722.371 22.7C719.771 22.7 717.671 23.5 716.071 25.1C714.471 26.7 713.671 28.8333 713.671 31.5C713.671 34.3 714.471 36.5667 716.071 38.3C717.671 39.9667 719.771 40.8 722.371 40.8ZM751.706 31.2V43.9C751.706 44.9 751.34 45.6667 750.606 46.2C749.94 46.7333 749.173 47 748.306 47C747.44 47 746.64 46.7333 745.906 46.2C745.24 45.6667 744.906 44.9 744.906 43.9V20.4C744.906 19.2667 745.24 18.4333 745.906 17.9C746.64 17.3 747.44 17 748.306 17C749.173 17 749.94 17.3 750.606 17.9C751.34 18.4333 751.706 19.2667 751.706 20.4V20.8C752.64 19.5333 753.84 18.5 755.306 17.7C756.84 16.9 758.44 16.5 760.106 16.5C760.906 16.5 761.706 16.6 762.506 16.8C763.306 17 763.906 17.4 764.306 18C764.706 18.6 764.906 19.2667 764.906 20C764.906 20.8667 764.606 21.6667 764.006 22.4C763.473 23.0667 762.673 23.4 761.606 23.4C761.14 23.4 760.64 23.3333 760.106 23.2C759.64 23.0667 759.04 23 758.306 23C756.373 23 754.773 23.7333 753.506 25.2C752.306 26.6667 751.706 28.6667 751.706 31.2ZM799.838 47C797.904 47 795.938 46.7333 793.938 46.2C791.938 45.7333 790.171 44.9667 788.638 43.9C787.838 43.1667 787.438 42.3667 787.438 41.5C787.438 40.6333 787.771 39.8667 788.438 39.2C789.171 38.5333 789.971 38.2 790.838 38.2C791.304 38.2 791.771 38.3333 792.238 38.6C793.438 39.3333 794.804 39.9333 796.338 40.4C797.938 40.8 799.438 41 800.838 41C802.171 41 803.304 40.7667 804.238 40.3C805.238 39.8333 805.738 39.0667 805.738 38C805.738 36.9333 805.271 36.1333 804.338 35.6C803.404 35.0667 801.804 34.6667 799.538 34.4C798.604 34.2667 797.471 34.1 796.138 33.9C794.871 33.7 793.604 33.3333 792.338 32.8C791.071 32.2667 790.004 31.4667 789.138 30.4C788.271 29.3333 787.838 27.9 787.838 26.1C787.838 23.1667 788.904 20.8333 791.038 19.1C793.238 17.3667 796.171 16.5 799.838 16.5C801.971 16.5 803.971 16.7667 805.838 17.3C807.771 17.8333 809.204 18.5 810.138 19.3C810.871 19.9 811.238 20.6 811.238 21.4C811.238 22.2667 810.938 23.0333 810.338 23.7C809.738 24.3667 809.004 24.7 808.138 24.7C807.671 24.7 807.238 24.6 806.838 24.4C805.771 23.8 804.571 23.3667 803.238 23.1C801.971 22.7667 800.738 22.6 799.538 22.6C798.138 22.6 796.938 22.8333 795.938 23.3C795.004 23.7 794.538 24.3667 794.538 25.3C794.538 25.9667 794.804 26.5667 795.338 27.1C795.938 27.5667 797.438 27.9667 799.838 28.3C800.971 28.4333 802.238 28.6333 803.638 28.9C805.104 29.1667 806.504 29.6 807.838 30.2C809.171 30.7333 810.271 31.6 811.137 32.8C812.004 34 812.438 35.6333 812.438 37.7C812.438 39.8333 811.838 41.6 810.638 43C809.438 44.3333 807.871 45.3333 805.938 46C804.071 46.6667 802.038 47 799.838 47ZM839.141 19.8C839.141 18.8667 839.441 18.1 840.041 17.5C840.708 16.8333 841.541 16.5 842.541 16.5C843.475 16.5 844.275 16.8333 844.941 17.5C845.608 18.1 845.941 18.8667 845.941 19.8V33.9C845.941 36.9 845.275 39.3667 843.941 41.3C842.608 43.2333 840.875 44.6667 838.741 45.6C836.608 46.5333 834.341 47 831.941 47C829.541 47 827.275 46.5333 825.141 45.6C823.008 44.6667 821.275 43.2333 819.941 41.3C818.608 39.3667 817.941 36.9 817.941 33.9V19.8C817.941 18.8667 818.241 18.1 818.841 17.5C819.508 16.8333 820.341 16.5 821.341 16.5C822.275 16.5 823.075 16.8333 823.741 17.5C824.408 18.1 824.741 18.8667 824.741 19.8V33.9C824.741 36.3667 825.475 38.1333 826.941 39.2C828.408 40.2667 830.075 40.8 831.941 40.8C833.875 40.8 835.541 40.2667 836.941 39.2C838.408 38.1333 839.141 36.3667 839.141 33.9V19.8ZM889.022 47C887.155 47 885.489 46.6667 884.022 46C882.555 45.4 881.289 44.5667 880.222 43.5V57.4C880.222 58.4 879.855 59.1667 879.122 59.7C878.455 60.2333 877.689 60.5 876.822 60.5C875.955 60.5 875.155 60.2333 874.422 59.7C873.755 59.1667 873.422 58.4 873.422 57.4V20.4C873.422 19.2667 873.755 18.4333 874.422 17.9C875.155 17.3 875.955 17 876.822 17C877.622 17 878.355 17.2667 879.022 17.8C879.689 18.2667 880.089 18.9667 880.222 19.9C881.289 18.9 882.555 18.1 884.022 17.5C885.489 16.8333 887.155 16.5 889.022 16.5C891.955 16.5 894.522 17.1667 896.722 18.5C898.989 19.7667 900.755 21.5333 902.022 23.8C903.289 26.0667 903.922 28.6333 903.922 31.5C903.922 34.4333 903.289 37.1 902.022 39.5C900.755 41.8333 898.989 43.6667 896.722 45C894.522 46.3333 891.955 47 889.022 47ZM888.422 40.8C891.022 40.8 893.122 39.9667 894.722 38.3C896.322 36.5667 897.122 34.3 897.122 31.5C897.122 28.8333 896.322 26.7 894.722 25.1C893.122 23.5 891.022 22.7 888.422 22.7C885.889 22.7 883.889 23.5 882.422 25.1C880.955 26.7 880.222 28.8333 880.222 31.5C880.222 34.3 880.955 36.5667 882.422 38.3C883.889 39.9667 885.889 40.8 888.422 40.8ZM916.745 31.2V43.9C916.745 44.9 916.379 45.6667 915.645 46.2C914.979 46.7333 914.212 47 913.345 47C912.479 47 911.679 46.7333 910.945 46.2C910.279 45.6667 909.945 44.9 909.945 43.9V20.4C909.945 19.2667 910.279 18.4333 910.945 17.9C911.679 17.3 912.479 17 913.345 17C914.212 17 914.979 17.3 915.645 17.9C916.379 18.4333 916.745 19.2667 916.745 20.4V20.8C917.679 19.5333 918.879 18.5 920.345 17.7C921.879 16.9 923.479 16.5 925.145 16.5C925.945 16.5 926.745 16.6 927.545 16.8C928.345 17 928.945 17.4 929.345 18C929.745 18.6 929.945 19.2667 929.945 20C929.945 20.8667 929.645 21.6667 929.045 22.4C928.512 23.0667 927.712 23.4 926.645 23.4C926.179 23.4 925.679 23.3333 925.145 23.2C924.679 23.0667 924.079 23 923.345 23C921.412 23 919.812 23.7333 918.545 25.2C917.345 26.6667 916.745 28.6667 916.745 31.2ZM946.98 47C944.047 47 941.38 46.3333 938.98 45C936.647 43.6667 934.814 41.8333 933.48 39.5C932.147 37.1 931.48 34.4333 931.48 31.5C931.48 28.6333 932.147 26.0667 933.48 23.8C934.814 21.5333 936.647 19.7667 938.98 18.5C941.38 17.1667 944.047 16.5 946.98 16.5C949.914 16.5 952.547 17.1667 954.88 18.5C957.214 19.7667 959.047 21.5333 960.38 23.8C961.78 26.0667 962.48 28.6333 962.48 31.5C962.48 34.4333 961.78 37.1 960.38 39.5C959.047 41.8333 957.214 43.6667 954.88 45C952.547 46.3333 949.914 47 946.98 47ZM946.98 40.8C949.58 40.8 951.68 39.9667 953.28 38.3C954.88 36.5667 955.68 34.3 955.68 31.5C955.68 28.8333 954.88 26.7 953.28 25.1C951.68 23.5 949.58 22.7 946.98 22.7C944.314 22.7 942.18 23.5 940.58 25.1C939.047 26.7 938.28 28.8333 938.28 31.5C938.28 34.3 939.047 36.5667 940.58 38.3C942.18 39.9667 944.314 40.8 946.98 40.8ZM984.041 47C982.175 47 980.508 46.6667 979.041 46C977.575 45.4 976.308 44.5667 975.241 43.5V57.4C975.241 58.4 974.875 59.1667 974.141 59.7C973.475 60.2333 972.708 60.5 971.841 60.5C970.975 60.5 970.175 60.2333 969.441 59.7C968.775 59.1667 968.441 58.4 968.441 57.4V20.4C968.441 19.2667 968.775 18.4333 969.441 17.9C970.175 17.3 970.975 17 971.841 17C972.641 17 973.375 17.2667 974.041 17.8C974.708 18.2667 975.108 18.9667 975.241 19.9C976.308 18.9 977.575 18.1 979.041 17.5C980.508 16.8333 982.175 16.5 984.041 16.5C986.975 16.5 989.541 17.1667 991.741 18.5C994.008 19.7667 995.775 21.5333 997.041 23.8C998.308 26.0667 998.941 28.6333 998.941 31.5C998.941 34.4333 998.308 37.1 997.041 39.5C995.775 41.8333 994.008 43.6667 991.741 45C989.541 46.3333 986.975 47 984.041 47ZM983.441 40.8C986.041 40.8 988.141 39.9667 989.741 38.3C991.341 36.5667 992.141 34.3 992.141 31.5C992.141 28.8333 991.341 26.7 989.741 25.1C988.141 23.5 986.041 22.7 983.441 22.7C980.908 22.7 978.908 23.5 977.441 25.1C975.975 26.7 975.241 28.8333 975.241 31.5C975.241 34.3 975.975 36.5667 977.441 38.3C978.908 39.9667 980.908 40.8 983.441 40.8ZM1008.46 47C1007.6 47 1006.8 46.7333 1006.06 46.2C1005.4 45.6667 1005.06 44.9 1005.06 43.9V19.9C1005.06 18.7667 1005.4 17.9333 1006.06 17.4C1006.8 16.8 1007.6 16.5 1008.46 16.5C1009.33 16.5 1010.1 16.8 1010.76 17.4C1011.5 17.9333 1011.86 18.7667 1011.86 19.9V43.9C1011.86 44.9 1011.5 45.6667 1010.76 46.2C1010.1 46.7333 1009.33 47 1008.46 47ZM1008.56 11C1007.3 11 1006.2 10.6 1005.26 9.8C1004.4 8.93333 1003.96 7.9 1003.96 6.7C1003.96 5.56666 1004.4 4.6 1005.26 3.8C1006.2 2.93333 1007.3 2.5 1008.56 2.5C1009.76 2.5 1010.8 2.93333 1011.66 3.8C1012.53 4.6 1012.96 5.56666 1012.96 6.7C1012.96 7.9 1012.53 8.93333 1011.66 9.8C1010.8 10.6 1009.76 11 1008.56 11ZM1033.5 47C1030.57 47 1027.9 46.3333 1025.5 45C1023.17 43.6667 1021.34 41.8333 1020 39.5C1018.67 37.1 1018 34.4333 1018 31.5C1018 28.6333 1018.67 26.0667 1020 23.8C1021.34 21.5333 1023.17 19.7667 1025.5 18.5C1027.9 17.1667 1030.57 16.5 1033.5 16.5C1036.44 16.5 1039.07 17.1667 1041.4 18.5C1043.74 19.7667 1045.57 21.5333 1046.9 23.8C1048.3 26.0667 1049 28.6333 1049 31.5C1049 34.4333 1048.3 37.1 1046.9 39.5C1045.57 41.8333 1043.74 43.6667 1041.4 45C1039.07 46.3333 1036.44 47 1033.5 47ZM1033.5 40.8C1036.1 40.8 1038.2 39.9667 1039.8 38.3C1041.4 36.5667 1042.2 34.3 1042.2 31.5C1042.2 28.8333 1041.4 26.7 1039.8 25.1C1038.2 23.5 1036.1 22.7 1033.5 22.7C1030.84 22.7 1028.7 23.5 1027.1 25.1C1025.57 26.7 1024.8 28.8333 1024.8 31.5C1024.8 34.3 1025.57 36.5667 1027.1 38.3C1028.7 39.9667 1030.84 40.8 1033.5 40.8ZM403.699 123.3C402.433 124.3 400.499 125.167 397.899 125.9C395.299 126.633 392.766 127 390.299 127C386.166 127 382.466 126.1 379.199 124.3C375.933 122.433 373.366 119.867 371.499 116.6C369.633 113.333 368.699 109.633 368.699 105.5C368.699 101.167 369.599 97.4333 371.399 94.3C373.266 91.1667 375.833 88.7667 379.099 87.1C382.366 85.3667 386.166 84.5 390.499 84.5C392.299 84.5 394.099 84.6667 395.899 85C397.766 85.3333 399.466 85.8667 400.999 86.6C401.799 87 402.366 87.5333 402.699 88.2C403.099 88.8 403.299 89.4667 403.299 90.2C403.299 91.2667 402.899 92.2667 402.099 93.2C401.366 94.0667 400.366 94.5 399.099 94.5C398.566 94.5 397.999 94.4 397.399 94.2C396.199 93.7333 394.899 93.3667 393.499 93.1C392.099 92.7667 390.866 92.6 389.799 92.6C386.333 92.6 383.433 93.7667 381.099 96.1C378.833 98.4333 377.699 101.567 377.699 105.5C377.699 109.7 378.866 113 381.199 115.4C383.599 117.8 386.666 119 390.399 119C391.933 119 393.566 118.733 395.299 118.2C397.033 117.667 398.433 117 399.499 116.2C400.233 115.733 401.033 115.5 401.899 115.5C403.033 115.5 403.933 115.9 404.599 116.7C405.333 117.433 405.699 118.367 405.699 119.5C405.699 120.967 405.033 122.233 403.699 123.3ZM424.703 127C420.236 127 416.603 125.6 413.803 122.8C411.07 119.933 409.703 116.133 409.703 111.4C409.703 106.667 411.036 102.933 413.703 100.2C416.436 97.4 420.003 96 424.403 96C427.536 96 430.27 97.1 432.603 99.3C432.87 98.5 433.37 97.8333 434.103 97.3C434.836 96.7667 435.703 96.5 436.703 96.5C438.036 96.5 439.103 96.9 439.903 97.7C440.77 98.4333 441.203 99.3333 441.203 100.4V123.1C441.203 124.233 440.77 125.167 439.903 125.9C439.103 126.633 438.036 127 436.703 127C434.503 127 433.136 126.033 432.603 124.1C430.47 126.033 427.836 127 424.703 127ZM425.403 118.9C427.536 118.9 429.236 118.2 430.503 116.8C431.77 115.333 432.403 113.533 432.403 111.4C432.403 109.2 431.77 107.433 430.503 106.1C429.236 104.767 427.536 104.1 425.403 104.1C423.336 104.1 421.636 104.767 420.303 106.1C419.036 107.433 418.403 109.2 418.403 111.4C418.403 113.533 419.036 115.333 420.303 116.8C421.636 118.2 423.336 118.9 425.403 118.9ZM459.115 127C454.582 127 450.848 126.067 447.915 124.2C447.315 123.8 446.882 123.333 446.615 122.8C446.348 122.2 446.215 121.633 446.215 121.1C446.215 119.967 446.582 118.933 447.315 118C448.115 117.067 449.082 116.6 450.215 116.6C450.748 116.6 451.282 116.733 451.815 117C453.015 117.533 454.382 118 455.915 118.4C457.448 118.733 458.848 118.9 460.115 118.9C462.582 118.9 463.815 118.333 463.815 117.2C463.815 116.533 463.515 115.967 462.915 115.5C462.315 114.967 460.915 114.6 458.715 114.4C457.848 114.333 456.715 114.2 455.315 114C453.982 113.8 452.648 113.433 451.315 112.9C449.982 112.3 448.848 111.433 447.915 110.3C447.048 109.167 446.615 107.633 446.615 105.7C446.615 102.7 447.748 100.333 450.015 98.6C452.282 96.8667 455.315 96 459.115 96C461.315 96 463.382 96.2333 465.315 96.7C467.315 97.1667 468.815 97.8667 469.815 98.8C470.748 99.6667 471.215 100.667 471.215 101.8C471.215 102.8 470.848 103.7 470.115 104.5C469.382 105.3 468.448 105.7 467.315 105.7C466.715 105.7 466.148 105.567 465.615 105.3C464.815 104.767 463.782 104.367 462.515 104.1C461.315 103.833 460.082 103.7 458.815 103.7C456.282 103.7 455.015 104.233 455.015 105.3C455.015 105.767 455.248 106.2 455.715 106.6C456.248 106.933 457.415 107.233 459.215 107.5C460.348 107.633 461.648 107.833 463.115 108.1C464.582 108.3 465.982 108.7 467.315 109.3C468.715 109.833 469.882 110.733 470.815 112C471.748 113.267 472.215 115 472.215 117.2C472.215 120.2 471.015 122.6 468.615 124.4C466.215 126.133 463.048 127 459.115 127ZM490.219 127C487.352 127 484.985 126.167 483.119 124.5C481.252 122.833 480.319 120.267 480.319 116.8V106C480.319 105.333 479.985 105 479.319 105H477.819C476.619 105 475.719 104.633 475.119 103.9C474.519 103.167 474.219 102.233 474.219 101.1C474.219 99.9 474.519 98.9333 475.119 98.2C475.719 97.4 476.619 97 477.819 97H479.319C479.985 97 480.319 96.6667 480.319 96V88.6C480.319 87.4667 480.719 86.5 481.519 85.7C482.319 84.9 483.352 84.5 484.619 84.5C485.885 84.5 486.919 84.9 487.719 85.7C488.585 86.4333 489.019 87.4 489.019 88.6V96C489.019 96.6667 489.352 97 490.019 97H493.719C494.852 97 495.785 97.4 496.519 98.2C497.319 99 497.719 99.9667 497.719 101.1C497.719 102.233 497.319 103.167 496.519 103.9C495.785 104.633 494.819 105 493.619 105H490.019C489.352 105 489.019 105.333 489.019 106V115.4C489.019 116.6 489.219 117.433 489.619 117.9C490.085 118.367 490.652 118.6 491.319 118.6C491.585 118.6 492.119 118.533 492.919 118.4C493.719 118.2 494.219 118.1 494.419 118.1C495.485 118.1 496.385 118.5 497.119 119.3C497.852 120.1 498.219 121.067 498.219 122.2C498.219 123.067 497.952 123.867 497.419 124.6C496.952 125.333 496.185 125.867 495.119 126.2C494.252 126.467 493.419 126.667 492.619 126.8C491.819 126.933 491.019 127 490.219 127ZM517.007 127C514.14 127 511.507 126.333 509.107 125C506.707 123.667 504.774 121.833 503.307 119.5C501.907 117.1 501.207 114.4 501.207 111.4C501.207 108.333 501.907 105.667 503.307 103.4C504.774 101.067 506.707 99.2667 509.107 98C511.507 96.6667 514.14 96 517.007 96C519.94 96 522.574 96.6667 524.907 98C527.307 99.2667 529.207 101.067 530.607 103.4C532.007 105.667 532.707 108.333 532.707 111.4C532.707 114.4 532.007 117.1 530.607 119.5C529.207 121.833 527.307 123.667 524.907 125C522.574 126.333 519.94 127 517.007 127ZM517.007 118.9C519.074 118.9 520.74 118.2 522.007 116.8C523.34 115.333 524.007 113.533 524.007 111.4C524.007 109.2 523.34 107.433 522.007 106.1C520.74 104.767 519.074 104.1 517.007 104.1C515.007 104.1 513.307 104.767 511.907 106.1C510.574 107.433 509.907 109.2 509.907 111.4C509.907 113.533 510.574 115.333 511.907 116.8C513.307 118.2 515.007 118.9 517.007 118.9ZM543.254 126.7C541.987 126.7 540.921 126.333 540.054 125.6C539.187 124.867 538.754 123.933 538.754 122.8V100.4C538.754 99.3333 539.154 98.4333 539.954 97.7C540.821 96.9 541.921 96.5 543.254 96.5C544.454 96.5 545.421 96.8667 546.154 97.6C546.954 98.2667 547.421 99.1 547.554 100.1C548.287 98.9667 549.287 98 550.554 97.2C551.821 96.4 553.154 96 554.554 96C555.421 96 556.254 96.1 557.054 96.3C557.987 96.5667 558.754 97.1 559.354 97.9C559.954 98.6333 560.254 99.5 560.254 100.5C560.254 101.9 559.787 103.067 558.854 104C557.987 104.867 556.954 105.167 555.754 104.9C554.887 104.7 554.021 104.6 553.154 104.6C551.621 104.6 550.354 105.133 549.354 106.2C548.354 107.267 547.754 109.433 547.554 112.7V122.7C547.554 123.833 547.121 124.8 546.254 125.6C545.454 126.333 544.454 126.7 543.254 126.7Z" fill="#1B1717"/>
<path d="M575.23 127C573.83 127 572.564 126.567 571.43 125.7C570.297 124.767 569.597 123.567 569.33 122.1L563.23 89.6C563.097 88.2667 563.464 87.1667 564.33 86.3C565.264 85.4333 566.397 85 567.73 85C568.864 85 569.83 85.3333 570.63 86C571.43 86.6667 571.93 87.5667 572.13 88.7L575.73 110.6C575.864 111.4 576.164 111.8 576.63 111.8C577.03 111.8 577.33 111.433 577.53 110.7L582.33 93C582.664 91.7333 583.297 90.8 584.23 90.2C585.164 89.5333 586.164 89.2 587.23 89.2C588.297 89.2 589.297 89.5333 590.23 90.2C591.164 90.8 591.797 91.7333 592.13 93L596.93 110.7C597.13 111.433 597.43 111.8 597.83 111.8C598.364 111.8 598.664 111.4 598.73 110.6L602.33 88.7C602.53 87.5667 603.03 86.6667 603.83 86C604.697 85.3333 605.664 85 606.73 85C608.064 85 609.164 85.4333 610.03 86.3C610.964 87.1667 611.364 88.2667 611.23 89.6L605.03 122.1C604.764 123.567 604.064 124.767 602.93 125.7C601.797 126.567 600.53 127 599.13 127C597.864 127 596.664 126.6 595.53 125.8C594.464 124.933 593.664 123.8 593.13 122.4L588.13 104.8C587.93 104.067 587.63 103.7 587.23 103.7C586.764 103.7 586.43 104.067 586.23 104.8L581.23 122.4C580.83 123.8 580.064 124.933 578.93 125.8C577.797 126.6 576.564 127 575.23 127ZM629.293 127C624.826 127 621.193 125.6 618.393 122.8C615.66 119.933 614.293 116.133 614.293 111.4C614.293 106.667 615.626 102.933 618.293 100.2C621.026 97.4 624.593 96 628.993 96C632.126 96 634.86 97.1 637.193 99.3C637.46 98.5 637.96 97.8333 638.693 97.3C639.426 96.7667 640.293 96.5 641.293 96.5C642.626 96.5 643.693 96.9 644.493 97.7C645.36 98.4333 645.793 99.3333 645.793 100.4V123.1C645.793 124.233 645.36 125.167 644.493 125.9C643.693 126.633 642.626 127 641.293 127C639.093 127 637.726 126.033 637.193 124.1C635.06 126.033 632.426 127 629.293 127ZM629.993 118.9C632.126 118.9 633.826 118.2 635.093 116.8C636.36 115.333 636.993 113.533 636.993 111.4C636.993 109.2 636.36 107.433 635.093 106.1C633.826 104.767 632.126 104.1 629.993 104.1C627.926 104.1 626.226 104.767 624.893 106.1C623.626 107.433 622.993 109.2 622.993 111.4C622.993 113.533 623.626 115.333 624.893 116.8C626.226 118.2 627.926 118.9 629.993 118.9ZM650.305 100C650.305 98.6667 650.771 97.6667 651.705 97C652.638 96.3333 653.705 96 654.905 96C655.838 96 656.638 96.2667 657.305 96.8C658.038 97.2667 658.538 97.9333 658.805 98.8L665.005 113.9C665.338 114.767 665.805 115.2 666.405 115.2C667.005 115.2 667.438 114.767 667.705 113.9L673.105 98.8C673.438 97.8667 673.971 97.1667 674.705 96.7C675.505 96.2333 676.338 96 677.205 96C678.338 96 679.371 96.3667 680.305 97.1C681.305 97.8333 681.805 98.8 681.805 100C681.805 100.667 681.671 101.3 681.405 101.9L665.805 137.9C665.338 138.9 664.738 139.6 664.005 140C663.338 140.467 662.638 140.7 661.905 140.7C660.705 140.7 659.605 140.267 658.605 139.4C657.671 138.6 657.205 137.633 657.205 136.5C657.205 135.9 657.338 135.367 657.605 134.9L663.005 125.3C661.871 124.967 660.971 124.133 660.305 122.8L650.605 101.8C650.405 101.2 650.305 100.6 650.305 100Z" fill="#879FD4"/>
</svg>
