<svg width="97" height="97" viewBox="0 0 97 97" fill="none" xmlns="http://www.w3.org/2000/svg">
<path d="M18.7058 9.99394C14.174 9.99394 10.3296 13.3709 10.2207 18.0283C10.1093 22.7901 13.6918 26.4545 18.7058 26.4545C23.1286 26.4545 26.8052 22.9273 26.8052 18.0283C26.8052 13.1293 23.2376 9.99394 18.7058 9.99394Z" fill="#E2AF42"/>
<path fill-rule="evenodd" clip-rule="evenodd" d="M83.0189 7.83838C83.0189 3.50936 79.5653 0 75.3052 0H7.71372C3.45355 0 0 3.50937 0 7.83838V68.8798L29.17 39.056C30.3681 37.831 32.3154 37.8213 33.5254 39.0342L41.8469 47.3765L62.5592 27.4366C63.7564 26.2841 65.6339 26.2919 66.8217 27.4545L83.0189 43.3071V7.83838ZM10.2207 18.0283C10.3296 13.3709 14.174 9.99394 18.7058 9.99394C23.2376 9.99394 26.8052 13.1293 26.8052 18.0283C26.8052 22.9273 23.1286 26.4545 18.7058 26.4545C13.6918 26.4545 10.1093 22.7901 10.2207 18.0283Z" fill="#879FD4"/>
<path d="M97 77.1101C97 88.095 88.2366 97 77.4264 97C67.5656 97 59.4079 89.5904 58.0511 79.9515C57.9205 79.0235 57.8529 78.0748 57.8529 77.1101C57.8529 73.1947 58.9662 69.5436 60.8887 66.4658C64.36 60.9085 70.4694 57.2202 77.4264 57.2202C79.3697 57.2202 81.2469 57.508 83.0189 58.0439C91.1041 60.489 97 68.0999 97 77.1101Z" fill="#D9D9D9"/>
<path d="M74.4361 74.1963C74.5612 74.1963 74.6626 74.0934 74.6626 73.9664V68.0819C74.6626 66.5204 75.9102 65.2545 77.4491 65.2545C78.988 65.2545 80.2356 66.5204 80.2356 68.0819V73.9664C80.2356 74.0934 80.337 74.1963 80.4621 74.1963H86.307C87.8459 74.1963 89.0934 75.4621 89.0934 77.0236C89.0934 78.5851 87.8459 79.851 86.307 79.851H80.4621C80.337 79.851 80.2356 79.9539 80.2356 80.0808V85.9424C80.2356 87.5039 78.988 88.7697 77.4491 88.7697C75.9102 88.7697 74.6626 87.5039 74.6626 85.9424V80.0808C74.6626 79.9539 74.5612 79.851 74.4361 79.851H68.5459C67.007 79.851 65.7594 78.5851 65.7594 77.0236C65.7594 75.4621 67.007 74.1963 68.5459 74.1963H74.4361Z" fill="#566C9F"/>
<path d="M0 68.8798V72.1131C0 76.4421 3.45355 79.9515 7.71372 79.9515H58.0511C57.9205 79.0235 57.8529 78.0748 57.8529 77.1101C57.8529 73.1947 58.9662 69.5436 60.8887 66.4658L41.8469 47.3765L33.5254 39.0342C32.3154 37.8213 30.3681 37.831 29.17 39.056L0 68.8798Z" fill="#566C9F"/>
<path d="M83.0189 43.3071L66.8217 27.4545C65.6339 26.2919 63.7564 26.2841 62.5592 27.4366L41.8469 47.3765L60.8887 66.4658C64.36 60.9085 70.4694 57.2202 77.4264 57.2202C79.3697 57.2202 81.2469 57.508 83.0189 58.0439V43.3071Z" fill="#3C4A69"/>
</svg>
