<svg width="335" height="59" viewBox="0 0 335 59" fill="none" xmlns="http://www.w3.org/2000/svg">
<path d="M97.311 43.5339C96.2284 44.3885 94.5761 45.1292 92.3539 45.756C90.1318 46.3828 87.9666 46.6962 85.8584 46.6962C82.3257 46.6962 79.1635 45.9269 76.3715 44.3885C73.5796 42.7931 71.3859 40.5995 69.7905 37.8076C68.1952 35.0156 67.3975 31.8533 67.3975 28.3207C67.3975 24.6171 68.1667 21.4263 69.7051 18.7484C71.3005 16.0704 73.4941 14.0192 76.2861 12.5947C79.078 11.1133 82.3257 10.3726 86.0293 10.3726C87.5677 10.3726 89.1062 10.515 90.6446 10.7999C92.24 11.0848 93.6929 11.5406 95.0034 12.1674C95.6871 12.5092 96.1714 12.9651 96.4563 13.5348C96.7982 14.0477 96.9691 14.6174 96.9691 15.2442C96.9691 16.1558 96.6273 17.0105 95.9435 17.8082C95.3168 18.5489 94.4621 18.9193 93.3795 18.9193C92.9237 18.9193 92.4394 18.8338 91.9266 18.6629C90.901 18.264 89.7899 17.9507 88.5933 17.7227C87.3968 17.4379 86.3427 17.2954 85.4311 17.2954C82.4682 17.2954 79.9896 18.2925 77.9954 20.2868C76.0581 22.281 75.0895 24.959 75.0895 28.3207C75.0895 31.9103 76.0866 34.7307 78.0809 36.7819C80.1321 38.8332 82.7531 39.8588 85.9439 39.8588C87.2544 39.8588 88.6503 39.6309 90.1318 39.175C91.6132 38.7192 92.8097 38.1494 93.7214 37.4657C94.3481 37.0668 95.0319 36.8674 95.7726 36.8674C96.7412 36.8674 97.5104 37.2093 98.0802 37.893C98.707 38.5198 99.0204 39.3175 99.0204 40.2861C99.0204 41.5396 98.4506 42.6222 97.311 43.5339Z" fill="#1B1717"/>
<path d="M115.262 46.6962C111.445 46.6962 108.34 45.4996 105.947 43.1065C103.61 40.6565 102.442 37.4087 102.442 33.3633C102.442 29.3178 103.582 26.127 105.861 23.7909C108.197 21.3978 111.246 20.2013 115.006 20.2013C117.684 20.2013 120.02 21.1414 122.014 23.0217C122.242 22.338 122.67 21.7682 123.296 21.3124C123.923 20.8565 124.664 20.6286 125.519 20.6286C126.658 20.6286 127.57 20.9705 128.254 21.6542C128.994 22.281 129.365 23.0502 129.365 23.9619V43.3629C129.365 44.3316 128.994 45.1292 128.254 45.756C127.57 46.3828 126.658 46.6962 125.519 46.6962C123.638 46.6962 122.47 45.87 122.014 44.2176C120.191 45.87 117.94 46.6962 115.262 46.6962ZM115.861 39.7733C117.684 39.7733 119.137 39.175 120.22 37.9785C121.302 36.725 121.843 35.1866 121.843 33.3633C121.843 31.483 121.302 29.9731 120.22 28.8335C119.137 27.6939 117.684 27.1241 115.861 27.1241C114.094 27.1241 112.641 27.6939 111.502 28.8335C110.419 29.9731 109.878 31.483 109.878 33.3633C109.878 35.1866 110.419 36.725 111.502 37.9785C112.641 39.175 114.094 39.7733 115.861 39.7733Z" fill="#1B1717"/>
<path d="M144.673 46.6962C140.799 46.6962 137.608 45.8985 135.101 44.3031C134.588 43.9612 134.218 43.5623 133.99 43.1065C133.762 42.5937 133.648 42.1094 133.648 41.6536C133.648 40.685 133.961 39.8018 134.588 39.0041C135.272 38.2064 136.098 37.8076 137.067 37.8076C137.522 37.8076 137.978 37.9215 138.434 38.1494C139.46 38.6052 140.628 39.0041 141.938 39.346C143.249 39.6309 144.445 39.7733 145.528 39.7733C147.636 39.7733 148.69 39.289 148.69 38.3204C148.69 37.7506 148.434 37.2663 147.921 36.8674C147.408 36.4116 146.212 36.0982 144.331 35.9273C143.591 35.8703 142.622 35.7563 141.425 35.5854C140.286 35.4145 139.146 35.1011 138.007 34.6453C136.867 34.1325 135.899 33.3917 135.101 32.4231C134.36 31.4545 133.99 30.144 133.99 28.4916C133.99 25.9276 134.958 23.9049 136.896 22.4234C138.833 20.942 141.425 20.2013 144.673 20.2013C146.554 20.2013 148.32 20.4007 149.972 20.7996C151.682 21.1984 152.964 21.7967 153.818 22.5944C154.616 23.3351 155.015 24.1898 155.015 25.1584C155.015 26.0131 154.701 26.7823 154.075 27.466C153.448 28.1498 152.65 28.4916 151.682 28.4916C151.169 28.4916 150.684 28.3777 150.229 28.1498C149.545 27.6939 148.662 27.3521 147.579 27.1241C146.554 26.8962 145.499 26.7823 144.417 26.7823C142.252 26.7823 141.169 27.2381 141.169 28.1498C141.169 28.5486 141.368 28.919 141.767 29.2608C142.223 29.5457 143.22 29.8021 144.759 30.03C145.727 30.144 146.838 30.3149 148.092 30.5428C149.345 30.7138 150.542 31.0556 151.682 31.5684C152.878 32.0243 153.875 32.7935 154.673 33.8761C155.471 34.9586 155.869 36.4401 155.869 38.3204C155.869 40.8844 154.844 42.9356 152.793 44.474C150.741 45.9554 148.035 46.6962 144.673 46.6962Z" fill="#1B1717"/>
<path d="M171.257 46.6962C168.807 46.6962 166.784 45.9839 165.189 44.5595C163.593 43.135 162.796 40.9414 162.796 37.9785V28.748C162.796 28.1782 162.511 27.8933 161.941 27.8933H160.659C159.633 27.8933 158.864 27.58 158.351 26.9532C157.839 26.3264 157.582 25.5288 157.582 24.5601C157.582 23.5345 157.839 22.7083 158.351 22.0816C158.864 21.3978 159.633 21.056 160.659 21.056H161.941C162.511 21.056 162.796 20.7711 162.796 20.2013V13.8767C162.796 12.9081 163.138 12.0819 163.821 11.3982C164.505 10.7144 165.388 10.3726 166.471 10.3726C167.553 10.3726 168.436 10.7144 169.12 11.3982C169.861 12.0249 170.231 12.8511 170.231 13.8767V20.2013C170.231 20.7711 170.516 21.056 171.086 21.056H174.248C175.217 21.056 176.015 21.3978 176.641 22.0816C177.325 22.7653 177.667 23.5915 177.667 24.5601C177.667 25.5288 177.325 26.3264 176.641 26.9532C176.015 27.58 175.188 27.8933 174.163 27.8933H171.086C170.516 27.8933 170.231 28.1782 170.231 28.748V36.7819C170.231 37.8076 170.402 38.5198 170.744 38.9186C171.143 39.3175 171.627 39.5169 172.197 39.5169C172.425 39.5169 172.881 39.4599 173.565 39.346C174.248 39.175 174.676 39.0896 174.847 39.0896C175.758 39.0896 176.527 39.4314 177.154 40.1152C177.781 40.7989 178.094 41.6251 178.094 42.5937C178.094 43.3344 177.866 44.0182 177.411 44.6449C177.012 45.2717 176.356 45.7275 175.445 46.0124C174.704 46.2403 173.992 46.4113 173.308 46.5252C172.624 46.6392 171.941 46.6962 171.257 46.6962Z" fill="#1B1717"/>
<path d="M194.152 46.6962C191.702 46.6962 189.451 46.1264 187.4 44.9868C185.349 43.8472 183.697 42.2803 182.443 40.2861C181.247 38.2349 180.648 35.9273 180.648 33.3633C180.648 30.7423 181.247 28.4631 182.443 26.5259C183.697 24.5316 185.349 22.9932 187.4 21.9106C189.451 20.7711 191.702 20.2013 194.152 20.2013C196.659 20.2013 198.91 20.7711 200.904 21.9106C202.955 22.9932 204.579 24.5316 205.776 26.5259C206.972 28.4631 207.57 30.7423 207.57 33.3633C207.57 35.9273 206.972 38.2349 205.776 40.2861C204.579 42.2803 202.955 43.8472 200.904 44.9868C198.91 46.1264 196.659 46.6962 194.152 46.6962ZM194.152 39.7733C195.918 39.7733 197.343 39.175 198.425 37.9785C199.565 36.725 200.135 35.1866 200.135 33.3633C200.135 31.483 199.565 29.9731 198.425 28.8335C197.343 27.6939 195.918 27.1241 194.152 27.1241C192.443 27.1241 190.99 27.6939 189.793 28.8335C188.654 29.9731 188.084 31.483 188.084 33.3633C188.084 35.1866 188.654 36.725 189.793 37.9785C190.99 39.175 192.443 39.7733 194.152 39.7733Z" fill="#1B1717"/>
<path d="M216.585 46.4397C215.502 46.4397 214.59 46.1264 213.85 45.4996C213.109 44.8728 212.739 44.0752 212.739 43.1065V23.9619C212.739 23.0502 213.08 22.281 213.764 21.6542C214.505 20.9705 215.445 20.6286 216.585 20.6286C217.61 20.6286 218.436 20.942 219.063 21.5688C219.747 22.1386 220.146 22.8508 220.26 23.7055C220.886 22.7368 221.741 21.9106 222.824 21.2269C223.906 20.5432 225.046 20.2013 226.242 20.2013C226.983 20.2013 227.695 20.2868 228.379 20.4577C229.177 20.6856 229.832 21.1414 230.345 21.8252C230.858 22.4519 231.114 23.1926 231.114 24.0473C231.114 25.2439 230.715 26.241 229.917 27.0387C229.177 27.7794 228.294 28.0358 227.268 27.8079C226.527 27.6369 225.787 27.5515 225.046 27.5515C223.735 27.5515 222.653 28.0073 221.798 28.919C220.943 29.8306 220.431 31.6824 220.26 34.4743V43.0211C220.26 43.9897 219.889 44.8159 219.149 45.4996C218.465 46.1264 217.61 46.4397 216.585 46.4397Z" fill="#1B1717"/>
<path d="M243.914 46.6962C242.718 46.6962 241.635 46.3258 240.666 45.5851C239.698 44.7874 239.099 43.7618 238.872 42.5083L233.658 14.7314C233.544 13.5918 233.857 12.6517 234.598 11.911C235.396 11.1703 236.364 10.7999 237.504 10.7999C238.473 10.7999 239.299 11.0848 239.983 11.6546C240.666 12.2244 241.094 12.9936 241.265 13.9622L244.341 32.6795C244.455 33.3633 244.712 33.7051 245.111 33.7051C245.453 33.7051 245.709 33.3917 245.88 32.765L249.982 17.6373C250.267 16.5547 250.808 15.757 251.606 15.2442C252.404 14.6744 253.259 14.3895 254.17 14.3895C255.082 14.3895 255.936 14.6744 256.734 15.2442C257.532 15.757 258.073 16.5547 258.358 17.6373L262.461 32.765C262.631 33.3917 262.888 33.7051 263.23 33.7051C263.686 33.7051 263.942 33.3633 263.999 32.6795L267.076 13.9622C267.247 12.9936 267.674 12.2244 268.358 11.6546C269.098 11.0848 269.925 10.7999 270.836 10.7999C271.976 10.7999 272.916 11.1703 273.657 11.911C274.454 12.6517 274.796 13.5918 274.682 14.7314L269.383 42.5083C269.155 43.7618 268.557 44.7874 267.589 45.5851C266.62 46.3258 265.537 46.6962 264.341 46.6962C263.258 46.6962 262.233 46.3543 261.264 45.6705C260.352 44.9298 259.669 43.9612 259.213 42.7647L254.939 27.7224C254.768 27.0957 254.512 26.7823 254.17 26.7823C253.771 26.7823 253.486 27.0957 253.316 27.7224L249.042 42.7647C248.7 43.9612 248.045 44.9298 247.076 45.6705C246.108 46.3543 245.054 46.6962 243.914 46.6962Z" fill="#1B1717"/>
<path d="M290.12 46.6962C286.302 46.6962 283.197 45.4996 280.804 43.1065C278.468 40.6565 277.3 37.4087 277.3 33.3633C277.3 29.3178 278.439 26.127 280.718 23.7909C283.055 21.3978 286.103 20.2013 289.863 20.2013C292.541 20.2013 294.878 21.1414 296.872 23.0217C297.1 22.338 297.527 21.7682 298.154 21.3124C298.781 20.8565 299.521 20.6286 300.376 20.6286C301.515 20.6286 302.427 20.9705 303.111 21.6542C303.852 22.281 304.222 23.0502 304.222 23.9619V43.3629C304.222 44.3316 303.852 45.1292 303.111 45.756C302.427 46.3828 301.515 46.6962 300.376 46.6962C298.496 46.6962 297.328 45.87 296.872 44.2176C295.048 45.87 292.798 46.6962 290.12 46.6962ZM290.718 39.7733C292.541 39.7733 293.994 39.175 295.077 37.9785C296.16 36.725 296.701 35.1866 296.701 33.3633C296.701 31.483 296.16 29.9731 295.077 28.8335C293.994 27.6939 292.541 27.1241 290.718 27.1241C288.952 27.1241 287.499 27.6939 286.359 28.8335C285.277 29.9731 284.735 31.483 284.735 33.3633C284.735 35.1866 285.277 36.725 286.359 37.9785C287.499 39.175 288.952 39.7733 290.718 39.7733Z" fill="#1B1717"/>
<path d="M308.078 23.62C308.078 22.4804 308.477 21.6257 309.275 21.056C310.072 20.4862 310.984 20.2013 312.009 20.2013C312.807 20.2013 313.491 20.4292 314.061 20.885C314.687 21.2839 315.115 21.8537 315.343 22.5944L320.642 35.4999C320.927 36.2407 321.325 36.611 321.838 36.611C322.351 36.611 322.721 36.2407 322.949 35.4999L327.565 22.5944C327.849 21.7967 328.305 21.1984 328.932 20.7996C329.616 20.4007 330.328 20.2013 331.069 20.2013C332.037 20.2013 332.921 20.5147 333.718 21.1414C334.573 21.7682 335 22.5944 335 23.62C335 24.1898 334.886 24.7311 334.658 25.2439L321.325 56.0121C320.927 56.8668 320.414 57.465 319.787 57.8069C319.217 58.2057 318.619 58.4052 317.992 58.4052C316.967 58.4052 316.026 58.0348 315.172 57.2941C314.374 56.6104 313.975 55.7842 313.975 54.8155C313.975 54.3027 314.089 53.8469 314.317 53.4481L318.932 45.2432C317.964 44.9583 317.195 44.2461 316.625 43.1065L308.334 25.1584C308.163 24.6456 308.078 24.1328 308.078 23.62Z" fill="#1B1717"/>
<path d="M46.724 13.1307C43.7628 9.75228 43.1766 4.26226 36.293 4.26226C24.5528 4.26226 19.2462 10.8715 21.5121 19.212C23.1527 25.2505 28.6349 27.4174 34.8571 28.0805C42.3095 28.8746 49.5112 26.6024 49.5112 19.212C49.5112 16.4895 48.5185 15.1781 46.724 13.1307Z" fill="#1B1717"/>
<path d="M26.1575 24.9976C26.1575 24.9976 16.5502 37.3799 20.4986 44.9306C23.5717 50.8075 29.3471 54.0244 35.9551 53.4612C42.9844 52.8622 46.7319 49.0122 48.6666 42.2278C50.5875 35.4918 43.1766 24.9976 43.1766 24.9976H26.1575Z" fill="#1B1717"/>
<path d="M17.9479 41.6351C17.978 41.6609 17.9981 41.6964 18.0046 41.7355C18.2125 42.983 18.677 44.3062 19.2551 45.4816C19.8338 46.6582 20.5208 47.6753 21.1665 48.3158C21.2202 48.3691 21.2319 48.4516 21.1952 48.5178C21.1584 48.5839 21.0855 48.6175 21.0119 48.6001H21.0084L21.0005 48.5982C20.9953 48.597 20.9876 48.5951 20.9774 48.5927C20.9571 48.5877 20.9269 48.5804 20.8874 48.5706C20.8085 48.551 20.6922 48.5218 20.5424 48.4828C20.2429 48.405 19.8092 48.2884 19.2718 48.1334C18.1972 47.8233 16.7071 47.3591 15.0447 46.7426C11.7248 45.5112 7.69918 43.6655 4.93001 41.2141C2.16158 38.7633 0.275047 35.4213 0.0276587 32.4907C-0.0962941 31.0223 0.191016 29.6477 0.998014 28.5457C1.80583 27.4426 3.11974 26.6328 5.00994 26.2676C6.86294 25.9097 8.31479 26.4593 9.51315 27.5432C10.7024 28.6189 11.6423 30.2202 12.4966 31.9704C12.9059 32.8089 13.2977 33.6863 13.6884 34.5611L13.7419 34.6809C14.1508 35.5964 14.5594 36.5073 14.9887 37.3724C15.8491 39.106 16.7836 40.6359 17.9479 41.6351Z" fill="#1B1717"/>
<path d="M21.4444 5.11621C24.9543 2.58681 26.9599 6.48209 26.9599 6.48209L22.503 10.428C22.503 10.428 17.9346 7.64562 21.4444 5.11621Z" fill="#1B1717"/>
<path d="M34.6694 0C38.5152 9.95327e-07 37.6287 3.36201 37.6287 3.36201C35.7605 3.14967 33.8954 3.20453 31.4819 3.86277C31.4819 3.86277 30.8236 -1.18314e-06 34.6694 0Z" fill="#1B1717"/>
<path d="M53.4387 29.3052C52.0731 26.052 43.0499 30.7833 43.0499 30.7833L46.5972 36.6956C46.5972 36.6956 54.8745 32.7259 53.4387 29.3052Z" fill="#1B1717"/>
<path d="M31.9856 55.507C30.731 54.131 26.8101 53.5199 26.8101 53.5199C26.8101 53.5199 21.2356 53.1883 21.2164 55.507C21.1972 57.8327 26.8101 57.5465 26.8101 57.5465C26.8101 57.5465 33.4494 57.1126 31.9856 55.507Z" fill="#1B1717"/>
<path d="M36.5458 55.507C37.8004 54.131 41.7213 53.5199 41.7213 53.5199C41.7213 53.5199 47.2958 53.1883 47.315 55.507C47.3342 57.8327 41.7213 57.5465 41.7213 57.5465C41.7213 57.5465 35.082 57.1126 36.5458 55.507Z" fill="#1B1717"/>
</svg>
