<svg width="333" height="71" viewBox="0 0 333 71" fill="none" xmlns="http://www.w3.org/2000/svg">
<rect width="333" height="71" rx="25" fill="#BA6958"/>
<path d="M86.6608 38.52C87.4074 38.52 87.8208 38.96 87.9008 39.84L88.6208 48.48C88.6741 49.12 88.4874 49.6 88.0608 49.92C87.6608 50.24 87.1941 50.4 86.6608 50.4C86.1541 50.4 85.7008 50.24 85.3008 49.92C84.9008 49.6 84.7141 49.12 84.7408 48.48L85.3808 39.84C85.4074 39.44 85.5408 39.12 85.7808 38.88C86.0208 38.64 86.3141 38.52 86.6608 38.52ZM86.6208 32.6C87.2608 32.6 87.7941 32.8 88.2208 33.2C88.6741 33.6 88.9008 34.08 88.9008 34.64C88.9008 35.2267 88.6741 35.7333 88.2208 36.16C87.7941 36.5867 87.2608 36.8 86.6208 36.8C86.0341 36.8 85.5274 36.5867 85.1008 36.16C84.7008 35.7333 84.5008 35.2267 84.5008 34.64C84.5008 34.08 84.7008 33.6 85.1008 33.2C85.5274 32.8 86.0341 32.6 86.6208 32.6ZM106.09 43.92C105.583 44.32 104.81 44.6667 103.77 44.96C102.73 45.2533 101.717 45.4 100.73 45.4C99.0765 45.4 97.5965 45.04 96.2898 44.32C94.9832 43.5733 93.9565 42.5467 93.2098 41.24C92.4632 39.9333 92.0898 38.4533 92.0898 36.8C92.0898 35.0667 92.4498 33.5733 93.1698 32.32C93.9165 31.0667 94.9432 30.1067 96.2498 29.44C97.5565 28.7467 99.0765 28.4 100.81 28.4C101.53 28.4 102.25 28.4667 102.97 28.6C103.717 28.7333 104.397 28.9467 105.01 29.24C105.33 29.4 105.557 29.6133 105.69 29.88C105.85 30.12 105.93 30.3867 105.93 30.68C105.93 31.1067 105.77 31.5067 105.45 31.88C105.157 32.2267 104.757 32.4 104.25 32.4C104.037 32.4 103.81 32.36 103.57 32.28C103.09 32.0933 102.57 31.9467 102.01 31.84C101.45 31.7067 100.957 31.64 100.53 31.64C99.1432 31.64 97.9832 32.1067 97.0498 33.04C96.1432 33.9733 95.6898 35.2267 95.6898 36.8C95.6898 38.48 96.1565 39.8 97.0898 40.76C98.0498 41.72 99.2765 42.2 100.77 42.2C101.383 42.2 102.037 42.0933 102.73 41.88C103.423 41.6667 103.983 41.4 104.41 41.08C104.703 40.8933 105.023 40.8 105.37 40.8C105.823 40.8 106.183 40.96 106.45 41.28C106.743 41.5733 106.89 41.9467 106.89 42.4C106.89 42.9867 106.623 43.4933 106.09 43.92ZM114.811 45.4C113.665 45.4 112.611 45.1333 111.651 44.6C110.691 44.0667 109.918 43.3333 109.331 42.4C108.771 41.44 108.491 40.36 108.491 39.16C108.491 37.9333 108.771 36.8667 109.331 35.96C109.918 35.0267 110.691 34.3067 111.651 33.8C112.611 33.2667 113.665 33 114.811 33C115.985 33 117.038 33.2667 117.971 33.8C118.931 34.3067 119.691 35.0267 120.251 35.96C120.811 36.8667 121.091 37.9333 121.091 39.16C121.091 40.36 120.811 41.44 120.251 42.4C119.691 43.3333 118.931 44.0667 117.971 44.6C117.038 45.1333 115.985 45.4 114.811 45.4ZM114.811 42.16C115.638 42.16 116.305 41.88 116.811 41.32C117.345 40.7333 117.611 40.0133 117.611 39.16C117.611 38.28 117.345 37.5733 116.811 37.04C116.305 36.5067 115.638 36.24 114.811 36.24C114.011 36.24 113.331 36.5067 112.771 37.04C112.238 37.5733 111.971 38.28 111.971 39.16C111.971 40.0133 112.238 40.7333 112.771 41.32C113.331 41.88 114.011 42.16 114.811 42.16ZM125.31 45.4C124.803 45.4 124.377 45.2533 124.03 44.96C123.683 44.6667 123.51 44.2933 123.51 43.84V34.76C123.51 34.3333 123.67 33.9733 123.99 33.68C124.337 33.36 124.777 33.2 125.31 33.2C125.923 33.2 126.39 33.4133 126.71 33.84C126.843 34 126.923 34.16 126.95 34.32C127.27 33.92 127.697 33.6 128.23 33.36C128.763 33.12 129.363 33 130.03 33C131.843 33 133.15 33.6 133.95 34.8C134.43 34.2133 135.017 33.7733 135.71 33.48C136.403 33.16 137.123 33 137.87 33C139.363 33 140.537 33.44 141.39 34.32C142.27 35.2 142.71 36.6 142.71 38.52V43.92C142.71 44.3467 142.537 44.7067 142.19 45C141.87 45.2667 141.457 45.4 140.95 45.4C140.443 45.4 140.017 45.2533 139.67 44.96C139.35 44.6667 139.19 44.2933 139.19 43.84V38.96C139.19 37.9733 139.017 37.2667 138.67 36.84C138.323 36.4133 137.83 36.2 137.19 36.2C136.55 36.2 136.03 36.4 135.63 36.8C135.257 37.1733 135.003 37.6267 134.87 38.16V43.92C134.87 44.3467 134.697 44.7067 134.35 45C134.03 45.2667 133.617 45.4 133.11 45.4C132.603 45.4 132.177 45.2533 131.83 44.96C131.51 44.6667 131.35 44.2933 131.35 43.84V38.96C131.35 37.9733 131.177 37.2667 130.83 36.84C130.483 36.4133 129.99 36.2 129.35 36.2C128.737 36.2 128.23 36.4 127.83 36.8C127.43 37.1733 127.163 37.6133 127.03 38.12V43.8C127.03 44.2533 126.857 44.64 126.51 44.96C126.19 45.2533 125.79 45.4 125.31 45.4ZM147.538 45.4C147.031 45.4 146.604 45.2533 146.258 44.96C145.911 44.6667 145.738 44.2933 145.738 43.84V34.76C145.738 34.3333 145.898 33.9733 146.218 33.68C146.564 33.36 147.004 33.2 147.538 33.2C148.071 33.2 148.484 33.36 148.778 33.68C149.098 33.9733 149.258 34.3467 149.258 34.8V43.8C149.258 44.2533 149.084 44.64 148.738 44.96C148.418 45.2533 148.018 45.4 147.538 45.4ZM147.538 31.2C146.978 31.2 146.498 31.0267 146.098 30.68C145.698 30.3067 145.498 29.84 145.498 29.28C145.498 28.7733 145.698 28.3333 146.098 27.96C146.498 27.5867 146.978 27.4 147.538 27.4C148.071 27.4 148.524 27.5867 148.898 27.96C149.298 28.3333 149.498 28.7733 149.498 29.28C149.498 29.84 149.298 30.3067 148.898 30.68C148.524 31.0267 148.071 31.2 147.538 31.2ZM158.135 45.4C156.321 45.4 154.788 44.8667 153.535 43.8C152.308 42.7067 151.695 41.2133 151.695 39.32C151.695 37.3467 152.295 35.8 153.495 34.68C154.721 33.56 156.255 33 158.095 33C159.401 33 160.481 33.24 161.335 33.72C162.188 34.2 162.828 34.8133 163.255 35.56C163.681 36.3067 163.895 37.0933 163.895 37.92C163.895 39.3067 163.281 40 162.055 40H155.415C155.201 40 155.095 40.1333 155.095 40.4C155.095 41.0133 155.428 41.5067 156.095 41.88C156.788 42.2267 157.561 42.4 158.415 42.4C158.948 42.4 159.481 42.3333 160.015 42.2C160.548 42.04 161.015 41.8133 161.415 41.52C161.681 41.3333 161.961 41.24 162.255 41.24C162.655 41.24 162.988 41.3867 163.255 41.68C163.548 41.9733 163.695 42.32 163.695 42.72C163.695 43.2 163.441 43.6533 162.935 44.08C162.455 44.48 161.748 44.8 160.815 45.04C159.908 45.28 159.015 45.4 158.135 45.4ZM160.215 37.68C160.268 37.68 160.335 37.6667 160.415 37.64C160.521 37.6133 160.575 37.52 160.575 37.36C160.575 36.96 160.321 36.6 159.815 36.28C159.335 35.9333 158.708 35.76 157.935 35.76C157.108 35.76 156.428 35.9467 155.895 36.32C155.388 36.6667 155.135 37.0267 155.135 37.4C155.135 37.5867 155.241 37.68 155.455 37.68H160.215ZM176.324 45.4C175.817 45.4 175.39 45.2533 175.044 44.96C174.724 44.6667 174.564 44.2933 174.564 43.84V38.96C174.564 37.9733 174.337 37.2667 173.884 36.84C173.457 36.4133 172.924 36.2 172.284 36.2C171.617 36.2 171.057 36.4133 170.604 36.84C170.177 37.2667 169.91 37.76 169.804 38.32V43.68C169.804 44.1333 169.63 44.52 169.284 44.84C168.964 45.1333 168.564 45.28 168.084 45.28C167.577 45.28 167.15 45.1333 166.804 44.84C166.457 44.5467 166.284 44.1733 166.284 43.72V34.76C166.284 34.3333 166.444 33.9733 166.764 33.68C167.11 33.36 167.55 33.2 168.084 33.2C168.51 33.2 168.87 33.32 169.164 33.56C169.457 33.7733 169.657 34.0533 169.764 34.4C170.484 33.4667 171.577 33 173.044 33C174.537 33 175.75 33.44 176.684 34.32C177.617 35.2 178.084 36.6 178.084 38.52V43.92C178.084 44.3467 177.91 44.7067 177.564 45C177.244 45.2667 176.83 45.4 176.324 45.4ZM181.608 45C181.022 45 180.555 44.8267 180.208 44.48C179.862 44.1067 179.688 43.6933 179.688 43.24C179.688 42.7867 179.875 42.3467 180.248 41.92L185.048 37.32C185.182 37.1867 185.248 37.0533 185.248 36.92C185.248 36.7067 185.075 36.6 184.728 36.6H181.648C181.088 36.6 180.662 36.44 180.368 36.12C180.075 35.7733 179.928 35.4 179.928 35C179.928 34.6 180.075 34.24 180.368 33.92C180.662 33.5733 181.088 33.4 181.648 33.4H188.568C189.182 33.4 189.675 33.5867 190.048 33.96C190.422 34.3067 190.608 34.7333 190.608 35.24C190.608 35.5067 190.542 35.8 190.408 36.12C190.302 36.4133 190.102 36.6933 189.808 36.96L185.568 41.08C185.435 41.2133 185.368 41.3467 185.368 41.48C185.368 41.6933 185.542 41.8 185.888 41.8H189.528C190.062 41.8 190.448 41.9733 190.688 42.32C190.955 42.64 191.088 43 191.088 43.4C191.088 43.8 190.955 44.1733 190.688 44.52C190.448 44.84 190.062 45 189.528 45H181.608ZM198.085 45.4C196.298 45.4 194.845 44.84 193.725 43.72C192.632 42.5733 192.085 41.0533 192.085 39.16C192.085 37.2667 192.618 35.7733 193.685 34.68C194.778 33.56 196.205 33 197.965 33C199.218 33 200.312 33.44 201.245 34.32C201.352 34 201.552 33.7333 201.845 33.52C202.138 33.3067 202.485 33.2 202.885 33.2C203.418 33.2 203.845 33.36 204.165 33.68C204.512 33.9733 204.685 34.3333 204.685 34.76V43.84C204.685 44.2933 204.512 44.6667 204.165 44.96C203.845 45.2533 203.418 45.4 202.885 45.4C202.005 45.4 201.458 45.0133 201.245 44.24C200.392 45.0133 199.338 45.4 198.085 45.4ZM198.365 42.16C199.218 42.16 199.898 41.88 200.405 41.32C200.912 40.7333 201.165 40.0133 201.165 39.16C201.165 38.28 200.912 37.5733 200.405 37.04C199.898 36.5067 199.218 36.24 198.365 36.24C197.538 36.24 196.858 36.5067 196.325 37.04C195.818 37.5733 195.565 38.28 195.565 39.16C195.565 40.0133 195.818 40.7333 196.325 41.32C196.858 41.88 197.538 42.16 198.365 42.16ZM214.498 34.6C214.498 34.0667 214.684 33.6667 215.058 33.4C215.431 33.1333 215.858 33 216.338 33C216.711 33 217.031 33.1067 217.298 33.32C217.591 33.5067 217.791 33.7733 217.898 34.12L220.378 40.16C220.511 40.5067 220.698 40.68 220.938 40.68C221.178 40.68 221.351 40.5067 221.458 40.16L223.618 34.12C223.751 33.7467 223.964 33.4667 224.258 33.28C224.578 33.0933 224.911 33 225.258 33C225.711 33 226.124 33.1467 226.498 33.44C226.898 33.7333 227.098 34.12 227.098 34.6C227.098 34.8667 227.044 35.12 226.938 35.36L220.698 49.76C220.511 50.16 220.271 50.44 219.978 50.6C219.711 50.7867 219.431 50.88 219.138 50.88C218.658 50.88 218.218 50.7067 217.818 50.36C217.444 50.04 217.258 49.6533 217.258 49.2C217.258 48.96 217.311 48.7467 217.418 48.56L219.578 44.72C219.124 44.5867 218.764 44.2533 218.498 43.72L214.618 35.32C214.538 35.08 214.498 34.84 214.498 34.6ZM233.905 45.4C232.119 45.4 230.665 44.84 229.545 43.72C228.452 42.5733 227.905 41.0533 227.905 39.16C227.905 37.2667 228.439 35.7733 229.505 34.68C230.599 33.56 232.025 33 233.785 33C235.039 33 236.132 33.44 237.065 34.32C237.172 34 237.372 33.7333 237.665 33.52C237.959 33.3067 238.305 33.2 238.705 33.2C239.239 33.2 239.665 33.36 239.985 33.68C240.332 33.9733 240.505 34.3333 240.505 34.76V43.84C240.505 44.2933 240.332 44.6667 239.985 44.96C239.665 45.2533 239.239 45.4 238.705 45.4C237.825 45.4 237.279 45.0133 237.065 44.24C236.212 45.0133 235.159 45.4 233.905 45.4ZM234.185 42.16C235.039 42.16 235.719 41.88 236.225 41.32C236.732 40.7333 236.985 40.0133 236.985 39.16C236.985 38.28 236.732 37.5733 236.225 37.04C235.719 36.5067 235.039 36.24 234.185 36.24C233.359 36.24 232.679 36.5067 232.145 37.04C231.639 37.5733 231.385 38.28 231.385 39.16C231.385 40.0133 231.639 40.7333 232.145 41.32C232.679 41.88 233.359 42.16 234.185 42.16ZM246.35 40.08C245.603 40.08 245.19 39.64 245.11 38.76L244.39 30.12C244.337 29.48 244.523 29 244.95 28.68C245.377 28.36 245.843 28.2 246.35 28.2C246.857 28.2 247.31 28.36 247.71 28.68C248.137 29 248.323 29.48 248.27 30.12L247.63 38.76C247.603 39.16 247.47 39.48 247.23 39.72C247.017 39.96 246.723 40.08 246.35 40.08ZM246.39 46C245.75 46 245.203 45.8 244.75 45.4C244.323 45 244.11 44.52 244.11 43.96C244.11 43.3733 244.323 42.8667 244.75 42.44C245.203 42.0133 245.75 41.8 246.39 41.8C246.977 41.8 247.47 42.0133 247.87 42.44C248.297 42.8667 248.51 43.3733 248.51 43.96C248.51 44.52 248.297 45 247.87 45.4C247.47 45.8 246.977 46 246.39 46Z" fill="white"/>
</svg>
