<svg width="117" height="124" viewBox="0 0 117 124" fill="none" xmlns="http://www.w3.org/2000/svg">
<path d="M78.7999 117.166C102.444 123.634 120.16 107.202 116.526 97.5879C112.893 87.9737 101.401 89.8965 93.4037 97.5879C93.4037 97.5879 69.7744 114.697 78.7999 117.166Z" fill="#5B3236"/>
<path fill-rule="evenodd" clip-rule="evenodd" d="M103.67 115.742C103.112 115.985 102.54 116.215 101.955 116.432H101.931L103.813 109.341L97.3295 105.699C96.7383 108.445 96.0464 111.379 95.1655 114.882L98.3889 117.529C97.7724 117.683 97.1443 117.821 96.5053 117.943L94.7674 116.453C94.6152 117.05 94.4577 117.663 94.2944 118.295C93.6566 118.376 93.0091 118.441 92.3526 118.489C92.6965 117.339 93.017 116.249 93.3173 115.21L87.3155 110.064L87.8374 108.863L93.7451 113.715C94.6747 110.433 95.3984 107.644 96.0249 104.966L91.6653 102.517L92.1873 101.507L96.2947 103.794C96.7888 101.61 97.2279 99.4626 97.6728 97.1397L95.3592 96.0851C95.7464 95.7736 96.1393 95.475 96.5367 95.1899L97.9196 95.8365C98.0279 95.2585 98.1372 94.668 98.2484 94.0619C98.7002 93.7897 99.1557 93.535 99.6134 93.2985C99.4411 94.3715 99.2729 95.3966 99.1047 96.3906L106.351 99.7786L108.621 91.2234C109.021 91.2616 109.415 91.3209 109.799 91.4019L107.549 100.339L116.276 104.419C116.134 104.747 115.977 105.076 115.805 105.405L107.255 101.507L105.403 108.863L110.452 111.674C110.114 111.948 109.763 112.217 109.402 112.48L105.1 110.064L103.67 115.742ZM106.039 100.953L98.8816 97.6907C98.4756 100.023 98.0603 102.219 97.5817 104.51L104.128 108.154L106.039 100.953Z" fill="#885551"/>
<path d="M45.7671 119.718C45.7671 119.718 44.5679 122.09 45.5919 122.66C48.3942 124.217 51.0213 121.794 51.3716 121.967C51.5467 122.054 51.4873 122.976 52.0722 123.352C55.575 125.601 66.6089 121.275 66.6089 121.275L56.1004 116.604L45.7671 119.718Z" fill="#4A2932"/>
<path d="M10.9119 111.288C9.69153 112.155 9.27893 113.711 10.2146 114.409C12.3067 115.97 14.2245 114.583 14.5732 114.756C14.7475 114.843 15.0962 116.086 16.8396 116.664C21.0239 118.051 30.2642 116.837 30.2642 116.837L14.3988 109.207C12.9009 110.087 12.1323 110.421 10.9119 111.288Z" fill="#4A2932"/>
<path d="M16.1883 85.2772C10.8773 90.0563 8.13374 96.3133 9.70963 102.269C14.5559 114.135 20.7357 114.76 31.4219 116.458L16.1883 85.2772Z" fill="#BA6958"/>
<path d="M36.3864 118.985C48.2632 120.874 51.4127 120.2 54.8799 117.937V65.6983H20.8589C18.3923 89.4362 16.7885 104.183 21.9057 110.424C27.0228 116.666 29.4031 117.381 36.3864 118.985Z" fill="#F1AD94"/>
<path d="M11.5161 81.9909C11.1149 77.0592 12.2081 73.4171 16.532 65.4082L23.4506 67.5028C22.8208 71.1231 23.2363 73.2215 25.5262 77.1034C30.8361 87.1103 30.5296 90.2421 25.5262 92.4642C20.3576 92.8971 15.1419 91.3359 11.5161 81.9909Z" fill="#AD5F52"/>
<path d="M64.4365 85.8573C63.4468 74.655 56.0117 71.0377 52.4179 70.6292" stroke="#1B1717"/>
<path d="M79.9392 47.8596C90.9485 62.7629 95.1042 71.5526 95.5688 88.7253C92.3041 110.944 84.7682 116.92 65.8725 121.383C54.8504 121.542 50.3388 118.842 47.2905 105.665C46.0293 94.7338 50.1878 83.5288 53.8897 67.4193L79.9392 47.8596Z" fill="#BA6958"/>
<path d="M39.987 93.0966C36.1569 88.6121 40.6054 81.2429 53.6891 67.4419C56.4642 66.2202 61.4941 67.4419 65.6567 72.503C69.1807 79.2711 67.8767 82.1222 64.7895 86.9883C51.5342 94.6858 45.178 97.4009 39.987 93.0966Z" fill="#AD5F52"/>
<path d="M62.1198 7.06717C62.1198 7.06717 65.8657 -1.07014 72.6966 4.29701C79.5275 9.66417 73.2254 16.2433 73.2254 16.2433L62.1198 7.06717Z" fill="#BA6958"/>
<path d="M65.0159 9.33433C65.0159 9.33433 66.8297 5.65113 70.1373 8.08047C73.4448 10.5098 70.3933 13.4877 70.3933 13.4877L65.0159 9.33433Z" fill="#5B3236"/>
<path d="M24.4711 6.07099C24.4711 6.07099 20.5823 0.473219 15.4561 4.50641C10.33 8.5396 14.9259 14.0678 14.9259 14.0678L24.4711 6.07099Z" fill="#BA6958"/>
<path d="M22.0096 8.36947C22.0096 8.36947 20.2779 5.50314 17.4099 7.21838C14.5419 8.93362 17.1799 12.1825 17.1799 12.1825L22.0096 8.36947Z" fill="#5B3236"/>
<path d="M32.1578 68.7063C32.1578 68.7063 3.09393 67.4115 0.275177 52.8001C-0.770157 47.3815 1.14713 39.6906 6.23653 37.0687C11.7812 34.2122 13.9319 34.5618 19.6412 35.4898C22.6842 35.9844 26.7381 36.6433 32.8557 37.0687C41.6926 37.6832 48.2007 36.8869 53.5717 36.2297C58.895 35.5783 63.1013 35.0636 67.3507 36.1947C80.5789 42.1595 81.5075 52.8312 70.7764 61.0419C68.9267 62.3904 66.7929 63.6656 64.1998 65.0275C50.6648 69.379 32.1578 68.7063 32.1578 68.7063Z" fill="#F7B9A2"/>
<path d="M50.4511 2.26262C70.5325 5.50571 87.8806 31.6209 80.7659 49.3043C77.5626 54.7256 74.8628 58.0627 70.7764 61.0419C81.5075 52.8312 80.5789 42.1595 67.3507 36.1947C63.1013 35.0636 58.895 35.5783 53.5717 36.2297C48.2007 36.8869 41.6926 37.6832 32.8557 37.0687C26.7381 36.6433 22.6842 35.9844 19.6412 35.4898C13.9319 34.5618 11.7812 34.2122 6.23653 37.0687C6.38641 36.3301 6.72176 34.6988 6.89573 33.9224C10.864 15.929 17.474 7.75174 28.4992 4.25982C29.3507 2.88856 30.9383 2.26262 32.1578 2.26262C33.829 2.32018 34.9617 2.46292 35.7641 2.67097C36.0809 2.62666 36.4006 2.58455 36.7231 2.54456C36.6519 2.48882 36.5807 2.4334 36.5097 2.3782C35.6138 1.68121 34.7628 1.01921 34.5969 0.187209C34.513 -0.23381 38.5395 -0.0825393 41.7226 2.09825C42.0151 2.08094 42.3097 2.06484 42.6064 2.0499C41.9374 1.58458 41.1756 1.18435 41.0432 0.36187C40.9042 -0.50089 47.6615 0.833573 50.4511 2.26262Z" fill="#BA6958"/>
<path d="M39.5747 44.3772C38.875 40.8504 29.2549 37.8526 29.2549 37.8526C29.2549 37.8526 20.3345 41.5558 19.8097 44.3772C19.2126 47.5878 20.9439 50.4493 24.1825 50.5491C26.1987 50.6112 28.5553 48.6094 28.5553 48.6094C28.5553 48.6094 31.7109 51.0087 34.1525 50.9018C37.8312 50.7407 40.2044 47.5513 39.5747 44.3772Z" fill="#F5F5F5"/>
<ellipse cx="3.69245" cy="4.85848" rx="3.69245" ry="4.85848" transform="matrix(-1 0 0 1 52.1289 27.9906)" fill="#5B3236"/>
<ellipse cx="1.157" cy="1.55469" rx="1.157" ry="1.55469" transform="matrix(-0.983194 0.182563 0.182011 0.983297 51.7446 28.9867)" fill="#D9D9D9"/>
<ellipse cx="3.62005" cy="4.85848" rx="3.62005" ry="4.85848" transform="matrix(-1 0 0 1 20.1279 27.5555)" fill="#5B3236"/>
<ellipse cx="1.157" cy="1.55469" rx="1.157" ry="1.55469" transform="matrix(-0.983194 0.182563 0.182011 0.983297 19.7822 28.6373)" fill="#D9D9D9"/>
<path d="M31.5186 57.8219C34.3906 57.2944 33.208 50.4359 33.208 50.4359L28.8156 48.1497V56.7668C28.8156 56.7668 29.8549 58.1276 31.5186 57.8219Z" fill="#F5F5F5"/>
<path d="M26.8388 58.0117C23.8332 58.0117 24.7468 50.0869 24.7468 50.0869L29.1051 48.1497V56.9551C29.1051 56.9551 28.5821 58.0117 26.8388 58.0117Z" fill="#EBEBEB"/>
<path fill-rule="evenodd" clip-rule="evenodd" d="M28.5456 40.8983C28.2589 40.8983 28.0265 41.1334 28.0265 41.4234V47.893C27.9586 47.9575 27.857 48.0433 27.7237 48.1445C27.4476 48.3541 27.0626 48.6088 26.6225 48.8501C25.7156 49.3472 24.6891 49.7234 23.9213 49.6522C21.6177 49.4383 20.5864 47.5402 20.5864 45.7992C20.5864 45.5092 20.354 45.2741 20.0673 45.2741C19.7806 45.2741 19.5482 45.5092 19.5482 45.7992C19.5482 47.909 20.8328 50.42 23.8265 50.698C24.9184 50.7994 26.1779 50.2883 27.1171 49.7735C27.6 49.5088 28.0281 49.2264 28.3467 48.9846C28.4269 48.9237 28.502 48.864 28.5704 48.8066C28.6403 48.8583 28.7173 48.9129 28.7999 48.9695C29.1651 49.2194 29.6731 49.5295 30.2562 49.8325C31.403 50.4285 32.9277 51.0438 34.253 51.0502C36.3064 51.0603 37.7514 50.1964 38.6719 49.0466C39.5773 47.9157 39.9653 46.5233 39.9653 45.4492C39.9653 45.1591 39.7329 44.924 39.4463 44.924C39.1596 44.9241 38.9272 45.1591 38.9272 45.4492C38.9272 46.3004 38.6101 47.4552 37.8651 48.3856C37.1354 49.2971 35.9849 50.0085 34.258 50C33.1884 49.9948 31.8461 49.4781 30.7306 48.8984C30.1827 48.6136 29.7107 48.3249 29.3817 48.0997C29.246 48.0068 29.1398 47.9283 29.0647 47.868V41.4234C29.0647 41.1334 28.8323 40.8983 28.5456 40.8983ZM28.0943 47.8228C28.1007 47.8148 28.0994 47.8152 28.094 47.8231C28.0941 47.823 28.0942 47.8228 28.0943 47.8228Z" fill="#4A2932"/>
<ellipse cx="5.06807" cy="3.9883" rx="5.06807" ry="3.9883" transform="matrix(-1 0 0 1 34.0283 35.2421)" fill="#4A2932"/>
<path fill-rule="evenodd" clip-rule="evenodd" d="M48.1739 19.8008C48.5724 19.8398 48.9693 19.9666 49.4705 20.2202C49.8079 20.3909 50.2415 20.2929 50.439 20.0013C50.6365 19.7097 50.5232 19.335 50.1858 19.1643C49.579 18.8572 48.991 18.6495 48.3335 18.585C47.6786 18.5208 47.0137 18.6045 46.2613 18.8006C45.887 18.8982 45.6751 19.2395 45.788 19.563C45.9009 19.8865 46.2959 20.0696 46.6702 19.972C47.3104 19.8051 47.7727 19.7614 48.1739 19.8008Z" fill="#4A2932"/>
<path fill-rule="evenodd" clip-rule="evenodd" d="M17.7448 19.531C18.1321 19.5064 18.5356 19.5703 19.0643 19.7452C19.4201 19.8629 19.813 19.6947 19.9418 19.3696C20.0706 19.0445 19.8866 18.6855 19.5308 18.5677C18.8908 18.356 18.2888 18.2412 17.6498 18.2818C17.0134 18.3221 16.3975 18.513 15.7211 18.8311C15.3846 18.9893 15.2522 19.3668 15.4253 19.6743C15.5985 19.9818 16.0116 20.1027 16.3481 19.9445C16.9237 19.6738 17.3549 19.5557 17.7448 19.531Z" fill="#4A2932"/>
<path d="M56.6279 38.8679C54.4921 38.8527 52.2736 40.5922 52.2736 42.1439C52.2736 43.6956 54.5335 45.3095 56.6279 45.2474C58.7519 45.1845 60.9746 43.8961 60.8081 41.799C60.6513 39.8248 58.6284 38.8822 56.6279 38.8679Z" fill="#F89A81"/>
<path d="M7.41977 38.868C5.22551 38.8533 4.19881 40.0321 4.19881 41.5288C4.19881 43.0255 6.15363 44.5822 8.30543 44.5223C10.4876 44.4616 11.8855 43.0526 11.7144 41.0299C11.5533 39.1257 9.47499 38.8818 7.41977 38.868Z" fill="#F89A81"/>
</svg>
