<svg width="86" height="29" viewBox="0 0 86 29" fill="none" xmlns="http://www.w3.org/2000/svg">
<path d="M30.074 19C29.4167 19 28.884 18.796 28.476 18.388C28.068 17.98 27.864 17.4473 27.864 16.79V7.338C27.864 6.68067 28.0567 6.17067 28.442 5.808C28.8273 5.42267 29.3373 5.23 29.972 5.23H35.106C36.058 5.23 36.534 5.68333 36.534 6.59C36.534 6.97533 36.398 7.304 36.126 7.576C35.854 7.82533 35.514 7.95 35.106 7.95H31.604C31.1507 7.95 30.924 8.17667 30.924 8.63V9.99C30.924 10.4433 31.1507 10.67 31.604 10.67H34.596C35.0493 10.67 35.4007 10.7947 35.65 11.044C35.8993 11.2933 36.024 11.622 36.024 12.03C36.024 12.3927 35.8767 12.71 35.582 12.982C35.31 13.254 34.9813 13.39 34.596 13.39H31.604C31.1507 13.39 30.924 13.6167 30.924 14.07V15.566C30.924 16.0193 31.1507 16.246 31.604 16.246H35.446C35.8767 16.246 36.2167 16.3707 36.466 16.62C36.738 16.8693 36.874 17.2093 36.874 17.64C36.874 18.0253 36.738 18.354 36.466 18.626C36.194 18.8753 35.854 19 35.446 19H30.074ZM43.4347 19.34C41.916 19.34 40.692 18.864 39.7627 17.912C38.856 16.9373 38.4027 15.6453 38.4027 14.036C38.4027 12.4267 38.8447 11.1573 39.7287 10.228C40.6353 9.276 41.8367 8.8 43.3327 8.8C44.3073 8.8 45.18 9.15133 45.9507 9.854V5.4C45.9507 5.01467 46.0867 4.69733 46.3587 4.448C46.6307 4.176 46.982 4.04 47.4127 4.04C47.866 4.04 48.2287 4.176 48.5007 4.448C48.7953 4.69733 48.9427 5.00333 48.9427 5.366V18.014C48.9427 18.3993 48.7953 18.7167 48.5007 18.966C48.2287 19.2153 47.866 19.34 47.4127 19.34C46.6873 19.34 46.2227 19.0227 46.0187 18.388C45.316 19.0227 44.4547 19.34 43.4347 19.34ZM43.6727 16.586C44.3527 16.586 44.8967 16.348 45.3047 15.872C45.7353 15.3733 45.9507 14.7613 45.9507 14.036C45.9507 13.288 45.7353 12.6873 45.3047 12.234C44.8967 11.7807 44.3527 11.554 43.6727 11.554C42.97 11.554 42.4033 11.7807 41.9727 12.234C41.5647 12.6873 41.3607 13.288 41.3607 14.036C41.3607 14.7613 41.5647 15.3733 41.9727 15.872C42.4033 16.348 42.97 16.586 43.6727 16.586ZM53.0646 19.34C52.634 19.34 52.2713 19.2153 51.9766 18.966C51.682 18.7167 51.5346 18.3993 51.5346 18.014V10.296C51.5346 9.93333 51.6706 9.62733 51.9426 9.378C52.2373 9.106 52.6113 8.97 53.0646 8.97C53.518 8.97 53.8693 9.106 54.1186 9.378C54.3906 9.62733 54.5266 9.94467 54.5266 10.33V17.98C54.5266 18.3653 54.3793 18.694 54.0846 18.966C53.8126 19.2153 53.4726 19.34 53.0646 19.34ZM53.0646 7.27C52.5886 7.27 52.1806 7.12267 51.8406 6.828C51.5006 6.51067 51.3306 6.114 51.3306 5.638C51.3306 5.20733 51.5006 4.83333 51.8406 4.516C52.1806 4.19867 52.5886 4.04 53.0646 4.04C53.518 4.04 53.9033 4.19867 54.2206 4.516C54.5606 4.83333 54.7306 5.20733 54.7306 5.638C54.7306 6.114 54.5606 6.51067 54.2206 6.828C53.9033 7.12267 53.518 7.27 53.0646 7.27ZM61.528 19.34C60.5533 19.34 59.7486 19.0567 59.114 18.49C58.4793 17.9233 58.162 17.0507 58.162 15.872V12.2C58.162 11.9733 58.0486 11.86 57.822 11.86H57.312C56.904 11.86 56.598 11.7353 56.394 11.486C56.19 11.2367 56.088 10.9193 56.088 10.534C56.088 10.126 56.19 9.79733 56.394 9.548C56.598 9.276 56.904 9.14 57.312 9.14H57.822C58.0486 9.14 58.162 9.02667 58.162 8.8V6.284C58.162 5.89867 58.298 5.57 58.57 5.298C58.842 5.026 59.1933 4.89 59.624 4.89C60.0546 4.89 60.406 5.026 60.678 5.298C60.9726 5.54733 61.12 5.876 61.12 6.284V8.8C61.12 9.02667 61.2333 9.14 61.46 9.14H62.718C63.1033 9.14 63.4206 9.276 63.67 9.548C63.942 9.82 64.078 10.1487 64.078 10.534C64.078 10.9193 63.942 11.2367 63.67 11.486C63.4206 11.7353 63.092 11.86 62.684 11.86H61.46C61.2333 11.86 61.12 11.9733 61.12 12.2V15.396C61.12 15.804 61.188 16.0873 61.324 16.246C61.4826 16.4047 61.6753 16.484 61.902 16.484C61.9926 16.484 62.174 16.4613 62.446 16.416C62.718 16.348 62.888 16.314 62.956 16.314C63.3186 16.314 63.6246 16.45 63.874 16.722C64.1233 16.994 64.248 17.3227 64.248 17.708C64.248 18.0027 64.1573 18.2747 63.976 18.524C63.8173 18.7733 63.5566 18.9547 63.194 19.068C62.8993 19.1587 62.616 19.2267 62.344 19.272C62.072 19.3173 61.8 19.34 61.528 19.34ZM70.364 19.34C68.8453 19.34 67.61 18.864 66.658 17.912C65.7287 16.9373 65.264 15.6453 65.264 14.036C65.264 12.4267 65.7173 11.1573 66.624 10.228C67.5533 9.276 68.766 8.8 70.262 8.8C71.3273 8.8 72.2567 9.174 73.05 9.922C73.1407 9.65 73.3107 9.42333 73.56 9.242C73.8093 9.06067 74.104 8.97 74.444 8.97C74.8973 8.97 75.26 9.106 75.532 9.378C75.8267 9.62733 75.974 9.93333 75.974 10.296V18.014C75.974 18.3993 75.8267 18.7167 75.532 18.966C75.26 19.2153 74.8973 19.34 74.444 19.34C73.696 19.34 73.2313 19.0113 73.05 18.354C72.3247 19.0113 71.4293 19.34 70.364 19.34ZM70.602 16.586C71.3273 16.586 71.9053 16.348 72.336 15.872C72.7667 15.3733 72.982 14.7613 72.982 14.036C72.982 13.288 72.7667 12.6873 72.336 12.234C71.9053 11.7807 71.3273 11.554 70.602 11.554C69.8993 11.554 69.3213 11.7807 68.868 12.234C68.4373 12.6873 68.222 13.288 68.222 14.036C68.222 14.7613 68.4373 15.3733 68.868 15.872C69.3213 16.348 69.8993 16.586 70.602 16.586ZM80.058 19.238C79.6273 19.238 79.2646 19.1133 78.97 18.864C78.6753 18.6147 78.528 18.2973 78.528 17.912V10.296C78.528 9.93333 78.664 9.62733 78.936 9.378C79.2306 9.106 79.6046 8.97 80.058 8.97C80.466 8.97 80.7946 9.09467 81.044 9.344C81.316 9.57067 81.4746 9.854 81.52 10.194C81.7693 9.80867 82.1093 9.48 82.54 9.208C82.9706 8.936 83.424 8.8 83.9 8.8C84.1946 8.8 84.478 8.834 84.75 8.902C85.0673 8.99267 85.328 9.174 85.532 9.446C85.736 9.69533 85.838 9.99 85.838 10.33C85.838 10.806 85.6793 11.2027 85.362 11.52C85.0673 11.8147 84.716 11.9167 84.308 11.826C84.0133 11.758 83.7186 11.724 83.424 11.724C82.9026 11.724 82.472 11.9053 82.132 12.268C81.792 12.6307 81.588 13.3673 81.52 14.478V17.878C81.52 18.2633 81.3726 18.592 81.078 18.864C80.806 19.1133 80.466 19.238 80.058 19.238Z" fill="#566C9F"/>
<path fill-rule="evenodd" clip-rule="evenodd" d="M14.4301 2.95497C15.042 2.3435 15.8717 2 16.7367 2C17.6022 2 18.4322 2.34381 19.0442 2.95578C19.6562 3.56776 20 4.39778 20 5.26325C20 6.12848 19.6564 6.95827 19.0447 7.5702C19.0446 7.57037 19.0449 7.57003 19.0447 7.5702L17.7143 8.9054C17.6773 8.95998 17.6347 9.01185 17.5863 9.06018C17.5389 9.1076 17.4881 9.14955 17.4347 9.18602L10.2193 16.4272C10.0218 16.6255 9.75346 16.7369 9.47363 16.7369H6.31575C5.73441 16.7369 5.26313 16.2656 5.26313 15.6842V12.5264C5.26313 12.2465 5.37455 11.9782 5.57277 11.7807L12.814 4.56533C12.8505 4.5119 12.8924 4.46109 12.9398 4.41367C12.9882 4.36533 13.04 4.32267 13.0946 4.2857L14.4293 2.95578C14.4296 2.95551 14.4298 2.95524 14.4301 2.95497ZM13.696 6.65846L7.36838 12.9635V14.6316H9.03652L15.3415 8.30404L13.696 6.65846ZM16.8275 6.81274L15.1873 5.17248L15.9179 4.44442C16.1351 4.22725 16.4296 4.10525 16.7367 4.10525C17.0439 4.10525 17.3384 4.22725 17.5556 4.44442C17.7727 4.66159 17.8947 4.95613 17.8947 5.26325C17.8947 5.57037 17.7727 5.86492 17.5556 6.08208L16.8275 6.81274ZM0.924921 7.13554C1.51714 6.54332 2.32036 6.21062 3.15788 6.21062H4.2105C4.79185 6.21062 5.26313 6.68189 5.26313 7.26324C5.26313 7.84459 4.79185 8.31587 4.2105 8.31587H3.15788C2.8787 8.31587 2.61096 8.42677 2.41356 8.62417C2.21615 8.82158 2.10525 9.08932 2.10525 9.36849V18.8421C2.10525 19.1213 2.21615 19.389 2.41356 19.5864C2.61096 19.7838 2.8787 19.8947 3.15788 19.8947H12.6315C12.9107 19.8947 13.1784 19.7838 13.3758 19.5864C13.5732 19.389 13.6841 19.1213 13.6841 18.8421V17.7895C13.6841 17.2081 14.1554 16.7369 14.7368 16.7369C15.3181 16.7369 15.7894 17.2081 15.7894 17.7895V18.8421C15.7894 19.6796 15.4567 20.4829 14.8645 21.0751C14.2722 21.6673 13.469 22 12.6315 22H3.15788C2.32036 22 1.51714 21.6673 0.924921 21.0751C0.332704 20.4829 0 19.6796 0 18.8421V9.36849C0 8.53097 0.332704 7.72775 0.924921 7.13554Z" fill="#566C9F"/>
</svg>
