<svg width="231" height="229" viewBox="0 0 231 229" fill="none" xmlns="http://www.w3.org/2000/svg">
<g filter="url(#filter0_d_178_561)">
<path d="M23.213 72.5897C12.6019 72.5897 4 81.1726 4 91.7603C4 102.348 12.6019 110.931 23.213 110.931C33.824 110.931 42.4259 102.348 42.4259 91.7603C42.4259 87.3863 40.9579 83.3545 38.4866 80.1287C36.8738 78.0234 34.8338 76.2614 32.4956 74.9716C29.744 73.4537 26.5796 72.5897 23.213 72.5897Z" fill="#BA6958"/>
<path d="M85.1694 0C74.5584 0 65.9564 8.58295 65.9564 19.1706C65.9564 23.5445 67.4245 27.5763 69.8958 30.8021C71.5085 32.9074 73.5486 34.6694 75.8867 35.9592C78.6383 37.4771 81.8027 38.3411 85.1694 38.3411C90.0555 38.3411 94.5157 36.5212 97.9061 33.5236C99.7804 31.8665 101.328 29.8495 102.439 27.581C103.684 25.0418 104.382 22.1876 104.382 19.1706C104.382 8.58295 95.7804 0 85.1694 0Z" fill="#BA6958"/>
<path d="M146.91 45.8801C141.95 45.8801 137.429 47.7555 134.02 50.8343C132.212 52.4676 130.717 54.4397 129.635 56.6501C128.394 59.1869 127.697 62.0376 127.697 65.0507C127.697 75.6383 136.299 84.2212 146.91 84.2212C157.521 84.2212 166.123 75.6383 166.123 65.0507C166.123 62.7023 165.7 60.4526 164.925 58.3733C164.058 56.0435 162.749 53.9277 161.101 52.1267C157.587 48.2882 152.53 45.8801 146.91 45.8801Z" fill="#BA6958"/>
<path d="M206.708 7.53899C196.097 7.53899 187.495 16.1219 187.495 26.7096C187.495 29.4694 188.079 32.093 189.131 34.4639C190.095 36.6344 191.45 38.5931 193.107 40.2506C196.585 43.7284 201.395 45.8801 206.708 45.8801C217.319 45.8801 225.921 37.2972 225.921 26.7096C225.921 16.1219 217.319 7.53899 206.708 7.53899Z" fill="#BA6958"/>
<path d="M69.8958 30.8021L32.4956 74.9716C34.8338 76.2614 36.8738 78.0234 38.4866 80.1287L75.8867 35.9592C73.5486 34.6694 71.5085 32.9074 69.8958 30.8021Z" fill="#757373"/>
<path d="M134.02 50.8343L102.439 27.581C101.328 29.8495 99.7804 31.8665 97.9061 33.5236L129.635 56.6501C130.717 54.4397 132.212 52.4676 134.02 50.8343Z" fill="#757373"/>
<path d="M189.131 34.4639L161.101 52.1267C162.749 53.9277 164.058 56.0435 164.925 58.3733L193.107 40.2506C191.45 38.5931 190.095 36.6344 189.131 34.4639Z" fill="#757373"/>
<path d="M4.8635 218.846C4.8635 220.036 5.83001 221 7.02226 221H41.3466C42.5388 221 43.5053 220.036 43.5053 218.846V171.889C43.5053 167.13 39.6393 163.273 34.8703 163.273H13.4985C8.72955 163.273 4.8635 167.13 4.8635 171.889V218.846Z" fill="#FFDF9B"/>
<path d="M66.3882 218.846C66.3882 220.036 67.3547 221 68.5469 221H102.224C103.416 221 104.382 220.036 104.382 218.846V119.547C104.382 114.788 100.516 110.931 95.7473 110.931H75.0232C70.2542 110.931 66.3882 114.788 66.3882 119.547V218.846Z" fill="#879FD4"/>
<path d="M128.129 218.846C128.129 220.036 129.095 221 130.288 221H162.885C164.077 221 165.044 220.036 165.044 218.846V141.518C165.044 136.759 161.178 132.902 156.409 132.902H136.764C131.995 132.902 128.129 136.759 128.129 141.518V218.846Z" fill="#566C9F"/>
<path d="M188.358 218.846C188.358 220.036 189.325 221 190.517 221H224.841C226.033 221 227 220.036 227 218.846V111.362C227 106.603 223.134 102.746 218.365 102.746H196.993C192.224 102.746 188.358 106.603 188.358 111.362V218.846Z" fill="#E2AF42"/>
</g>
<defs>
<filter id="filter0_d_178_561" x="0" y="0" width="231" height="229" filterUnits="userSpaceOnUse" color-interpolation-filters="sRGB">
<feFlood flood-opacity="0" result="BackgroundImageFix"/>
<feColorMatrix in="SourceAlpha" type="matrix" values="0 0 0 0 0 0 0 0 0 0 0 0 0 0 0 0 0 0 127 0" result="hardAlpha"/>
<feOffset dy="4"/>
<feGaussianBlur stdDeviation="2"/>
<feComposite in2="hardAlpha" operator="out"/>
<feColorMatrix type="matrix" values="0 0 0 0 0 0 0 0 0 0 0 0 0 0 0 0 0 0 0.25 0"/>
<feBlend mode="normal" in2="BackgroundImageFix" result="effect1_dropShadow_178_561"/>
<feBlend mode="normal" in="SourceGraphic" in2="effect1_dropShadow_178_561" result="shape"/>
</filter>
</defs>
</svg>
