<svg width="30" height="30" viewBox="0 0 30 30" fill="none" xmlns="http://www.w3.org/2000/svg">
<path d="M12.7744 24.1998L3.87402 17.4885C3.66616 17.3262 3.41752 17.1967 3.14261 17.1077C2.86771 17.0187 2.57203 16.9718 2.27285 16.9698C1.97366 16.9679 1.67695 17.0109 1.40003 17.0963C1.12311 17.1817 0.871533 17.3079 0.659967 17.4674C0.448402 17.6269 0.281089 17.8166 0.167793 18.0254C0.0544966 18.2343 -0.00251478 18.458 8.50762e-05 18.6836C0.00268493 18.9092 0.0648433 19.1321 0.182935 19.3394C0.301026 19.5467 0.472686 19.7342 0.687896 19.8909L13.4346 29.5025C13.8572 29.8211 14.4302 30 15.0277 30C15.6252 30 16.1982 29.8211 16.6207 29.5025L29.3675 19.8909C29.7779 19.5705 30.005 19.1413 29.9999 18.6958C29.9948 18.2503 29.7578 17.8242 29.34 17.5092C28.9223 17.1941 28.3571 17.0154 27.7663 17.0116C27.1755 17.0077 26.6063 17.179 26.1814 17.4885L17.281 24.1998V1.69906C17.281 1.24844 17.0436 0.81628 16.621 0.497644C16.1984 0.179008 15.6253 0 15.0277 0C14.4301 0 13.857 0.179008 13.4344 0.497644C13.0118 0.81628 12.7744 1.24844 12.7744 1.69906V24.1998Z" fill="#878787"/>
<path fill-rule="evenodd" clip-rule="evenodd" d="M12.7744 24.1998L3.87402 17.4885C3.66616 17.3262 3.41752 17.1967 3.14261 17.1077C2.86771 17.0187 2.57203 16.9718 2.27285 16.9698C1.97366 16.9679 1.67695 17.0109 1.40003 17.0963C1.12311 17.1817 0.871533 17.3079 0.659967 17.4674C0.448402 17.6269 0.281089 17.8166 0.167793 18.0254C0.0544966 18.2343 -0.00251478 18.458 8.50762e-05 18.6836C0.00268493 18.9092 0.0648433 19.1321 0.182935 19.3394C0.301026 19.5467 0.472686 19.7342 0.687896 19.8909L13.4346 29.5025C13.8572 29.8211 14.4302 30 15.0277 30C15.6252 30 16.1982 29.8211 16.6207 29.5025L29.3675 19.8909C29.7779 19.5705 30.005 19.1413 29.9999 18.6958C29.9948 18.2503 29.7578 17.8242 29.34 17.5092C28.9223 17.1941 28.3571 17.0154 27.7663 17.0116C27.1755 17.0077 26.6063 17.179 26.1814 17.4885L17.281 24.1998V1.69906C17.281 1.24844 17.0436 0.81628 16.621 0.497644C16.1984 0.179008 15.6253 0 15.0277 0C14.4301 0 13.857 0.179008 13.4344 0.497644C13.0118 0.81628 12.7744 1.24844 12.7744 1.69906V24.1998Z" fill="#878787"/>
</svg>
