<svg width="20" height="10" viewBox="0 0 20 10" fill="none" xmlns="http://www.w3.org/2000/svg">
<path d="M1.55249 0.262837L9.36046 7.94738C9.53082 8.11592 9.76079 8.21045 10.0004 8.21045C10.2401 8.21045 10.47 8.11592 10.6404 7.94738L18.4484 0.264505C18.6198 0.096055 18.8505 0.00166702 19.0908 0.00166702C19.3312 0.00166702 19.5619 0.096055 19.7333 0.264505C19.8177 0.346795 19.8848 0.445149 19.9306 0.55377C19.9764 0.662392 20 0.779084 20 0.896968C20 1.01485 19.9764 1.13154 19.9306 1.24016C19.8848 1.34879 19.8177 1.44714 19.7333 1.52943L11.927 9.2123C11.4128 9.71715 10.721 10 10.0004 10C9.27983 10 8.58803 9.71715 8.07385 9.2123L0.267556 1.52943C0.18289 1.44711 0.115589 1.34866 0.0696336 1.23988C0.0236779 1.13111 0 1.01422 0 0.896133C0 0.778049 0.0236779 0.661163 0.0696336 0.552388C0.115589 0.443612 0.18289 0.345154 0.267556 0.262837C0.438973 0.094388 0.669692 0 0.910025 0C1.15036 0 1.38108 0.094388 1.55249 0.262837Z" fill="black"/>
</svg>
