<svg width="38" height="38" viewBox="0 0 38 38" fill="none" xmlns="http://www.w3.org/2000/svg">
<circle cx="19" cy="19" r="19" fill="#879FD4"/>
<g clip-path="url(#clip0_620_2)">
<path d="M27.9969 16.9682C28.8134 16.9682 29.5964 17.2926 30.1737 17.8699C30.7511 18.4473 31.0754 19.2303 31.0754 20.0468C31.0754 20.8633 30.7511 21.6463 30.1737 22.2237C29.5964 22.801 28.8134 23.1253 27.9969 23.1254L18.1904 23.1253C18.0329 23.1281 17.8828 23.1926 17.7724 23.3049C17.662 23.4172 17.6001 23.5684 17.6001 23.7259C17.6001 23.8834 17.662 24.0346 17.7724 24.147C17.8828 24.2593 18.0329 24.3238 18.1904 24.3265L27.9969 24.3265C28.5615 24.3307 29.1214 24.223 29.6443 24.0098C30.1672 23.7966 30.6427 23.482 31.0435 23.0842C31.4442 22.6864 31.7623 22.2132 31.9793 21.6919C32.1964 21.1706 32.3081 20.6115 32.3081 20.0468C32.3081 19.4821 32.1964 18.923 31.9793 18.4017C31.7623 17.8804 31.4442 17.4072 31.0435 17.0094C30.6427 16.6116 30.1672 16.297 29.6443 16.0838C29.1214 15.8706 28.5615 15.7629 27.9969 15.7671L24.1746 15.7666L26.5472 13.394C26.6599 13.2814 26.7232 13.1286 26.7232 12.9693C26.7232 12.81 26.6599 12.6572 26.5472 12.5445C26.4346 12.4319 26.2818 12.3686 26.1225 12.3686C25.9632 12.3686 25.8104 12.4319 25.6977 12.5445L22.2998 15.9425C22.1871 16.0551 22.1238 16.2079 22.1238 16.3672C22.1238 16.5265 22.1871 16.6793 22.2998 16.792L25.699 20.1912C25.8116 20.3039 25.9644 20.3671 26.1237 20.3671C26.2831 20.3671 26.4358 20.3039 26.5485 20.1912C26.6611 20.0786 26.7244 19.9258 26.7244 19.7665C26.7244 19.6072 26.6611 19.4544 26.5485 19.3417L24.175 16.9682L27.9969 16.9682Z" fill="black"/>
</g>
<g clip-path="url(#clip1_620_2)">
<path d="M10.6013 21.8209C9.78479 21.8209 9.00175 21.4966 8.42441 20.9192C7.84707 20.3419 7.52272 19.5588 7.52272 18.7424C7.52272 17.9259 7.84707 17.1428 8.42441 16.5655C9.00175 15.9882 9.78479 15.6638 10.6013 15.6638L20.4078 15.6638C20.5653 15.6611 20.7154 15.5966 20.8258 15.4843C20.9362 15.3719 20.998 15.2207 20.998 15.0632C20.998 14.9057 20.9362 14.7545 20.8258 14.6422C20.7154 14.5298 20.5653 14.4654 20.4078 14.4626L10.6013 14.4626C10.0366 14.4585 9.4767 14.5661 8.95382 14.7793C8.43094 14.9926 7.95542 15.3071 7.55467 15.705C7.15392 16.1028 6.83585 16.576 6.6188 17.0973C6.40175 17.6186 6.29 18.1777 6.29 18.7424C6.29 19.307 6.40175 19.8661 6.6188 20.3874C6.83585 20.9087 7.15392 21.3819 7.55467 21.7798C7.95542 22.1776 8.43094 22.4922 8.95382 22.7054C9.4767 22.9186 10.0366 23.0262 10.6013 23.0221L14.4236 23.0225L12.0509 25.3951C11.9383 25.5078 11.875 25.6606 11.875 25.8199C11.875 25.9792 11.9383 26.132 12.0509 26.2446C12.1636 26.3573 12.3164 26.4206 12.4757 26.4206C12.635 26.4206 12.7878 26.3573 12.9004 26.2446L16.2984 22.8467C16.411 22.734 16.4743 22.5812 16.4743 22.4219C16.4743 22.2626 16.411 22.1098 16.2984 21.9972L12.8991 18.5979C12.7865 18.4853 12.6337 18.422 12.4744 18.422C12.3151 18.422 12.1623 18.4853 12.0497 18.5979C11.937 18.7106 11.8737 18.8634 11.8737 19.0227C11.8737 19.182 11.937 19.3348 12.0497 19.4474L14.4231 21.8209L10.6013 21.8209Z" fill="black"/>
</g>
<defs>
<clipPath id="clip0_620_2">
<rect width="16.8191" height="16.8191" fill="white" transform="translate(24.7051 9.00342) rotate(45)"/>
</clipPath>
<clipPath id="clip1_620_2">
<rect width="16.8191" height="16.8191" fill="white" transform="translate(13.8931 29.7857) rotate(-135)"/>
</clipPath>
</defs>
</svg>
