<svg width="587" height="701" viewBox="0 0 587 701" fill="none" xmlns="http://www.w3.org/2000/svg">
<path d="M553.195 174.152C518.135 134.152 511.195 69.1519 429.695 69.1519C290.695 69.1519 227.868 147.403 254.695 246.152C274.119 317.646 339.027 343.302 412.695 351.152C500.929 360.554 586.195 333.652 586.195 246.152C586.195 213.919 574.441 198.392 553.195 174.152Z" fill="#885551"/>
<path d="M309.695 314.652C309.695 314.652 195.948 461.254 242.695 550.652C279.08 620.233 347.459 658.32 425.695 651.652C508.921 644.559 553.289 598.977 576.195 518.652C598.938 438.9 511.195 314.652 511.195 314.652H309.695Z" fill="#885551"/>
<path d="M212.498 511.634C212.854 511.94 213.091 512.361 213.168 512.823C215.63 527.593 221.13 543.26 227.974 557.175C234.826 571.107 242.959 583.148 250.604 590.732C251.24 591.363 251.379 592.34 250.944 593.123C250.509 593.906 249.645 594.304 248.773 594.098H248.733L248.639 594.075C248.578 594.061 248.486 594.039 248.366 594.01C248.125 593.951 247.768 593.864 247.3 593.748C246.365 593.517 244.989 593.17 243.216 592.709C239.669 591.788 234.535 590.407 228.172 588.572C215.449 584.9 197.806 579.405 178.125 572.105C138.818 557.526 91.1557 535.673 58.3696 506.65C25.5922 477.634 3.25636 438.064 0.327362 403.367C-1.1402 385.983 2.26146 369.707 11.8161 356.66C21.3804 343.6 36.9366 334.012 59.3159 329.688C81.2548 325.45 98.4443 331.958 112.633 344.791C126.713 357.527 137.841 376.486 147.956 397.208C152.802 407.135 157.441 417.523 162.066 427.88L162.699 429.298C167.541 440.138 172.378 450.923 177.461 461.165C187.648 481.691 198.712 499.804 212.498 511.634Z" fill="#885551"/>
<path d="M253.894 79.2625C295.449 49.3152 319.195 95.4341 319.195 95.4341L266.427 142.152C266.427 142.152 212.339 109.21 253.894 79.2625Z" fill="#885551"/>
<path d="M410.474 18.6883C456.007 18.6883 445.511 58.4934 445.511 58.4934C423.392 55.9794 401.311 56.6288 372.735 64.4222C372.735 64.4222 364.942 18.6883 410.474 18.6883Z" fill="#885551"/>
<path d="M378.699 675.873C363.845 659.582 317.423 652.346 317.423 652.346C317.423 652.346 251.423 648.42 251.196 675.873C250.968 703.409 317.423 700.02 317.423 700.02C317.423 700.02 396.031 694.882 378.699 675.873Z" fill="#885551"/>
<path d="M432.691 675.873C447.545 659.582 493.967 652.346 493.967 652.346C493.967 652.346 559.968 648.42 560.195 675.873C560.423 703.409 493.967 700.02 493.967 700.02C493.967 700.02 415.36 694.882 432.691 675.873Z" fill="#885551"/>
</svg>
