<svg width="48" height="52" viewBox="0 0 48 52" fill="none" xmlns="http://www.w3.org/2000/svg">
<path d="M41.8377 11.7576C39.1862 8.73242 38.6613 3.81653 32.4976 3.81653C21.9851 3.81653 17.2335 9.73459 19.2625 17.2029C20.7314 22.6099 25.6404 24.5502 31.2119 25.1439C37.8849 25.855 44.3335 23.8204 44.3335 17.2029C44.3335 14.7651 43.4446 13.5908 41.8377 11.7576Z" fill="#879FD4"/>
<path d="M23.422 22.3834C23.422 22.3834 14.8194 33.4708 18.3549 40.2319C21.1066 45.4942 26.2781 48.3747 32.195 47.8704C38.4892 47.334 41.8447 43.8866 43.5771 37.8117C45.2972 31.7801 38.6612 22.3834 38.6612 22.3834H23.422Z" fill="#879FD4"/>
<path d="M16.0709 37.281C16.0978 37.3041 16.1158 37.3359 16.1216 37.3709C16.3078 38.4879 16.7237 39.6728 17.2414 40.7252C17.7596 41.7788 18.3747 42.6895 18.9528 43.2631C19.0009 43.3108 19.0114 43.3847 18.9785 43.4439C18.9456 43.5031 18.8803 43.5332 18.8144 43.5176H18.8113L18.8043 43.5159C18.7996 43.5148 18.7927 43.5132 18.7836 43.511C18.7653 43.5065 18.7383 43.5 18.703 43.4912C18.6323 43.4737 18.5282 43.4475 18.3941 43.4126C18.1258 43.3429 17.7375 43.2385 17.2563 43.0997C16.2941 42.822 14.9598 42.4064 13.4713 41.8543C10.4985 40.7518 6.89392 39.099 4.41434 36.904C1.93543 34.7096 0.246187 31.717 0.0246696 29.0929C-0.0863209 27.7781 0.170942 26.5472 0.893547 25.5604C1.61689 24.5727 2.79339 23.8476 4.48591 23.5206C6.14513 23.2001 7.44516 23.6923 8.5182 24.6628C9.5831 25.626 10.4247 27.0599 11.1897 28.627C11.5562 29.3778 11.907 30.1634 12.2568 30.9468L12.3047 31.054C12.6708 31.8738 13.0367 32.6894 13.4211 33.4641C14.1915 35.0164 15.0283 36.3863 16.0709 37.281Z" fill="#879FD4"/>
<path d="M19.2017 4.58118C22.3445 2.31629 24.1404 5.80422 24.1404 5.80422L20.1496 9.33745C20.1496 9.33745 16.059 6.84607 19.2017 4.58118Z" fill="#879FD4"/>
<path d="M31.0439 0C34.4875 8.91239e-07 33.6937 3.01042 33.6937 3.01042C32.0208 2.82029 30.3509 2.86941 28.1897 3.45881C28.1897 3.45881 27.6003 -1.05941e-06 31.0439 0Z" fill="#879FD4"/>
<path d="M47.8502 26.2405C46.6274 23.3276 38.5478 27.564 38.5478 27.564L41.7242 32.8581C41.7242 32.8581 49.1359 29.3035 47.8502 26.2405Z" fill="#879FD4"/>
<path d="M28.6406 49.7022C27.5172 48.4701 24.0063 47.9229 24.0063 47.9229C24.0063 47.9229 19.0148 47.626 18.9976 49.7022C18.9804 51.7847 24.0063 51.5284 24.0063 51.5284C24.0063 51.5284 29.9513 51.1399 28.6406 49.7022Z" fill="#879FD4"/>
<path d="M32.7239 49.7022C33.8473 48.4701 37.3582 47.9229 37.3582 47.9229C37.3582 47.9229 42.3497 47.626 42.3669 49.7022C42.3841 51.7847 37.3582 51.5284 37.3582 51.5284C37.3582 51.5284 31.4132 51.1399 32.7239 49.7022Z" fill="#879FD4"/>
</svg>
