<svg width="38" height="40" viewBox="0 0 38 40" fill="none" xmlns="http://www.w3.org/2000/svg">
<path d="M6.79024 0C6.14367 0 5.61951 0.524154 5.61951 1.17073V2.84878V4.44878C5.61951 5.09536 6.14367 5.61951 6.79024 5.61951H9.01463C9.66121 5.61951 10.1854 5.09536 10.1854 4.44878V2.84878V1.17073C10.1854 0.524154 9.66121 0 9.01463 0H6.79024Z" fill="#4A4A4A"/>
<path d="M28.2146 0C27.5681 0 27.0439 0.524154 27.0439 1.17073V2.84878V4.44878C27.0439 5.09536 27.5681 5.61951 28.2146 5.61951H30.439C31.0856 5.61951 31.6098 5.09536 31.6098 4.44878V2.84878V1.17073C31.6098 0.524154 31.0856 0 30.439 0H28.2146Z" fill="#4A4A4A"/>
<path fill-rule="evenodd" clip-rule="evenodd" d="M31.6098 15.6878C31.6098 15.4723 31.435 15.2976 31.2195 15.2976H6.00976C5.79423 15.2976 5.61951 15.4723 5.61951 15.6878V34.7707C5.61951 34.9863 5.79423 35.161 6.00976 35.161H31.2195C31.435 35.161 31.6098 34.9863 31.6098 34.7707V15.6878ZM6.90732 17.0146C6.90732 16.7991 7.08204 16.6244 7.29756 16.6244H11.7073H13.1122H17.522C17.7375 16.6244 17.9122 16.7991 17.9122 17.0146V21.0341C17.9122 21.2497 17.7375 21.4244 17.522 21.4244H13.5024C13.2869 21.4244 13.1122 21.2497 13.1122 21.0341V16.6244H11.7073V21.0341C11.7073 21.2497 11.5326 21.4244 11.3171 21.4244H7.29756C7.08204 21.4244 6.90732 21.2497 6.90732 21.0341V17.0146ZM11.7073 33.8732H7.29756C7.08204 33.8732 6.90732 33.6985 6.90732 33.4829V29.3463C6.90732 29.1308 7.08204 28.9561 7.29756 28.9561H11.3171C11.5326 28.9561 11.7073 29.1308 11.7073 29.3463V33.8732H13.1122V29.3463C13.1122 29.1308 13.2869 28.9561 13.5024 28.9561H17.522C17.7375 28.9561 17.9122 29.1308 17.9122 29.3463V33.4829C17.9122 33.6985 17.7375 33.8732 17.522 33.8732H13.1122H11.7073ZM24.078 17.0146C24.078 16.7991 23.9033 16.6244 23.6878 16.6244H19.7073C19.4918 16.6244 19.3171 16.7991 19.3171 17.0146V21.0341C19.3171 21.2497 19.4918 21.4244 19.7073 21.4244H23.6878C23.9033 21.4244 24.078 21.2497 24.078 21.0341V17.0146ZM19.3171 33.4829C19.3171 33.6985 19.4918 33.8732 19.7073 33.8732H23.6878C23.9033 33.8732 24.078 33.6985 24.078 33.4829V29.3463C24.078 29.1308 23.9033 28.9561 23.6878 28.9561H19.7073C19.4918 28.9561 19.3171 29.1308 19.3171 29.3463V33.4829ZM30.322 17.0146C30.322 16.7991 30.1472 16.6244 29.9317 16.6244H25.8732C25.6576 16.6244 25.4829 16.7991 25.4829 17.0146V21.0341C25.4829 21.2497 25.6576 21.4244 25.8732 21.4244H29.9317C30.1472 21.4244 30.322 21.2497 30.322 21.0341V17.0146ZM25.4829 33.4829C25.4829 33.6985 25.6576 33.8732 25.8732 33.8732H29.9317C30.1472 33.8732 30.322 33.6985 30.322 33.4829V29.3463C30.322 29.1308 30.1472 28.9561 29.9317 28.9561H25.8732C25.6576 28.9561 25.4829 29.1308 25.4829 29.3463V33.4829ZM7.29756 22.7902C7.08204 22.7902 6.90732 22.965 6.90732 23.1805V27.278C6.90732 27.4936 7.08204 27.6683 7.29756 27.6683H11.3171C11.5326 27.6683 11.7073 27.4936 11.7073 27.278V23.1805C11.7073 22.965 11.5326 22.7902 11.3171 22.7902H7.29756ZM29.9317 27.6683C30.1472 27.6683 30.322 27.4936 30.322 27.278V23.1805C30.322 22.965 30.1472 22.7902 29.9317 22.7902H25.8732C25.6576 22.7902 25.4829 22.965 25.4829 23.1805V27.278C25.4829 27.4936 25.6576 27.6683 25.8732 27.6683H29.9317ZM17.9122 23.1805C17.9122 22.965 17.7375 22.7902 17.522 22.7902H13.5024C13.2869 22.7902 13.1122 22.965 13.1122 23.1805V27.278C13.1122 27.4936 13.2869 27.6683 13.5024 27.6683H17.522C17.7375 27.6683 17.9122 27.4936 17.9122 27.278V23.1805ZM19.7073 27.6683C19.4918 27.6683 19.3171 27.4936 19.3171 27.278V23.1805C19.3171 22.965 19.4918 22.7902 19.7073 22.7902H23.6878C23.9033 22.7902 24.078 22.965 24.078 23.1805V27.278C24.078 27.4936 23.9033 27.6683 23.6878 27.6683H19.7073Z" fill="#EEEEEE"/>
<path d="M5.61951 2.84878H1.95122C0.873591 2.84878 0 3.72237 0 4.8V10.4585H37.0732V4.8C37.0732 3.72237 36.1996 2.84878 35.122 2.84878H31.6098V4.44878C31.6098 5.09536 31.0856 5.61951 30.439 5.61951H28.2146C27.5681 5.61951 27.0439 5.09536 27.0439 4.44878V2.84878H10.1854V4.44878C10.1854 5.09536 9.66121 5.61951 9.01463 5.61951H6.79024C6.14367 5.61951 5.61951 5.09536 5.61951 4.44878V2.84878Z" fill="#BA6958"/>
<path d="M19.7073 22.7902C19.4918 22.7902 19.3171 22.965 19.3171 23.1805V27.278C19.3171 27.4936 19.4918 27.6683 19.7073 27.6683H23.6878C23.9033 27.6683 24.078 27.4936 24.078 27.278V23.1805C24.078 22.965 23.9033 22.7902 23.6878 22.7902H19.7073Z" fill="#879FD4"/>
<path d="M11.7073 16.6244H7.29756C7.08204 16.6244 6.90732 16.7991 6.90732 17.0146V21.0341C6.90732 21.2497 7.08204 21.4244 7.29756 21.4244H11.3171C11.5326 21.4244 11.7073 21.2497 11.7073 21.0341V16.6244Z" fill="#D0D0D0"/>
<path d="M7.29756 27.6683C7.08204 27.6683 6.90732 27.4936 6.90732 27.278V23.1805C6.90732 22.965 7.08204 22.7902 7.29756 22.7902H11.3171C11.5326 22.7902 11.7073 22.965 11.7073 23.1805V27.278C11.7073 27.4936 11.5326 27.6683 11.3171 27.6683H7.29756Z" fill="#D0D0D0"/>
<path d="M6.90732 33.4829C6.90732 33.6985 7.08204 33.8732 7.29756 33.8732H11.7073V29.3463C11.7073 29.1308 11.5326 28.9561 11.3171 28.9561H7.29756C7.08204 28.9561 6.90732 29.1308 6.90732 29.3463V33.4829Z" fill="#D0D0D0"/>
<path d="M13.1122 33.8732H17.522C17.7375 33.8732 17.9122 33.6985 17.9122 33.4829V29.3463C17.9122 29.1308 17.7375 28.9561 17.522 28.9561H13.5024C13.2869 28.9561 13.1122 29.1308 13.1122 29.3463V33.8732Z" fill="#D0D0D0"/>
<path d="M13.1122 23.1805C13.1122 22.965 13.2869 22.7902 13.5024 22.7902H17.522C17.7375 22.7902 17.9122 22.965 17.9122 23.1805V27.278C17.9122 27.4936 17.7375 27.6683 17.522 27.6683H13.5024C13.2869 27.6683 13.1122 27.4936 13.1122 27.278V23.1805Z" fill="#D0D0D0"/>
<path d="M17.9122 17.0146C17.9122 16.7991 17.7375 16.6244 17.522 16.6244H13.1122V21.0341C13.1122 21.2497 13.2869 21.4244 13.5024 21.4244H17.522C17.7375 21.4244 17.9122 21.2497 17.9122 21.0341V17.0146Z" fill="#D0D0D0"/>
<path d="M19.3171 17.0146C19.3171 16.7991 19.4918 16.6244 19.7073 16.6244H23.6878C23.9033 16.6244 24.078 16.7991 24.078 17.0146V21.0341C24.078 21.2497 23.9033 21.4244 23.6878 21.4244H19.7073C19.4918 21.4244 19.3171 21.2497 19.3171 21.0341V17.0146Z" fill="#D0D0D0"/>
<path d="M24.078 33.4829C24.078 33.6985 23.9033 33.8732 23.6878 33.8732H19.7073C19.4918 33.8732 19.3171 33.6985 19.3171 33.4829V29.3463C19.3171 29.1308 19.4918 28.9561 19.7073 28.9561H23.6878C23.9033 28.9561 24.078 29.1308 24.078 29.3463V33.4829Z" fill="#D0D0D0"/>
<path d="M30.322 33.4829C30.322 33.6985 30.1472 33.8732 29.9317 33.8732H25.8732C25.6576 33.8732 25.4829 33.6985 25.4829 33.4829V29.3463C25.4829 29.1308 25.6576 28.9561 25.8732 28.9561H29.9317C30.1472 28.9561 30.322 29.1308 30.322 29.3463V33.4829Z" fill="#D0D0D0"/>
<path d="M29.9317 22.7902C30.1472 22.7902 30.322 22.965 30.322 23.1805V27.278C30.322 27.4936 30.1472 27.6683 29.9317 27.6683H25.8732C25.6576 27.6683 25.4829 27.4936 25.4829 27.278V23.1805C25.4829 22.965 25.6576 22.7902 25.8732 22.7902H29.9317Z" fill="#D0D0D0"/>
<path d="M25.4829 17.0146C25.4829 16.7991 25.6576 16.6244 25.8732 16.6244H29.9317C30.1472 16.6244 30.322 16.7991 30.322 17.0146V21.0341C30.322 21.2497 30.1472 21.4244 29.9317 21.4244H25.8732C25.6576 21.4244 25.4829 21.2497 25.4829 21.0341V17.0146Z" fill="#D0D0D0"/>
<path fill-rule="evenodd" clip-rule="evenodd" d="M0 38.0488C0 39.1264 0.87359 40 1.95122 40H35.122C36.1996 40 37.0732 39.1264 37.0732 38.0488V10.4585H0V38.0488ZM5.61951 15.6878C5.61951 15.4723 5.79423 15.2976 6.00976 15.2976H31.2195C31.435 15.2976 31.6098 15.4723 31.6098 15.6878V34.7707C31.6098 34.9863 31.435 35.161 31.2195 35.161H6.00976C5.79423 35.161 5.61951 34.9863 5.61951 34.7707V15.6878Z" fill="#D0D0D0"/>
</svg>
