<svg width="28" height="28" viewBox="0 0 28 28" fill="none" xmlns="http://www.w3.org/2000/svg">
<path d="M10.4117 10.6471C10.5618 10.6471 10.6835 10.5246 10.6835 10.3734V3.36657C10.6835 1.50726 12.1805 0 14.0272 0C15.8739 0 17.3709 1.50726 17.3709 3.36657V10.3734C17.3709 10.5246 17.4926 10.6471 17.6427 10.6471H24.6563C26.503 10.6471 28 12.1544 28 14.0137C28 15.873 26.503 17.3803 24.6563 17.3803H17.6427C17.4926 17.3803 17.3709 17.5028 17.3709 17.654V24.6334C17.3709 26.4927 15.8739 28 14.0272 28C12.1805 28 10.6835 26.4927 10.6835 24.6334V17.654C10.6835 17.5028 10.5618 17.3803 10.4117 17.3803H3.34369C1.49702 17.3803 0 15.873 0 14.0137C0 12.1544 1.49702 10.6471 3.34369 10.6471H10.4117Z" fill="white"/>
</svg>
