<svg width="32" height="40" viewBox="0 0 32 40" fill="none" xmlns="http://www.w3.org/2000/svg">
<path fill-rule="evenodd" clip-rule="evenodd" d="M20.7312 10.3267L22.5669 3.00292C22.8833 1.74061 22.191 0.441036 21.0146 0.0888506C19.7949 -0.27627 18.5387 0.519076 18.2186 1.82998C16.7667 7.77494 15.0156 12.8039 13.1644 17.0785C14.7782 17.6897 14.1084 19.8795 12.2482 19.3107C9.39987 27.0232 8.62487 30.0144 1.38953 35.325C0.450556 36.0142 -0.0605738 37.1936 0.313929 38.344C0.776519 39.7651 2.30343 40.4302 3.53438 39.7021C13.9455 32.5702 13.0844 29.9668 18.0719 18.1445C19.6997 14.2861 24.3855 14.5687 28.6974 15.9294C29.9775 16.3334 31.356 15.5527 31.6491 14.1598C31.9083 12.9282 31.2085 11.6933 30.0616 11.3964C26.0316 10.3535 23.9704 10.1761 21.1053 10.7528C20.8725 10.7996 20.6699 10.5715 20.7312 10.3267Z" fill="#664126"/>
<path d="M8.62487 8.45637C9.36209 10.241 9.76214 12.6907 9.39988 14.1286C9.27517 14.6237 9.06013 14.9988 8.73739 15.1856C8.35963 15.4042 7.8548 15.3263 7.30203 15.0454C6.01072 14.3892 4.45778 12.625 3.652 10.9452C2.44251 8.42379 2.40187 4.23849 3.53439 3.67233C4.6669 3.10616 7.55401 5.86403 8.62487 8.45637Z" fill="#66BD6E"/>
<path d="M12.2482 19.3107C14.1084 19.8795 14.7782 17.6897 13.1644 17.0785C12.1397 16.8302 10.7089 15.5929 9.39988 14.1286C9.27517 14.6237 9.06013 14.9988 8.73739 15.1856C8.35963 15.4042 7.8548 15.3263 7.30203 15.0454C8.7672 16.9832 10.535 18.7868 12.2482 19.3107Z" fill="#57351C"/>
</svg>
