<svg width="126" height="150" viewBox="0 0 126 150" fill="none" xmlns="http://www.w3.org/2000/svg">
<path fill-rule="evenodd" clip-rule="evenodd" d="M82.0606 38.7251L89.3942 11.2609C90.6582 6.52729 87.8925 1.65388 83.1926 0.33319C78.3201 -1.03601 73.3017 1.94654 72.0226 6.86241C66.2222 29.156 59.2266 48.0147 51.8312 64.0443C58.2782 66.3365 55.6023 74.5482 48.1709 72.4151C36.7918 101.337 33.6956 112.554 4.79042 132.469C1.03921 135.053 -1.00276 139.476 0.493379 143.79C2.34143 149.119 8.44145 151.613 13.3591 148.883C54.9516 122.138 51.5115 112.376 71.4366 68.0421C77.9397 53.5727 96.6595 54.6325 113.886 59.7353C119 61.2502 124.507 58.3226 125.678 53.0991C126.713 48.4809 123.917 43.8497 119.335 42.7366C103.236 38.8256 95.001 38.1603 83.5551 40.3228C82.6249 40.4986 81.8155 39.6432 82.0606 38.7251Z" fill="#664126"/>
<path d="M33.6957 31.7114C36.6409 38.4039 38.2391 47.5902 36.7918 52.9824C36.2936 54.8387 35.4345 56.2453 34.1452 56.9458C32.636 57.7657 30.6192 57.4736 28.4109 56.4202C23.2521 53.9594 17.0481 47.3439 13.829 41.0446C8.99707 31.5892 8.83474 15.8944 13.3591 13.7712C17.8836 11.6481 29.4176 21.9901 33.6957 31.7114Z" fill="#66BD6E"/>
<path d="M48.1709 72.4151C55.6023 74.5482 58.2782 66.3365 51.8312 64.0443C47.7375 63.1133 42.0213 58.4732 36.7918 52.9824C36.2936 54.8387 35.4345 56.2453 34.1452 56.9458C32.636 57.7657 30.6192 57.4736 28.4109 56.4202C34.2643 63.687 41.3265 70.4505 48.1709 72.4151Z" fill="#57351C"/>
</svg>
