<svg width="35" height="40" viewBox="0 0 35 40" fill="none" xmlns="http://www.w3.org/2000/svg">
<path d="M20.8758 1.09933C19.8914 0.308299 18.6555 -0.0782394 17.4095 0.0131792C16.1869 -0.042029 14.9856 0.360922 14.031 1.14823C13.0674 1.94302 12.4237 3.07311 12.2218 4.32232C12.1866 4.46401 12.1232 4.59687 12.0355 4.71251C11.9439 4.83324 11.8281 4.93232 11.6959 5.00307L10.1825 5.75542L10.1815 5.75595C8.80514 6.43648 7.58482 7.4074 6.60058 8.60501L6.59864 8.60738C5.1733 10.3515 4.37438 11.7199 3.97854 13.4615C3.60791 15.0922 3.60798 17.0034 3.60809 19.723L3.6081 19.8654C3.6081 20.7836 3.12168 21.7597 2.35871 22.9661C2.26647 23.1119 2.16795 23.2647 2.06634 23.4215L1.96356 23.58C1.71125 23.9689 1.44687 24.3764 1.21689 24.7609C0.850593 25.3733 0.497451 26.0444 0.282274 26.7503C0.0390783 27.5505 -0.193834 28.9461 0.252788 30.2193C0.487285 30.8878 0.913439 31.529 1.6114 31.991C2.30016 32.4469 3.16991 32.6731 4.20742 32.6731H10.0339C10.1134 33.2969 10.2695 33.9095 10.4995 34.496C10.8675 35.4348 11.4172 36.2876 12.1154 37.003C12.8136 37.7185 13.6459 38.2818 14.5623 38.659C15.4717 39.0335 16.4452 39.217 17.425 39.1988C18.4044 39.2157 19.3772 39.0313 20.286 38.6565C21.2017 38.2789 22.0334 37.7157 22.7314 37.0007C23.4294 36.2858 23.9792 35.4337 24.3478 34.4958C24.5783 33.9094 24.735 33.2969 24.8153 32.6731H30.6815C31.3733 32.7072 32.0625 32.5621 32.6853 32.251C33.318 31.935 33.861 31.4583 34.2628 30.8664C34.6645 30.2744 34.9115 29.5869 34.9803 28.8693C35.0474 28.1692 34.9425 27.4632 34.6756 26.8156C34.4564 26.1582 34.1015 25.5131 33.737 24.9174C33.5241 24.5695 33.2728 24.1842 33.0291 23.8106C32.8634 23.5567 32.7013 23.3082 32.5572 23.0804C31.7591 21.8195 31.2446 20.7808 31.2446 19.8654L31.2446 19.7229C31.2447 17.0034 31.2448 15.0921 30.8739 13.4613C30.4777 11.7196 29.6782 10.3512 28.2519 8.60708L28.25 8.60483C27.2652 7.40704 26.0442 6.43615 24.6672 5.75589L24.6659 5.75524L23.1934 5.02321C23.0816 4.9479 22.9846 4.85148 22.9078 4.73898C22.8263 4.61976 22.7691 4.48501 22.7395 4.34279C22.5395 3.06005 21.8741 1.90151 20.8758 1.09933Z" fill="#1A1A1A"/>
</svg>
