<svg width="44" height="40" viewBox="0 0 44 40" fill="none" xmlns="http://www.w3.org/2000/svg">
<path d="M20.5873 6.86697C21.3889 6.25442 22.5028 6.25995 23.2983 6.88042L39.0745 19.1857C39.0745 19.1857 40.8937 20.8721 42.6685 19.5407C44.4432 18.2093 43.1565 16.2122 43.1565 16.2122L23.3201 0.480239C22.5156 -0.157802 21.3785 -0.160317 20.5711 0.474162L0.828225 15.9903C0.828225 15.9903 -1.03528 18.1649 0.828226 19.5407C2.69173 20.9165 4.46651 19.1857 4.46651 19.1857L20.5873 6.86697Z" fill="#BD614D"/>
<path d="M12.6452 23.7568V26.1534C12.6452 26.3985 12.4466 26.5972 12.2016 26.5972H9.00696V28.1505H12.2016C12.4466 28.1505 12.6452 28.3492 12.6452 28.5943V31.124H14.1982V28.5943C14.1982 28.3492 14.3968 28.1505 14.6419 28.1505H17.7477V26.5972H14.6419C14.3968 26.5972 14.1982 26.3985 14.1982 26.1534V23.7568H12.6452Z" fill="#879FD4"/>
<path fill-rule="evenodd" clip-rule="evenodd" d="M4.46651 19.1857V37.781C4.46651 39.0065 5.45975 40 6.68497 40H20.75C21.9753 40 22.9685 39.0065 22.9685 37.781V24.2006C22.9685 23.9555 23.1671 23.7568 23.4122 23.7568H31.798C32.043 23.7568 32.2417 23.9555 32.2417 24.2006V37.781C32.2417 39.0065 33.2349 40 34.4601 40H36.8561C38.0813 40 39.0745 39.0065 39.0745 37.781V19.1857L23.2983 6.88042C22.5028 6.25995 21.3889 6.25442 20.5873 6.86697L4.46651 19.1857ZM9.45066 23.7568H12.6452H14.1982H17.304C17.5491 23.7568 17.7477 23.9555 17.7477 24.2006V26.5972V28.1505V30.6802C17.7477 30.9253 17.5491 31.124 17.304 31.124H14.1982H12.6452H9.45066C9.20561 31.124 9.00696 30.9253 9.00696 30.6802V28.1505V26.5972V24.2006C9.00696 23.9555 9.20561 23.7568 9.45066 23.7568Z" fill="#FFDF9B"/>
</svg>
