<svg width="40" height="33" viewBox="0 0 40 33" fill="none" xmlns="http://www.w3.org/2000/svg">
<path d="M40 1.02564C40 0.459195 39.5336 0 38.9583 0H1.04167C0.46637 0 0 0.459195 0 1.02564V5.53846C0 6.10491 0.46637 6.5641 1.04167 6.5641H38.9583C39.5336 6.5641 40 6.10491 40 5.53846V1.02564ZM40 14.1538C40 13.5874 39.5336 13.1282 38.9583 13.1282H14.375C13.7997 13.1282 13.3333 13.5874 13.3333 14.1538V18.6667C13.3333 19.2331 13.7997 19.6923 14.375 19.6923H38.9583C39.5336 19.6923 40 19.2331 40 18.6667V14.1538ZM40 27.2821C40 26.7156 39.5336 26.2564 38.9583 26.2564H1.04167C0.46637 26.2564 0 26.7156 0 27.2821V31.7949C0 32.3613 0.46637 32.8205 1.04167 32.8205H38.9583C39.5336 32.8205 40 32.3613 40 31.7949V27.2821ZM10 10.3949C10 9.52534 8.96994 9.05031 8.29147 9.607L1.07172 15.5309C0.536816 15.9698 0.581421 16.7919 1.16077 17.1722L8.38052 21.9113C9.07277 22.3657 10 21.8771 10 21.0579V10.3949Z" fill="#879FD4"/>
</svg>
