<svg width="31" height="32" viewBox="0 0 31 32" fill="none" xmlns="http://www.w3.org/2000/svg">
<path d="M15.5 0.84314C19.6109 0.84314 23.5533 2.47617 26.4602 5.38298C29.367 8.2898 31 12.2323 31 16.3431C31 20.454 29.367 24.3965 26.4602 27.3033C23.5533 30.2101 19.6109 31.8431 15.5 31.8431C11.3891 31.8431 7.44666 30.2101 4.53984 27.3033C1.63303 24.3965 0 20.454 0 16.3431C0 12.2323 1.63303 8.2898 4.53984 5.38298C7.44666 2.47617 11.3891 0.84314 15.5 0.84314ZM17.8248 10.3595C18.9762 10.3595 19.9105 9.56016 19.9105 8.3756C19.9105 7.19104 18.974 6.39174 17.8248 6.39174C16.6735 6.39174 15.7436 7.19104 15.7436 8.3756C15.7436 9.56016 16.6735 10.3595 17.8248 10.3595ZM18.23 22.8184C18.23 22.5814 18.3119 21.9659 18.2654 21.6161L16.4454 23.7106C16.069 24.107 15.5974 24.3815 15.376 24.3085C15.2756 24.2715 15.1916 24.1999 15.1392 24.1065C15.0869 24.0132 15.0695 23.9042 15.0904 23.7992L18.1237 14.2165C18.3717 13.0009 17.6898 11.8916 16.2439 11.7499C14.7184 11.7499 12.4733 13.2976 11.1072 15.2615C11.1072 15.4962 11.0629 16.0808 11.1094 16.4306L12.9272 14.3338C13.3036 13.9419 13.742 13.6652 13.9634 13.7404C14.0725 13.7796 14.1619 13.8599 14.2124 13.9643C14.2629 14.0686 14.2705 14.1885 14.2335 14.2984L11.2267 23.8346C10.8791 24.9506 11.5367 26.0443 13.1309 26.2923C15.4779 26.2923 16.8639 24.7823 18.2322 22.8184H18.23Z" fill="#566C9F"/>
</svg>
