<svg width="362" height="63" viewBox="0 0 362 63" fill="none" xmlns="http://www.w3.org/2000/svg">
<path d="M104.966 46.9588C103.799 47.8807 102.016 48.6797 99.6192 49.3557C97.2223 50.0318 94.8868 50.3699 92.6127 50.3699C88.8022 50.3699 85.3911 49.5401 82.3795 47.8807C79.3679 46.1598 77.0017 43.7936 75.2808 40.782C73.5599 37.7704 72.6995 34.3593 72.6995 30.5488C72.6995 26.5538 73.5292 23.112 75.1886 20.2234C76.9095 17.3347 79.2758 15.1221 82.2873 13.5856C85.2989 11.9876 88.8022 11.1887 92.7971 11.1887C94.4565 11.1887 96.116 11.3423 97.7754 11.6496C99.4963 11.9569 101.064 12.4486 102.477 13.1247C103.215 13.4934 103.737 13.9851 104.044 14.5997C104.413 15.1529 104.598 15.7675 104.598 16.4435C104.598 17.4269 104.229 18.3488 103.491 19.2093C102.815 20.0083 101.893 20.4078 100.726 20.4078C100.234 20.4078 99.7114 20.3156 99.1583 20.1312C98.052 19.701 96.8535 19.3629 95.5628 19.1171C94.2722 18.8098 93.1351 18.6561 92.1518 18.6561C88.9558 18.6561 86.2823 19.7317 84.1312 21.8828C82.0415 24.0339 80.9967 26.9226 80.9967 30.5488C80.9967 34.4208 82.0722 37.4631 84.2233 39.6757C86.4359 41.8883 89.2631 42.9946 92.7049 42.9946C94.1185 42.9946 95.6243 42.7487 97.2223 42.257C98.8203 41.7654 100.111 41.1507 101.094 40.4132C101.77 39.983 102.508 39.7679 103.307 39.7679C104.352 39.7679 105.181 40.1366 105.796 40.8742C106.472 41.5502 106.81 42.4107 106.81 43.4555C106.81 44.8077 106.196 45.9754 104.966 46.9588Z" fill="black"/>
<path d="M124.33 50.3699C120.212 50.3699 116.863 49.0792 114.281 46.4978C111.761 43.855 110.501 40.3518 110.501 35.988C110.501 31.6243 111.731 28.1825 114.189 25.6627C116.709 23.0813 119.997 21.7906 124.053 21.7906C126.942 21.7906 129.462 22.8047 131.613 24.8329C131.859 24.0954 132.32 23.4808 132.996 22.9891C133.672 22.4974 134.471 22.2516 135.393 22.2516C136.622 22.2516 137.606 22.6203 138.343 23.3579C139.142 24.0339 139.542 24.8637 139.542 25.847V46.7744C139.542 47.8192 139.142 48.6797 138.343 49.3557C137.606 50.0318 136.622 50.3699 135.393 50.3699C133.365 50.3699 132.105 49.4787 131.613 47.6963C129.646 49.4787 127.219 50.3699 124.33 50.3699ZM124.975 42.9024C126.942 42.9024 128.509 42.257 129.677 40.9664C130.845 39.6142 131.429 37.9548 131.429 35.988C131.429 33.9598 130.845 32.3311 129.677 31.1019C128.509 29.8727 126.942 29.2581 124.975 29.2581C123.07 29.2581 121.503 29.8727 120.274 31.1019C119.106 32.3311 118.522 33.9598 118.522 35.988C118.522 37.9548 119.106 39.6142 120.274 40.9664C121.503 42.257 123.07 42.9024 124.975 42.9024Z" fill="black"/>
<path d="M156.055 50.3699C151.875 50.3699 148.433 49.5094 145.729 47.7885C145.176 47.4197 144.777 46.9895 144.531 46.4978C144.285 45.9447 144.162 45.4223 144.162 44.9306C144.162 43.8857 144.5 42.9331 145.176 42.0727C145.914 41.2122 146.805 40.782 147.85 40.782C148.341 40.782 148.833 40.9049 149.325 41.1507C150.431 41.6424 151.691 42.0727 153.104 42.4414C154.518 42.7487 155.809 42.9024 156.976 42.9024C159.251 42.9024 160.388 42.38 160.388 41.3351C160.388 40.7205 160.111 40.1981 159.558 39.7679C159.005 39.2762 157.714 38.9382 155.686 38.7538C154.887 38.6923 153.842 38.5694 152.551 38.385C151.322 38.2006 150.093 37.8626 148.864 37.3709C147.634 36.8178 146.59 36.0188 145.729 34.9739C144.93 33.9291 144.531 32.5155 144.531 30.7332C144.531 27.9674 145.576 25.7856 147.665 24.1876C149.755 22.5896 152.551 21.7906 156.055 21.7906C158.083 21.7906 159.988 22.0057 161.77 22.436C163.614 22.8662 164.997 23.5115 165.919 24.372C166.779 25.171 167.21 26.0929 167.21 27.1377C167.21 28.0596 166.872 28.8893 166.196 29.6269C165.52 30.3644 164.659 30.7332 163.614 30.7332C163.061 30.7332 162.539 30.6102 162.047 30.3644C161.309 29.8727 160.357 29.5039 159.189 29.2581C158.083 29.0123 156.946 28.8893 155.778 28.8893C153.442 28.8893 152.275 29.381 152.275 30.3644C152.275 30.7946 152.49 31.1941 152.92 31.5629C153.412 31.8702 154.487 32.1468 156.147 32.3926C157.192 32.5155 158.39 32.6999 159.742 32.9457C161.094 33.1301 162.385 33.4989 163.614 34.052C164.905 34.5437 165.98 35.3734 166.841 36.5412C167.701 37.7089 168.132 39.3069 168.132 41.3351C168.132 44.1009 167.025 46.3134 164.813 47.9729C162.6 49.5709 159.681 50.3699 156.055 50.3699Z" fill="black"/>
<path d="M184.73 50.3699C182.087 50.3699 179.905 49.6016 178.184 48.0651C176.463 46.5286 175.603 44.1623 175.603 40.9664V31.0097C175.603 30.3951 175.295 30.0878 174.681 30.0878H173.298C172.192 30.0878 171.362 29.7498 170.809 29.0737C170.256 28.3977 169.979 27.5372 169.979 26.4924C169.979 25.3861 170.256 24.4949 170.809 23.8188C171.362 23.0813 172.192 22.7125 173.298 22.7125H174.681C175.295 22.7125 175.603 22.4052 175.603 21.7906V14.9685C175.603 13.9237 175.971 13.0325 176.709 12.295C177.446 11.5574 178.399 11.1887 179.567 11.1887C180.735 11.1887 181.687 11.5574 182.425 12.295C183.224 12.971 183.623 13.8622 183.623 14.9685V21.7906C183.623 22.4052 183.931 22.7125 184.545 22.7125H187.956C189.001 22.7125 189.862 23.0813 190.538 23.8188C191.275 24.5564 191.644 25.4475 191.644 26.4924C191.644 27.5372 191.275 28.3977 190.538 29.0737C189.862 29.7498 188.97 30.0878 187.864 30.0878H184.545C183.931 30.0878 183.623 30.3951 183.623 31.0097V39.6757C183.623 40.782 183.808 41.5502 184.176 41.9805C184.607 42.4107 185.129 42.6258 185.744 42.6258C185.99 42.6258 186.481 42.5643 187.219 42.4414C187.956 42.257 188.417 42.1648 188.602 42.1648C189.585 42.1648 190.415 42.5336 191.091 43.2711C191.767 44.0087 192.105 44.8998 192.105 45.9447C192.105 46.7437 191.859 47.4812 191.367 48.1573C190.937 48.8333 190.23 49.325 189.247 49.6323C188.448 49.8782 187.68 50.0625 186.942 50.1855C186.205 50.3084 185.467 50.3699 184.73 50.3699Z" fill="black"/>
<path d="M209.426 50.3699C206.783 50.3699 204.355 49.7552 202.143 48.526C199.93 47.2968 198.148 45.6066 196.796 43.4555C195.505 41.2429 194.86 38.7538 194.86 35.988C194.86 33.1609 195.505 30.7024 196.796 28.6128C198.148 26.4616 199.93 24.8022 202.143 23.6344C204.355 22.4052 206.783 21.7906 209.426 21.7906C212.13 21.7906 214.558 22.4052 216.709 23.6344C218.922 24.8022 220.673 26.4616 221.964 28.6128C223.255 30.7024 223.9 33.1609 223.9 35.988C223.9 38.7538 223.255 41.2429 221.964 43.4555C220.673 45.6066 218.922 47.2968 216.709 48.526C214.558 49.7552 212.13 50.3699 209.426 50.3699ZM209.426 42.9024C211.331 42.9024 212.868 42.257 214.036 40.9664C215.265 39.6142 215.879 37.9548 215.879 35.988C215.879 33.9598 215.265 32.3311 214.036 31.1019C212.868 29.8727 211.331 29.2581 209.426 29.2581C207.582 29.2581 206.015 29.8727 204.724 31.1019C203.495 32.3311 202.88 33.9598 202.88 35.988C202.88 37.9548 203.495 39.6142 204.724 40.9664C206.015 42.257 207.582 42.9024 209.426 42.9024Z" fill="black"/>
<path d="M233.623 50.0933C232.455 50.0933 231.472 49.7552 230.673 49.0792C229.874 48.4031 229.475 47.5427 229.475 46.4978V25.847C229.475 24.8637 229.843 24.0339 230.581 23.3579C231.38 22.6203 232.394 22.2516 233.623 22.2516C234.73 22.2516 235.621 22.5896 236.297 23.2657C237.034 23.8803 237.465 24.6486 237.587 25.5705C238.264 24.5256 239.185 23.6344 240.353 22.8969C241.521 22.1594 242.75 21.7906 244.041 21.7906C244.84 21.7906 245.608 21.8828 246.346 22.0672C247.206 22.313 247.913 22.8047 248.466 23.5423C249.019 24.2183 249.296 25.0173 249.296 25.9392C249.296 27.2299 248.865 28.3055 248.005 29.1659C247.206 29.9649 246.253 30.2415 245.147 29.9956C244.348 29.8112 243.549 29.7191 242.75 29.7191C241.337 29.7191 240.169 30.2107 239.247 31.1941C238.325 32.1775 237.772 34.175 237.587 37.1865V46.4056C237.587 47.4505 237.188 48.3416 236.389 49.0792C235.651 49.7552 234.73 50.0933 233.623 50.0933Z" fill="black"/>
<path d="M263.103 50.3699C261.812 50.3699 260.644 49.9704 259.599 49.1714C258.555 48.3109 257.909 47.2046 257.663 45.8525L252.04 15.8904C251.917 14.6612 252.255 13.6471 253.054 12.8481C253.914 12.0491 254.959 11.6496 256.188 11.6496C257.233 11.6496 258.124 11.9569 258.862 12.5715C259.599 13.1861 260.06 14.0159 260.245 15.0607L263.564 35.2505C263.687 35.988 263.963 36.3568 264.393 36.3568C264.762 36.3568 265.039 36.0188 265.223 35.3427L269.648 19.0249C269.956 17.8571 270.539 16.9967 271.4 16.4435C272.26 15.8289 273.182 15.5216 274.166 15.5216C275.149 15.5216 276.071 15.8289 276.931 16.4435C277.792 16.9967 278.376 17.8571 278.683 19.0249L283.108 35.3427C283.293 36.0188 283.569 36.3568 283.938 36.3568C284.43 36.3568 284.706 35.988 284.768 35.2505L288.087 15.0607C288.271 14.0159 288.732 13.1861 289.469 12.5715C290.268 11.9569 291.16 11.6496 292.143 11.6496C293.372 11.6496 294.386 12.0491 295.185 12.8481C296.046 13.6471 296.414 14.6612 296.292 15.8904L290.576 45.8525C290.33 47.2046 289.685 48.3109 288.64 49.1714C287.595 49.9704 286.427 50.3699 285.136 50.3699C283.969 50.3699 282.862 50.0011 281.818 49.2636C280.834 48.4646 280.097 47.4197 279.605 46.1291L274.995 29.9034C274.811 29.2274 274.534 28.8893 274.166 28.8893C273.735 28.8893 273.428 29.2274 273.244 29.9034L268.634 46.1291C268.265 47.4197 267.559 48.4646 266.514 49.2636C265.469 50.0011 264.332 50.3699 263.103 50.3699Z" fill="#879FD4"/>
<path d="M312.944 50.3699C308.826 50.3699 305.476 49.0792 302.895 46.4978C300.375 43.855 299.115 40.3518 299.115 35.988C299.115 31.6243 300.344 28.1825 302.803 25.6627C305.322 23.0813 308.611 21.7906 312.667 21.7906C315.556 21.7906 318.076 22.8047 320.227 24.8329C320.472 24.0954 320.933 23.4808 321.609 22.9891C322.286 22.4974 323.085 22.2516 324.006 22.2516C325.236 22.2516 326.219 22.6203 326.957 23.3579C327.756 24.0339 328.155 24.8637 328.155 25.847V46.7744C328.155 47.8192 327.756 48.6797 326.957 49.3557C326.219 50.0318 325.236 50.3699 324.006 50.3699C321.978 50.3699 320.718 49.4787 320.227 47.6963C318.26 49.4787 315.832 50.3699 312.944 50.3699ZM313.589 42.9024C315.556 42.9024 317.123 42.257 318.291 40.9664C319.458 39.6142 320.042 37.9548 320.042 35.988C320.042 33.9598 319.458 32.3311 318.291 31.1019C317.123 29.8727 315.556 29.2581 313.589 29.2581C311.684 29.2581 310.116 29.8727 308.887 31.1019C307.719 32.3311 307.135 33.9598 307.135 35.988C307.135 37.9548 307.719 39.6142 308.887 40.9664C310.116 42.257 311.684 42.9024 313.589 42.9024Z" fill="#879FD4"/>
<path d="M332.314 25.4783C332.314 24.2491 332.745 23.3271 333.605 22.7125C334.466 22.0979 335.449 21.7906 336.555 21.7906C337.416 21.7906 338.153 22.0365 338.768 22.5282C339.444 22.9584 339.905 23.573 340.151 24.372L345.867 38.2928C346.174 39.0918 346.604 39.4913 347.157 39.4913C347.71 39.4913 348.11 39.0918 348.356 38.2928L353.334 24.372C353.641 23.5115 354.133 22.8662 354.809 22.436C355.547 22.0057 356.315 21.7906 357.114 21.7906C358.159 21.7906 359.111 22.1287 359.972 22.8047C360.894 23.4808 361.355 24.372 361.355 25.4783C361.355 26.0929 361.232 26.6768 360.986 27.2299L346.604 60.4187C346.174 61.3406 345.621 61.9859 344.945 62.3547C344.33 62.7849 343.685 63 343.009 63C341.902 63 340.888 62.6005 339.966 61.8015C339.106 61.064 338.676 60.1728 338.676 59.128C338.676 58.5749 338.799 58.0832 339.044 57.6529L344.023 48.8026C342.978 48.4953 342.148 47.727 341.534 46.4978L332.591 27.1377C332.407 26.5846 332.314 26.0314 332.314 25.4783Z" fill="#879FD4"/>
<path d="M50.3998 14.1638C47.2056 10.5195 46.5733 4.59757 39.1481 4.59757C26.4843 4.59757 20.7603 11.7268 23.2045 20.7234C24.9741 27.237 30.8877 29.5744 37.5993 30.2896C45.638 31.1462 53.4063 28.6952 53.4063 20.7234C53.4063 17.7868 52.3354 16.3722 50.3998 14.1638Z" fill="#885551"/>
<path d="M28.2153 26.9642C28.2153 26.9642 17.8522 40.3206 22.1112 48.4653C25.4261 54.8046 31.6559 58.2745 38.7837 57.6671C46.3661 57.0209 50.4083 52.868 52.4952 45.5499C54.5673 38.2839 46.5733 26.9642 46.5733 26.9642H28.2153Z" fill="#885551"/>
<path d="M19.3599 44.9105C19.3924 44.9384 19.414 44.9767 19.421 45.0189C19.6453 46.3645 20.1464 47.7918 20.7699 49.0596C21.3942 50.3289 22.1351 51.4259 22.8316 52.1169C22.8896 52.1743 22.9022 52.2633 22.8626 52.3347C22.823 52.406 22.7443 52.4423 22.6649 52.4235H22.6612L22.6527 52.4215C22.647 52.4201 22.6387 52.4181 22.6277 52.4155C22.6058 52.4102 22.5732 52.4022 22.5307 52.3917C22.4455 52.3706 22.3201 52.339 22.1585 52.297C21.8354 52.213 21.3676 52.0873 20.788 51.92C19.6288 51.5856 18.0214 51.0849 16.2283 50.4198C12.6472 49.0916 8.30488 47.1007 5.31785 44.4564C2.33163 41.8129 0.296685 38.2079 0.0298346 35.0467C-0.10387 33.4629 0.206043 31.9801 1.07653 30.7914C1.9479 29.6015 3.36517 28.728 5.40407 28.3341C7.40285 27.948 8.96892 28.5409 10.2616 29.7101C11.5444 30.8704 12.5582 32.5977 13.4798 34.4855C13.9212 35.39 14.3439 36.3364 14.7653 37.28L14.823 37.4092C15.264 38.3968 15.7048 39.3793 16.1679 40.3125C17.0959 42.1825 18.104 43.8328 19.3599 44.9105Z" fill="#885551"/>
<path d="M23.1315 5.51871C26.9174 2.79031 29.0808 6.99204 29.0808 6.99204L24.2733 11.2483C24.2733 11.2483 19.3455 8.24711 23.1315 5.51871Z" fill="#885551"/>
<path d="M37.3969 0C41.5452 1.07363e-06 40.5889 3.6265 40.5889 3.6265C38.5738 3.39746 36.562 3.45663 33.9586 4.16666C33.9586 4.16666 33.2485 -1.27622e-06 37.3969 0Z" fill="#885551"/>
<path d="M57.6427 31.6106C56.1697 28.1015 46.4366 33.205 46.4366 33.205L50.2631 39.5825C50.2631 39.5825 59.1915 35.3004 57.6427 31.6106Z" fill="#885551"/>
<path d="M34.5019 59.8738C33.1486 58.3895 28.9193 57.7303 28.9193 57.7303C28.9193 57.7303 22.9062 57.3726 22.8855 59.8738C22.8648 62.3825 28.9193 62.0737 28.9193 62.0737C28.9193 62.0737 36.0809 61.6056 34.5019 59.8738Z" fill="#885551"/>
<path d="M39.4209 59.8738C40.7742 58.3895 45.0035 57.7303 45.0035 57.7303C45.0035 57.7303 51.0166 57.3726 51.0373 59.8738C51.058 62.3825 45.0035 62.0737 45.0035 62.0737C45.0035 62.0737 37.8419 61.6056 39.4209 59.8738Z" fill="#885551"/>
</svg>
