<svg width="219" height="188" viewBox="0 0 219 188" fill="none" xmlns="http://www.w3.org/2000/svg">
<path fill-rule="evenodd" clip-rule="evenodd" d="M83.0591 132.352C83.3815 132.053 83.8052 131.887 84.2451 131.887H134.792C135.279 131.887 135.743 132.09 136.073 132.447L142.12 138.999C143.012 139.965 143.507 141.231 143.507 142.546V165.253C143.507 167.516 142.31 169.61 140.361 170.759L114.206 186.171C111.135 187.981 107.328 187.996 104.243 186.21L77.557 170.76C75.5834 169.617 74.3682 167.51 74.3682 165.229V142.703C74.3682 141.249 74.9736 139.86 76.0391 138.871L83.0591 132.352ZM84.9296 135.373L78.4111 141.426C78.056 141.755 77.8542 142.218 77.8542 142.703V165.229C77.8542 166.266 78.4065 167.224 79.3036 167.743L105.99 183.193C107.986 184.349 110.449 184.339 112.436 183.168L138.591 167.756C139.477 167.233 140.021 166.282 140.021 165.253V142.546C140.021 142.107 139.856 141.685 139.559 141.363L134.029 135.373H84.9296Z" fill="#E2A715"/>
<path d="M78.4111 141.426L84.9296 135.373H134.029L139.559 141.363C139.856 141.685 140.021 142.107 140.021 142.546V165.253C140.021 166.282 139.477 167.233 138.591 167.756L112.436 183.168C110.449 184.339 107.986 184.349 105.99 183.193L79.3036 167.743C78.4065 167.224 77.8542 166.266 77.8542 165.229V142.703C77.8542 142.218 78.056 141.755 78.4111 141.426Z" fill="#E2A715"/>
<path d="M45.8998 117.943L40.4665 120.32C38.462 121.197 37.7514 123.682 38.9895 125.486L40.1923 127.239L53.7489 146.993L55.1494 149.033C56.1645 150.513 58.1367 150.98 59.7076 150.113L73.7877 142.345L45.8998 117.943Z" fill="#FF5C54"/>
<path d="M40.1923 127.239L28.7 135.32C27.8194 135.939 28.1816 137.319 29.2528 137.426L42.2167 138.723C42.9292 138.794 43.4083 139.487 43.2238 140.178L39.6884 153.436C39.4165 154.456 40.5347 155.281 41.4286 154.72L53.7489 146.993L40.1923 127.239Z" fill="#8F281F"/>
<path fill-rule="evenodd" clip-rule="evenodd" d="M95.4125 10.5354L93.6819 25.0726L66.2347 44.0361V38.8414C66.2347 38.0513 66.6479 37.2855 67.3542 36.8258C80.0456 28.5671 87.7966 20.5541 95.4125 10.5354Z" fill="#E2A715"/>
<path d="M94.2215 4.34643C96.3043 1.48691 100.969 3.17994 100.536 6.81425L98.7704 21.6478L93.6819 25.0726L95.4125 10.5354C87.7966 20.5541 80.0456 28.5671 67.3542 36.8258C66.6479 37.2855 66.2347 38.0513 66.2347 38.8414V44.0361L61.5865 47.3045L61.5867 38.8414C61.5867 36.4266 62.8393 34.2184 64.8191 32.9301C78.3316 24.137 85.9462 15.7077 94.2215 4.34643Z" fill="#E2A715"/>
<path d="M0.191525 59.6775C-0.643074 57.7079 1.40179 55.752 3.33236 56.6734L23.3637 66.2338L23.1564 71.2851L30.9884 88.0681L34.0717 93.8742C33.9101 93.6586 33.6785 93.506 33.4167 93.4423L16.8642 89.416C14.0081 88.7213 11.6488 86.7167 10.502 84.0102L0.191525 59.6775Z" fill="#E2A715"/>
<path d="M26.2006 96.4706C26.7469 95.9265 27.5593 95.6458 28.4244 95.8714L37.3077 98.1888L43.1177 104.508L44.2797 111.552L44.8607 116.2H38.1391C34.8269 116.2 31.8454 114.191 30.601 111.122L25.6841 98.9933C25.3018 98.0502 25.5788 97.0898 26.2006 96.4706Z" fill="#E2A715"/>
<path d="M14.9378 30.7293L58.2236 50.5469L53.3044 53.4067L44.7348 58.991C40.5498 61.7181 38.2975 66.6021 38.9404 71.5557L42.2462 97.0268L43.1177 104.508L37.3077 98.1888L34.0717 93.8742L30.9884 88.0681L23.1564 71.2851L23.3637 66.2338V63.4522C23.3637 63.0193 23.123 62.6223 22.7392 62.422L14.9967 58.3825C13.6693 57.6899 12.5559 56.7031 11.7195 55.5262C10.6212 53.9806 10.0007 52.1069 10.0007 50.1408V33.8989C10.0007 31.3594 12.6289 29.6722 14.9378 30.7293Z" fill="#FFCB5D"/>
<path d="M217.891 59.6775C218.726 57.7079 216.681 55.752 214.751 56.6734L194.719 66.2338L194.927 71.2851L187.095 88.0681L184.011 93.8742C184.173 93.6586 184.404 93.506 184.666 93.4423L201.219 89.416C204.075 88.7213 206.434 86.7167 207.581 84.0102L217.891 59.6775Z" fill="#E2A715"/>
<path d="M191.882 96.4706C191.336 95.9265 190.524 95.6458 189.659 95.8714L180.775 98.1888L174.965 104.508L173.803 111.552L173.222 116.2H179.944C183.256 116.2 186.238 114.191 187.482 111.122L192.399 98.9933C192.781 98.0502 192.504 97.0898 191.882 96.4706Z" fill="#E2A715"/>
<path d="M203.145 30.7293L159.859 50.5469L164.779 53.4067L173.348 58.991C177.533 61.7181 179.786 66.6021 179.143 71.5557L175.837 97.0268L174.965 104.508L180.775 98.1888L184.011 93.8742L187.095 88.0681L194.927 71.2851L194.719 66.2338V63.4522C194.719 63.0193 194.96 62.6223 195.344 62.422L203.086 58.3825C204.414 57.6899 205.527 56.7031 206.363 55.5262C207.462 53.9806 208.082 52.1069 208.082 50.1408V33.8989C208.082 31.3594 205.454 29.6722 203.145 30.7293Z" fill="#FFCB5D"/>
<path d="M172.027 117.943L177.46 120.32C179.465 121.197 180.175 123.682 178.937 125.486L177.734 127.239L164.178 146.993L162.777 149.033C161.762 150.513 159.79 150.98 158.219 150.113L144.139 142.345L172.027 117.943Z" fill="#FF5C54"/>
<path d="M177.734 127.239L189.227 135.32C190.107 135.939 189.745 137.319 188.674 137.426L175.71 138.723C174.998 138.794 174.518 139.487 174.703 140.178L178.238 153.436C178.51 154.456 177.392 155.281 176.498 154.72L164.178 146.993L177.734 127.239Z" fill="#8F281F"/>
<path fill-rule="evenodd" clip-rule="evenodd" d="M109.19 0.000413732C109.861 -0.0141689 110.481 0.357747 110.784 0.956677C112.537 4.42445 114.043 6.93615 115.873 9.19825C117.702 11.4596 119.901 13.5307 123.094 16.0647C123.51 16.3953 123.753 16.8981 123.753 17.43V25.564C123.753 26.5266 122.973 27.307 122.01 27.307H96.4461C95.4835 27.307 94.7031 26.5266 94.7031 25.564V17.43C94.7031 16.8695 94.9726 16.3433 95.4274 16.0157C98.5602 13.759 100.747 11.875 102.572 9.65942C104.398 7.44372 105.923 4.82245 107.64 1.02501C107.916 0.413487 108.519 0.0149964 109.19 0.000413732ZM109.304 5.60457C108.042 8.04769 106.759 10.0595 105.263 11.8762C103.327 14.2252 101.085 16.1845 98.1891 18.3169V23.821H120.267V18.2672C117.296 15.8655 115.071 13.7502 113.162 11.3903C111.743 9.6355 110.522 7.77386 109.304 5.60457Z" fill="#E2A715"/>
<path d="M105.263 11.8762C106.759 10.0595 108.042 8.04769 109.304 5.60457C110.522 7.77386 111.743 9.6355 113.162 11.3903C115.071 13.7502 117.296 15.8655 120.267 18.2672V23.821H98.1891V18.3169C101.085 16.1845 103.327 14.2252 105.263 11.8762Z" fill="#C4FFFD"/>
<path fill-rule="evenodd" clip-rule="evenodd" d="M122.514 10.5354L124.245 25.0726L151.692 44.0361V38.8414C151.692 38.0513 151.279 37.2855 150.573 36.8258C137.881 28.5671 130.13 20.5541 122.514 10.5354Z" fill="#E2A715"/>
<path d="M123.705 4.34643C121.622 1.48691 116.958 3.17994 117.39 6.81425L119.156 21.6478L124.245 25.0726L122.514 10.5354C130.13 20.5541 137.881 28.5671 150.573 36.8258C151.279 37.2855 151.692 38.0513 151.692 38.8414V44.0361L156.34 47.3045L156.34 38.8414C156.34 36.4266 155.087 34.2184 153.108 32.9301C139.595 24.137 131.981 15.7077 123.705 4.34643Z" fill="#E2A715"/>
<path d="M102.61 18.6048C106.603 16.2637 111.549 16.2637 115.541 18.6048L173.48 58.6937C177.393 60.988 179.797 65.1841 179.797 69.7199L173.48 122.834C173.48 127.37 171.076 131.566 167.163 133.86L115.541 164.13C111.549 166.471 106.603 166.471 102.61 164.13L50.9876 133.86C47.0749 131.566 44.6711 127.37 44.6711 122.834L38.3467 69.7199C38.3467 65.1841 40.7505 60.988 44.6632 58.6937L102.61 18.6048Z" fill="#FFE197"/>
<path fill-rule="evenodd" clip-rule="evenodd" d="M173.48 58.6937L115.541 18.6048C111.549 16.2637 106.603 16.2637 102.61 18.6048L44.6632 58.6937C40.7505 60.988 38.3467 65.1841 38.3467 69.7199L44.6711 122.834C44.6711 127.37 47.0749 131.566 50.9876 133.86L102.61 164.13C106.603 166.471 111.549 166.471 115.541 164.13L167.163 133.86C171.076 131.566 173.48 127.37 173.48 122.834L179.797 69.7199C179.797 65.1841 177.393 60.988 173.48 58.6937ZM171.648 69.357C171.531 67.8491 170.683 66.4831 169.366 65.7104L169.103 65.5561L111.226 25.5102C109.879 24.8072 108.272 24.8073 106.925 25.5103L49.0404 65.5563L48.7776 65.7104C47.4599 66.483 46.6129 67.8488 46.4949 69.3565L52.8051 122.352V122.834C52.8051 124.484 53.6792 126.009 55.102 126.844L106.725 157.114C108.176 157.965 109.975 157.965 111.427 157.114L163.049 126.844C164.472 126.009 165.346 124.484 165.346 122.834V122.352L171.648 69.357Z" fill="#EDB938"/>
</svg>
