<svg width="197" height="189" viewBox="0 0 197 189" fill="none" xmlns="http://www.w3.org/2000/svg">
<path d="M182.048 10.3069V1.28845L115.698 32.2087L121.496 36.7179L182.048 21.9019V10.3069Z" fill="#A3B2B9"/>
<path d="M19.7167 12.8835V1.93262L86.0664 34.7854L80.2689 39.2946L19.7167 24.4786V12.8835Z" fill="#A3B2B9"/>
<path d="M182.048 10.3069V21.902L143.397 28.9879L182.048 10.3069Z" fill="#415161"/>
<path d="M19.7166 10.3069V22.5461L59.6553 30.2762L19.7166 10.3069Z" fill="#415161"/>
<path d="M44.9069 185.637L44.2627 170.821L58.4345 163.735L69.3854 172.11L44.9069 185.637Z" fill="#5D6977"/>
<path d="M153.705 188.098L156.281 172.638L141.465 164.264L129.226 173.775L153.705 188.098Z" fill="#5D6977"/>
<path d="M27.4117 51.15V74.9843L80.8779 34.4015L7.44238 19.5856L20.3258 51.15H27.4117Z" fill="#6D8087"/>
<path d="M39.9538 110.463L25.4605 102.237C24.3433 113.104 27.3494 121.031 34.8616 130.44L45.0461 125.739L39.9538 110.463Z" fill="#908DBA"/>
<path d="M158.956 109.296L171.84 100.278C171.726 113.064 169.632 119.745 163.466 131.198L153.159 126.045L158.956 109.296Z" fill="#908DBA"/>
<path d="M23.7029 99.2025C22.9778 114.093 25.4053 121.388 34.0096 132.699" stroke="#5F636F" stroke-width="5"/>
<path d="M172.866 99.4944C173.592 114.385 171.164 121.68 162.56 132.991" stroke="#5F636F" stroke-width="5"/>
<path d="M5.875 155.884L24.556 144.933L40.3456 164.91L20.6909 177.142L25.8443 159.105L5.875 155.884Z" fill="#D76622"/>
<path d="M192.001 155.884L173.32 144.933L157.86 166.191L177.185 177.142L172.032 159.105L192.001 155.884Z" fill="#D76622"/>
<path d="M19.1934 137.587L45.6044 125.348L58.4878 163.998L44.316 171.728L19.1934 137.587Z" fill="#EF8F55"/>
<path d="M179.918 137.587L153.507 125.348L140.624 163.998L156.292 173.136L179.918 137.587Z" fill="#EF8F55"/>
<path d="M0.000556946 86.9597L39.9551 110.854L27.4473 73.4354L0.000556946 86.9597Z" fill="#738390"/>
<path d="M13.71 35.254L66.532 45.5608L27.2376 75.1927V51.3583H20.1517L13.71 35.254Z" fill="#576774"/>
<path d="M171.681 50.7786L170.449 74.3401L116.338 34.2272L192.351 19.5856L179.015 50.7786H171.681Z" fill="#6D8087"/>
<path d="M185.691 35.6458L130.293 45.7835L170.002 74.8168L171.504 51.486H178.935L185.691 35.6458Z" fill="#576774"/>
<path d="M71.8945 27.6994L97.6614 0L125.361 27.6994L97.6614 45.092L71.8945 27.6994Z" fill="#62727F"/>
<path d="M41.1299 51.776V64.6595L75.9151 37.6042H58.5225L41.1299 51.776Z" fill="#E1EAF0"/>
<path d="M154.762 52.4202L155.406 64.6595L118.688 37.6042L137.369 38.2484L154.762 52.4202Z" fill="#E1EAF0"/>
<circle cx="98.3056" cy="32.2087" r="19.3251" fill="#D9D9D9"/>
<path d="M196.51 86.525L157.859 111.004L169.454 73.6416L196.51 86.525Z" fill="#738390"/>
<path d="M137.6 169.417H61.5878L30.0234 75.3681L98.3056 23.1902L167.876 75.3681L137.6 169.417Z" fill="#B4C8E3" stroke="#8697B5" stroke-width="10"/>
<circle cx="98.3046" cy="32.2085" r="14.1718" fill="#F9551F"/>
<path d="M103.653 42.2319L98.3065 38.9982L92.9599 42.219C91.9808 42.8116 90.7826 41.9356 91.0403 40.8276L92.4574 34.7466L87.7292 30.6497C86.866 29.9025 87.3298 28.4853 88.4636 28.3951L94.6863 27.8669L97.1212 22.1337C97.5593 21.0902 99.0538 21.0902 99.4918 22.1337L101.927 27.8798L108.149 28.408C109.283 28.4982 109.747 29.9153 108.884 30.6626L104.156 34.7595L105.573 40.8405C105.83 41.9485 104.632 42.8245 103.653 42.2319Z" fill="#FFFBFF"/>
</svg>
