<svg width="20" height="20" viewBox="0 0 20 20" fill="none" xmlns="http://www.w3.org/2000/svg">
<path fill-rule="evenodd" clip-rule="evenodd" d="M14.4301 0.954968C15.042 0.343501 15.8717 0 16.7367 0C17.6022 0 18.4322 0.343806 19.0442 0.955784C19.6562 1.56776 20 2.39778 20 3.26325C20 4.12848 19.6564 4.95827 19.0447 5.5702C19.0446 5.57037 19.0449 5.57003 19.0447 5.5702L17.7143 6.9054C17.6773 6.95998 17.6347 7.01185 17.5863 7.06018C17.5389 7.1076 17.4881 7.14955 17.4347 7.18602L10.2193 14.4272C10.0218 14.6255 9.75346 14.7369 9.47363 14.7369H6.31575C5.73441 14.7369 5.26313 14.2656 5.26313 13.6842V10.5264C5.26313 10.2465 5.37455 9.97824 5.57277 9.78072L12.814 2.56533C12.8505 2.5119 12.8924 2.46109 12.9398 2.41367C12.9882 2.36533 13.04 2.32267 13.0946 2.2857L14.4293 0.955784C14.4296 0.955512 14.4298 0.95524 14.4301 0.954968ZM13.696 4.65846L7.36838 10.9635V12.6316H9.03652L15.3415 6.30404L13.696 4.65846ZM16.8275 4.81274L15.1873 3.17248L15.9179 2.44442C16.1351 2.22725 16.4296 2.10525 16.7367 2.10525C17.0439 2.10525 17.3384 2.22725 17.5556 2.44442C17.7727 2.66159 17.8947 2.95613 17.8947 3.26325C17.8947 3.57037 17.7727 3.86492 17.5556 4.08208L16.8275 4.81274ZM0.924921 5.13554C1.51714 4.54332 2.32036 4.21062 3.15788 4.21062H4.2105C4.79185 4.21062 5.26313 4.68189 5.26313 5.26324C5.26313 5.84459 4.79185 6.31587 4.2105 6.31587H3.15788C2.8787 6.31587 2.61096 6.42677 2.41356 6.62417C2.21615 6.82158 2.10525 7.08932 2.10525 7.36849V16.8421C2.10525 17.1213 2.21615 17.389 2.41356 17.5864C2.61096 17.7838 2.8787 17.8947 3.15788 17.8947H12.6315C12.9107 17.8947 13.1784 17.7838 13.3758 17.5864C13.5732 17.389 13.6841 17.1213 13.6841 16.8421V15.7895C13.6841 15.2081 14.1554 14.7369 14.7368 14.7369C15.3181 14.7369 15.7894 15.2081 15.7894 15.7895V16.8421C15.7894 17.6796 15.4567 18.4829 14.8645 19.0751C14.2722 19.6673 13.469 20 12.6315 20H3.15788C2.32036 20 1.51714 19.6673 0.924921 19.0751C0.332704 18.4829 0 17.6796 0 16.8421V7.36849C0 6.53097 0.332704 5.72775 0.924921 5.13554Z" fill="#566C9F"/>
</svg>
