<svg width="24" height="24" viewBox="0 0 24 24" fill="none" xmlns="http://www.w3.org/2000/svg">
<path d="M12 4.46C9.688 2.39 7.099 2.1 5 3.059C2.786 4.074 1.25 6.426 1.25 9.138C1.25 11.803 2.36 13.837 3.817 15.477C4.983 16.79 6.41 17.889 7.671 18.859C7.95767 19.079 8.233 19.293 8.497 19.501C9.01 19.905 9.56 20.335 10.117 20.661C10.674 20.987 11.31 21.251 12 21.251C12.69 21.251 13.326 20.986 13.883 20.661C14.441 20.335 14.99 19.905 15.503 19.501C15.767 19.293 16.0423 19.079 16.329 18.859C17.589 17.889 19.017 16.789 20.183 15.477C21.64 13.837 22.75 11.803 22.75 9.138C22.75 6.426 21.215 4.074 19 3.061C16.901 2.101 14.312 2.391 12 4.46Z" fill="#4E4E4E"/>
</svg>
