<svg width="35" height="40" viewBox="0 0 35 40" fill="none" xmlns="http://www.w3.org/2000/svg">
<path fill-rule="evenodd" clip-rule="evenodd" d="M17.4095 0.0131792C18.6555 -0.0782394 19.8914 0.308299 20.8758 1.09933C21.8741 1.90151 22.5395 3.06005 22.7395 4.34279C22.7691 4.48501 22.8263 4.61976 22.9078 4.73898C22.9846 4.85148 23.0816 4.9479 23.1934 5.02321L24.6659 5.75524L24.6672 5.75589C26.0442 6.43615 27.2652 7.40704 28.25 8.60483L28.2519 8.60708C29.6782 10.3512 30.4777 11.7196 30.8739 13.4613C31.2448 15.0921 31.2447 17.0034 31.2446 19.7229L31.2446 19.8654C31.2446 20.7808 31.7591 21.8195 32.5572 23.0804C32.7013 23.3082 32.8634 23.5567 33.0291 23.8106C33.2728 24.1842 33.5241 24.5695 33.737 24.9174C34.1015 25.5131 34.4564 26.1582 34.6756 26.8156C34.9425 27.4632 35.0474 28.1692 34.9803 28.8693C34.9115 29.5869 34.6645 30.2744 34.2628 30.8664C33.861 31.4583 33.318 31.935 32.6853 32.251C32.0625 32.5621 31.3733 32.7072 30.6815 32.6731H24.8153C24.735 33.2969 24.5783 33.9094 24.3478 34.4958C23.9792 35.4337 23.4294 36.2858 22.7314 37.0007C22.0334 37.7157 21.2017 38.2789 20.286 38.6565C19.3772 39.0313 18.4044 39.2157 17.425 39.1988C16.4452 39.217 15.4717 39.0335 14.5623 38.659C13.6459 38.2818 12.8136 37.7185 12.1154 37.003C11.4172 36.2876 10.8675 35.4348 10.4995 34.496C10.2695 33.9095 10.1134 33.2969 10.0339 32.6731H4.20742C3.16991 32.6731 2.30016 32.4469 1.6114 31.991C0.913439 31.529 0.487285 30.8878 0.252788 30.2193C-0.193834 28.9461 0.0390783 27.5505 0.282274 26.7503L0.282538 26.7495C0.497715 26.0435 0.850593 25.3733 1.21689 24.7609C1.44687 24.3764 1.71125 23.9689 1.96356 23.58C2.1014 23.3676 2.23564 23.1607 2.35871 22.9661C3.12168 21.7597 3.6081 20.7836 3.6081 19.8654L3.60809 19.723C3.60798 17.0034 3.60791 15.0922 3.97854 13.4615C4.37438 11.7199 5.1733 10.3515 6.59864 8.60738L6.60058 8.60501C7.58482 7.4074 8.80514 6.43648 10.1815 5.75595L10.1825 5.75542L11.6959 5.00307C11.8281 4.93232 11.9439 4.83323 12.0355 4.71251C12.1232 4.59687 12.1866 4.46401 12.2218 4.32232C12.4237 3.07311 13.0674 1.94302 14.031 1.14823C14.9856 0.360922 16.1869 -0.042029 17.4095 0.0131792ZM12.2344 32.6731C12.2964 33.012 12.3909 33.3446 12.5169 33.6661C12.7757 34.3261 13.1621 34.9256 13.6529 35.4285C14.1438 35.9315 14.7289 36.3275 15.3731 36.5927C16.0173 36.8579 16.7072 36.9869 17.4013 36.9718C17.4162 36.9715 17.4311 36.9715 17.446 36.9718C18.1401 36.9859 18.8299 36.8563 19.474 36.5907C20.1181 36.3251 20.7031 35.9289 21.1941 35.426C21.685 34.9231 22.0718 34.3238 22.3311 33.6641C22.4572 33.3432 22.5519 33.0113 22.6143 32.6731H12.2344ZM19.5339 2.85151C18.9627 2.39253 18.2425 2.17327 17.5193 2.23819C17.4661 2.24297 17.4126 2.24372 17.3592 2.24044C16.6491 2.19676 15.9486 2.4258 15.3945 2.88283C14.8404 3.33985 14.4725 3.99205 14.3626 4.71204C14.3588 4.73679 14.3542 4.7614 14.3488 4.78584C14.2449 5.25631 14.0413 5.69764 13.7525 6.07859C13.4636 6.45954 13.0965 6.77081 12.6773 6.99036C12.6706 6.99386 12.6638 6.99729 12.6571 7.00065L11.1296 7.76002L11.1274 7.7611C10.0272 8.30494 9.05167 9.08088 8.26477 10.038C6.95373 11.6425 6.38433 12.6978 6.09598 13.9665C5.78879 15.318 5.78217 16.9656 5.78217 19.8654C5.78217 21.5129 4.93226 22.9928 4.18333 24.177C4.02858 24.4216 3.88041 24.6497 3.73736 24.8699C3.5036 25.2298 3.2835 25.5686 3.0707 25.9243C2.73847 26.4798 2.49397 26.9667 2.35796 27.4127C2.17789 28.0054 2.08217 28.8487 2.29879 29.4663C2.39594 29.7432 2.54943 29.9604 2.79129 30.1205C3.04235 30.2867 3.47259 30.4461 4.20742 30.4461H30.7097C30.7299 30.4461 30.7502 30.4467 30.7705 30.4479C31.1024 30.4669 31.4336 30.3986 31.7325 30.2493C32.0313 30.1 32.2879 29.8748 32.4777 29.5952C32.6675 29.3155 32.7841 28.9908 32.8166 28.6518C32.8491 28.3129 32.7963 27.971 32.6632 27.6589C32.6498 27.6276 32.6378 27.5955 32.6273 27.563C32.4938 27.1498 32.2439 26.6706 31.8948 26.1001C31.6869 25.7603 31.4788 25.442 31.2584 25.1048C31.092 24.8503 30.9186 24.5851 30.733 24.2919C29.9557 23.0639 29.0705 21.5157 29.0705 19.8654C29.0705 16.9655 29.0639 15.3181 28.7565 13.9666C28.468 12.6981 27.8982 11.6428 26.5863 10.0384C25.7988 9.08095 24.8227 8.30494 23.7218 7.76128L23.7192 7.76002L22.1917 7.00065C22.162 6.98587 22.1329 6.9697 22.1046 6.9522C21.7185 6.71345 21.3853 6.39458 21.1267 6.01608C20.868 5.63758 20.6896 5.20783 20.6027 4.75446C20.5999 4.73962 20.5974 4.72473 20.5951 4.70979C20.4845 3.97484 20.1051 3.3105 19.5339 2.85151Z" fill="#1A1A1A"/>
<path d="M17.5193 2.23819C18.2425 2.17327 18.9627 2.39253 19.5339 2.85151C20.1051 3.3105 20.4845 3.97484 20.5951 4.70979C20.5974 4.72473 20.5999 4.73962 20.6027 4.75446C20.6896 5.20783 20.868 5.63758 21.1267 6.01608C21.3853 6.39458 21.7185 6.71345 22.1046 6.9522C22.1329 6.9697 22.162 6.98587 22.1917 7.00065L23.7192 7.76002L23.7218 7.76128C24.8227 8.30494 25.7988 9.08095 26.5863 10.0384C27.8982 11.6428 28.468 12.6981 28.7565 13.9666C29.0639 15.3181 29.0705 16.9655 29.0705 19.8654C29.0705 21.5157 29.9557 23.0639 30.733 24.2919C30.9186 24.5851 31.092 24.8503 31.2584 25.1048C31.4788 25.442 31.6869 25.7603 31.8948 26.1001C32.2439 26.6706 32.4938 27.1498 32.6273 27.563C32.6378 27.5955 32.6498 27.6276 32.6632 27.6589C32.7963 27.971 32.8491 28.3129 32.8166 28.6518C32.7841 28.9908 32.6675 29.3155 32.4777 29.5952C32.2879 29.8748 32.0313 30.1 31.7325 30.2493C31.4336 30.3986 31.1024 30.4669 30.7705 30.4479C30.7502 30.4467 30.7299 30.4461 30.7097 30.4461H4.20742C3.47259 30.4461 3.04235 30.2867 2.79129 30.1205C2.54943 29.9604 2.39594 29.7432 2.29879 29.4663C2.08217 28.8487 2.17789 28.0054 2.35796 27.4127C2.49397 26.9667 2.73847 26.4798 3.0707 25.9243C3.2835 25.5686 3.5036 25.2298 3.73736 24.8699C3.88041 24.6497 4.02858 24.4216 4.18333 24.177C4.93226 22.9928 5.78217 21.5129 5.78217 19.8654C5.78217 16.9656 5.78879 15.318 6.09598 13.9665C6.38433 12.6978 6.95373 11.6425 8.26477 10.038C9.05167 9.08088 10.0272 8.30494 11.1274 7.7611L11.1296 7.76002L12.6571 7.00065C12.6638 6.99729 12.6706 6.99386 12.6773 6.99036C13.0965 6.77081 13.4636 6.45954 13.7525 6.07859C14.0413 5.69764 14.2449 5.25631 14.3488 4.78584C14.3542 4.7614 14.3588 4.73679 14.3626 4.71204C14.4725 3.99205 14.8404 3.33985 15.3945 2.88283C15.9486 2.4258 16.6491 2.19676 17.3592 2.24044C17.4126 2.24372 17.4661 2.24297 17.5193 2.23819Z" fill="#1A1A1A"/>
<path d="M12.5169 33.6661C12.3909 33.3446 12.2964 33.012 12.2344 32.6731H22.6143C22.5519 33.0113 22.4572 33.3432 22.3311 33.6641C22.0718 34.3238 21.685 34.9231 21.1941 35.426C20.7031 35.9289 20.1181 36.3251 19.474 36.5907C18.8299 36.8563 18.1401 36.9859 17.446 36.9718C17.4311 36.9715 17.4162 36.9715 17.4013 36.9718C16.7072 36.9869 16.0173 36.8579 15.3731 36.5927C14.7289 36.3275 14.1438 35.9315 13.6529 35.4285C13.1621 34.9256 12.7757 34.3261 12.5169 33.6661Z" fill="#1A1A1A"/>
</svg>
