<svg width="26" height="26" viewBox="0 0 26 26" fill="none" xmlns="http://www.w3.org/2000/svg">
<path d="M13 15.4375C13.6465 15.4375 14.2665 15.1807 14.7236 14.7236C15.1807 14.2665 15.4375 13.6465 15.4375 13C15.4375 12.3535 15.1807 11.7335 14.7236 11.2764C14.2665 10.8193 13.6465 10.5625 13 10.5625C12.3535 10.5625 11.7335 10.8193 11.2764 11.2764C10.8193 11.7335 10.5625 12.3535 10.5625 13C10.5625 13.6465 10.8193 14.2665 11.2764 14.7236C11.7335 15.1807 12.3535 15.4375 13 15.4375Z" fill="#885551"/>
<path fill-rule="evenodd" clip-rule="evenodd" d="M2.2429 13.455C2.14039 13.157 2.14039 12.8333 2.2429 12.5352C3.01701 10.2982 4.46945 8.35828 6.39797 6.98557C8.32649 5.61286 10.6351 4.87571 13.0023 4.87679C15.3694 4.87786 17.6773 5.6171 19.6046 6.99155C21.5319 8.36601 22.9826 10.3073 23.7547 12.545C23.8572 12.843 23.8572 13.1667 23.7547 13.4647C22.9809 15.7023 21.5285 17.6429 19.5998 19.016C17.6711 20.3892 15.3621 21.1266 12.9945 21.1256C10.6269 21.1245 8.31858 20.385 6.39111 19.0101C4.46364 17.6351 3.01301 15.6933 2.24128 13.455M17.8754 13C17.8754 14.2929 17.3618 15.5329 16.4475 16.4471C15.5333 17.3614 14.2933 17.875 13.0004 17.875C11.7075 17.875 10.4675 17.3614 9.55326 16.4471C8.63902 15.5329 8.1254 14.2929 8.1254 13C8.1254 11.7071 8.63902 10.4671 9.55326 9.55285C10.4675 8.63861 11.7075 8.12499 13.0004 8.12499C14.2933 8.12499 15.5333 8.63861 16.4475 9.55285C17.3618 10.4671 17.8754 11.7071 17.8754 13Z" fill="#885551"/>
</svg>
