<svg width="638" height="676" viewBox="0 0 638 676" fill="none" xmlns="http://www.w3.org/2000/svg">
<path d="M208.304 637.904C79.3734 673.117 -17.2302 583.656 2.58352 531.312C22.3972 478.968 85.0615 489.436 128.67 531.312C128.67 531.312 257.521 624.462 208.304 637.904Z" fill="#5B3236"/>
<path fill-rule="evenodd" clip-rule="evenodd" d="M72.685 630.151C75.7279 631.473 78.8477 632.727 82.0412 633.905H82.1708L71.9083 595.299L107.262 575.472C110.486 590.422 114.259 606.396 119.062 625.468L101.486 639.882C104.847 640.717 108.272 641.471 111.757 642.137L121.233 634.024C122.063 637.273 122.922 640.612 123.812 644.05C127.291 644.491 130.821 644.845 134.402 645.106C132.526 638.844 130.778 632.912 129.141 627.254L161.869 599.236L159.022 592.699L126.808 619.116C121.739 601.247 117.793 586.063 114.376 571.483L138.149 558.151L135.303 552.651L112.905 565.099C110.211 553.208 107.816 541.519 105.391 528.872L118.006 523.13C115.895 521.434 113.752 519.809 111.585 518.256L104.045 521.776C103.454 518.63 102.858 515.415 102.252 512.115C99.7877 510.633 97.3038 509.246 94.8082 507.959C95.7476 513.8 96.6652 519.382 97.5822 524.793L58.0694 543.239L45.6877 496.661C43.5062 496.869 41.3628 497.192 39.2646 497.632L51.5356 546.289L3.948 568.504C4.71937 570.292 5.57673 572.082 6.51789 573.87L53.1401 552.651L63.2399 592.699L35.7034 608.002C37.5512 609.493 39.4609 610.957 41.4305 612.391L64.8883 599.236L72.685 630.151ZM59.7695 549.634L98.7985 531.872C101.013 544.572 103.277 556.525 105.887 568.999L70.1904 588.837L59.7695 549.634Z" fill="#885551"/>
<path d="M388.432 651.798C388.432 651.798 394.971 664.714 389.387 667.813C374.107 676.291 359.781 663.102 357.871 664.044C356.916 664.515 357.24 669.536 354.051 671.581C334.95 683.827 274.782 660.276 274.782 660.276L332.085 634.841L388.432 651.798Z" fill="#4A2932"/>
<path d="M578.5 605.902C585.155 610.622 587.405 619.096 582.303 622.896C570.895 631.393 560.437 623.84 558.536 624.784C557.585 625.256 555.683 632.022 546.177 635.169C523.36 642.722 472.973 636.114 472.973 636.114L559.486 594.572C567.654 599.365 571.845 601.181 578.5 605.902Z" fill="#4A2932"/>
<path d="M549.725 464.288C578.685 490.307 593.646 524.373 585.053 556.8C558.626 621.403 524.928 624.803 466.656 634.052L549.725 464.288Z" fill="#BA6958"/>
<path d="M439.585 647.811C374.821 658.095 357.647 654.427 338.74 642.104V357.692H524.256C537.706 486.932 546.452 567.219 518.548 601.202C490.644 635.185 477.665 639.079 439.585 647.811Z" fill="#F1AD94"/>
<path d="M574.115 446.369C576.302 419.518 570.342 399.689 546.763 356.085L509.036 367.489C512.47 387.2 510.205 398.624 497.718 419.759C468.763 474.241 470.435 491.292 497.718 503.39C525.902 505.747 554.343 497.247 574.115 446.369Z" fill="#AD5F52"/>
<path d="M286.626 467.444C292.023 406.454 332.567 386.759 352.163 384.535" stroke="black"/>
<path d="M202.09 260.57C142.056 341.709 119.395 389.564 116.861 483.061C134.664 604.028 175.757 636.565 278.795 660.863C338.899 661.731 363.5 647.029 380.122 575.29C387 515.773 364.323 454.768 344.137 367.061L202.09 260.57Z" fill="#BA6958"/>
<path d="M299.26 38.4745C299.26 38.4745 278.833 -5.82862 241.585 23.3926C204.336 52.6137 238.701 88.4333 238.701 88.4333L299.26 38.4745Z" fill="#BA6958"/>
<path d="M283.468 50.8181C283.468 50.8181 273.577 30.7651 255.541 43.9915C237.505 57.2179 254.145 73.431 254.145 73.431L283.468 50.8181Z" fill="#5B3236"/>
<path d="M504.557 36.4887C504.557 36.4887 524.152 8.41799 549.982 28.6429C575.812 48.8678 552.654 76.5899 552.654 76.5899L504.557 36.4887Z" fill="#BA6958"/>
<path d="M517.98 45.5652C517.98 45.5652 527.424 29.9596 543.063 39.2982C558.702 48.6367 544.317 66.3248 544.317 66.3248L517.98 45.5652Z" fill="#5B3236"/>
<path d="M462.642 374.068C462.642 374.068 621.127 367.018 636.498 287.467C642.198 257.966 631.743 216.093 603.991 201.818C573.755 186.267 562.028 188.17 530.895 193.222C514.302 195.915 492.196 199.502 458.837 201.818C410.649 205.164 375.16 200.829 345.872 197.25C316.845 193.704 293.908 190.902 270.736 197.06C198.603 229.535 193.539 287.636 252.055 332.339C262.142 339.681 273.777 346.624 287.918 354.039C361.724 377.73 462.642 374.068 462.642 374.068Z" fill="#F7B9A2"/>
<path d="M362.889 12.3187C253.386 29.9756 158.786 172.158 197.583 268.435C215.051 297.95 229.773 316.119 252.055 332.339C193.539 287.636 198.603 229.535 270.736 197.06C293.908 190.902 316.845 193.704 345.872 197.25C375.16 200.829 410.649 205.164 458.837 201.818C492.196 199.502 514.302 195.915 530.895 193.222C562.028 188.17 573.755 186.267 603.991 201.818C603.173 197.797 601.345 188.916 600.396 184.689C578.757 86.7247 542.713 42.2039 482.593 23.1924C477.95 15.7266 469.292 12.3187 462.642 12.3187C453.529 12.6321 447.353 13.4092 442.977 14.542C441.25 14.3007 439.507 14.0714 437.748 13.8537C438.136 13.5502 438.524 13.2485 438.911 12.948C443.797 9.15325 448.437 5.54901 449.342 1.01925C449.799 -1.27297 427.843 -0.449381 410.485 11.4238C408.891 11.3296 407.284 11.2419 405.666 11.1606C409.314 8.62718 413.468 6.44814 414.191 1.97018C414.948 -2.72707 378.101 4.53834 362.889 12.3187Z" fill="#BA6958"/>
<path d="M462.642 374.068C462.642 374.068 621.127 367.018 636.498 287.467C642.198 257.966 631.743 216.093 603.991 201.818C573.755 186.267 562.028 188.17 530.895 193.222C514.302 195.915 492.196 199.502 458.837 201.818C410.649 205.164 375.16 200.829 345.872 197.25C316.845 193.704 293.908 190.902 270.736 197.06C198.603 229.535 193.539 287.636 252.055 332.339C262.142 339.681 273.777 346.624 287.918 354.039C361.724 377.73 462.642 374.068 462.642 374.068Z" fill="#F7B9A2"/>
<path d="M362.889 12.3187C253.386 29.9756 158.786 172.158 197.583 268.435C215.051 297.95 229.773 316.119 252.055 332.339C193.539 287.636 198.603 229.535 270.736 197.06C293.908 190.902 316.845 193.704 345.872 197.25C375.16 200.829 410.649 205.164 458.837 201.818C492.196 199.502 514.302 195.915 530.895 193.222C562.028 188.17 573.755 186.267 603.991 201.818C603.173 197.797 601.345 188.916 600.396 184.689C578.757 86.7247 542.713 42.2039 482.593 23.1924C477.95 15.7266 469.292 12.3187 462.642 12.3187C453.529 12.6321 447.353 13.4092 442.977 14.542C441.25 14.3007 439.507 14.0714 437.748 13.8537C438.136 13.5502 438.524 13.2485 438.911 12.948C443.797 9.15325 448.437 5.54901 449.342 1.01925C449.799 -1.27297 427.843 -0.449381 410.485 11.4238C408.891 11.3296 407.284 11.2419 405.666 11.1606C409.314 8.62718 413.468 6.44814 414.191 1.97018C414.948 -2.72707 378.101 4.53834 362.889 12.3187Z" fill="#BA6958"/>
<path d="M422.2 241.61C426.015 222.409 478.473 206.087 478.473 206.087C478.473 206.087 527.116 226.249 529.978 241.61C533.234 259.09 523.793 274.669 506.133 275.213C495.139 275.551 482.288 264.652 482.288 264.652C482.288 264.652 465.081 277.715 451.767 277.133C431.707 276.256 418.766 258.891 422.2 241.61Z" fill="#F5F5F5"/>
<ellipse cx="373.878" cy="178.843" rx="20.1349" ry="26.4517" fill="#5B3236"/>
<ellipse cx="360.497" cy="167.289" rx="6.30879" ry="8.46484" transform="rotate(10.503 360.497 167.289)" fill="#D9D9D9"/>
<ellipse cx="547.985" cy="176.478" rx="19.7401" ry="26.4517" fill="#5B3236"/>
<ellipse cx="534.788" cy="165.387" rx="6.30879" ry="8.46484" transform="rotate(10.503 534.788 165.387)" fill="#D9D9D9"/>
<path d="M466.129 314.808C450.468 311.936 456.917 274.595 456.917 274.595L480.869 262.148V309.063C480.869 309.063 475.201 316.472 466.129 314.808Z" fill="#F5F5F5"/>
<path d="M491.648 315.841C508.037 315.841 503.055 272.695 503.055 272.695L479.29 262.148V310.088C479.29 310.088 482.142 315.841 491.648 315.841Z" fill="#EBEBEB"/>
<path fill-rule="evenodd" clip-rule="evenodd" d="M482.341 222.669C483.904 222.669 485.172 223.949 485.172 225.528V260.752C485.542 261.103 486.096 261.57 486.823 262.121C488.329 263.262 490.428 264.649 492.828 265.963C497.773 268.669 503.371 270.718 507.557 270.33C520.119 269.165 525.742 258.831 525.742 249.352C525.742 247.773 527.01 246.494 528.573 246.494C530.136 246.494 531.404 247.773 531.404 249.352C531.404 260.839 524.399 274.51 508.074 276.023C502.12 276.575 495.252 273.793 490.131 270.99C487.498 269.549 485.163 268.012 483.426 266.695C482.988 266.364 482.579 266.039 482.206 265.726C481.824 266.008 481.405 266.305 480.954 266.613C478.963 267.974 476.193 269.662 473.013 271.312C466.76 274.556 458.446 277.906 451.219 277.941C440.021 277.996 432.142 273.292 427.122 267.032C422.186 260.876 420.069 253.294 420.069 247.446C420.069 245.868 421.337 244.588 422.9 244.588C424.463 244.588 425.73 245.868 425.73 247.446C425.73 252.081 427.46 258.368 431.522 263.434C435.501 268.396 441.775 272.269 451.192 272.224C457.024 272.195 464.343 269.382 470.426 266.226C473.414 264.675 475.987 263.103 477.782 261.877C478.522 261.372 479.101 260.944 479.51 260.616V225.528C479.51 223.949 480.778 222.669 482.341 222.669ZM484.802 260.369C484.767 260.326 484.774 260.328 484.803 260.371C484.803 260.37 484.803 260.37 484.802 260.369Z" fill="#4A2932"/>
<ellipse cx="480.079" cy="213.588" rx="27.6361" ry="21.7141" fill="#4A2932"/>
<path fill-rule="evenodd" clip-rule="evenodd" d="M375.31 107.803C373.137 108.016 370.972 108.706 368.239 110.087C366.4 111.016 364.035 110.483 362.958 108.895C361.881 107.308 362.499 105.268 364.339 104.338C367.648 102.667 370.854 101.536 374.439 101.185C378.01 100.835 381.636 101.29 385.739 102.358C387.78 102.89 388.935 104.748 388.32 106.509C387.704 108.27 385.55 109.267 383.509 108.736C380.018 107.827 377.497 107.589 375.31 107.803Z" fill="#4A2932"/>
<path fill-rule="evenodd" clip-rule="evenodd" d="M541.239 106.336C539.127 106.202 536.927 106.55 534.044 107.502C532.104 108.143 529.961 107.227 529.259 105.457C528.556 103.687 529.56 101.732 531.5 101.091C534.99 99.9387 538.273 99.3137 541.757 99.5344C545.227 99.7543 548.586 100.793 552.275 102.525C554.11 103.387 554.831 105.442 553.887 107.116C552.943 108.79 550.69 109.449 548.855 108.587C545.716 107.114 543.365 106.47 541.239 106.336Z" fill="#4A2932"/>
<path d="M329.209 211.614C340.855 211.53 352.953 221.001 352.953 229.449C352.953 237.897 340.63 246.684 329.209 246.346C317.627 246.004 305.506 238.989 306.414 227.572C307.269 216.823 318.3 211.691 329.209 211.614Z" fill="#F89A81"/>
<path d="M597.538 211.614C609.503 211.534 615.102 217.952 615.102 226.1C615.102 234.249 604.442 242.724 592.708 242.398C580.809 242.068 573.186 234.397 574.119 223.384C574.998 213.017 586.331 211.689 597.538 211.614Z" fill="#F89A81"/>
<path d="M419.953 506.859C440.838 482.444 416.58 442.323 345.235 367.184C330.103 360.532 302.675 367.184 279.976 394.739C260.759 431.587 267.87 447.11 284.705 473.603C356.986 515.512 391.646 530.294 419.953 506.859Z" fill="#AD5F52"/>
<path d="M562.205 408.807C562.205 388.587 429.328 388.587 429.328 408.807V553.239C429.328 574.904 562.205 574.904 562.205 553.239V408.807Z" fill="#D6D6D6"/>
<path fill-rule="evenodd" clip-rule="evenodd" d="M429.328 452.137V432.639C420.279 432.639 412.46 434.534 405.853 437.829L415.963 455.438C419.738 453.34 424.19 452.137 429.328 452.137ZM407.297 514.96C412.237 522.03 419.611 525.797 429.328 525.797V543.851C408.47 543.851 395.139 532.889 387.076 517.849L407.297 514.96Z" fill="#D6D6D6"/>
<path d="M498.655 393.644C534.957 393.644 562.205 395.089 562.205 408.087C562.205 421.086 504.928 419.369 498.655 419.642C492.382 419.915 429.187 419.72 429.328 408.087C429.469 396.455 462.354 393.644 498.655 393.644Z" fill="#F01212"/>
<path fill-rule="evenodd" clip-rule="evenodd" d="M494.093 528.113L494.051 528.071C494.035 527.621 494.016 527.183 493.994 526.755C494.018 527.209 494.038 527.674 494.054 528.153C494.067 528.14 494.08 528.127 494.093 528.113Z" fill="#FD5252"/>
<path d="M525.463 483.497C525.564 478.531 522.856 473.799 518.646 471.162C510.92 466.323 500.61 466.99 494.228 480.379C487.834 467.118 477.566 466.477 469.867 471.304C465.658 473.942 462.959 478.673 463.029 483.639C463.205 496.021 474.879 508.743 494.051 528.071L494.093 528.113C513.269 508.762 525.211 495.921 525.463 483.497Z" fill="#FD5252"/>
<path d="M456.779 454.501C456.203 454.501 455.916 454.346 455.916 454.035V446.241L452.7 454.137C452.604 454.379 452.299 454.501 451.786 454.501C451.272 454.501 450.962 454.382 450.855 454.145L447.216 446.038V454.171C447.216 454.391 446.993 454.501 446.547 454.501C446.102 454.501 445.879 454.391 445.879 454.171V443.084C445.879 442.768 446.209 442.61 446.869 442.61C447.36 442.61 447.659 442.729 447.766 442.966L452.006 452.444L455.882 442.966C455.983 442.729 456.279 442.61 456.77 442.61C457.346 442.61 457.633 442.768 457.633 443.084V454.035C457.633 454.346 457.349 454.501 456.779 454.501Z" fill="#1A1A1A"/>
<path d="M467.112 454.501C466.858 454.501 466.652 454.453 466.494 454.357C466.099 454.125 465.851 453.824 465.749 453.451C465.388 453.874 464.903 454.157 464.294 454.298C463.69 454.433 463.146 454.501 462.66 454.501C461.887 454.501 461.103 454.317 460.308 453.951C459.518 453.578 459.123 452.941 459.123 452.038C459.123 451.011 459.512 450.36 460.291 450.083C461.069 449.807 461.876 449.668 462.711 449.668C462.892 449.668 463.112 449.674 463.371 449.685C463.636 449.697 463.885 449.702 464.116 449.702C464.754 449.702 465.208 449.629 465.478 449.482V448.678C465.478 447.409 464.742 446.774 463.27 446.774C462.728 446.774 462.246 446.91 461.823 447.18C461.332 447.496 461.086 447.874 461.086 448.314C461.086 448.625 460.799 448.78 460.223 448.78C459.659 448.78 459.377 448.625 459.377 448.314C459.377 447.654 459.755 447.073 460.511 446.571C461.261 446.08 462.181 445.835 463.27 445.835C464.144 445.835 465.016 446.049 465.885 446.478C466.754 446.901 467.188 447.635 467.188 448.678V452.326C467.188 453.037 467.371 453.496 467.738 453.705C467.896 453.795 467.975 453.903 467.975 454.027C467.975 454.168 467.888 454.283 467.713 454.374C467.56 454.458 467.36 454.501 467.112 454.501ZM462.66 453.561C463.298 453.561 463.927 453.372 464.548 452.994C465.168 452.611 465.478 452.069 465.478 451.369V450.557C465.157 450.613 464.762 450.642 464.294 450.642C464.034 450.642 463.772 450.636 463.507 450.625C463.241 450.608 462.976 450.599 462.711 450.599C461.464 450.599 460.841 451.079 460.841 452.038C460.841 453.054 461.447 453.561 462.66 453.561Z" fill="#1A1A1A"/>
<path d="M481.414 454.501C480.844 454.501 480.559 454.343 480.559 454.027V449.626C480.559 448.989 480.415 448.36 480.128 447.739C479.84 447.113 479.307 446.8 478.528 446.8C477.755 446.8 477.228 447.115 476.946 447.747C476.663 448.374 476.522 448.997 476.522 449.618V454.027C476.522 454.343 476.235 454.501 475.659 454.501C475.089 454.501 474.804 454.343 474.804 454.027V449.626C474.804 448.989 474.661 448.36 474.373 447.739C474.085 447.113 473.549 446.8 472.765 446.8C472.094 446.8 471.58 447.09 471.225 447.671C470.909 448.19 470.751 448.839 470.751 449.618V454.027C470.751 454.343 470.466 454.501 469.896 454.501C469.321 454.501 469.033 454.343 469.033 454.027V446.309C469.033 445.993 469.321 445.835 469.896 445.835C470.466 445.835 470.751 445.993 470.751 446.309V446.825C471.304 446.165 472.04 445.835 472.96 445.835C474.06 445.835 474.96 446.249 475.659 447.079C476.348 446.249 477.307 445.835 478.537 445.835C481.03 445.835 482.277 447.099 482.277 449.626V454.027C482.277 454.343 481.989 454.501 481.414 454.501Z" fill="#1A1A1A"/>
<path d="M488.108 443.939C487.944 443.939 487.792 443.854 487.651 443.685C487.527 443.544 487.465 443.4 487.465 443.254C487.465 443.118 487.521 442.997 487.634 442.89L490.368 440.342C490.48 440.235 490.607 440.182 490.748 440.182C491.008 440.182 491.236 440.314 491.434 440.579C491.581 440.771 491.654 440.963 491.654 441.155C491.654 441.347 491.578 441.499 491.425 441.612L488.413 443.829C488.317 443.902 488.215 443.939 488.108 443.939ZM491.755 454.501C491.502 454.501 491.296 454.453 491.138 454.357C490.743 454.125 490.494 453.824 490.393 453.451C490.032 453.874 489.547 454.157 488.937 454.298C488.334 454.433 487.789 454.501 487.304 454.501C486.531 454.501 485.747 454.317 484.951 453.951C484.161 453.578 483.767 452.941 483.767 452.038C483.767 451.011 484.156 450.36 484.934 450.083C485.713 449.807 486.52 449.668 487.355 449.668C487.535 449.668 487.755 449.674 488.015 449.685C488.28 449.697 488.528 449.702 488.76 449.702C489.397 449.702 489.851 449.629 490.122 449.482V448.678C490.122 447.409 489.386 446.774 487.913 446.774C487.372 446.774 486.889 446.91 486.466 447.18C485.975 447.496 485.73 447.874 485.73 448.314C485.73 448.625 485.442 448.78 484.867 448.78C484.303 448.78 484.02 448.625 484.02 448.314C484.02 447.654 484.398 447.073 485.154 446.571C485.905 446.08 486.824 445.835 487.913 445.835C488.788 445.835 489.659 446.049 490.528 446.478C491.397 446.901 491.832 447.635 491.832 448.678V452.326C491.832 453.037 492.015 453.496 492.382 453.705C492.54 453.795 492.619 453.903 492.619 454.027C492.619 454.168 492.531 454.283 492.356 454.374C492.204 454.458 492.004 454.501 491.755 454.501ZM487.304 453.561C487.942 453.561 488.571 453.372 489.191 452.994C489.812 452.611 490.122 452.069 490.122 451.369V450.557C489.801 450.613 489.406 450.642 488.937 450.642C488.678 450.642 488.415 450.636 488.15 450.625C487.885 450.608 487.62 450.599 487.355 450.599C486.108 450.599 485.485 451.079 485.485 452.038C485.485 453.054 486.091 453.561 487.304 453.561Z" fill="#1A1A1A"/>
<path d="M506.032 454.018C506.032 455.293 505.617 456.221 504.788 456.803C503.964 457.389 502.966 457.683 501.792 457.683C501.115 457.683 500.407 457.567 499.668 457.336C498.935 457.104 498.368 456.701 497.967 456.126C497.928 456.069 497.908 456.013 497.908 455.956C497.908 455.646 498.193 455.491 498.763 455.491C499.163 455.491 499.431 455.59 499.567 455.787C500.001 456.419 500.737 456.735 501.775 456.735C503.468 456.735 504.314 455.798 504.314 453.925V453.468C503.761 454.128 502.98 454.458 501.97 454.458C499.262 454.458 497.908 453.189 497.908 450.65V446.266C497.908 445.95 498.196 445.792 498.771 445.792C499.341 445.792 499.626 445.95 499.626 446.266V450.65C499.626 451.333 499.82 451.982 500.21 452.597C500.599 453.212 501.186 453.519 501.97 453.519C502.726 453.519 503.304 453.212 503.705 452.597C504.111 451.982 504.314 451.341 504.314 450.675V446.266C504.314 445.95 504.599 445.792 505.169 445.792C505.744 445.792 506.032 445.95 506.032 446.266V454.018Z" fill="#1A1A1A"/>
<path d="M512.819 454.501C512.244 454.501 511.956 454.343 511.956 454.027V443.287C511.956 442.972 512.244 442.814 512.819 442.814H518.142C519.056 442.814 519.891 443.096 520.647 443.66C521.409 444.224 521.79 444.989 521.79 445.953C521.79 446.918 521.409 447.685 520.647 448.255C519.891 448.819 519.056 449.101 518.142 449.101H513.674V454.027C513.674 454.343 513.389 454.501 512.819 454.501ZM518.142 448.154C518.701 448.154 519.161 447.917 519.522 447.443C519.889 446.963 520.072 446.467 520.072 445.953C520.072 445.44 519.889 444.946 519.522 444.472C519.161 443.998 518.701 443.761 518.142 443.761H513.674V448.154H518.142Z" fill="#1A1A1A"/>
<path d="M530.837 454.501C530.583 454.501 530.377 454.453 530.219 454.357C529.824 454.125 529.576 453.824 529.474 453.451C529.113 453.874 528.628 454.157 528.018 454.298C527.415 454.433 526.87 454.501 526.385 454.501C525.612 454.501 524.828 454.317 524.032 453.951C523.243 453.578 522.848 452.941 522.848 452.038C522.848 451.011 523.237 450.36 524.016 450.083C524.794 449.807 525.601 449.668 526.436 449.668C526.616 449.668 526.836 449.674 527.096 449.685C527.361 449.697 527.609 449.702 527.841 449.702C528.478 449.702 528.932 449.629 529.203 449.482V448.678C529.203 447.409 528.467 446.774 526.994 446.774C526.453 446.774 525.97 446.91 525.547 447.18C525.056 447.496 524.811 447.874 524.811 448.314C524.811 448.625 524.523 448.78 523.948 448.78C523.384 448.78 523.102 448.625 523.102 448.314C523.102 447.654 523.48 447.073 524.236 446.571C524.986 446.08 525.906 445.835 526.994 445.835C527.869 445.835 528.741 446.049 529.609 446.478C530.478 446.901 530.913 447.635 530.913 448.678V452.326C530.913 453.037 531.096 453.496 531.463 453.705C531.621 453.795 531.7 453.903 531.7 454.027C531.7 454.168 531.612 454.283 531.437 454.374C531.285 454.458 531.085 454.501 530.837 454.501ZM526.385 453.561C527.023 453.561 527.652 453.372 528.272 452.994C528.893 452.611 529.203 452.069 529.203 451.369V450.557C528.882 450.613 528.487 450.642 528.018 450.642C527.759 450.642 527.497 450.636 527.231 450.625C526.966 450.608 526.701 450.599 526.436 450.599C525.189 450.599 524.566 451.079 524.566 452.038C524.566 453.054 525.172 453.561 526.385 453.561Z" fill="#1A1A1A"/>
<path d="M533.621 457.717C533.045 457.717 532.758 457.559 532.758 457.243V446.3C532.758 445.984 533.045 445.826 533.621 445.826C534.191 445.826 534.476 445.984 534.476 446.3V446.816C535.124 446.162 535.996 445.835 537.091 445.835C539.979 445.835 541.424 447.279 541.424 450.168C541.424 453.056 539.979 454.501 537.091 454.501C536.002 454.501 535.13 454.173 534.476 453.519V457.243C534.476 457.559 534.191 457.717 533.621 457.717ZM537.091 453.553C537.982 453.553 538.639 453.178 539.062 452.427C539.491 451.677 539.706 450.924 539.706 450.168C539.706 449.412 539.491 448.659 539.062 447.908C538.639 447.158 537.982 446.783 537.091 446.783C536.205 446.783 535.548 447.158 535.119 447.908C534.69 448.659 534.476 449.412 534.476 450.168C534.476 450.924 534.69 451.677 535.119 452.427C535.548 453.178 536.205 453.553 537.091 453.553Z" fill="#1A1A1A"/>
<path d="M546.823 443.939C546.659 443.939 546.507 443.854 546.366 443.685C546.242 443.544 546.18 443.4 546.18 443.254C546.18 443.118 546.236 442.997 546.349 442.89L549.082 440.342C549.195 440.235 549.322 440.182 549.463 440.182C549.723 440.182 549.951 440.314 550.149 440.579C550.295 440.771 550.369 440.963 550.369 441.155C550.369 441.347 550.292 441.499 550.14 441.612L547.127 443.829C547.032 443.902 546.93 443.939 546.823 443.939ZM550.47 454.501C550.216 454.501 550.01 454.453 549.852 454.357C549.457 454.125 549.209 453.824 549.108 453.451C548.747 453.874 548.261 454.157 547.652 454.298C547.048 454.433 546.504 454.501 546.019 454.501C545.246 454.501 544.462 454.317 543.666 453.951C542.876 453.578 542.481 452.941 542.481 452.038C542.481 451.011 542.871 450.36 543.649 450.083C544.428 449.807 545.235 449.668 546.07 449.668C546.25 449.668 546.47 449.674 546.73 449.685C546.995 449.697 547.243 449.702 547.474 449.702C548.112 449.702 548.566 449.629 548.837 449.482V448.678C548.837 447.409 548.101 446.774 546.628 446.774C546.086 446.774 545.604 446.91 545.181 447.18C544.69 447.496 544.445 447.874 544.445 448.314C544.445 448.625 544.157 448.78 543.582 448.78C543.017 448.78 542.735 448.625 542.735 448.314C542.735 447.654 543.113 447.073 543.869 446.571C544.62 446.08 545.539 445.835 546.628 445.835C547.503 445.835 548.374 446.049 549.243 446.478C550.112 446.901 550.546 447.635 550.546 448.678V452.326C550.546 453.037 550.73 453.496 551.096 453.705C551.254 453.795 551.333 453.903 551.333 454.027C551.333 454.168 551.246 454.283 551.071 454.374C550.919 454.458 550.718 454.501 550.47 454.501ZM546.019 453.561C546.656 453.561 547.285 453.372 547.906 452.994C548.527 452.611 548.837 452.069 548.837 451.369V450.557C548.515 450.613 548.12 450.642 547.652 450.642C547.393 450.642 547.13 450.636 546.865 450.625C546.6 450.608 546.335 450.599 546.07 450.599C544.823 450.599 544.199 451.079 544.199 452.038C544.199 453.054 544.806 453.561 546.019 453.561Z" fill="#1A1A1A"/>
<path d="M487.248 549.824C486.678 549.824 486.393 549.666 486.393 549.35V544.349H479.792V549.35C479.792 549.666 479.507 549.824 478.937 549.824C478.362 549.824 478.074 549.666 478.074 549.35V538.408C478.074 538.092 478.362 537.934 478.937 537.934C479.507 537.934 479.792 538.092 479.792 538.408V543.41H486.393V538.408C486.393 538.092 486.678 537.934 487.248 537.934C487.823 537.934 488.111 538.092 488.111 538.408V549.35C488.111 549.666 487.823 549.824 487.248 549.824Z" fill="#1A1A1A"/>
<path d="M490.463 540.414C489.882 540.414 489.592 540.126 489.592 539.55C489.592 538.969 489.882 538.679 490.463 538.679C491.039 538.679 491.327 538.969 491.327 539.55C491.327 540.126 491.039 540.414 490.463 540.414ZM490.463 549.824C489.888 549.824 489.6 549.666 489.6 549.35V541.632C489.6 541.316 489.888 541.158 490.463 541.158C491.033 541.158 491.318 541.316 491.318 541.632V549.35C491.318 549.666 491.033 549.824 490.463 549.824Z" fill="#1A1A1A"/>
<path d="M495.947 540.405C495.327 540.405 495.016 540.12 495.016 539.55C495.016 538.981 495.327 538.696 495.947 538.696C496.568 538.696 496.878 538.981 496.878 539.55C496.878 540.12 496.568 540.405 495.947 540.405ZM493.967 553.066C493.623 553.066 493.265 553.035 492.892 552.972C492.418 552.882 492.181 552.73 492.181 552.515C492.181 552.194 492.472 552.033 493.053 552.033C493.205 552.033 493.355 552.047 493.502 552.075C493.648 552.104 493.801 552.118 493.959 552.118C494.715 552.118 495.093 551.655 495.093 550.73V541.649C495.093 541.333 495.378 541.175 495.947 541.175C496.523 541.175 496.811 541.333 496.811 541.649V550.73C496.811 552.276 495.863 553.054 493.967 553.066Z" fill="#1A1A1A"/>
<path d="M502.76 549.824C501.44 549.824 500.34 549.432 499.459 548.648C498.585 547.864 498.148 546.812 498.148 545.491C498.148 544.171 498.585 543.119 499.459 542.335C500.34 541.551 501.44 541.158 502.76 541.158C504.08 541.158 505.177 541.551 506.052 542.335C506.932 543.119 507.372 544.171 507.372 545.491C507.372 546.812 506.932 547.864 506.052 548.648C505.177 549.432 504.08 549.824 502.76 549.824ZM502.76 548.885C503.702 548.885 504.419 548.529 504.909 547.819C505.406 547.102 505.654 546.326 505.654 545.491C505.654 544.651 505.406 543.875 504.909 543.164C504.419 542.453 503.702 542.098 502.76 542.098C501.823 542.098 501.107 542.453 500.61 543.164C500.114 543.875 499.866 544.651 499.866 545.491C499.866 546.326 500.114 547.102 500.61 547.819C501.107 548.529 501.823 548.885 502.76 548.885Z" fill="#1A1A1A"/>
<path d="M531.269 353.194C533.889 339.309 514.097 321.419 514.097 321.419C514.097 321.419 521.559 338.936 519.821 350.305C518.066 361.784 505.51 376.303 505.51 376.303C505.51 376.303 528.751 366.538 531.269 353.194Z" fill="#E1F3FF" stroke="#E1F3FF" stroke-linejoin="round"/>
<path d="M467.958 376.305C467.958 384.971 476.557 393.637 490.887 399.414C488.021 387.86 480.024 389.737 488.02 376.305C496.017 362.873 505.217 356.085 508.083 344.53C510.949 332.976 493.753 315.644 479.423 315.644C482.289 321.421 488.02 327.198 488.02 338.753C488.02 350.307 467.958 367.639 467.958 376.305Z" fill="#BEE6FF"/>
</svg>
