<svg width="724" height="966" viewBox="0 0 724 966" fill="none" xmlns="http://www.w3.org/2000/svg">
<path d="M561 739.5C537 758 515.738 766.021 470.665 760.112L464.903 709.937C482.91 706.421 495.122 714.862 509.134 697.242C546.312 654.591 561.464 650.436 580.766 669.841C592.019 693.209 585 721 561 739.5Z" fill="#AD5F52"/>
<path d="M336.009 259.501L340.895 261.674C366.032 258.71 368.411 242.218 392.306 238.864C416.202 235.511 422.357 251.898 422.357 251.898C423.783 262.136 402.286 265.321 339.447 268.191C339.775 268.93 338.912 269.557 337.381 270.051C334.042 271.129 327.525 271.576 323.262 271.172C320.859 270.944 319.172 270.446 319.172 269.639C287.511 271.477 286.711 290.942 260.157 291.724C242.7 292.238 236.337 284.195 234.931 278.558C233.998 274.822 237.61 272.206 241.106 270.59C264.527 259.763 287.96 264.367 316.999 261.674L321.878 259.501L322.229 262.494C322.345 263.479 323.165 264.231 324.157 264.258C327.9 264.36 330.609 264.363 334.577 263.912C335.67 263.788 336.436 262.784 336.294 261.694L336.009 259.501Z" fill="#0E56A2"/>
<path d="M320.718 249.753C320.264 245.939 322.983 242.482 326.807 242.12C330.601 241.76 334.049 244.441 334.541 248.221L336.009 259.501L336.294 261.694C336.436 262.784 335.67 263.788 334.577 263.912C330.609 264.363 327.9 264.36 324.157 264.258C323.165 264.231 322.345 263.479 322.229 262.494L321.878 259.501L320.718 249.753Z" fill="#EDC01D"/>
<path d="M339.447 285.931C347.158 287.643 349.095 289.809 350.67 294.62L319.896 297.879C320.221 294.368 319.81 292.454 325.326 288.466L323.262 271.172C327.525 271.576 334.042 271.129 337.381 270.051L339.447 285.931Z" fill="#ECC11C"/>
<path d="M191.026 931.294C72.7894 963.586 -15.8009 881.546 2.36921 833.544C20.5394 785.541 78.0057 795.142 117.997 833.544C117.997 833.544 236.159 918.967 191.026 931.294Z" fill="#5B3236"/>
<path fill-rule="evenodd" clip-rule="evenodd" d="M66.6558 924.184C69.4463 925.396 72.3074 926.546 75.236 927.627H75.3548L65.9436 892.223L98.365 874.041C101.322 887.75 104.781 902.4 109.186 919.889L93.0675 933.107C96.1503 933.874 99.291 934.565 102.487 935.176L111.177 927.736C111.938 930.716 112.726 933.778 113.542 936.93C116.732 937.335 119.97 937.659 123.253 937.899C121.533 932.155 119.93 926.716 118.429 921.528L148.442 895.833L145.832 889.839L116.29 914.064C111.641 897.677 108.022 883.753 104.889 870.382L126.69 858.156L124.08 853.113L103.54 864.528C101.069 853.623 98.8729 842.904 96.6485 831.306L108.218 826.04C106.281 824.485 104.317 822.994 102.329 821.571L95.4143 824.799C94.8725 821.913 94.3257 818.965 93.7699 815.939C91.5104 814.58 89.2326 813.308 86.9439 812.128C87.8054 817.485 88.6469 822.603 89.4879 827.566L53.2526 844.481L41.898 801.767C39.8974 801.958 37.9319 802.254 36.0077 802.658L47.2608 847.278L3.62057 867.651C4.32796 869.29 5.1142 870.931 5.97729 872.571L48.7322 853.113L57.9942 889.839L32.7418 903.872C34.4364 905.239 36.1877 906.582 37.9939 907.897L59.5059 895.833L66.6558 924.184ZM54.8117 850.346L90.6033 834.057C92.6339 845.704 94.7107 856.665 97.1038 868.104L64.3682 886.297L54.8117 850.346Z" fill="#885551"/>
<path d="M356.212 944.036C356.212 944.036 362.208 955.881 357.088 958.722C343.075 966.497 329.937 954.403 328.186 955.266C327.31 955.698 327.607 960.303 324.682 962.178C307.166 973.408 251.989 951.811 251.989 951.811L304.538 928.485L356.212 944.036Z" fill="#4A2932"/>
<path d="M530.514 901.946C536.617 906.275 538.68 914.045 534.001 917.53C523.539 925.323 513.949 918.396 512.205 919.262C511.333 919.695 509.59 925.9 500.871 928.786C479.947 935.712 433.74 929.652 433.74 929.652L513.077 891.556C520.567 895.951 524.411 897.617 530.514 901.946Z" fill="#4A2932"/>
<path d="M504.125 772.078C530.684 795.94 544.403 827.18 536.523 856.917C512.288 916.161 481.385 919.279 427.947 927.761L485 765C485 765 477.567 748.217 504.125 772.078Z" fill="#BA6958"/>
<path d="M403.121 940.377C343.73 949.808 327.98 946.444 310.642 935.143V674.324H480.769C493.104 792.843 501.124 866.47 475.535 897.634C449.945 928.798 438.043 932.369 403.121 940.377Z" fill="#F1AD94"/>
<path d="M262.851 774.975C267.8 719.044 304.98 700.983 322.952 698.944" stroke="black"/>
<path d="M185.326 585.259C130.273 659.668 109.491 703.554 107.168 789.294C123.494 900.228 161.178 930.065 255.669 952.348C310.787 953.144 333.348 939.661 348.591 873.873C354.898 819.294 334.103 763.349 315.591 682.917L185.326 585.259Z" fill="#BA6958"/>
<path d="M385.118 811.119C404.271 788.729 382.025 751.936 316.598 683.029C302.721 676.93 277.568 683.029 256.752 708.299C239.129 742.091 245.651 756.326 261.089 780.622C327.374 819.054 359.159 832.61 385.118 811.119Z" fill="#AD5F52"/>
<path d="M274.436 381.589C274.436 381.589 255.704 340.961 221.545 367.758C187.386 394.555 218.901 427.403 218.901 427.403L274.436 381.589Z" fill="#BA6958"/>
<path d="M259.954 392.908C259.954 392.908 250.884 374.519 234.344 386.648C217.804 398.777 233.063 413.645 233.063 413.645L259.954 392.908Z" fill="#5B3236"/>
<path d="M462.704 379.767C462.704 379.767 480.674 354.025 504.361 372.572C528.048 391.119 506.811 416.542 506.811 416.542L462.704 379.767Z" fill="#BA6958"/>
<path d="M475.014 388.091C475.014 388.091 483.674 373.78 498.016 382.344C512.357 390.908 499.166 407.128 499.166 407.128L475.014 388.091Z" fill="#5B3236"/>
<path d="M424.266 689.343C424.266 689.343 569.605 682.878 583.701 609.926C588.928 582.871 579.34 544.472 553.89 531.381C526.163 517.119 515.408 518.865 486.857 523.498C471.64 525.967 451.368 529.257 420.776 531.381C376.586 534.449 344.041 530.473 317.182 527.192C290.562 523.94 269.528 521.37 248.278 527.018C182.129 556.799 177.485 610.081 231.147 651.075C240.397 657.808 251.068 664.175 264.035 670.975C331.719 692.701 424.266 689.343 424.266 689.343Z" fill="#F7B9A2"/>
<path d="M332.787 357.6C232.367 373.793 145.615 504.181 181.194 592.472C197.212 619.539 210.713 636.201 231.147 651.075C177.485 610.081 182.129 556.799 248.278 527.018C269.528 521.37 290.562 523.94 317.182 527.192C344.041 530.473 376.586 534.449 420.776 531.381C451.368 529.257 471.64 525.967 486.857 523.498C515.408 518.865 526.163 517.119 553.89 531.381C553.14 527.693 551.463 519.549 550.593 515.672C530.749 425.834 497.695 385.007 442.562 367.572C438.304 360.726 430.365 357.6 424.266 357.6C415.909 357.888 410.245 358.6 406.232 359.639C404.648 359.418 403.05 359.208 401.437 359.008C401.793 358.73 402.149 358.453 402.504 358.177C406.984 354.697 411.24 351.392 412.069 347.238C412.489 345.136 392.354 345.891 376.436 356.78C374.973 356.693 373.5 356.613 372.017 356.538C375.362 354.215 379.171 352.217 379.834 348.11C380.528 343.803 346.737 350.465 332.787 357.6Z" fill="#BA6958"/>
<path d="M424.266 689.343C424.266 689.343 569.605 682.878 583.701 609.926C588.928 582.871 579.34 544.472 553.89 531.381C526.163 517.119 515.408 518.865 486.857 523.498C471.64 525.967 451.368 529.257 420.776 531.381C376.586 534.449 344.041 530.473 317.182 527.192C290.562 523.94 269.528 521.37 248.278 527.018C182.129 556.799 177.485 610.081 231.147 651.075C240.397 657.808 251.068 664.175 264.035 670.975C331.719 692.701 424.266 689.343 424.266 689.343Z" fill="#F7B9A2"/>
<path d="M332.787 357.6C232.367 373.793 145.615 504.181 181.194 592.472C197.212 619.539 210.713 636.201 231.147 651.075C177.485 610.081 182.129 556.799 248.278 527.018C269.528 521.37 290.562 523.94 317.182 527.192C344.041 530.473 376.586 534.449 420.776 531.381C451.368 529.257 471.64 525.967 486.857 523.498C515.408 518.865 526.163 517.119 553.89 531.381C553.14 527.693 551.463 519.549 550.593 515.672C530.749 425.834 497.695 385.007 442.562 367.572C438.304 360.726 430.365 357.6 424.266 357.6C415.909 357.888 410.245 358.6 406.232 359.639C404.648 359.418 403.05 359.208 401.437 359.008C401.793 358.73 402.149 358.453 402.504 358.177C406.984 354.697 411.24 351.392 412.069 347.238C412.489 345.136 392.354 345.891 376.436 356.78C374.973 356.693 373.5 356.613 372.017 356.538C375.362 354.215 379.171 352.217 379.834 348.11C380.528 343.803 346.737 350.465 332.787 357.6Z" fill="#BA6958"/>
<path d="M387.178 567.872C390.677 550.263 438.784 535.296 438.784 535.296C438.784 535.296 483.392 553.785 486.016 567.872C489.002 583.902 480.345 598.189 464.15 598.687C454.068 598.997 442.283 589.002 442.283 589.002C442.283 589.002 426.502 600.982 414.293 600.448C395.897 599.644 384.03 583.72 387.178 567.872Z" fill="#F5F5F5"/>
<ellipse cx="342.864" cy="510.314" rx="18.4647" ry="24.2576" fill="#5B3236"/>
<ellipse cx="330.594" cy="499.717" rx="5.78548" ry="7.76269" transform="rotate(10.503 330.594 499.717)" fill="#D9D9D9"/>
<ellipse cx="502.53" cy="508.141" rx="18.1027" ry="24.2576" fill="#5B3236"/>
<ellipse cx="490.427" cy="497.972" rx="5.78548" ry="7.76269" transform="rotate(10.503 490.427 497.972)" fill="#D9D9D9"/>
<path d="M427.464 634.999C413.102 632.365 419.016 598.121 419.016 598.121L440.981 586.707V629.731C440.981 629.731 435.783 636.525 427.464 634.999Z" fill="#F5F5F5"/>
<path d="M450.866 635.946C465.896 635.946 461.327 596.379 461.327 596.379L439.533 586.707V630.671C439.533 630.671 442.148 635.946 450.866 635.946Z" fill="#EBEBEB"/>
<path fill-rule="evenodd" clip-rule="evenodd" d="M442.331 550.502C443.765 550.502 444.927 551.676 444.927 553.123V585.425C445.266 585.747 445.774 586.176 446.441 586.681C447.822 587.727 449.747 588.999 451.948 590.204C456.483 592.686 461.616 594.564 465.455 594.208C476.975 593.141 482.132 583.664 482.132 574.971C482.132 573.523 483.294 572.35 484.728 572.35C486.162 572.35 487.324 573.523 487.324 574.971C487.324 585.505 480.9 598.042 465.93 599.43C460.469 599.936 454.171 597.384 449.474 594.814C447.06 593.492 444.919 592.083 443.326 590.875C442.924 590.571 442.549 590.273 442.207 589.987C441.857 590.245 441.472 590.518 441.059 590.8C439.233 592.048 436.693 593.596 433.777 595.109C428.042 598.085 420.418 601.156 413.79 601.189C403.522 601.239 396.296 596.925 391.693 591.185C387.165 585.539 385.225 578.586 385.225 573.223C385.225 571.776 386.387 570.602 387.82 570.602C389.254 570.602 390.416 571.776 390.416 573.223C390.416 577.474 392.002 583.239 395.727 587.885C399.376 592.436 405.129 595.987 413.765 595.945C419.114 595.919 425.826 593.339 431.404 590.445C434.144 589.023 436.504 587.582 438.15 586.457C438.828 585.994 439.36 585.601 439.735 585.3V553.123C439.735 551.676 440.897 550.502 442.331 550.502ZM444.588 585.074C444.556 585.035 444.562 585.037 444.589 585.076C444.589 585.075 444.588 585.075 444.588 585.074Z" fill="#4A2932"/>
<ellipse cx="440.257" cy="542.174" rx="25.3437" ry="19.9129" fill="#4A2932"/>
<path fill-rule="evenodd" clip-rule="evenodd" d="M344.178 445.165C342.185 445.36 340.2 445.993 337.694 447.259C336.007 448.112 333.838 447.623 332.85 446.167C331.863 444.711 332.43 442.84 334.117 441.988C337.151 440.455 340.092 439.417 343.38 439.095C346.654 438.775 349.979 439.193 353.742 440.172C355.614 440.659 356.673 442.363 356.109 443.978C355.544 445.593 353.569 446.508 351.697 446.02C348.496 445.187 346.184 444.969 344.178 445.165Z" fill="#4A2932"/>
<path fill-rule="evenodd" clip-rule="evenodd" d="M496.343 443.819C494.407 443.696 492.389 444.015 489.745 444.888C487.966 445.476 486.001 444.636 485.357 443.013C484.713 441.389 485.633 439.597 487.412 439.009C490.613 437.952 493.623 437.379 496.818 437.581C500.001 437.783 503.081 438.736 506.463 440.324C508.146 441.114 508.808 442.999 507.942 444.534C507.076 446.069 505.01 446.673 503.328 445.883C500.449 444.532 498.293 443.942 496.343 443.819Z" fill="#4A2932"/>
<path d="M301.901 540.365C312.581 540.288 323.676 548.973 323.676 556.721C323.676 564.468 312.375 572.526 301.901 572.216C291.279 571.902 280.165 565.47 280.997 554.999C281.781 545.142 291.897 540.436 301.901 540.365Z" fill="#F89A81"/>
<path d="M547.972 540.365C558.945 540.291 564.079 546.177 564.079 553.65C564.079 561.122 554.304 568.895 543.543 568.596C532.631 568.293 525.641 561.258 526.496 551.159C527.301 541.651 537.695 540.434 547.972 540.365Z" fill="#F89A81"/>
<path d="M282.211 432.173C345.154 422.249 360.605 406.767 445.982 373.579C452.324 353.053 386.237 288.046 333.451 293.444C252.637 346.875 280.591 409.301 282.211 432.173Z" fill="#B63C27"/>
<path d="M445.982 373.579L490.344 364.623C490.27 335.98 392.032 266.135 333.451 293.444C386.237 288.046 452.324 353.053 445.982 373.579Z" fill="#2D61B4"/>
<path d="M445.982 373.579C360.605 406.767 345.154 422.249 282.211 432.173C324.755 462.091 382.505 493.819 415.635 499.548C418.921 500.117 422.26 500.151 425.565 499.706C450.959 496.282 465.28 481.624 488.345 444.371C497.571 434.695 505.999 427.015 514.478 420.887C535.625 405.601 557.085 400.265 592.015 399.872L490.344 364.623L445.982 373.579Z" fill="#738D50"/>
<path fill-rule="evenodd" clip-rule="evenodd" d="M514.478 420.887C521.197 432.956 524.023 436.806 535.115 462.178C541.761 461.956 548.873 460.711 556.958 458.572C562.082 457.216 566.918 454.942 571.318 451.986C602.733 430.883 609.011 418.694 592.015 399.872C557.085 400.265 535.625 405.601 514.478 420.887Z" fill="#72834D"/>
<path d="M333.451 293.444C233.524 298.151 184.752 391.388 207.094 446.23L282.211 432.173C280.591 409.301 252.637 346.875 333.451 293.444Z" fill="#ECC11C"/>
<path d="M589.407 272.849L594.705 279.471H606.625L611.923 272.849H589.407Z" fill="#FF0000"/>
<path d="M606.625 279.471H594.705L574.837 291.392H625.169L606.625 279.471Z" fill="#FF0000"/>
<path d="M564.241 690.069C564.241 690.069 605.866 644.366 609.274 607.95C612.552 572.926 576.769 556.516 582.784 521.857C587.791 493.009 618.188 487.237 622.519 458.28C628.276 419.791 581.05 405.768 582.784 366.889C584.24 334.254 600.581 305.769 600.003 291.392" stroke="black"/>
<path d="M577.791 272.802C434.486 240.035 459.113 3.24593 612.472 15.2035C765.831 27.161 721.096 305.569 577.791 272.802Z" fill="#FD2323"/>
</svg>
