<svg width="26" height="24" viewBox="0 0 26 24" fill="none" xmlns="http://www.w3.org/2000/svg">
<g clip-path="url(#clip0_180_427)">
<path d="M3.61577 3.33334H7.85107C8.63036 3.33334 9.17601 3.264 9.17601 4V2.66667C9.17601 1.93067 8.63036 1.33334 7.85107 1.33334H2.20401C0.792243 1.33334 -0.325169 2.75 0.0863605 4.66667C0.0863605 4.66667 1.3506 10.9167 1.43954 11.3053C1.6746 12.3333 2.93883 13.3333 4.29201 13.3333H9.20354C9.98354 13.3333 9.17601 12.0693 9.17601 11.3333V10C9.17601 10.736 8.63036 11.3333 7.85107 11.3333H5.02754C4.24824 11.3333 3.73365 10.6387 3.61577 10C3.49789 9.36134 2.49765 5.11134 2.49765 5.11134C2.2626 3.83334 2.83577 3.33334 3.61577 3.33334ZM21.836 3.33334H17.6007C16.8214 3.33334 15.5289 3.264 15.5289 4V2.66667C15.5289 1.93067 16.8214 1.33334 17.6007 1.33334H23.2478C24.6595 1.33334 25.7777 2.75 25.3654 4.66667C25.3654 4.66667 24.2127 10.946 24.1153 11.3333C23.8654 12.3333 22.6739 13.3333 21.2918 13.3333H16.2475C15.4682 13.3333 15.5289 12.0693 15.5289 11.3333V10C15.5289 10.736 16.8214 11.3333 17.6007 11.3333H20.4242C21.2035 11.3333 21.7188 10.6387 21.836 10C21.9532 9.36134 22.9541 5.11134 22.9541 5.11134C23.1885 3.83334 22.616 3.33334 21.836 3.33334ZM14.7045 14.6667C14.7045 10.028 12.7922 14.6667 12.7922 14.6667C12.7922 14.6667 10.6746 10.028 10.6746 14.6667C10.6746 19.3053 8.35154 21.3333 8.35154 21.3333H17.0282C17.0275 21.3333 14.7045 19.3053 14.7045 14.6667Z" fill="#FFAC33"/>
<path d="M20.5577 4.38467C20.5577 8.90134 15.7789 16.5127 12.793 16.5127C9.80714 16.5127 5.02832 8.90134 5.02832 4.38467C5.02832 0.921336 5.7342 0.172003 7.14597 0.172003C8.11585 0.172003 11.3989 0.154003 12.793 0.154003L17.7342 0.153336C19.7933 0.15267 20.5577 0.609336 20.5577 4.38467Z" fill="#FFCC4D"/>
<path d="M19.0584 22C19.0584 22.736 19.2187 23.3333 18.4394 23.3333H7.14525C6.36525 23.3333 6.35254 22.736 6.35254 22V21.3333C6.35254 20.5973 7.17419 20 7.90972 20H17.7335C18.469 20 19.0584 20.5973 19.0584 21.3333V22Z" fill="#C1694F"/>
<path d="M20.4708 23.0833C20.4708 23.59 20.5873 24 19.5871 24H5.99882C5.08682 24 4.94141 23.59 4.94141 23.0833V22.9167C4.94141 22.41 5.46235 22 5.99882 22H19.5871C20.1228 22 20.4708 22.41 20.4708 22.9167V23.0833Z" fill="#C1694F"/>
</g>
<defs>
<clipPath id="clip0_180_427">
<rect width="25.4118" height="24" fill="white"/>
</clipPath>
</defs>
</svg>
