<svg width="157" height="85" viewBox="0 0 157 85" fill="none" xmlns="http://www.w3.org/2000/svg">
<path d="M91.5775 17.8344C92.3472 23.4837 91.5741 30.715 89.335 34.4493C88.5641 35.7349 87.6196 36.606 86.5044 36.8555C85.1991 37.1475 83.7522 36.497 82.3252 35.2345C78.9915 32.2852 75.7663 25.9965 74.7073 20.5836C73.1177 12.4587 76.3608 0.653383 80.2023 0.0290911C84.0438 -0.595201 90.4595 9.62857 91.5775 17.8344Z" fill="#66BD6E"/>
<path d="M93.6859 51.4576C98.7907 54.6473 102.554 49.0612 98.22 45.9629C95.3556 44.3889 92.072 39.686 89.335 34.4493C88.5641 35.7349 87.6196 36.606 86.5044 36.8555C85.1991 37.1475 83.7522 36.497 82.3252 35.2345C85.1484 41.9366 88.9843 48.5199 93.6859 51.4576Z" fill="#57351C"/>
<path d="M98.22 45.9629C102.554 49.0612 98.7907 54.6473 93.6859 51.4576C80.3274 68.9361 72.2044 76.9348 52 84.8072H85.5C91.6351 79.333 98.0954 63.3149 112.037 53.1556C122.034 45.8708 133.79 48.4952 145.589 56.0075C149.092 58.2378 153.841 57.2203 155.838 53.5535C157.603 50.3115 156.503 46.2402 153.312 44.4251C142.101 38.0476 136.08 35.7868 127.049 34.9598C126.315 34.8926 125.893 34.078 126.273 33.4419L137.65 14.4138C139.611 11.1341 138.585 6.88755 135.351 4.89156C131.997 2.82227 127.602 3.98539 125.591 7.39847C116.47 22.8769 107.191 35.5235 98.22 45.9629Z" fill="#664126"/>
<path d="M21.0555 37.4782C24.7207 41.5356 27.878 47.6626 27.9029 51.8032C27.9115 53.2287 27.5489 54.4187 26.708 55.2079C25.7237 56.1316 24.1164 56.3853 22.2022 56.1447C17.7304 55.5827 11.5836 52.3232 7.7912 48.6062C2.0987 43.0268 -1.32706 31.9729 1.69424 29.4403C4.71554 26.9077 15.7316 31.5845 21.0555 37.4782Z" fill="#66BD6E"/>
<path d="M40.7124 63.4395C46.8571 63.2514 47.1808 56.838 41.7572 56.689C38.4236 56.9651 33.0662 54.4902 27.9029 51.8032C27.9115 53.2287 27.5489 54.4187 26.708 55.2079C25.7237 56.1316 24.1164 56.3853 22.2022 56.1447C28.2172 59.9444 35.053 63.6127 40.7124 63.4395Z" fill="#57351C"/>
<path d="M41.7572 56.689C47.1808 56.838 46.8571 63.2514 40.7124 63.4395C39.7136 72.16 39.0909 78.8163 37.7278 84.8431H53.3634C54.7089 77.1726 55.4657 68.0693 57.6254 55.0411C59.5663 43.3325 74.1377 39.8104 88.4146 39.4862C92.6531 39.39 96.2582 36.0647 96.0571 32.1063C95.8793 28.6066 92.7623 25.9717 89.0162 26.2305C75.8534 27.1399 69.4016 28.5486 61.0834 32.6881C60.4073 33.0245 59.607 32.6048 59.6018 31.9L59.4459 10.8189C59.4191 7.18546 56.2741 4.3726 52.3939 4.5116C48.3712 4.6557 45.152 7.90833 45.2057 11.674C45.4491 28.7515 44.0539 43.6743 41.7572 56.689Z" fill="#664126"/>
</svg>
