<svg width="189" height="224" viewBox="0 0 189 224" fill="none" xmlns="http://www.w3.org/2000/svg">
<path fill-rule="evenodd" clip-rule="evenodd" d="M123.196 57.8295L134.205 16.8163C136.103 9.74741 131.951 2.4698 124.895 0.497563C117.58 -1.54711 110.046 2.90683 108.126 10.2479C99.4179 43.5397 88.9155 71.7019 77.813 95.6394C87.4917 99.0624 83.4744 111.325 72.3179 108.14C55.2346 151.33 50.5865 168.081 7.19174 197.82C1.56014 201.68 -1.50542 208.284 0.740699 214.727C3.51513 222.684 12.673 226.409 20.0557 222.332C82.4975 182.393 77.333 167.814 107.246 101.609C117.009 80.0019 145.113 81.5845 170.974 89.2047C178.651 91.4669 186.919 87.095 188.677 79.2947C190.231 72.3981 186.034 65.4822 179.155 63.82C154.986 57.9796 142.623 56.9861 125.439 60.2154C124.043 60.4779 122.828 59.2006 123.196 57.8295Z" fill="#664126"/>
<path d="M50.5865 47.3557C55.0081 57.3499 57.4074 71.0681 55.2347 79.1204C54.4868 81.8925 53.197 83.993 51.2613 85.0391C48.9957 86.2635 45.9679 85.8273 42.6526 84.2542C34.9078 80.5793 25.5939 70.7002 20.7612 61.2932C13.5071 47.1732 13.2634 23.7356 20.0558 20.565C26.8482 17.3945 44.1639 32.8386 50.5865 47.3557Z" fill="#66BD6E"/>
<path d="M72.3179 108.14C83.4744 111.325 87.4917 99.0624 77.813 95.6394C71.6673 94.2492 63.0856 87.32 55.2347 79.1204C54.4868 81.8925 53.197 83.993 51.2613 85.0391C48.9957 86.2635 45.9679 85.8273 42.6526 84.2542C51.4401 95.1059 62.0425 105.206 72.3179 108.14Z" fill="#57351C"/>
</svg>
