<svg width="230" height="228" viewBox="0 0 230 228" fill="none" xmlns="http://www.w3.org/2000/svg">
<path d="M19.8161 74.8889C8.87196 74.8889 0 83.7437 0 94.6667C0 105.59 8.87196 114.444 19.8161 114.444C30.7602 114.444 39.6321 105.59 39.6321 94.6667C39.6321 90.1542 38.118 85.9947 35.5691 82.6667C33.9057 80.4948 31.8016 78.677 29.3901 77.3463C26.5522 75.7803 23.2884 74.8889 19.8161 74.8889Z" fill="#BA6958"/>
<path d="M83.7173 0C72.7732 0 63.9013 8.85481 63.9013 19.7778C63.9013 24.2902 65.4154 28.4497 67.9642 31.7778C69.6277 33.9497 71.7317 35.7675 74.1433 37.0982C76.9812 38.6642 80.245 39.5556 83.7173 39.5556C88.7568 39.5556 93.357 37.678 96.8538 34.5855C98.787 32.8759 100.383 30.7949 101.53 28.4546C102.813 25.835 103.533 22.8903 103.533 19.7778C103.533 8.85481 94.6614 0 83.7173 0Z" fill="#BA6958"/>
<path d="M147.396 47.3333C142.28 47.3333 137.617 49.2681 134.102 52.4444C132.237 54.1295 130.694 56.164 129.579 58.4444C128.298 61.0616 127.58 64.0026 127.58 67.1111C127.58 78.0341 136.452 86.8889 147.396 86.8889C158.34 86.8889 167.212 78.0341 167.212 67.1111C167.212 64.6884 166.776 62.3674 165.977 60.2222C165.082 57.8186 163.732 55.6358 162.032 53.7778C158.408 49.8177 153.193 47.3333 147.396 47.3333Z" fill="#BA6958"/>
<path d="M209.071 7.77778C198.127 7.77778 189.255 16.6326 189.255 27.5556C189.255 30.4028 189.857 33.1095 190.943 35.5556C191.936 37.7948 193.334 39.8155 195.044 41.5255C198.631 45.1134 203.591 47.3333 209.071 47.3333C220.015 47.3333 228.887 38.4785 228.887 27.5556C228.887 16.6326 220.015 7.77778 209.071 7.77778Z" fill="#BA6958"/>
<path d="M67.9642 31.7778L29.3901 77.3463C31.8016 78.677 33.9057 80.4948 35.5691 82.6667L74.1433 37.0982C71.7317 35.7675 69.6277 33.9497 67.9642 31.7778Z" fill="#777777"/>
<path d="M134.102 52.4444L101.53 28.4546C100.383 30.7949 98.787 32.8759 96.8538 34.5855L129.579 58.4444C130.694 56.164 132.237 54.1295 134.102 52.4444Z" fill="#777777"/>
<path d="M190.943 35.5556L162.032 53.7778C163.732 55.6358 165.082 57.8186 165.977 60.2222L195.044 41.5255C193.334 39.8155 191.936 37.7948 190.943 35.5556Z" fill="#777777"/>
<path d="M0.89061 225.778C0.89061 227.005 1.88746 228 3.11713 228H38.5189C39.7486 228 40.7454 227.005 40.7454 225.778V177.333C40.7454 172.424 36.758 168.444 31.8393 168.444H9.79671C4.87801 168.444 0.89061 172.424 0.89061 177.333V225.778Z" fill="#FFDF9B"/>
<path d="M64.3466 225.778C64.3466 227.005 65.3434 228 66.5731 228H101.307C102.537 228 103.533 227.005 103.533 225.778V123.333C103.533 118.424 99.546 114.444 94.6273 114.444H73.2527C68.334 114.444 64.3466 118.424 64.3466 123.333V225.778Z" fill="#879FD4"/>
<path d="M128.025 225.778C128.025 227.005 129.022 228 130.252 228H163.872C165.102 228 166.099 227.005 166.099 225.778V146C166.099 141.091 162.111 137.111 157.193 137.111H136.931C132.013 137.111 128.025 141.091 128.025 146V225.778Z" fill="#566C9F"/>
<path d="M190.145 225.778C190.145 227.005 191.142 228 192.372 228H227.773C229.003 228 230 227.005 230 225.778V114.889C230 109.98 226.013 106 221.094 106H199.051C194.133 106 190.145 109.98 190.145 114.889V225.778Z" fill="#E2AF42"/>
</svg>
