<svg width="569" height="474" viewBox="0 0 569 474" fill="none" xmlns="http://www.w3.org/2000/svg">
<path d="M140 48.7293C140 48.7293 114.131 -7.3787 66.9568 29.6287C19.783 66.6361 63.3046 112 63.3046 112L140 48.7293Z" fill="#BA6958"/>
<path d="M120 64.3617C120 64.3617 107.474 38.9654 84.6317 55.7161C61.7896 72.4668 82.8633 93 82.8633 93L120 64.3617Z" fill="#5B3236"/>
<path d="M400 41.8604C400 41.8604 426.856 3.26286 462.257 31.0723C497.658 58.8818 465.919 97 465.919 97L400 41.8604Z" fill="#BA6958"/>
<path d="M417 57.7089C417 57.7089 428.959 37.9451 448.766 49.7719C468.572 61.5988 450.354 84 450.354 84L417 57.7089Z" fill="#5B3236"/>
<path d="M346.917 473.741C346.917 473.741 547.631 464.813 567.097 364.065C574.317 326.703 561.076 273.673 525.928 255.595C487.637 235.899 472.785 238.309 433.356 244.708C412.341 248.118 384.345 252.661 342.097 255.595C281.07 259.832 236.125 254.341 199.033 249.809C162.27 245.318 133.222 241.769 103.876 249.568C12.5221 290.696 6.10883 364.279 80.2174 420.893C92.9914 430.192 107.727 438.984 125.636 448.375C219.108 478.379 346.917 473.741 346.917 473.741Z" fill="#F7B9A2"/>
<path d="M220.583 15.6011C81.9021 37.9628 -37.9039 218.031 11.2307 339.961C33.3524 377.342 51.9971 400.352 80.2174 420.893C6.10883 364.279 12.5221 290.696 103.876 249.568C133.222 241.769 162.27 245.318 199.033 249.809C236.125 254.341 281.07 259.832 342.097 255.595C384.345 252.661 412.341 248.118 433.356 244.708C472.785 238.309 487.637 235.899 525.928 255.595C524.893 250.502 522.577 239.254 521.376 233.901C493.971 109.833 448.323 53.4495 372.183 29.3722C366.303 19.9171 355.339 15.6011 346.917 15.6011C335.375 15.998 327.553 16.9822 322.012 18.4168C319.824 18.1112 317.616 17.8209 315.389 17.5451C315.88 17.1608 316.372 16.7787 316.862 16.398C323.05 11.5922 328.927 7.02759 330.072 1.29083C330.652 -1.61216 302.845 -0.569122 280.862 14.4678C278.842 14.3484 276.808 14.2374 274.759 14.1344C279.379 10.926 284.64 8.1663 285.555 2.49516C286.514 -3.45372 239.849 5.74762 220.583 15.6011Z" fill="#BA6958"/>
<path d="M353.333 373.692C333.499 370.054 341.666 322.763 341.666 322.763L372 307V366.416C372 366.416 364.822 375.799 353.333 373.692Z" fill="#F5F5F5"/>
<path d="M385.651 375C406.407 375 400.098 320.357 400.098 320.357L370 307V367.714C370 367.714 373.612 375 385.651 375Z" fill="#EBEBEB"/>
<path d="M325.499 305.988C329.172 287.5 366.966 261 366.966 261C366.966 261 410.316 286.32 412.5 305.988C414 319.5 408 325.5 400 327C386.309 329.567 371.5 320.5 371.5 320.5C371.5 320.5 348 328.5 338.5 328.5C332.5 328.5 322.318 322 325.499 305.988Z" fill="#F5F5F5"/>
<ellipse cx="234.5" cy="226.5" rx="25.5" ry="33.5" fill="#5B3236"/>
<ellipse cx="217.554" cy="211.865" rx="7.98981" ry="10.7204" transform="rotate(10.503 217.554 211.865)" fill="#D9D9D9"/>
<ellipse cx="455" cy="223.5" rx="25" ry="33.5" fill="#5B3236"/>
<ellipse cx="438.287" cy="209.456" rx="7.98981" ry="10.7204" transform="rotate(10.503 438.287 209.456)" fill="#D9D9D9"/>
<path d="M372 287V321M372 321L334 326.5M372 321L406.5 326.5" stroke="#4A2932" stroke-width="6" stroke-linecap="round" stroke-linejoin="round"/>
<ellipse cx="369" cy="270.5" rx="35" ry="27.5" fill="#4A2932"/>
<path fill-rule="evenodd" clip-rule="evenodd" d="M236.314 136.529C233.561 136.799 230.821 137.673 227.359 139.421C225.029 140.598 222.035 139.923 220.671 137.912C219.307 135.902 220.089 133.318 222.419 132.141C226.61 130.024 230.671 128.591 235.212 128.147C239.734 127.704 244.326 128.281 249.522 129.633C252.107 130.306 253.57 132.66 252.79 134.89C252.011 137.12 249.283 138.383 246.698 137.71C242.277 136.56 239.084 136.258 236.314 136.529Z" fill="#4A2932"/>
<path fill-rule="evenodd" clip-rule="evenodd" d="M446.456 134.669C443.782 134.5 440.995 134.94 437.344 136.146C434.887 136.958 432.174 135.798 431.284 133.557C430.394 131.315 431.665 128.839 434.122 128.028C438.542 126.568 442.699 125.776 447.112 126.056C451.507 126.334 455.761 127.65 460.432 129.843C462.756 130.934 463.67 133.537 462.475 135.657C461.279 137.777 458.425 138.612 456.102 137.521C452.127 135.654 449.149 134.84 446.456 134.669Z" fill="#4A2932"/>
<path d="M177.929 268.001C192.679 267.895 208 279.889 208 290.589C208 301.288 192.393 312.416 177.929 311.988C163.26 311.554 147.911 302.671 149.061 288.211C150.143 274.598 164.114 268.099 177.929 268.001Z" fill="#F89A81"/>
<path d="M500.756 260.001C515.91 259.899 523 268.028 523 278.348C523 288.667 509.5 299.401 494.64 298.988C479.57 298.57 469.916 288.854 471.098 274.908C472.21 261.778 486.563 260.096 500.756 260.001Z" fill="#F89A81"/>
</svg>
