<svg width="569" height="474" viewBox="0 0 569 474" fill="none" xmlns="http://www.w3.org/2000/svg">
<path d="M140 48.7293C140 48.7293 114.131 -7.3787 66.9568 29.6287C19.783 66.6361 63.3046 112 63.3046 112L140 48.7293Z" fill="#BA6958"/>
<path d="M120 64.3617C120 64.3617 107.474 38.9654 84.6317 55.7161C61.7896 72.4668 82.8633 93 82.8633 93L120 64.3617Z" fill="#5B3236"/>
<path d="M400 41.8604C400 41.8604 426.856 3.26286 462.257 31.0723C497.658 58.8818 465.919 97 465.919 97L400 41.8604Z" fill="#BA6958"/>
<path d="M417 57.7089C417 57.7089 428.959 37.9451 448.766 49.7719C468.572 61.5988 450.354 84 450.354 84L417 57.7089Z" fill="#5B3236"/>
<path d="M346.917 473.741C346.917 473.741 547.631 464.813 567.097 364.065C574.317 326.703 561.076 273.673 525.928 255.595C487.637 235.899 472.785 238.309 433.356 244.708C412.341 248.118 384.345 252.661 342.097 255.595C281.07 259.832 236.125 254.341 199.033 249.809C162.27 245.318 133.222 241.769 103.876 249.568C12.5221 290.696 6.10883 364.279 80.2174 420.893C92.9914 430.192 107.727 438.984 125.636 448.375C219.108 478.379 346.917 473.741 346.917 473.741Z" fill="#F7B9A2"/>
<path d="M220.583 15.6011C81.9021 37.9628 -37.9039 218.031 11.2307 339.961C33.3524 377.342 51.9971 400.352 80.2174 420.893C6.10883 364.279 12.5221 290.696 103.876 249.568C133.222 241.769 162.27 245.318 199.033 249.809C236.125 254.341 281.07 259.832 342.097 255.595C384.345 252.661 412.341 248.118 433.356 244.708C472.785 238.309 487.637 235.899 525.928 255.595C524.893 250.502 522.577 239.254 521.376 233.901C493.971 109.833 448.323 53.4495 372.183 29.3722C366.303 19.9171 355.339 15.6011 346.917 15.6011C335.375 15.998 327.553 16.9822 322.012 18.4168C319.824 18.1112 317.616 17.8209 315.389 17.5451C315.88 17.1608 316.372 16.7787 316.862 16.398C323.05 11.5922 328.927 7.02759 330.072 1.29083C330.652 -1.61216 302.845 -0.569122 280.862 14.4678C278.842 14.3484 276.808 14.2374 274.759 14.1344C279.379 10.926 284.64 8.1663 285.555 2.49516C286.514 -3.45372 239.849 5.74762 220.583 15.6011Z" fill="#BA6958"/>
<path d="M352.333 387.692C332.499 384.054 340.666 336.763 340.666 336.763L371 321V380.416C371 380.416 363.822 389.799 352.333 387.692Z" fill="#F5F5F5"/>
<path d="M384.651 389C405.407 389 399.098 334.357 399.098 334.357L369 321V381.714C369 381.714 372.612 389 384.651 389Z" fill="#EBEBEB"/>
<path d="M295.698 305.988C300.53 281.67 366.966 261 366.966 261C366.966 261 428.571 286.534 432.195 305.988C436.318 328.126 424.362 347.856 401.996 348.544C388.073 348.973 371.798 335.169 371.798 335.169C371.798 335.169 350.005 351.713 333.144 350.976C307.738 349.866 291.349 327.874 295.698 305.988Z" fill="#F5F5F5"/>
<ellipse cx="234.5" cy="226.5" rx="25.5" ry="33.5" fill="#5B3236"/>
<ellipse cx="217.554" cy="211.865" rx="7.98981" ry="10.7204" transform="rotate(10.503 217.554 211.865)" fill="#D9D9D9"/>
<path fill-rule="evenodd" clip-rule="evenodd" d="M371.864 282C373.844 282 375.449 283.621 375.449 285.621V330.23C375.918 330.675 376.62 331.266 377.541 331.964C379.447 333.409 382.106 335.166 385.145 336.829C391.408 340.257 398.497 342.851 403.799 342.36C419.708 340.885 426.831 327.797 426.831 315.793C426.831 313.793 428.435 312.172 430.415 312.172C432.395 312.172 434 313.793 434 315.793C434 330.34 425.128 347.654 404.455 349.571C396.914 350.27 388.215 346.745 381.73 343.196C378.395 341.371 375.439 339.424 373.238 337.757C372.684 337.337 372.166 336.925 371.693 336.529C371.21 336.886 370.679 337.262 370.108 337.652C367.586 339.376 364.078 341.513 360.051 343.603C352.131 347.713 341.602 351.955 332.45 351.999C318.268 352.069 308.29 346.112 301.932 338.184C295.68 330.387 293 320.785 293 313.379C293 311.379 294.605 309.758 296.585 309.758C298.565 309.758 300.169 311.379 300.169 313.379C300.169 319.249 302.359 327.211 307.504 333.626C312.544 339.911 320.489 344.816 332.415 344.758C339.801 344.722 349.071 341.159 356.775 337.162C360.559 335.199 363.818 333.208 366.09 331.655C367.027 331.015 367.761 330.473 368.28 330.057V285.621C368.28 283.621 369.885 282 371.864 282ZM374.981 329.745C374.937 329.69 374.946 329.693 374.983 329.747C374.982 329.747 374.982 329.746 374.981 329.745Z" fill="#4A2932"/>
<path fill-rule="evenodd" clip-rule="evenodd" d="M371.864 282C373.844 282 375.449 283.621 375.449 285.621V330.23C375.918 330.675 376.62 331.266 377.541 331.964C379.447 333.409 382.106 335.166 385.145 336.829C391.408 340.257 398.497 342.851 403.799 342.36C419.708 340.885 426.831 327.797 426.831 315.793C426.831 313.793 428.435 312.172 430.415 312.172C432.395 312.172 434 313.793 434 315.793C434 330.34 425.128 347.654 404.455 349.571C396.914 350.27 388.215 346.745 381.73 343.196C378.395 341.371 375.439 339.424 373.238 337.757C372.684 337.337 372.166 336.925 371.693 336.529C371.21 336.886 370.679 337.262 370.108 337.652C367.586 339.376 364.078 341.513 360.051 343.603C352.131 347.713 341.602 351.955 332.45 351.999C318.268 352.069 308.29 346.112 301.932 338.184C295.68 330.387 293 320.785 293 313.379C293 311.379 294.605 309.758 296.585 309.758C298.565 309.758 300.169 311.379 300.169 313.379C300.169 319.249 302.359 327.211 307.504 333.626C312.544 339.911 320.489 344.816 332.415 344.758C339.801 344.722 349.071 341.159 356.775 337.162C360.559 335.199 363.818 333.208 366.09 331.655C367.027 331.015 367.761 330.473 368.28 330.057V285.621C368.28 283.621 369.885 282 371.864 282ZM374.981 329.745C374.937 329.69 374.946 329.693 374.983 329.747C374.982 329.747 374.982 329.746 374.981 329.745Z" fill="#4A2932"/>
<ellipse cx="369" cy="270.5" rx="35" ry="27.5" fill="#4A2932"/>
<path fill-rule="evenodd" clip-rule="evenodd" d="M236.314 136.529C233.561 136.799 230.821 137.673 227.359 139.421C225.029 140.598 222.035 139.923 220.671 137.912C219.307 135.902 220.089 133.318 222.419 132.141C226.61 130.024 230.671 128.591 235.212 128.147C239.734 127.704 244.326 128.281 249.522 129.633C252.107 130.306 253.57 132.66 252.79 134.89C252.011 137.12 249.283 138.383 246.698 137.71C242.277 136.56 239.084 136.258 236.314 136.529Z" fill="#4A2932"/>
<path fill-rule="evenodd" clip-rule="evenodd" d="M446.456 134.669C443.782 134.5 440.995 134.94 437.344 136.146C434.887 136.958 432.174 135.798 431.284 133.557C430.394 131.315 431.665 128.839 434.122 128.028C438.542 126.568 442.699 125.776 447.112 126.056C451.507 126.334 455.761 127.65 460.432 129.843C462.756 130.934 463.67 133.537 462.475 135.657C461.279 137.777 458.425 138.612 456.102 137.521C452.127 135.654 449.149 134.84 446.456 134.669Z" fill="#4A2932"/>
<path d="M177.929 268.001C192.679 267.895 208 279.889 208 290.589C208 301.288 192.393 312.416 177.929 311.988C163.26 311.554 147.911 302.671 149.061 288.211C150.143 274.598 164.114 268.099 177.929 268.001Z" fill="#F89A81"/>
<path d="M517.756 268.001C532.91 267.899 540 276.028 540 286.348C540 296.667 526.5 307.401 511.64 306.988C496.57 306.57 486.916 296.854 488.098 282.908C489.21 269.778 503.563 268.096 517.756 268.001Z" fill="#F89A81"/>
<path d="M424.779 193.635C409.567 196.238 401.289 198.52 395.259 206.194C391.2 212.621 400.49 215.606 407.694 213.183C413.45 211.246 419.598 210.361 428.574 210.075C441.943 210.961 450.156 212.478 459.745 215.646C463.589 216.916 468.019 214.025 468.473 210.002C468.684 208.13 468.016 205.506 466.446 204.466C456.3 197.751 448.424 194.514 432.41 193.256C429.864 193.056 427.296 193.204 424.779 193.635Z" fill="#4A2932"/>
</svg>
