<svg width="569" height="474" viewBox="0 0 569 474" fill="none" xmlns="http://www.w3.org/2000/svg">
<path d="M145 48.7293C145 48.7293 119.131 -7.3787 71.9568 29.6287C24.783 66.6361 68.3046 112 68.3046 112L145 48.7293Z" fill="#BA6958"/>
<path d="M125 64.3617C125 64.3617 112.474 38.9654 89.6317 55.7161C66.7896 72.4668 87.8633 93 87.8633 93L125 64.3617Z" fill="#5B3236"/>
<path d="M400 41.8604C400 41.8604 426.856 3.26286 462.257 31.0723C497.658 58.8818 465.919 97 465.919 97L400 41.8604Z" fill="#BA6958"/>
<path d="M417 57.7089C417 57.7089 428.959 37.9451 448.766 49.7719C468.572 61.5988 450.354 84 450.354 84L417 57.7089Z" fill="#5B3236"/>
<path d="M346.917 473.741C346.917 473.741 547.631 464.813 567.097 364.065C574.317 326.703 561.076 273.673 525.928 255.595C487.637 235.899 472.785 238.309 433.356 244.708C412.341 248.118 384.345 252.661 342.097 255.595C281.07 259.832 236.125 254.341 199.033 249.809C162.27 245.318 133.222 241.769 103.876 249.568C12.5221 290.696 6.10883 364.279 80.2174 420.893C92.9914 430.192 107.727 438.984 125.636 448.375C219.108 478.379 346.917 473.741 346.917 473.741Z" fill="#F7B9A2"/>
<path d="M220.583 15.6011C81.9021 37.9628 -37.9039 218.031 11.2307 339.961C33.3524 377.342 51.9971 400.352 80.2174 420.893C6.10883 364.279 12.5221 290.696 103.876 249.568C133.222 241.769 162.27 245.318 199.033 249.809C236.125 254.341 281.07 259.832 342.097 255.595C384.345 252.661 412.341 248.118 433.356 244.708C472.785 238.309 487.637 235.899 525.928 255.595C524.893 250.502 522.577 239.254 521.376 233.901C493.971 109.833 448.323 53.4495 372.183 29.3722C366.303 19.9171 355.339 15.6011 346.917 15.6011C335.375 15.998 327.553 16.9822 322.012 18.4168C319.824 18.1112 317.616 17.8209 315.389 17.5451C315.88 17.1608 316.372 16.7787 316.862 16.398C323.05 11.5922 328.927 7.02759 330.072 1.29083C330.652 -1.61216 302.845 -0.569122 280.862 14.4678C278.842 14.3484 276.808 14.2374 274.759 14.1344C279.379 10.926 284.64 8.1663 285.555 2.49516C286.514 -3.45372 239.849 5.74762 220.583 15.6011Z" fill="#BA6958"/>
<path d="M352.333 369.692C332.499 366.054 340.666 318.763 340.666 318.763L371 303V362.416C371 362.416 363.822 371.799 352.333 369.692Z" fill="#F5F5F5"/>
<path d="M384.651 371C405.407 371 399.098 316.357 399.098 316.357L369 303V363.714C369 363.714 372.612 371 384.651 371Z" fill="#EBEBEB"/>
<path d="M305.5 296.5C320.583 276.822 366.967 261 366.967 261C366.967 261 419.983 280.042 436.501 302.5C446.806 316.512 441.762 325.681 440.001 328.5C437.263 332.882 430.111 343.081 416.501 343.5C402.577 343.928 366.967 314.5 366.967 314.5C366.967 314.5 348.758 338.969 332.501 343.5C318.295 347.459 301.5 336.831 297 328.5C295.5 321.5 296.303 308.5 305.5 296.5Z" fill="#F5F5F5"/>
<ellipse cx="234.5" cy="226.5" rx="25.5" ry="33.5" fill="#5B3236"/>
<ellipse cx="217.555" cy="211.865" rx="7.98981" ry="10.7204" transform="rotate(10.503 217.555 211.865)" fill="#D9D9D9"/>
<ellipse cx="455" cy="223.5" rx="25" ry="33.5" fill="#5B3236"/>
<ellipse cx="438.286" cy="209.456" rx="7.98981" ry="10.7204" transform="rotate(10.503 438.286 209.456)" fill="#D9D9D9"/>
<ellipse cx="369" cy="270.5" rx="35" ry="27.5" fill="#4A2932"/>
<path fill-rule="evenodd" clip-rule="evenodd" d="M235.922 156.652C232.566 158.53 228.891 159.893 223.897 161.075C220.536 161.871 217.415 164.724 216.926 167.448C216.438 170.172 218.767 171.735 222.129 170.939C228.175 169.508 233.694 167.603 239.232 164.506C244.747 161.42 249.785 157.429 255.101 152.328C257.746 149.79 258.162 146.704 256.03 145.434C253.899 144.164 250.027 145.192 247.382 147.73C242.858 152.071 239.301 154.762 235.922 156.652Z" fill="#4A2932"/>
<path fill-rule="evenodd" clip-rule="evenodd" d="M452.042 154.97C448.807 152.89 445.876 150.288 442.484 146.436C440.201 143.844 436.216 142.43 433.582 143.28C430.949 144.13 430.664 146.92 432.947 149.513C437.053 154.176 441.329 158.152 446.667 161.583C451.983 165 457.874 167.57 464.876 169.863C468.359 171.004 471.279 169.92 471.397 167.442C471.515 164.964 468.788 162.03 465.304 160.889C459.346 158.937 455.298 157.063 452.042 154.97Z" fill="#4A2932"/>
<g filter="url(#filter0_f_1548_5)">
<path d="M154.523 254.001C179.772 253.822 206 274.266 206 292.504C206 310.741 179.283 329.709 154.523 328.98C129.412 328.24 103.136 313.098 105.104 288.451C106.957 265.247 130.873 254.169 154.523 254.001Z" fill="#F88181"/>
</g>
<g filter="url(#filter1_f_1548_5)">
<path d="M498.697 264.001C519.446 263.853 541 280.753 541 295.83C541 310.906 519.045 326.586 498.697 325.983C478.061 325.372 456.468 312.854 458.086 292.479C459.609 273.298 479.262 264.14 498.697 264.001Z" fill="#F88181"/>
</g>
<path d="M370 275V310.5M370 310.5C363 321.5 350 343.5 320.5 343.5M370 310.5C385.5 337 405.5 344 425 341.5" stroke="#4A2932" stroke-width="8" stroke-linecap="round" stroke-linejoin="round"/>
<defs>
<filter id="filter0_f_1548_5" x="82.5" y="231.5" width="146" height="120" filterUnits="userSpaceOnUse" color-interpolation-filters="sRGB">
<feFlood flood-opacity="0" result="BackgroundImageFix"/>
<feBlend mode="normal" in="SourceGraphic" in2="BackgroundImageFix" result="shape"/>
<feGaussianBlur stdDeviation="11.25" result="effect1_foregroundBlur_1548_5"/>
</filter>
<filter id="filter1_f_1548_5" x="435.5" y="241.5" width="128" height="107" filterUnits="userSpaceOnUse" color-interpolation-filters="sRGB">
<feFlood flood-opacity="0" result="BackgroundImageFix"/>
<feBlend mode="normal" in="SourceGraphic" in2="BackgroundImageFix" result="shape"/>
<feGaussianBlur stdDeviation="11.25" result="effect1_foregroundBlur_1548_5"/>
</filter>
</defs>
</svg>
