<svg width="569" height="475" viewBox="0 0 569 475" fill="none" xmlns="http://www.w3.org/2000/svg">
<path d="M144 48.7293C144 48.7293 118.131 -7.3787 70.9568 29.6287C23.783 66.6361 67.3046 112 67.3046 112L144 48.7293Z" fill="#BA6958"/>
<path d="M124 64.3617C124 64.3617 111.474 38.9654 88.6317 55.7161C65.7896 72.4668 86.8633 93 86.8633 93L124 64.3617Z" fill="#5B3236"/>
<path d="M400 41.8604C400 41.8604 426.856 3.26286 462.257 31.0723C497.658 58.8818 465.919 97 465.919 97L400 41.8604Z" fill="#BA6958"/>
<path d="M417 57.7089C417 57.7089 428.959 37.9451 448.766 49.7719C468.572 61.5988 450.354 84 450.354 84L417 57.7089Z" fill="#5B3236"/>
<path d="M346.917 473.741C346.917 473.741 547.631 464.813 567.097 364.065C574.317 326.703 561.076 273.673 525.928 255.595C487.637 235.899 472.785 238.309 433.356 244.708C412.341 248.118 384.345 252.661 342.097 255.595C281.07 259.832 236.125 254.341 199.033 249.809C162.27 245.318 133.222 241.769 103.876 249.568C12.5221 290.696 6.10883 364.279 80.2174 420.893C92.9914 430.192 107.727 438.984 125.636 448.375C219.108 478.379 346.917 473.741 346.917 473.741Z" fill="#F7B9A2"/>
<path d="M220.583 15.6011C81.9021 37.9628 -37.9039 218.031 11.2307 339.961C33.3524 377.342 51.9971 400.352 80.2174 420.893C6.10883 364.279 12.5221 290.696 103.876 249.568C133.222 241.769 162.27 245.318 199.033 249.809C236.125 254.341 281.07 259.832 342.097 255.595C384.345 252.661 412.341 248.118 433.356 244.708C472.785 238.309 487.637 235.899 525.928 255.595C524.893 250.502 522.577 239.254 521.376 233.901C493.971 109.833 448.323 53.4495 372.183 29.3722C366.303 19.9171 355.339 15.6011 346.917 15.6011C335.375 15.998 327.553 16.9822 322.012 18.4168C319.824 18.1112 317.616 17.8209 315.389 17.5451C315.88 17.1608 316.372 16.7787 316.862 16.398C323.05 11.5922 328.927 7.02759 330.072 1.29083C330.652 -1.61216 302.845 -0.569122 280.862 14.4678C278.842 14.3484 276.808 14.2374 274.759 14.1344C279.379 10.926 284.64 8.1663 285.555 2.49516C286.514 -3.45372 239.849 5.74762 220.583 15.6011Z" fill="#BA6958"/>
<path d="M220.583 16.6011C81.9021 38.9628 -37.9039 219.031 11.2307 340.961C33.3524 378.342 51.9971 401.352 80.2174 421.893C6.10883 365.279 12.5221 291.696 103.876 250.568C133.222 242.769 162.27 246.318 199.033 250.809C236.125 255.341 281.07 260.832 342.097 256.595C384.345 253.661 412.341 249.118 433.356 245.708C472.785 239.309 487.637 236.899 525.928 256.595C524.893 251.502 522.577 240.254 521.376 234.901C493.971 110.833 448.323 54.4495 372.183 30.3722C366.303 20.9171 355.339 16.6011 346.917 16.6011C335.375 16.998 327.553 17.9822 322.012 19.4168C319.824 19.1112 317.616 18.8209 315.389 18.5451C315.88 18.1608 316.372 17.7787 316.862 17.398C323.05 12.5922 328.927 8.02759 330.072 2.29083C330.652 -0.61216 302.845 0.430878 280.862 15.4678C278.842 15.3484 276.808 15.2374 274.759 15.1344C279.379 11.926 284.64 9.1663 285.555 3.49516C286.514 -2.45372 239.849 6.74762 220.583 16.6011Z" fill="url(#paint0_linear_520_31)"/>
<path d="M177.929 268.001C192.679 267.895 208 279.889 208 290.589C208 301.288 192.393 312.416 177.929 311.988C163.26 311.554 147.911 302.671 149.061 288.211C150.143 274.598 164.114 268.099 177.929 268.001Z" fill="#F89A81"/>
<path d="M517.756 268.001C532.91 267.899 540 276.028 540 286.348C540 296.667 526.5 307.401 511.64 306.988C496.57 306.57 486.916 296.854 488.098 282.908C489.21 269.778 503.563 268.096 517.756 268.001Z" fill="#F89A81"/>
<path d="M284.833 207.163C262.722 185.216 246.43 178.018 214.685 169.877L233.328 188.52L251.971 207.163C248.004 217.79 236.082 227.556 214.968 244.849L214.685 245.081C254.177 230.064 275.904 221.652 284.833 207.163Z" fill="#4A2932"/>
<path d="M277.25 128.167C279.412 119.004 278.71 116.73 277.25 113C269.254 122.461 263.347 128.167 246.284 133.855C229.22 139.543 228.112 141.293 214.685 143.334C214.685 143.334 210.893 146.494 214.685 149.022C218.477 151.55 231.116 152.182 231.116 152.182C247.304 150.765 253.133 148.608 260.187 143.334C268.762 138.597 272.416 135.209 277.25 128.167Z" fill="#4A2932"/>
<path d="M393 207.163C415.111 185.216 431.403 178.018 463.148 169.877L444.505 188.52L425.862 207.163C429.829 217.79 441.751 227.556 462.865 244.849L463.148 245.081C423.656 230.064 401.929 221.652 393 207.163Z" fill="#4A2932"/>
<path d="M400.583 128.167C398.421 119.004 399.123 116.73 400.583 113C408.579 122.461 414.486 128.167 431.549 133.855C448.613 139.543 449.721 141.293 463.148 143.334C463.148 143.334 466.94 146.494 463.148 149.022C459.356 151.55 446.717 152.182 446.717 152.182C430.529 150.765 424.7 148.608 417.646 143.334C409.071 138.597 405.417 135.209 400.583 128.167Z" fill="#4A2932"/>
<path d="M343.303 237.5C343.303 237.5 343.127 237.662 342.791 237.967C336.399 245.964 407.119 284.019 426.5 290C459.41 300.157 470.779 340.52 452.214 348.5C449.477 352.882 409.838 334.081 396.228 334.5C382.304 334.928 346.694 305.5 346.694 305.5C346.694 305.5 328.486 329.969 312.228 334.5C298.022 338.459 245 363.331 240.5 355C232.591 350.802 240.075 297.5 269 290C291.581 284.145 337.447 242.832 342.791 237.967C342.927 237.798 343.097 237.642 343.303 237.5Z" fill="#F5F5F5"/>
<path d="M235.009 357.784C229.399 343.69 236.161 321.227 247.568 306.108C251.532 300.855 257.772 297.927 264.339 297.5C290.921 295.773 310.687 306.108 350.327 306.108C394.784 306.108 434.647 295.456 449.448 306.108C464.249 316.761 466.895 335.945 464.249 350.956C462.327 361.858 450.927 367.393 440.113 365.03C410.203 358.492 390.202 340.39 342.629 342.261C327.513 341.361 303.214 355.768 254.974 365.096C247.11 366.617 237.97 365.226 235.009 357.784Z" fill="#F89A81"/>
<path d="M364.378 362C385.134 362 378.825 307.357 378.825 307.357L348.727 294V354.714C348.727 354.714 352.339 362 364.378 362Z" fill="#EBEBEB"/>
<path d="M332.059 360.692C312.225 357.054 320.392 309.763 320.392 309.763L350.727 294V353.416C350.727 353.416 343.549 362.799 332.059 360.692Z" fill="#F5F5F5"/>
<path d="M383 254.5C383 269.688 367.33 282 348 282C328.67 282 313 269.688 313 254.5C313 239.312 328.67 227 348 227C367.33 227 383 239.312 383 254.5Z" fill="#4A2932"/>
<path fill-rule="evenodd" clip-rule="evenodd" d="M337.375 294.595C339.932 293.08 341.5 290.329 341.5 287.357V238C341.5 235.239 343.738 233 346.5 233C349.261 233 351.5 235.239 351.5 238V281.171C351.5 287.837 355.173 293.959 361.055 297.096C370.997 302.399 382.795 302.96 393.196 298.626C401.504 295.165 410.622 294.131 419.493 295.643L443.01 299.651C448.283 300.55 455.071 306.499 451.47 310.454C449.901 312.178 448.478 310.727 446.18 310.336L417.813 305.501C410.806 304.306 403.604 305.123 397.043 307.857C383.873 313.344 368.937 312.633 356.349 305.919L350.891 303.009C348.245 301.597 345.053 301.669 342.473 303.198C328.255 311.624 311.035 313.32 295.446 307.831C287.709 305.107 279.383 304.508 271.336 306.096L252.415 309.83C248.978 310.509 244.366 309.787 243.761 306.336C243.149 302.847 247.072 300.692 250.548 300.006L269.399 296.285C279.201 294.351 289.343 295.08 298.767 298.399C311.565 302.905 325.702 301.512 337.375 294.595Z" fill="#4A2932"/>
<defs>
<linearGradient id="paint0_linear_520_31" x1="284.5" y1="1" x2="284.5" y2="475" gradientUnits="userSpaceOnUse">
<stop stop-color="#469C4F"/>
<stop offset="0.526" stop-color="#BA6958"/>
</linearGradient>
</defs>
</svg>
