<svg width="569" height="474" viewBox="0 0 569 474" fill="none" xmlns="http://www.w3.org/2000/svg">
<path d="M140 425.271C140 425.271 114.131 481.379 66.9568 444.371C19.783 407.364 63.3046 362 63.3046 362L140 425.271Z" fill="#BA6958"/>
<path d="M120 409.638C120 409.638 107.474 435.035 84.6317 418.284C61.7896 401.533 82.8633 381 82.8633 381L120 409.638Z" fill="#5B3236"/>
<path d="M400 432.14C400 432.14 426.856 470.737 462.257 442.928C497.658 415.118 465.919 377 465.919 377L400 432.14Z" fill="#BA6958"/>
<path d="M417 416.291C417 416.291 428.959 436.055 448.766 424.228C468.572 412.401 450.354 390 450.354 390L417 416.291Z" fill="#5B3236"/>
<path d="M346.917 0.258667C346.917 0.258667 547.631 9.18713 567.097 109.935C574.317 147.297 561.076 200.327 525.928 218.405C487.637 238.101 472.785 235.691 433.356 229.292C412.341 225.882 384.345 221.339 342.097 218.405C281.07 214.168 236.125 219.659 199.033 224.191C162.27 228.682 133.222 232.231 103.876 224.432C12.5221 183.304 6.10883 109.721 80.2174 53.1065C92.9914 43.8082 107.727 35.0156 125.636 25.6248C219.108 -4.37946 346.917 0.258667 346.917 0.258667Z" fill="#F7B9A2"/>
<path d="M220.583 458.399C81.9021 436.037 -37.9039 255.969 11.2307 134.039C33.3524 96.6584 51.9971 73.6484 80.2174 53.1065C6.10883 109.721 12.5221 183.304 103.876 224.432C133.222 232.231 162.27 228.682 199.033 224.191C236.125 219.659 281.07 214.168 342.097 218.405C384.345 221.339 412.341 225.882 433.356 229.292C472.785 235.691 487.637 238.101 525.928 218.405C524.893 223.498 522.577 234.746 521.376 240.099C493.971 364.167 448.323 420.551 372.183 444.628C366.303 454.083 355.339 458.399 346.917 458.399C335.375 458.002 327.553 457.018 322.012 455.583C319.824 455.889 317.616 456.179 315.389 456.455C315.88 456.839 316.372 457.221 316.862 457.602C323.05 462.408 328.927 466.972 330.072 472.709C330.652 475.612 302.845 474.569 280.862 459.532C278.842 459.652 276.808 459.763 274.759 459.866C279.379 463.074 284.64 465.834 285.555 471.505C286.514 477.454 239.849 468.252 220.583 458.399Z" fill="#BA6958"/>
<path d="M352.333 88.3084C332.499 91.9461 340.666 139.237 340.666 139.237L371 155V95.5838C371 95.5838 363.822 86.2011 352.333 88.3084Z" fill="#F5F5F5"/>
<path d="M384.651 87C405.407 87 399.098 141.643 399.098 141.643L369 155V94.2857C369 94.2857 372.612 87 384.651 87Z" fill="#EBEBEB"/>
<path d="M295.698 168.012C300.53 192.33 366.966 213 366.966 213C366.966 213 428.571 187.466 432.195 168.012C436.318 145.874 424.362 126.144 401.996 125.456C388.073 125.027 371.798 138.831 371.798 138.831C371.798 138.831 350.005 122.287 333.144 123.024C307.738 124.134 291.349 146.126 295.698 168.012Z" fill="#F5F5F5"/>
<ellipse cx="25.5" cy="33.5" rx="25.5" ry="33.5" transform="matrix(1 0 0 -1 209 281)" fill="#5B3236"/>
<ellipse cx="7.98981" cy="10.7204" rx="7.98981" ry="10.7204" transform="matrix(0.983245 -0.182287 -0.182287 -0.983245 211.652 274.132)" fill="#D9D9D9"/>
<ellipse cx="25" cy="33.5" rx="25" ry="33.5" transform="matrix(1 0 0 -1 430 284)" fill="#5B3236"/>
<ellipse cx="7.98981" cy="10.7204" rx="7.98981" ry="10.7204" transform="matrix(0.983245 -0.182287 -0.182287 -0.983245 432.385 276.541)" fill="#D9D9D9"/>
<path fill-rule="evenodd" clip-rule="evenodd" d="M371.864 192C373.844 192 375.449 190.379 375.449 188.379V143.77C375.918 143.325 376.62 142.734 377.541 142.036C379.447 140.591 382.106 138.834 385.145 137.171C391.408 133.743 398.497 131.149 403.799 131.64C419.708 133.115 426.831 146.203 426.831 158.207C426.831 160.207 428.435 161.828 430.415 161.828C432.395 161.828 434 160.207 434 158.207C434 143.66 425.128 126.346 404.455 124.429C396.914 123.73 388.215 127.255 381.73 130.804C378.395 132.629 375.439 134.576 373.238 136.243C372.684 136.663 372.166 137.075 371.693 137.471C371.21 137.114 370.679 136.738 370.108 136.348C367.586 134.624 364.078 132.487 360.051 130.397C352.131 126.287 341.602 122.045 332.45 122.001C318.268 121.931 308.29 127.888 301.932 135.816C295.68 143.613 293 153.215 293 160.621C293 162.621 294.605 164.242 296.585 164.242C298.565 164.242 300.169 162.621 300.169 160.621C300.169 154.751 302.359 146.789 307.504 140.374C312.544 134.089 320.489 129.184 332.415 129.242C339.801 129.278 349.071 132.841 356.775 136.838C360.559 138.801 363.818 140.792 366.09 142.345C367.027 142.985 367.761 143.527 368.28 143.943V188.379C368.28 190.379 369.885 192 371.864 192ZM374.981 144.255C374.937 144.31 374.946 144.307 374.983 144.253C374.982 144.253 374.982 144.254 374.981 144.255Z" fill="#4A2932"/>
<path fill-rule="evenodd" clip-rule="evenodd" d="M371.864 192C373.844 192 375.449 190.379 375.449 188.379V143.77C375.918 143.325 376.62 142.734 377.541 142.036C379.447 140.591 382.106 138.834 385.145 137.171C391.408 133.743 398.497 131.149 403.799 131.64C419.708 133.115 426.831 146.203 426.831 158.207C426.831 160.207 428.435 161.828 430.415 161.828C432.395 161.828 434 160.207 434 158.207C434 143.66 425.128 126.346 404.455 124.429C396.914 123.73 388.215 127.255 381.73 130.804C378.395 132.629 375.439 134.576 373.238 136.243C372.684 136.663 372.166 137.075 371.693 137.471C371.21 137.114 370.679 136.738 370.108 136.348C367.586 134.624 364.078 132.487 360.051 130.397C352.131 126.287 341.602 122.045 332.45 122.001C318.268 121.931 308.29 127.888 301.932 135.816C295.68 143.613 293 153.215 293 160.621C293 162.621 294.605 164.242 296.585 164.242C298.565 164.242 300.169 162.621 300.169 160.621C300.169 154.751 302.359 146.789 307.504 140.374C312.544 134.089 320.489 129.184 332.415 129.242C339.801 129.278 349.071 132.841 356.775 136.838C360.559 138.801 363.818 140.792 366.09 142.345C367.027 142.985 367.761 143.527 368.28 143.943V188.379C368.28 190.379 369.885 192 371.864 192ZM374.981 144.255C374.937 144.31 374.946 144.307 374.983 144.253C374.982 144.253 374.982 144.254 374.981 144.255Z" fill="#4A2932"/>
<ellipse cx="35" cy="27.5" rx="35" ry="27.5" transform="matrix(1 0 0 -1 334 231)" fill="#4A2932"/>
<path fill-rule="evenodd" clip-rule="evenodd" d="M236.314 337.471C233.561 337.201 230.821 336.327 227.359 334.579C225.029 333.402 222.035 334.077 220.671 336.088C219.307 338.098 220.089 340.682 222.419 341.859C226.61 343.976 230.671 345.409 235.212 345.853C239.734 346.296 244.326 345.719 249.522 344.367C252.107 343.694 253.57 341.34 252.79 339.11C252.011 336.88 249.283 335.617 246.698 336.29C242.277 337.44 239.084 337.742 236.314 337.471Z" fill="#4A2932"/>
<path fill-rule="evenodd" clip-rule="evenodd" d="M446.456 339.331C443.782 339.5 440.995 339.06 437.344 337.854C434.887 337.042 432.174 338.202 431.284 340.443C430.394 342.685 431.665 345.161 434.122 345.972C438.542 347.432 442.699 348.224 447.112 347.944C451.507 347.666 455.761 346.35 460.432 344.157C462.756 343.066 463.67 340.463 462.475 338.343C461.279 336.223 458.425 335.388 456.102 336.479C452.127 338.346 449.149 339.16 446.456 339.331Z" fill="#4A2932"/>
<path d="M177.929 205.999C192.679 206.105 208 194.111 208 183.411C208 172.712 192.393 161.584 177.929 162.012C163.26 162.446 147.911 171.329 149.061 185.789C150.143 199.402 164.114 205.901 177.929 205.999Z" fill="#F89A81"/>
<path d="M517.756 205.999C532.91 206.101 540 197.972 540 187.652C540 177.333 526.5 166.599 511.64 167.012C496.57 167.43 486.916 177.146 488.098 191.092C489.21 204.222 503.563 205.904 517.756 205.999Z" fill="#F89A81"/>
</svg>
