<svg width="682" height="474" viewBox="0 0 682 474" fill="none" xmlns="http://www.w3.org/2000/svg">
<path d="M145 48.7293C145 48.7293 119.131 -7.3787 71.9568 29.6287C24.783 66.6361 68.3046 112 68.3046 112L145 48.7293Z" fill="#BA6958"/>
<path d="M125 64.3617C125 64.3617 112.474 38.9654 89.6317 55.7161C66.7896 72.4668 87.8633 93 87.8633 93L125 64.3617Z" fill="#5B3236"/>
<path d="M400 41.8604C400 41.8604 426.856 3.26286 462.257 31.0723C497.658 58.8818 465.919 97 465.919 97L400 41.8604Z" fill="#BA6958"/>
<path d="M417 57.7089C417 57.7089 428.959 37.9451 448.766 49.7719C468.572 61.5988 450.354 84 450.354 84L417 57.7089Z" fill="#5B3236"/>
<path d="M346.917 473.741C346.917 473.741 547.631 464.813 567.097 364.065C574.317 326.703 561.076 273.673 525.928 255.595C487.637 235.899 472.785 238.309 433.356 244.708C412.341 248.118 384.345 252.661 342.097 255.595C281.07 259.832 236.125 254.341 199.033 249.809C162.27 245.318 133.222 241.769 103.876 249.568C12.5221 290.696 6.10883 364.279 80.2174 420.893C92.9914 430.192 107.727 438.984 125.636 448.375C219.108 478.379 346.917 473.741 346.917 473.741Z" fill="#F7B9A2"/>
<path d="M220.583 15.6011C81.9021 37.9628 -37.9039 218.031 11.2307 339.961C33.3524 377.342 51.9971 400.352 80.2174 420.893C6.10883 364.279 12.5221 290.696 103.876 249.568C133.222 241.769 162.27 245.318 199.033 249.809C236.125 254.341 281.07 259.832 342.097 255.595C384.345 252.661 412.341 248.118 433.356 244.708C472.785 238.309 487.637 235.899 525.928 255.595C524.893 250.502 522.577 239.254 521.376 233.901C493.971 109.833 448.323 53.4495 372.183 29.3722C366.303 19.9171 355.339 15.6011 346.917 15.6011C335.375 15.998 327.553 16.9822 322.012 18.4168C319.824 18.1112 317.616 17.8209 315.389 17.5451C315.88 17.1608 316.372 16.7787 316.862 16.398C323.05 11.5922 328.927 7.02759 330.072 1.29083C330.652 -1.61216 302.845 -0.569122 280.862 14.4678C278.842 14.3484 276.808 14.2374 274.759 14.1344C279.379 10.926 284.64 8.1663 285.555 2.49516C286.514 -3.45372 239.849 5.74762 220.583 15.6011Z" fill="#BA6958"/>
<path fill-rule="evenodd" clip-rule="evenodd" d="M226.66 179.49C223.992 182.261 220.871 184.631 216.435 187.211C213.449 188.948 211.289 192.584 211.612 195.332C211.935 198.08 214.617 198.9 217.604 197.164C222.975 194.04 227.704 190.616 232.105 186.046C236.488 181.493 240.151 176.213 243.76 169.788C245.555 166.593 245.058 163.518 242.649 162.921C240.241 162.324 236.834 164.431 235.039 167.627C231.968 173.094 229.345 176.701 226.66 179.49Z" fill="#4A2932"/>
<path fill-rule="evenodd" clip-rule="evenodd" d="M440.124 218.226C432.457 218.569 424.681 217.693 414.709 215.289C407.997 213.671 399.882 215.993 396.584 220.474C393.286 224.956 396.053 229.901 402.766 231.519C414.839 234.429 426.392 236.004 439.04 235.438C451.638 234.874 464.189 232.238 478.227 227.847C485.211 225.663 488.703 220.46 486.026 216.225C483.35 211.99 475.52 210.328 468.536 212.512C456.59 216.248 447.841 217.88 440.124 218.226Z" fill="#4A2932"/>
<path fill-rule="evenodd" clip-rule="evenodd" d="M278.291 224.272C270.622 223.996 262.941 222.496 253.195 219.297C246.635 217.144 238.36 218.804 234.711 223.005C231.063 227.207 233.423 232.358 239.984 234.512C251.783 238.385 263.172 240.886 275.825 241.341C288.427 241.794 301.149 240.177 315.496 236.932C322.632 235.317 326.532 230.412 324.206 225.976C321.88 221.539 314.208 219.251 307.072 220.865C294.863 223.627 286.011 224.549 278.291 224.272Z" fill="#4A2932"/>
<path fill-rule="evenodd" clip-rule="evenodd" d="M476.499 177.22C473.756 174.524 471.418 171.379 468.884 166.917C467.178 163.913 463.564 161.716 460.813 162.011C458.061 162.305 457.214 164.979 458.92 167.983C461.988 173.386 465.363 178.151 469.888 182.598C474.395 187.028 479.638 190.745 486.025 194.419C489.202 196.247 492.282 195.781 492.903 193.379C493.525 190.977 491.453 187.548 488.276 185.721C482.841 182.594 479.261 179.934 476.499 177.22Z" fill="#4A2932"/>
<path d="M177.929 268.001C192.679 267.895 208 279.889 208 290.589C208 301.288 192.393 312.416 177.929 311.988C163.26 311.554 147.911 302.671 149.061 288.211C150.143 274.598 164.114 268.099 177.929 268.001Z" fill="#F89A81"/>
<path d="M517.756 268.001C532.91 267.899 540 276.028 540 286.348C540 296.667 526.5 307.401 511.64 306.988C496.57 306.57 486.916 296.854 488.098 282.908C489.21 269.778 503.563 268.096 517.756 268.001Z" fill="#F89A81"/>
<path d="M314.5 345C330.5 383.5 350 402.5 375.5 397C401 391.5 411.744 387.697 430.5 335.5L404.5 334L375.5 330.5L350 334L330.5 339L314.5 345Z" fill="#F89A81"/>
<path d="M300.242 305.988C305.074 281.67 371.51 261 371.51 261C371.51 261 433.115 286.534 436.739 305.988C440.862 328.126 435.409 337.812 413.044 338.5C399.12 338.928 376.342 335.169 376.342 335.169C376.342 335.169 335.544 341.5 326.044 345.5C302.607 355.368 295.893 327.874 300.242 305.988Z" fill="#F5F5F5"/>
<path d="M355.877 378.692C336.043 375.054 344.21 327.763 344.21 327.763L374.544 312V371.416C374.544 371.416 367.366 380.799 355.877 378.692Z" fill="#F5F5F5"/>
<path d="M388.195 380C408.951 380 402.642 325.357 402.642 325.357L372.544 312V372.714C372.544 372.714 376.156 380 388.195 380Z" fill="#EBEBEB"/>
<path d="M376.544 286V333M376.544 333C340.71 337.46 327.831 340.96 312.044 348.5M376.544 333C404.279 339.399 416.765 340.709 429.544 336" stroke="#4A2932" stroke-width="6" stroke-linecap="round" stroke-linejoin="round"/>
<ellipse cx="373.544" cy="270.5" rx="35" ry="27.5" fill="#4A2932"/>
<path d="M664.252 116.673C659.576 121.039 653.761 125.219 646.808 129.214C639.855 133.209 631.129 137.789 620.631 142.957C610.66 147.963 605.08 150.848 603.892 151.611L594.369 156.191C597.108 157.668 602.488 159.627 610.511 162.069C613.72 163.045 618.567 163.877 625.051 164.565C631.244 165.163 635.727 165.884 638.498 166.727C640.832 167.438 643.346 168.605 646.039 170.229C648.878 171.897 651.387 173.867 653.564 176.137C654.698 177.126 655.434 178.636 655.771 180.669C656.154 182.554 656.121 184.233 655.673 185.704C655.091 187.618 653.785 189.552 651.755 191.507C649.726 193.463 647.836 194.174 646.085 193.641C644.481 193.153 642.455 192.215 640.009 190.827C636.294 188.892 633.635 187.681 632.03 187.193C626.925 185.639 620.03 183.942 611.346 182.103C599.408 179.434 590.667 177.257 585.124 175.57C578.123 173.439 572.849 170.868 569.302 167.859C565.901 164.894 564.94 160.983 566.418 156.126C567.538 152.447 570.638 148.807 575.718 145.207C580.843 141.46 586.837 137.737 593.701 134.037L597.772 131.657C600.823 130.013 605.836 127.679 612.813 124.656C619.834 121.487 625.229 118.947 628.997 117.039C632.811 114.983 636.158 112.625 639.04 109.964L603.965 99.5298C598.276 97.7984 594.247 95.8486 591.879 93.6804C589.657 91.5567 589.105 88.655 590.225 84.9755C590.852 82.915 592.164 81.2237 594.16 79.9015C596.201 78.4321 598.456 77.8318 600.924 78.1006C606.399 78.963 617.233 81.8581 633.424 86.7861C649.615 91.7141 660.527 95.9199 666.161 99.4035C667.586 100.481 668.49 101.962 668.873 103.847C669.446 105.63 669.486 107.331 668.993 108.95C668.187 111.599 666.607 114.173 664.252 116.673Z" fill="#3C7DC9"/>
<path d="M545.413 136.235C543.227 140.835 540.144 145.631 536.164 150.622C532.183 155.613 527.061 161.557 520.799 168.453C514.88 175.075 511.592 178.843 510.935 179.756L505.223 185.932C507.682 186.225 512.239 186.102 518.894 185.564C521.556 185.349 525.388 184.548 530.391 183.16C535.152 181.792 538.681 181.016 540.98 180.83C542.916 180.673 545.119 180.802 547.588 181.217C550.178 181.622 552.611 182.347 554.888 183.392C556.016 183.792 557.003 184.695 557.847 186.102C558.682 187.386 559.148 188.638 559.247 189.859C559.375 191.446 558.974 193.261 558.043 195.302C557.112 197.343 555.92 198.423 554.469 198.54C553.138 198.648 551.363 198.545 549.146 198.233C545.83 197.887 543.506 197.767 542.175 197.875C537.941 198.217 532.339 198.977 525.371 200.155C515.751 201.67 508.642 202.613 504.044 202.985C498.236 203.454 493.579 203.094 490.073 201.902C486.688 200.701 484.833 198.087 484.507 194.058C484.26 191.006 485.491 187.404 488.2 183.253C490.899 178.98 494.249 174.47 498.25 169.723L500.569 166.77C502.347 164.661 505.376 161.467 509.658 157.188C513.93 152.788 517.183 149.33 519.415 146.815C521.637 144.178 523.427 141.453 524.782 138.64L495.759 141.17C491.04 141.552 487.487 141.286 485.099 140.373C482.833 139.45 481.576 137.463 481.329 134.411C481.191 132.702 481.668 131.066 482.759 129.503C483.841 127.818 485.335 126.714 487.241 126.192C491.547 125.229 500.416 124.205 513.846 123.119C527.276 122.034 536.586 121.957 541.777 122.889C543.147 123.27 544.25 124.102 545.084 125.386C546.03 126.539 546.557 127.786 546.665 129.129C546.843 131.327 546.426 133.695 545.413 136.235Z" fill="#3C7DC9"/>
<path d="M557.173 245.294C554.664 247.387 551.587 249.352 547.943 251.189C544.298 253.026 539.74 255.11 534.268 257.441C529.068 259.706 526.154 261.016 525.528 261.371L520.569 263.431C521.898 264.267 524.542 265.426 528.501 266.911C530.085 267.505 532.499 268.073 535.744 268.615C538.845 269.103 541.08 269.604 542.448 270.117C543.599 270.548 544.826 271.219 546.127 272.128C547.5 273.064 548.696 274.145 549.715 275.37C550.252 275.908 550.57 276.702 550.67 277.751C550.797 278.725 550.722 279.582 550.445 280.321C550.085 281.282 549.359 282.232 548.268 283.172C547.177 284.111 546.199 284.419 545.335 284.095C544.543 283.798 543.555 283.259 542.37 282.478C540.565 281.38 539.267 280.682 538.475 280.385C535.955 279.441 532.538 278.37 528.225 277.175C522.3 275.459 517.969 274.088 515.234 273.063C511.778 271.767 509.209 270.298 507.526 268.656C505.915 267.04 505.566 265.013 506.481 262.574C507.173 260.727 508.863 258.958 511.549 257.268C514.263 255.504 517.414 253.778 521.003 252.089L523.138 250.993C524.733 250.242 527.342 249.197 530.964 247.858C534.614 246.445 537.422 245.306 539.388 244.442C541.382 243.504 543.151 242.397 544.697 241.122L527.378 234.756C524.571 233.703 522.608 232.588 521.49 231.41C520.443 230.259 520.266 228.76 520.959 226.912C521.347 225.878 522.067 225.052 523.119 224.435C524.199 223.744 525.357 223.504 526.592 223.714C529.322 224.316 534.682 226.115 542.673 229.111C550.663 232.106 556.018 234.577 558.736 236.524C559.417 237.116 559.822 237.9 559.949 238.875C560.176 239.803 560.137 240.673 559.832 241.486C559.333 242.816 558.447 244.085 557.173 245.294Z" fill="#3C7DC9"/>
</svg>
