<svg width="569" height="474" viewBox="0 0 569 474" fill="none" xmlns="http://www.w3.org/2000/svg">
<path d="M145 48.7293C145 48.7293 119.131 -7.3787 71.9568 29.6287C24.783 66.6361 68.3046 112 68.3046 112L145 48.7293Z" fill="#BA6958"/>
<path d="M125 64.3617C125 64.3617 112.474 38.9654 89.6317 55.7161C66.7896 72.4668 87.8633 93 87.8633 93L125 64.3617Z" fill="#5B3236"/>
<path d="M400 41.8604C400 41.8604 426.856 3.26286 462.257 31.0723C497.658 58.8818 465.919 97 465.919 97L400 41.8604Z" fill="#BA6958"/>
<path d="M417 57.7089C417 57.7089 428.959 37.9451 448.766 49.7719C468.572 61.5988 450.354 84 450.354 84L417 57.7089Z" fill="#5B3236"/>
<path d="M346.917 473.741C346.917 473.741 547.631 464.813 567.097 364.065C574.317 326.703 561.076 273.673 525.928 255.595C487.637 235.899 472.785 238.309 433.356 244.708C412.341 248.118 384.345 252.661 342.097 255.595C281.07 259.832 236.125 254.341 199.033 249.809C162.27 245.318 133.222 241.769 103.876 249.568C12.5221 290.696 6.10883 364.279 80.2174 420.893C92.9914 430.192 107.727 438.984 125.636 448.375C219.108 478.379 346.917 473.741 346.917 473.741Z" fill="#F7B9A2"/>
<path d="M220.583 15.6011C81.9021 37.9628 -37.9039 218.031 11.2307 339.961C33.3524 377.342 51.9971 400.352 80.2174 420.893C6.10883 364.279 12.5221 290.696 103.876 249.568C133.222 241.769 162.27 245.318 199.033 249.809C236.125 254.341 281.07 259.832 342.097 255.595C384.345 252.661 412.341 248.118 433.356 244.708C472.785 238.309 487.637 235.899 525.928 255.595C524.893 250.502 522.577 239.254 521.376 233.901C493.971 109.833 448.323 53.4495 372.183 29.3722C366.303 19.9171 355.339 15.6011 346.917 15.6011C335.375 15.998 327.553 16.9822 322.012 18.4168C319.824 18.1112 317.616 17.8209 315.389 17.5451C315.88 17.1608 316.372 16.7787 316.862 16.398C323.05 11.5922 328.927 7.02759 330.072 1.29083C330.652 -1.61216 302.845 -0.569122 280.862 14.4678C278.842 14.3484 276.808 14.2374 274.759 14.1344C279.379 10.926 284.64 8.1663 285.555 2.49516C286.514 -3.45372 239.849 5.74762 220.583 15.6011Z" fill="#BA6958"/>
<path d="M293.727 339.5C310.865 388.468 323.227 409.5 367.227 409.5C411.227 409.5 427.471 391.697 446.227 339.5L405.227 346L367.227 319L347.227 339.5L323.727 346L293.727 339.5Z" fill="#F89A81"/>
<path d="M353.059 376.692C333.225 373.054 341.392 325.763 341.392 325.763L371.727 310V369.416C371.727 369.416 364.549 378.799 353.059 376.692Z" fill="#F5F5F5"/>
<path d="M385.378 378C406.134 378 399.825 323.357 399.825 323.357L369.727 310V370.714C369.727 370.714 373.339 378 385.378 378Z" fill="#EBEBEB"/>
<path d="M296.424 309.5C311.506 289.822 367.692 268 367.692 268C367.692 268 420.708 287.042 437.226 309.5C447.531 323.512 447.987 334.681 446.226 337.5C443.489 341.882 430.836 350.081 417.226 350.5C403.303 350.928 367.692 321.5 367.692 321.5C367.692 321.5 349.484 345.969 333.226 350.5C319.02 354.459 300.924 350.5 296.424 342.169C288.515 337.971 287.226 321.5 296.424 309.5Z" fill="#F5F5F5"/>
<ellipse cx="369" cy="270.5" rx="35" ry="27.5" fill="#4A2932"/>
<path d="M177.929 268.001C192.679 267.895 208 279.889 208 290.589C208 301.288 192.393 312.416 177.929 311.988C163.26 311.554 147.911 302.671 149.061 288.211C150.143 274.598 164.114 268.099 177.929 268.001Z" fill="#F89A81"/>
<path d="M517.756 268.001C532.91 267.899 540 276.028 540 286.348C540 296.667 526.5 307.401 511.64 306.988C496.57 306.57 486.916 296.854 488.098 282.908C489.21 269.778 503.563 268.096 517.756 268.001Z" fill="#F89A81"/>
<path d="M248.937 140.164C252.216 132.098 263.123 130.859 268.128 137.984L281.583 157.137C283.483 159.841 286.497 161.547 289.793 161.785L313.139 163.469C321.824 164.095 326.373 174.085 321.143 181.047L307.086 199.762C305.101 202.404 304.41 205.798 305.202 209.006L310.815 231.73C312.903 240.184 304.808 247.597 296.571 244.775L274.427 237.188C271.301 236.117 267.86 236.508 265.053 238.253L245.176 250.614C237.782 255.212 228.23 249.804 228.369 241.098L228.741 217.694C228.794 214.39 227.358 211.237 224.831 209.108L206.933 194.023C200.275 188.411 202.467 177.656 210.79 175.097L233.164 168.219C236.322 167.248 238.877 164.909 240.121 161.848L248.937 140.164Z" fill="#FFD274"/>
<path d="M443.971 134.848C448.622 127.487 459.576 128.19 463.246 136.086L473.113 157.312C474.506 160.308 477.173 162.519 480.375 163.335L503.059 169.108C511.497 171.256 514.213 181.891 507.838 187.822L490.7 203.766C488.281 206.016 487.002 209.236 487.216 212.533L488.734 235.891C489.299 244.58 480.024 250.449 472.413 246.219L451.954 234.847C449.066 233.241 445.609 233.019 442.539 234.242L420.794 242.904C412.705 246.126 404.256 239.119 405.928 230.574L410.421 207.602C411.056 204.359 410.198 201.003 408.087 198.461L393.129 180.457C387.565 173.759 391.619 163.559 400.262 162.508L423.498 159.682C426.779 159.284 429.706 157.431 431.47 154.638L443.971 134.848Z" fill="#FFD274"/>
<path fill-rule="evenodd" clip-rule="evenodd" d="M378.229 286.501C380.532 286.501 382.398 288.122 382.398 290.121V334.73C382.944 335.175 383.76 335.767 384.831 336.465C387.049 337.91 390.141 339.666 393.676 341.33C400.961 344.758 409.206 347.352 415.373 346.86C433.877 345.386 442.161 332.298 442.161 320.294C442.161 318.294 444.028 316.673 446.331 316.673C448.633 316.673 450.5 318.294 450.5 320.294C450.5 334.841 440.181 352.155 416.135 354.071C407.364 354.77 397.247 351.246 389.703 347.697C385.825 345.871 382.386 343.925 379.827 342.257C379.182 341.837 378.579 341.426 378.03 341.03C377.468 341.387 376.85 341.763 376.186 342.153C373.253 343.876 369.173 346.014 364.488 348.104C355.277 352.213 343.03 356.456 332.385 356.5C315.89 356.569 304.284 350.612 296.89 342.685C289.617 334.887 286.5 325.286 286.5 317.88C286.5 315.88 288.367 314.259 290.669 314.259C292.972 314.259 294.839 315.88 294.839 317.88C294.839 323.749 297.386 331.711 303.37 338.127C309.231 344.412 318.473 349.317 332.344 349.259C340.936 349.223 351.718 345.66 360.678 341.663C365.079 339.699 368.87 337.709 371.513 336.156C372.603 335.515 373.456 334.974 374.059 334.558V290.121C374.059 288.122 375.926 286.501 378.229 286.501ZM381.854 334.246C381.803 334.191 381.813 334.194 381.856 334.248L381.854 334.246Z" fill="#4A2932"/>
</svg>
