<svg width="586" height="498" viewBox="0 0 586 498" fill="none" xmlns="http://www.w3.org/2000/svg">
<path d="M162 72.7293C162 72.7293 136.131 16.6213 88.9568 53.6287C41.783 90.6361 85.3046 136 85.3046 136L162 72.7293Z" fill="#BA6958"/>
<path d="M142 88.3617C142 88.3617 129.474 62.9654 106.632 79.7161C83.7896 96.4668 104.863 117 104.863 117L142 88.3617Z" fill="#5B3236"/>
<path d="M417 65.8604C417 65.8604 443.856 27.2629 479.257 55.0723C514.658 82.8818 482.919 121 482.919 121L417 65.8604Z" fill="#BA6958"/>
<path d="M434 81.7089C434 81.7089 445.959 61.9451 465.766 73.7719C485.572 85.5988 467.354 108 467.354 108L434 81.7089Z" fill="#5B3236"/>
<path d="M363.917 497.741C363.917 497.741 564.631 488.813 584.097 388.065C591.317 350.703 578.076 297.673 542.928 279.595C504.637 259.899 489.785 262.309 450.356 268.708C429.341 272.118 401.345 276.661 359.097 279.595C298.07 283.832 253.125 278.341 216.033 273.809C179.27 269.318 150.222 265.769 120.876 273.568C29.5221 314.696 23.1088 388.279 97.2174 444.893C109.991 454.192 124.727 462.984 142.636 472.375C236.108 502.379 363.917 497.741 363.917 497.741Z" fill="#F7B9A2"/>
<path d="M237.583 39.6011C98.9021 61.9628 -20.9039 242.031 28.2307 363.961C50.3524 401.342 68.9971 424.352 97.2174 444.893C23.1088 388.279 29.5221 314.696 120.876 273.568C150.222 265.769 179.27 269.318 216.033 273.809C253.125 278.341 298.07 283.832 359.097 279.595C401.345 276.661 429.341 272.118 450.356 268.708C489.785 262.309 504.637 259.899 542.928 279.595C541.893 274.502 539.577 263.254 538.376 257.901C510.971 133.833 465.323 77.4495 389.183 53.3722C383.303 43.9171 372.339 39.6011 363.917 39.6011C352.375 39.998 344.553 40.9822 339.012 42.4168C336.824 42.1112 334.616 41.8209 332.389 41.5451C332.88 41.1608 333.372 40.7787 333.862 40.398C340.05 35.5922 345.927 31.0276 347.072 25.2908C347.652 22.3878 319.845 23.4309 297.862 38.4678C295.842 38.3484 293.808 38.2374 291.759 38.1344C296.379 34.926 301.64 32.1663 302.555 26.4952C303.514 20.5463 256.849 29.7476 237.583 39.6011Z" fill="#BA6958"/>
<path d="M369.333 393.692C349.499 390.054 357.666 342.763 357.666 342.763L388 327V386.416C388 386.416 380.822 395.799 369.333 393.692Z" fill="#F5F5F5"/>
<path d="M401.651 395C422.407 395 416.098 340.357 416.098 340.357L386 327V387.714C386 387.714 389.612 395 401.651 395Z" fill="#EBEBEB"/>
<path d="M322.5 320.5C337.582 300.822 383.966 285 383.966 285C383.966 285 436.983 304.042 453.5 326.5C463.806 340.512 458.761 349.681 457 352.5C454.263 356.882 447.11 367.081 433.5 367.5C419.577 367.928 383.966 338.5 383.966 338.5C383.966 338.5 365.758 362.969 349.5 367.5C335.294 371.459 318.499 360.831 314 352.5C312.499 345.5 313.302 332.5 322.5 320.5Z" fill="#F5F5F5"/>
<ellipse cx="251.5" cy="250.5" rx="25.5" ry="33.5" fill="#5B3236"/>
<ellipse cx="234.554" cy="235.865" rx="7.98981" ry="10.7204" transform="rotate(10.503 234.554 235.865)" fill="#D9D9D9"/>
<ellipse cx="472" cy="247.5" rx="25" ry="33.5" fill="#5B3236"/>
<ellipse cx="455.287" cy="233.456" rx="7.98981" ry="10.7204" transform="rotate(10.503 455.287 233.456)" fill="#D9D9D9"/>
<ellipse cx="386" cy="294.5" rx="35" ry="27.5" fill="#4A2932"/>
<path fill-rule="evenodd" clip-rule="evenodd" d="M244.164 202.94C240.807 204.818 237.133 206.181 232.139 207.363C228.777 208.159 225.656 211.012 225.168 213.736C224.68 216.46 227.009 218.023 230.37 217.227C236.417 215.796 241.936 213.891 247.474 210.793C252.989 207.708 258.026 203.717 263.343 198.616C265.988 196.078 266.404 192.992 264.272 191.722C262.14 190.452 258.268 191.48 255.624 194.018C251.099 198.359 247.543 201.05 244.164 202.94Z" fill="#4A2932"/>
<path fill-rule="evenodd" clip-rule="evenodd" d="M478.988 200.657C475.753 198.577 472.822 195.975 469.431 192.124C467.148 189.531 463.162 188.118 460.529 188.967C457.895 189.817 457.611 192.608 459.894 195.2C464 199.864 468.276 203.84 473.613 207.27C478.929 210.688 484.82 213.257 491.822 215.551C495.305 216.692 498.225 215.608 498.343 213.13C498.462 210.651 495.734 207.717 492.251 206.576C486.292 204.624 482.245 202.75 478.988 200.657Z" fill="#4A2932"/>
<path d="M194.929 292.001C209.679 291.895 225 303.889 225 314.589C225 325.288 209.393 336.416 194.929 335.988C180.26 335.554 164.911 326.671 166.061 312.211C167.143 298.598 181.114 292.099 194.929 292.001Z" fill="#F89A81"/>
<path d="M534.756 292.001C549.91 291.899 557 300.028 557 310.348C557 320.667 543.5 331.401 528.64 330.988C513.57 330.57 503.916 320.854 505.098 306.908C506.21 293.778 520.563 292.096 534.756 292.001Z" fill="#F89A81"/>
<path d="M233 279.58C233 273.58 277.526 270.826 274.5 279.58C271.474 288.334 262.259 288.329 253 288.08C241.813 287.779 233 290.771 233 279.58Z" fill="#879FD4"/>
<path d="M457 276.58C457 270.58 501.526 267.826 498.5 276.58C495.474 285.334 486.259 285.329 477 285.08C465.813 284.779 457 287.771 457 276.58Z" fill="#879FD4"/>
<path d="M387 299V334.5M387 334.5C380 345.5 367 367.5 337.5 367.5M387 334.5C402.5 361 422.5 368 442 365.5" stroke="#4A2932" stroke-width="8" stroke-linecap="round" stroke-linejoin="round"/>
<path d="M339.001 20C373 28 396 45 416 60C382.284 85.1932 350.705 107.495 319.469 128.466C369.6 126.462 422.333 122.877 484.001 120C498.831 133.484 503.478 143.876 511.001 163C383.661 180.165 294.388 191.772 201.413 203.331C146.995 236.287 87.504 270.873 15.0006 314C6.43876 287.705 4.5179 270.898 15.0006 231C18.0314 228.953 21.0309 226.927 24.0006 224.921C21.021 225.278 18.0212 225.638 15.0006 226C17.8546 176.554 28.8505 153.611 53.0006 115H63C42.8095 97.7498 47.9548 86.3103 53.0006 67C59.2487 43.0885 79.3605 31.0579 107.001 34L140.001 45C140.001 45 251.836 -8.23715 320.001 13C327.55 15.3521 339.001 20 339.001 20Z" fill="white"/>
<path fill-rule="evenodd" clip-rule="evenodd" d="M121.574 46.7636C92.1993 64.5221 73.2162 83.9242 61.3424 102.836C57.4873 98.2199 56.2857 94.5172 56.0118 91.1621C55.7936 88.4904 56.1223 85.5247 56.9259 81.8043C57.493 79.1791 58.2117 76.5192 59.036 73.4685C59.4215 72.0419 59.83 70.53 60.2569 68.8961C62.9354 58.6456 68.4245 51.3653 75.873 46.8395C83.2599 42.3513 93.1891 40.2084 105.418 41.3782L121.574 46.7636ZM143.345 51.7147C108.278 70.1068 87.3024 90.3876 75.0142 109.298C107.96 114.336 138.449 117.67 167.666 119.727C216.585 87.5742 263.841 57.4222 322.069 21.5945C320.555 21.0642 319.091 20.5721 317.77 20.1605C285.982 10.2569 242.885 17.6204 206.541 28.2353C188.6 33.4755 172.731 39.3759 161.346 43.9689C155.658 46.2635 151.101 48.2267 147.978 49.6108C146.417 50.3027 145.215 50.8495 144.409 51.2201C144.007 51.4054 143.704 51.5466 143.505 51.6399L143.345 51.7147ZM340.251 28.0302C284.213 62.3916 238.588 91.305 192.783 121.205C234.874 123.2 275.022 122.701 317.049 121.056C345.1 102.186 373.457 82.2152 403.432 60.0033C386.179 47.3696 366.773 34.8279 340.251 28.0302ZM293.234 136.867C252.945 137.986 213.549 137.79 171.688 135.036L147.305 133.16C120.475 130.797 92.4491 127.343 62.3986 122.5H57.1661C46.2964 140.05 38.5374 154.034 33.0581 169.013C28.0851 182.608 24.9033 197.272 23.2142 216.402L53.9182 213.773C106.51 207.444 153.181 201.767 198.898 196.086L235.051 191.567C313.866 181.657 393.762 171.216 500.436 156.855C495.309 144.636 490.83 136.875 481.196 127.64C454.43 128.905 429.214 130.306 405.125 131.644C375.977 133.263 348.48 134.79 321.888 135.875L293.234 136.867ZM203.928 210.576C296.364 199.078 385.37 187.502 512.002 170.433C514.286 170.125 516.301 168.785 517.468 166.798C518.635 164.811 518.823 162.399 517.98 160.255C510.333 140.813 505.173 129.114 489.046 114.451C487.576 113.114 485.636 112.416 483.651 112.508C455.341 113.829 429.058 115.29 404.072 116.679L404.07 116.679L404.066 116.679C383.844 117.803 364.472 118.88 345.564 119.797C369.821 103.103 394.526 85.4083 420.489 66.008C422.382 64.5936 423.498 62.3697 423.5 60.0067C423.502 57.6437 422.39 55.4178 420.5 54C400.565 39.0485 376.626 21.277 341.281 12.8327C340.944 12.6975 340.46 12.5039 339.858 12.2652C338.645 11.7842 336.949 11.1183 335.011 10.3771C331.177 8.91056 326.244 7.08965 322.231 5.83949C285.854 -5.494 238.952 3.14247 202.336 13.8369C183.798 19.2513 167.448 25.3328 155.734 30.0582C149.872 32.4228 145.16 34.4528 141.9 35.8971C141.009 36.2924 140.225 36.6438 139.557 36.9465L109.372 26.8849C108.86 26.7142 108.331 26.5993 107.794 26.5421C92.7455 24.9403 79.067 27.3471 68.0841 34.0203C57.0047 40.7522 49.3138 51.4429 45.7442 65.1039C45.3975 66.4306 45.0343 67.7759 44.6707 69.1222C43.7936 72.3701 42.9149 75.624 42.2641 78.6372C41.3148 83.0318 40.673 87.6249 41.0615 92.383C41.5587 98.4714 43.6711 104.113 47.6947 109.699C47.2993 110.095 46.9453 110.538 46.6419 111.023C34.5204 130.403 25.3789 146.342 18.971 163.86C12.53 181.468 8.96996 200.326 7.51302 225.568C7.45488 226.575 7.60095 227.571 7.92949 228.5C7.86062 228.695 7.79961 228.893 7.74675 229.094C2.42346 249.355 0.101242 264.287 0.360261 277.745C0.620921 291.289 3.48937 302.871 7.86907 316.322C8.57467 318.489 10.2274 320.218 12.3606 321.02C14.4937 321.822 16.876 321.611 18.8347 320.446C46.814 303.803 72.8831 288.416 97.4818 273.897L97.4877 273.893L97.492 273.891C136.014 251.154 170.929 230.545 203.928 210.576ZM167.268 215.111C123.666 220.475 78.1721 225.976 26.695 232.151L21.5498 235.627C16.9161 253.797 15.1467 266.502 15.3575 277.457C15.5231 286.063 16.9142 293.85 19.383 302.67C44.3709 287.827 67.7857 274.007 89.9783 260.908L89.988 260.902C117.391 244.728 142.931 229.653 167.268 215.111Z" fill="#D5D5D5"/>
</svg>
