<svg width="569" height="474" viewBox="0 0 569 474" fill="none" xmlns="http://www.w3.org/2000/svg">
<path d="M140 48.7293C140 48.7293 114.131 -7.3787 66.9568 29.6287C19.783 66.6361 63.3046 112 63.3046 112L140 48.7293Z" fill="#BA6958"/>
<path d="M120 64.3617C120 64.3617 107.474 38.9654 84.6317 55.7161C61.7896 72.4668 82.8633 93 82.8633 93L120 64.3617Z" fill="#5B3236"/>
<path d="M400 41.8604C400 41.8604 426.856 3.26286 462.257 31.0723C497.658 58.8818 465.919 97 465.919 97L400 41.8604Z" fill="#BA6958"/>
<path d="M417 57.7089C417 57.7089 428.959 37.9451 448.766 49.7719C468.572 61.5988 450.354 84 450.354 84L417 57.7089Z" fill="#5B3236"/>
<path d="M346.917 473.741C346.917 473.741 547.631 464.813 567.097 364.065C574.317 326.703 561.076 273.673 525.928 255.595C487.637 235.899 472.785 238.309 433.356 244.708C412.341 248.118 384.345 252.661 342.097 255.595C281.07 259.832 236.125 254.341 199.033 249.809C162.27 245.318 133.222 241.769 103.876 249.568C12.5221 290.696 6.10883 364.279 80.2174 420.893C92.9914 430.192 107.727 438.984 125.636 448.375C219.108 478.379 346.917 473.741 346.917 473.741Z" fill="#F7B9A2"/>
<path d="M220.583 15.6011C81.9021 37.9628 -37.9039 218.031 11.2307 339.961C33.3524 377.342 51.9971 400.352 80.2174 420.893C6.10883 364.279 12.5221 290.696 103.876 249.568C133.222 241.769 162.27 245.318 199.033 249.809C236.125 254.341 281.07 259.832 342.097 255.595C384.345 252.661 412.341 248.118 433.356 244.708C472.785 238.309 487.637 235.899 525.928 255.595C524.893 250.502 522.577 239.254 521.376 233.901C493.971 109.833 448.323 53.4495 372.183 29.3722C366.303 19.9171 355.339 15.6011 346.917 15.6011C335.375 15.998 327.553 16.9822 322.012 18.4168C319.824 18.1112 317.616 17.8209 315.389 17.5451C315.88 17.1608 316.372 16.7787 316.862 16.398C323.05 11.5922 328.927 7.02759 330.072 1.29083C330.652 -1.61216 302.845 -0.569122 280.862 14.4678C278.842 14.3484 276.808 14.2374 274.759 14.1344C279.379 10.926 284.64 8.1663 285.555 2.49516C286.514 -3.45372 239.849 5.74762 220.583 15.6011Z" fill="#BA6958"/>
<ellipse cx="234.5" cy="226.5" rx="25.5" ry="33.5" fill="#5B3236"/>
<ellipse cx="217.554" cy="211.865" rx="7.98981" ry="10.7204" transform="rotate(10.503 217.554 211.865)" fill="#D9D9D9"/>
<ellipse cx="455" cy="223.5" rx="25" ry="33.5" fill="#5B3236"/>
<ellipse cx="438.287" cy="209.456" rx="7.98981" ry="10.7204" transform="rotate(10.503 438.287 209.456)" fill="#D9D9D9"/>
<path d="M243 146L277 186.5" stroke="#4A2932" stroke-width="10" stroke-linecap="round" stroke-linejoin="round"/>
<path d="M430 146L396 186.5" stroke="#4A2932" stroke-width="10" stroke-linecap="round" stroke-linejoin="round"/>
<path d="M177.929 268.001C192.679 267.895 208 279.889 208 290.589C208 301.288 192.393 312.416 177.929 311.988C163.26 311.554 147.911 302.671 149.061 288.211C150.143 274.598 164.114 268.099 177.929 268.001Z" fill="#F89A81"/>
<path d="M517.756 268.001C532.91 267.899 540 276.028 540 286.348C540 296.667 526.5 307.401 511.64 306.988C496.57 306.57 486.916 296.854 488.098 282.908C489.21 269.778 503.563 268.096 517.756 268.001Z" fill="#F89A81"/>
<path fill-rule="evenodd" clip-rule="evenodd" d="M162.323 21.0942C166.414 20.4436 170.258 23.2324 170.908 27.3231C172.867 39.6367 173.717 50.1686 172.992 59.0091C172.262 67.8978 169.894 75.6174 164.935 81.721C155.034 93.9079 137.49 96.4982 115.332 95.9992C111.191 95.9059 107.91 92.4733 108.003 88.3322C108.097 84.1912 111.529 80.9097 115.67 81.003C138.131 81.5089 148.428 78.251 153.293 72.2627C155.717 69.2786 157.463 64.8288 158.042 57.782C158.624 50.687 157.977 41.5174 156.094 29.6791C155.444 25.5884 158.233 21.7448 162.323 21.0942ZM196.879 31.1288C200.951 31.8899 203.635 35.8075 202.874 39.8792C199.406 58.4285 201.027 66.7312 204.32 71.1493C207.702 75.6889 214.516 78.5289 228.837 81.121C232.913 81.8587 235.619 85.761 234.881 89.8369C234.144 93.9128 230.241 96.6189 226.166 95.8812C212.299 93.3713 199.612 89.9352 192.292 80.1123C184.881 70.1679 184.596 56.0216 188.129 37.1231C188.89 33.0514 192.808 30.3677 196.879 31.1288ZM147.369 120.37C140.02 120.273 130.053 121.423 116.873 123.875C112.801 124.632 108.885 121.945 108.128 117.873C107.37 113.8 110.057 109.885 114.13 109.128C127.618 106.619 138.733 105.254 147.568 105.371C156.196 105.485 164.014 107.012 169.572 111.687C175.572 116.734 177.28 123.955 176.889 131.414C176.506 138.701 174.101 147.34 170.546 157.074C169.125 160.965 164.819 162.967 160.929 161.546C157.038 160.125 155.036 155.819 156.456 151.928C159.891 142.524 161.648 135.603 161.909 130.627C162.162 125.822 160.997 124.075 159.917 123.166C158.395 121.886 154.926 120.47 147.369 120.37ZM209.191 106.931C215.01 106.571 221.746 107.549 229.119 109.178C233.163 110.071 235.718 114.074 234.825 118.118C233.932 122.163 229.929 124.718 225.884 123.825C218.905 122.283 213.81 121.674 210.117 121.902C206.571 122.121 205.101 123.053 204.302 123.926C203.35 124.966 202.165 127.223 201.722 132.282C201.283 137.295 201.647 144.173 202.931 153.476C203.497 157.579 200.63 161.364 196.527 161.931C192.423 162.497 188.638 159.63 188.072 155.527C186.731 145.814 186.195 137.642 186.779 130.973C187.359 124.352 189.12 118.297 193.237 113.799C197.506 109.134 203.227 107.3 209.191 106.931Z" fill="#FD5252"/>
<path d="M353.333 361.692C333.499 358.054 341.666 310.763 341.666 310.763L372 295V354.416C372 354.416 364.822 363.799 353.333 361.692Z" fill="#F5F5F5"/>
<path d="M385.651 363C406.407 363 400.098 308.357 400.098 308.357L370 295V355.714C370 355.714 373.612 363 385.651 363Z" fill="#EBEBEB"/>
<path d="M306.5 288.5C321.582 268.822 367.966 253 367.966 253C367.966 253 420.983 272.042 437.5 294.5C447.806 308.512 442.761 317.681 441 320.5C438.263 324.882 431.11 335.081 417.5 335.5C403.577 335.928 367.966 306.5 367.966 306.5C367.966 306.5 349.758 330.969 333.5 335.5C319.294 339.459 302.499 328.831 298 320.5C296.499 313.5 297.302 300.5 306.5 288.5Z" fill="#F5F5F5"/>
<ellipse cx="370" cy="262.5" rx="35" ry="27.5" fill="#4A2932"/>
<path d="M371 267V302.5M371 302.5C364 313.5 351 335.5 321.5 335.5M371 302.5C386.5 329 406.5 336 426 333.5" stroke="#4A2932" stroke-width="8" stroke-linecap="round" stroke-linejoin="round"/>
</svg>
