<svg width="569" height="474" viewBox="0 0 569 474" fill="none" xmlns="http://www.w3.org/2000/svg">
<path d="M145 48.7293C145 48.7293 119.131 -7.3787 71.9568 29.6287C24.783 66.6361 68.3046 112 68.3046 112L145 48.7293Z" fill="#BA6958"/>
<path d="M125 64.3617C125 64.3617 112.474 38.9654 89.6317 55.7161C66.7896 72.4668 87.8633 93 87.8633 93L125 64.3617Z" fill="#5B3236"/>
<path d="M400 41.8604C400 41.8604 426.856 3.26286 462.257 31.0723C497.658 58.8818 465.919 97 465.919 97L400 41.8604Z" fill="#BA6958"/>
<path d="M417 57.7089C417 57.7089 428.959 37.9451 448.766 49.7719C468.572 61.5988 450.354 84 450.354 84L417 57.7089Z" fill="#5B3236"/>
<path d="M346.917 473.741C346.917 473.741 547.631 464.813 567.097 364.065C574.317 326.703 561.076 273.673 525.928 255.595C487.637 235.899 472.785 238.309 433.356 244.708C412.341 248.118 384.345 252.661 342.097 255.595C281.07 259.832 236.125 254.341 199.033 249.809C162.27 245.318 133.222 241.769 103.876 249.568C12.5221 290.696 6.10883 364.279 80.2174 420.893C92.9914 430.192 107.727 438.984 125.636 448.375C219.108 478.379 346.917 473.741 346.917 473.741Z" fill="#F7B9A2"/>
<path d="M220.583 15.6011C81.9021 37.9628 -37.9039 218.031 11.2307 339.961C33.3524 377.342 51.9971 400.352 80.2174 420.893C6.10883 364.279 12.5221 290.696 103.876 249.568C133.222 241.769 162.27 245.318 199.033 249.809C236.125 254.341 281.07 259.832 342.097 255.595C384.345 252.661 412.341 248.118 433.356 244.708C472.785 238.309 487.637 235.899 525.928 255.595C524.893 250.502 522.577 239.254 521.376 233.901C493.971 109.833 448.323 53.4495 372.183 29.3722C366.303 19.9171 355.339 15.6011 346.917 15.6011C335.375 15.998 327.553 16.9822 322.012 18.4168C319.824 18.1112 317.616 17.8209 315.389 17.5451C315.88 17.1608 316.372 16.7787 316.862 16.398C323.05 11.5922 328.927 7.02759 330.072 1.29083C330.652 -1.61216 302.845 -0.569122 280.862 14.4678C278.842 14.3484 276.808 14.2374 274.759 14.1344C279.379 10.926 284.64 8.1663 285.555 2.49516C286.514 -3.45372 239.849 5.74762 220.583 15.6011Z" fill="#BA6958"/>
<path d="M352.333 369.692C332.499 366.054 340.666 318.763 340.666 318.763L371 303V362.416C371 362.416 363.822 371.799 352.333 369.692Z" fill="#F5F5F5"/>
<path d="M384.651 371C405.407 371 399.098 316.357 399.098 316.357L369 303V363.714C369 363.714 372.612 371 384.651 371Z" fill="#EBEBEB"/>
<path d="M305.5 296.5C320.583 276.822 366.967 261 366.967 261C366.967 261 419.983 280.042 436.501 302.5C446.806 316.512 441.762 325.681 440.001 328.5C437.263 332.882 430.111 343.081 416.501 343.5C402.577 343.928 366.967 314.5 366.967 314.5C366.967 314.5 348.758 338.969 332.501 343.5C318.295 347.459 301.5 336.831 297 328.5C295.5 321.5 296.303 308.5 305.5 296.5Z" fill="#F5F5F5"/>
<ellipse cx="234.5" cy="226.5" rx="25.5" ry="33.5" fill="#5B3236"/>
<ellipse cx="217.555" cy="211.865" rx="7.98981" ry="10.7204" transform="rotate(10.503 217.555 211.865)" fill="#D9D9D9"/>
<ellipse cx="455" cy="223.5" rx="25" ry="33.5" fill="#5B3236"/>
<ellipse cx="438.286" cy="209.456" rx="7.98981" ry="10.7204" transform="rotate(10.503 438.286 209.456)" fill="#D9D9D9"/>
<ellipse cx="369" cy="270.5" rx="35" ry="27.5" fill="#4A2932"/>
<path fill-rule="evenodd" clip-rule="evenodd" d="M227.163 178.94C223.807 180.818 220.132 182.181 215.138 183.363C211.777 184.159 208.656 187.012 208.167 189.736C207.679 192.46 210.008 194.023 213.37 193.227C219.416 191.796 224.936 189.891 230.473 186.793C235.988 183.708 241.026 179.717 246.342 174.616C248.987 172.078 249.403 168.992 247.272 167.722C245.14 166.452 241.268 167.48 238.623 170.018C234.099 174.359 230.542 177.05 227.163 178.94Z" fill="#4A2932"/>
<path fill-rule="evenodd" clip-rule="evenodd" d="M461.988 176.657C458.752 174.577 455.822 171.975 452.43 168.124C450.147 165.531 446.162 164.118 443.528 164.967C440.895 165.817 440.61 168.608 442.893 171.2C446.999 175.864 451.275 179.84 456.613 183.27C461.929 186.688 467.819 189.257 474.821 191.551C478.305 192.692 481.224 191.608 481.343 189.13C481.461 186.651 478.733 183.717 475.25 182.576C469.292 180.624 465.244 178.75 461.988 176.657Z" fill="#4A2932"/>
<path d="M177.929 268.001C192.679 267.895 208 279.889 208 290.589C208 301.288 192.393 312.416 177.929 311.988C163.26 311.554 147.911 302.671 149.061 288.211C150.143 274.598 164.114 268.099 177.929 268.001Z" fill="#F89A81"/>
<path d="M517.756 268.001C532.91 267.899 540 276.028 540 286.348C540 296.667 526.5 307.401 511.64 306.988C496.57 306.57 486.916 296.854 488.098 282.908C489.21 269.778 503.563 268.096 517.756 268.001Z" fill="#F89A81"/>
<path d="M216 255.58C216 249.58 260.526 246.826 257.5 255.58C254.474 264.334 245.259 264.329 236 264.08C224.813 263.779 216 266.771 216 255.58Z" fill="#879FD4"/>
<path d="M440 252.58C440 246.58 484.526 243.826 481.5 252.58C478.474 261.334 469.259 261.329 460 261.08C448.813 260.779 440 263.771 440 252.58Z" fill="#879FD4"/>
<path d="M370 275V310.5M370 310.5C363 321.5 350 343.5 320.5 343.5M370 310.5C385.5 337 405.5 344 425 341.5" stroke="#4A2932" stroke-width="8" stroke-linecap="round" stroke-linejoin="round"/>
<path d="M232.588 320.834C237.949 303.397 242.232 292.937 248.531 276.53C249.156 274.901 250.342 273.541 251.874 272.705C253.848 271.629 256.207 271.517 258.273 272.403L258.692 272.582C260.802 273.487 262.445 275.234 263.218 277.395C269.603 295.25 273.648 307.432 278.196 323.066C280.73 331.777 281.144 341.619 275.85 348.986C272.872 353.13 269.216 355.827 263.932 357.574C258.206 359.467 251.878 358.919 246.415 356.364C240.768 353.724 236.87 350.274 233.748 344.728C229.69 337.517 230.156 328.744 232.588 320.834Z" fill="#879FD4"/>
</svg>
