<svg width="569" height="474" viewBox="0 0 569 474" fill="none" xmlns="http://www.w3.org/2000/svg">
<path d="M140 52.7293C140 52.7293 114.131 -3.3787 66.9568 33.6287C19.783 70.6361 63.3046 116 63.3046 116L140 52.7293Z" fill="#BA6958"/>
<path d="M120 64.3617C120 64.3617 107.474 38.9654 84.6317 55.7161C61.7896 72.4668 82.8633 93 82.8633 93L120 64.3617Z" fill="#5B3236"/>
<path d="M400 41.8604C400 41.8604 426.856 3.26286 462.257 31.0723C497.658 58.8818 465.919 97 465.919 97L400 41.8604Z" fill="#BA6958"/>
<path d="M417 57.7089C417 57.7089 428.959 37.9451 448.766 49.7719C468.572 61.5988 450.354 84 450.354 84L417 57.7089Z" fill="#5B3236"/>
<path d="M346.917 473.741C346.917 473.741 547.631 464.813 567.097 364.065C574.317 326.703 561.076 273.673 525.928 255.595C487.637 235.899 472.785 238.309 433.356 244.708C412.341 248.118 384.345 252.661 342.097 255.595C281.07 259.832 236.125 254.341 199.033 249.809C162.27 245.318 133.222 241.769 103.876 249.568C12.5221 290.696 6.10883 364.279 80.2174 420.893C92.9914 430.192 107.727 438.984 125.636 448.375C219.108 478.379 346.917 473.741 346.917 473.741Z" fill="#F7B9A2"/>
<path d="M220.583 15.6011C81.9021 37.9628 -37.9039 218.031 11.2307 339.961C33.3524 377.342 51.9971 400.352 80.2174 420.893C6.10883 364.279 12.5221 290.696 103.876 249.568C133.222 241.769 162.27 245.318 199.033 249.809C236.125 254.341 281.07 259.832 342.097 255.595C384.345 252.661 412.341 248.118 433.356 244.708C472.785 238.309 487.637 235.899 525.928 255.595C524.893 250.502 522.577 239.254 521.376 233.901C493.971 109.833 448.323 53.4495 372.183 29.3722C366.303 19.9171 355.339 15.6011 346.917 15.6011C335.375 15.998 327.553 16.9822 322.012 18.4168C319.824 18.1112 317.616 17.8209 315.389 17.5451C315.88 17.1608 316.372 16.7787 316.862 16.398C323.05 11.5922 328.927 7.02759 330.072 1.29083C330.652 -1.61216 302.845 -0.569122 280.862 14.4678C278.842 14.3484 276.808 14.2374 274.759 14.1344C279.379 10.926 284.64 8.1663 285.555 2.49516C286.514 -3.45372 239.849 5.74762 220.583 15.6011Z" fill="#BA6958"/>
<path d="M353.333 373.692C333.499 370.054 341.666 322.763 341.666 322.763L372 307V366.416C372 366.416 364.822 375.799 353.333 373.692Z" fill="#F5F5F5"/>
<path d="M385.651 375C406.407 375 400.098 320.357 400.098 320.357L370 307V367.714C370 367.714 373.612 375 385.651 375Z" fill="#EBEBEB"/>
<path d="M325.499 305.988C329.172 287.5 366.966 261 366.966 261C366.966 261 410.316 286.32 412.5 305.988C414 319.5 408 325.5 400 327C386.309 329.567 371.5 320.5 371.5 320.5C371.5 320.5 348 328.5 338.5 328.5C332.5 328.5 322.318 322 325.499 305.988Z" fill="#F5F5F5"/>
<ellipse cx="234.5" cy="226.5" rx="25.5" ry="33.5" fill="#5B3236"/>
<ellipse cx="217.554" cy="211.865" rx="7.98981" ry="10.7204" transform="rotate(10.503 217.554 211.865)" fill="#D9D9D9"/>
<ellipse cx="455" cy="223.5" rx="25" ry="33.5" fill="#5B3236"/>
<ellipse cx="438.287" cy="209.456" rx="7.98981" ry="10.7204" transform="rotate(10.503 438.287 209.456)" fill="#D9D9D9"/>
<path d="M372 287V321M372 321L334 326.5M372 321L406.5 326.5" stroke="#4A2932" stroke-width="6" stroke-linecap="round" stroke-linejoin="round"/>
<ellipse cx="369" cy="270.5" rx="35" ry="27.5" fill="#4A2932"/>
<path d="M177.929 268.001C192.679 267.895 208 279.889 208 290.589C208 301.288 192.393 312.416 177.929 311.988C163.26 311.554 147.911 302.671 149.061 288.211C150.143 274.598 164.114 268.099 177.929 268.001Z" fill="#F89A81"/>
<path d="M500.756 260.001C515.91 259.899 523 268.028 523 278.348C523 288.667 509.5 299.401 494.64 298.988C479.57 298.57 469.916 288.854 471.098 274.908C472.21 261.778 486.563 260.096 500.756 260.001Z" fill="#F89A81"/>
<path fill-rule="evenodd" clip-rule="evenodd" d="M523.184 246.839C520.537 237.367 516.844 230.194 512 226.382L516.043 221C522.603 226.162 526.795 235.077 529.561 244.972C532.358 254.976 533.85 266.559 534.616 277.713C535.833 295.461 535.226 312.681 534.932 321.013C534.857 323.113 534.803 324.649 534.803 325.485C534.803 326.222 534.791 327.28 534.776 328.615C534.697 335.601 534.532 350.176 535.549 366.087C536.155 375.555 537.176 385.415 538.865 394.344C540.565 403.327 542.896 411.114 546 416.596L540.262 420C536.607 413.547 534.104 404.888 532.354 395.634C530.592 386.326 529.547 376.159 528.931 366.53C527.894 350.309 528.065 335.386 528.144 328.472C528.159 327.184 528.171 326.174 528.171 325.485C528.171 324.453 528.232 322.701 528.313 320.371C528.612 311.81 529.183 295.436 527.999 278.188C527.249 267.259 525.801 256.201 523.184 246.839Z" fill="black"/>
<path fill-rule="evenodd" clip-rule="evenodd" d="M454 287C487.137 287 514 258.794 514 224C514 189.206 487.137 161 454 161C420.863 161 394 189.206 394 224C394 258.794 420.863 287 454 287ZM454 275C480.51 275 502 252.167 502 224C502 195.833 480.51 173 454 173C427.49 173 406 195.833 406 224C406 252.167 427.49 275 454 275Z" fill="black"/>
<path d="M502 224C502 252.167 480.51 275 454 275C427.49 275 406 252.167 406 224C406 195.833 427.49 173 454 173C480.51 173 502 195.833 502 224Z" fill="#FCFCFC" fill-opacity="0.42"/>
<path d="M523 209L511.75 206L508 245L523 239V209Z" fill="black"/>
<path fill-rule="evenodd" clip-rule="evenodd" d="M449.802 139.047C453.274 139.842 456.899 140.087 461.657 139.811C464.859 139.626 468.369 141.368 469.496 143.704C470.623 146.039 468.941 148.083 465.738 148.268C459.979 148.602 454.569 148.365 448.84 147.052C443.135 145.744 437.626 143.488 431.586 140.301C428.581 138.715 427.427 136.032 429.007 134.307C430.587 132.582 434.304 132.47 437.309 134.055C442.449 136.767 446.306 138.246 449.802 139.047Z" fill="#4A2932"/>
<path fill-rule="evenodd" clip-rule="evenodd" d="M232.781 137.097C236.626 136.927 240.632 137.368 245.88 138.574C249.413 139.385 253.313 138.226 254.592 135.984C255.871 133.742 254.044 131.267 250.511 130.455C244.158 128.995 238.182 128.204 231.839 128.483C225.521 128.762 219.406 130.078 212.691 132.271C209.351 133.362 208.036 135.965 209.755 138.085C211.474 140.205 215.576 141.039 218.916 139.948C224.631 138.082 228.911 137.267 232.781 137.097Z" fill="#4A2932"/>
</svg>
