<svg width="35" height="35" viewBox="0 0 35 35" fill="none" xmlns="http://www.w3.org/2000/svg">
<path fill-rule="evenodd" clip-rule="evenodd" d="M3 3V12H12V3H3ZM0.790812 0.790812C1.29716 0.284464 1.98391 0 2.7 0H12.3C13.0161 0 13.7028 0.284462 14.2092 0.790812C14.7155 1.29716 15 1.98392 15 2.7V12.3C15 13.0161 14.7155 13.7028 14.2092 14.2092C13.7028 14.7155 13.0161 15 12.3 15H2.7C1.98392 15 1.29716 14.7155 0.790812 14.2092C0.284462 13.7028 0 13.0161 0 12.3V2.7C0 1.98391 0.284464 1.29716 0.790812 0.790812ZM23 3V12H32V3H23ZM20.7908 0.790812C21.2972 0.284462 21.9839 0 22.7 0H32.3C33.0161 0 33.7028 0.284462 34.2092 0.790812C34.7155 1.29716 35 1.98392 35 2.7V12.3C35 13.0161 34.7155 13.7028 34.2092 14.2092C33.7028 14.7155 33.0161 15 32.3 15H22.7C21.9839 15 21.2972 14.7155 20.7908 14.2092C20.2845 13.7028 20 13.0161 20 12.3V2.7C20 1.98392 20.2845 1.29716 20.7908 0.790812ZM3 23V32H12V23H3ZM0.790812 20.7908C1.29716 20.2845 1.98392 20 2.7 20H12.3C13.0161 20 13.7028 20.2845 14.2092 20.7908C14.7155 21.2972 15 21.9839 15 22.7V32.3C15 33.0161 14.7155 33.7028 14.2092 34.2092C13.7028 34.7155 13.0161 35 12.3 35H2.7C1.98392 35 1.29716 34.7155 0.790812 34.2092C0.284462 33.7028 0 33.0161 0 32.3V22.7C0 21.9839 0.284462 21.2972 0.790812 20.7908ZM27.484 20C28.3124 20 28.984 20.6716 28.984 21.5V26H33.484C34.3124 26 34.984 26.6716 34.984 27.5C34.984 28.3284 34.3124 29 33.484 29H28.984V33.5C28.984 34.3284 28.3124 35 27.484 35C26.6556 35 25.984 34.3284 25.984 33.5V29H21.484C20.6556 29 19.984 28.3284 19.984 27.5C19.984 26.6716 20.6556 26 21.484 26H25.984V21.5C25.984 20.6716 26.6556 20 27.484 20Z" fill="#8F8F8F"/>
</svg>
